<svg xmlns="http://www.w3.org/2000/svg" viewBox="0 0 1521.06 1080"><defs><style>.cls-1,.cls-4{fill:#fff;}.cls-2,.cls-8{fill:#d380be;}.cls-3{fill:#cbccea;}.cls-10,.cls-11,.cls-14,.cls-16,.cls-17,.cls-18,.cls-4,.cls-5,.cls-6,.cls-8,.cls-9{fill-rule:evenodd;}.cls-5,.cls-7{fill:#6558f5;}.cls-15,.cls-6{fill:#70c0fd;}.cls-13,.cls-9{fill:#dc827b;}.cls-10,.cls-19{fill:#d1594f;}.cls-11{fill:#030317;}.cls-12{fill:#2b2a29;}.cls-14{fill:#004bb3;}.cls-16{fill:#c3dff3;}.cls-17{fill:#9cbbd2;}.cls-18{fill:#f6dedc;}</style></defs><g id="Calque_2" data-name="Calque 2"><rect class="cls-1" width="1521.06" height="1080"/></g><g id="Calque_1" data-name="Calque 1"><rect class="cls-2" x="228.49" y="970.24" width="1292.57" height="108.78"/><rect class="cls-1" x="274.55" y="461.68" width="1174.43" height="10.59"/><rect class="cls-3" x="274.55" y="295.89" width="1174.43" height="165.79"/><rect class="cls-1" x="274.55" y="285.3" width="1174.43" height="10.59"/><rect class="cls-3" x="274.55" y="119.51" width="1174.43" height="165.79"/><rect class="cls-1" x="274.55" y="108.92" width="1174.43" height="10.59"/><rect class="cls-2" x="1204.32" y="199.59" width="55.68" height="15.01" rx="3.59"/><path class="cls-4" d="M1212.52,199.59H1215l-.06,15h-2.52l.06-15Zm12.77,0h2.52l-.06,15h-2.52l.06-15Zm13.09,0h2.52l-.06,15h-2.52l.06-15Zm12.29,0h2.52l0,15h-2.53Z"/><path class="cls-5" d="M1200.52,217.45h63.28c4,0,7.2,2,7.2,4.36v59.1c0,2.4-3.24,4.36-7.2,4.36h-63.28c-4,0-7.21-2-7.21-4.36v-59.1C1193.31,219.41,1196.55,217.45,1200.52,217.45Z"/><path class="cls-6" d="M1206,224.61h52.38c2.06,0,3.74,1,3.74,2.27v49c0,1.25-1.68,2.27-3.74,2.27H1206c-2.07,0-3.75-1-3.75-2.27v-49C1202.22,225.63,1203.9,224.61,1206,224.61Z"/><path class="cls-4" d="M1215,245.52h11.3V234.19a2.79,2.79,0,0,1,2.78-2.79h6.09a2.79,2.79,0,0,1,2.78,2.79v11.33h11.31a2.8,2.8,0,0,1,2.78,2.79v6.1a2.8,2.8,0,0,1-2.79,2.79H1238v11.34a2.8,2.8,0,0,1-2.78,2.79h-6.08a2.8,2.8,0,0,1-2.79-2.79V257.2H1215a2.79,2.79,0,0,1-2.78-2.79v-6.1A2.79,2.79,0,0,1,1215,245.52Z"/><rect class="cls-7" x="1207.93" y="214.6" width="48.42" height="2.85"/><path class="cls-8" d="M1107.22,199.59h48.49a3.61,3.61,0,0,1,3.6,3.6V211a3.61,3.61,0,0,1-3.6,3.6h-48.49a3.6,3.6,0,0,1-3.59-3.6v-7.81A3.6,3.6,0,0,1,1107.22,199.59Z"/><path class="cls-4" d="M1111.83,199.59h2.52l-.06,15h-2.52l.06-15Zm12.76,0h2.52l0,15h-2.52l0-15Zm13.1,0h2.52l-.06,15h-2.52l.06-15Zm12.29,0h2.52l-.06,15h-2.52Z"/><path class="cls-5" d="M1099.82,217.45h63.29c4,0,7.2,2,7.2,4.36v59.1c0,2.4-3.24,4.36-7.2,4.36h-63.29c-4,0-7.2-2-7.2-4.36v-59.1C1092.62,219.41,1095.86,217.45,1099.82,217.45Z"/><path class="cls-6" d="M1105.28,224.61h52.38c2.06,0,3.74,1,3.74,2.27v49c0,1.25-1.68,2.27-3.74,2.27h-52.38c-2.07,0-3.75-1-3.75-2.27v-49C1101.53,225.63,1103.21,224.61,1105.28,224.61Z"/><path class="cls-4" d="M1114.34,245.52h11.3V234.19a2.79,2.79,0,0,1,2.78-2.79h6.09a2.79,2.79,0,0,1,2.78,2.79v11.33h11.3a2.79,2.79,0,0,1,2.78,2.79v6.1a2.79,2.79,0,0,1-2.78,2.79h-11.3v11.34a2.8,2.8,0,0,1-2.78,2.79h-6.09a2.8,2.8,0,0,1-2.78-2.79V257.2h-11.3a2.79,2.79,0,0,1-2.78-2.79v-6.1A2.79,2.79,0,0,1,1114.34,245.52Z"/><rect class="cls-7" x="1107.24" y="214.6" width="48.41" height="2.85"/><path class="cls-8" d="M989.15,199.61h48.5a3.6,3.6,0,0,1,3.59,3.6V211a3.6,3.6,0,0,1-3.59,3.6h-48.5a3.61,3.61,0,0,1-3.59-3.6v-7.81A3.61,3.61,0,0,1,989.15,199.61Z"/><path class="cls-4" d="M993.77,199.61h2.52l-.06,15h-2.52l.06-15Zm12.76,0h2.52l-.06,15h-2.52l.06-15Zm13.09,0h2.52l0,15h-2.52l0-15Zm12.3,0h2.52l-.06,15h-2.52Z"/><path class="cls-5" d="M981.76,217.47H1045c4,0,7.21,2,7.21,4.37v59.09c0,2.4-3.25,4.37-7.21,4.37H981.76c-4,0-7.2-2-7.2-4.37V221.84C974.56,219.44,977.8,217.47,981.76,217.47Z"/><path class="cls-6" d="M987.21,224.64h52.38c2.06,0,3.75,1,3.75,2.27v49c0,1.25-1.69,2.28-3.75,2.28H987.21c-2.06,0-3.75-1-3.75-2.28v-49C983.47,225.66,985.15,224.64,987.21,224.64Z"/><path class="cls-4" d="M996.27,245.54h11.31V234.21a2.8,2.8,0,0,1,2.78-2.79h6.08a2.8,2.8,0,0,1,2.79,2.79v11.33h11.3a2.8,2.8,0,0,1,2.78,2.8v6.1a2.8,2.8,0,0,1-2.78,2.79h-11.3v11.33a2.8,2.8,0,0,1-2.79,2.79h-6.08a2.79,2.79,0,0,1-2.78-2.79V257.23H996.27a2.8,2.8,0,0,1-2.78-2.79v-6.1A2.8,2.8,0,0,1,996.27,245.54Z"/><rect class="cls-7" x="989.18" y="214.62" width="48.41" height="2.85"/><rect class="cls-1" x="1299.51" y="245.15" width="125.59" height="40.12"/><path class="cls-9" d="M1299.51,245.15H1402c-20.64,7.36-53.65,19.38-60.22,33.67a17.74,17.74,0,0,0-.78,6.45h-41.44Z"/><path class="cls-10" d="M1330,285.27c-8.82-12.42,10-31.28,32.18-40.12h-62.71v40.12Z"/><path class="cls-7" d="M1355.6,281a2.41,2.41,0,0,1-2.36,2.51h-1.55a.51.51,0,0,1-.51-.53v-5.27a.53.53,0,0,1,.51-.53h1.55a2.41,2.41,0,0,1,2.36,2.51Zm-1.31-1.33a1.12,1.12,0,0,0-1.08-1.15h-.72v3.65h.72a1.13,1.13,0,0,0,1.08-1.16Z"/><path class="cls-7" d="M1361.57,281.28a2.27,2.27,0,1,1-4.54,0V279.5a2.27,2.27,0,1,1,4.54,0Zm-1.31-1.78a1,1,0,1,0-1.92,0v1.78a1,1,0,1,0,1.92,0Z"/><path class="cls-7" d="M1363.94,277.22a.33.33,0,0,1,.34.35v4.64H1366a.35.35,0,0,1,.34.36v.63a.34.34,0,0,1-.34.35h-2.47a.52.52,0,0,1-.51-.53v-5.45a.33.33,0,0,1,.34-.35Z"/><path class="cls-7" d="M1371.64,281.28a2.28,2.28,0,1,1-4.55,0V279.5a2.28,2.28,0,1,1,4.55,0Zm-1.31-1.78a1,1,0,0,0-1-1.05,1,1,0,0,0-1,1.05v1.78a1,1,0,0,0,1,1.05,1,1,0,0,0,1-1.05Z"/><path class="cls-7" d="M1375.91,281l1.2,2a.38.38,0,0,1,.05.21.34.34,0,0,1-.35.35h-.65a.41.41,0,0,1-.35-.19l-1.26-2.16h-.13v2a.34.34,0,0,1-.34.35h-.63a.34.34,0,0,1-.34-.35v-5.45a.48.48,0,0,1,.15-.37.46.46,0,0,1,.36-.16h1.49a2,2,0,0,1,.8,3.8Zm-1.49-2.49v1.36h.64a.68.68,0,0,0,0-1.36Z"/><path class="cls-7" d="M1383,281.77c0-.35-.17-.44-.91-.75l-.23-.11a1.92,1.92,0,0,1-1.38-1.89,1.82,1.82,0,0,1,1.89-1.9,2.78,2.78,0,0,1,1.68.58.36.36,0,0,1,.11.43l-.26.53a.36.36,0,0,1-.31.21.31.31,0,0,1-.2-.07h0a1.83,1.83,0,0,0-1-.37.53.53,0,0,0-.6.55c0,.28.14.49.85.81a4,4,0,0,1,.54.23,1.77,1.77,0,0,1,1.14,1.69,2,2,0,0,1-2,2,2.87,2.87,0,0,1-1.71-.6.36.36,0,0,1-.11-.43l.28-.52a.35.35,0,0,1,.3-.21.56.56,0,0,1,.21.06h0a1.83,1.83,0,0,0,1,.37C1382.72,282.35,1383,282.13,1383,281.77Z"/><path class="cls-7" d="M1388,277.17a.36.36,0,0,1,.34.37v.57a.34.34,0,0,1-.34.36h-.51v3.78h.51a.35.35,0,0,1,.34.37v.58a.34.34,0,0,1-.34.35h-2.33a.34.34,0,0,1-.34-.35v-.58a.35.35,0,0,1,.34-.37h.51v-3.78h-.51a.34.34,0,0,1-.34-.36v-.57a.36.36,0,0,1,.34-.37Z"/><path class="cls-7" d="M1393.64,278.19a.36.36,0,0,1-.34.37h-1.16v4.64a.34.34,0,0,1-.34.35h-.63a.33.33,0,0,1-.34-.35v-4.64h-1.16a.36.36,0,0,1-.34-.37v-.62a.33.33,0,0,1,.34-.35h3.63a.33.33,0,0,1,.34.35Z"/><path class="cls-7" d="M1401.67,283.05a.57.57,0,0,1,0,.13.35.35,0,0,1-.36.37h-.57a.42.42,0,0,1-.41-.32l-.32-1.07h-1.61l-.32,1.07a.42.42,0,0,1-.41.32h-.55a.35.35,0,0,1-.36-.37.57.57,0,0,1,0-.13l1.73-5.56a.41.41,0,0,1,.41-.32h.61a.42.42,0,0,1,.41.32Zm-2.45-3.64-.43,1.45h.85Z"/><path class="cls-7" d="M1404.53,280.05l-.33,3.15a.41.41,0,0,1-.39.35h-.59a.33.33,0,0,1-.26-.1.37.37,0,0,1-.09-.3l.66-5.55a.42.42,0,0,1,.43-.4h.73a.41.41,0,0,1,.41.31l1.19,3.85,1.19-3.85a.41.41,0,0,1,.41-.31h.66a.42.42,0,0,1,.44.4l.66,5.55a.46.46,0,0,1-.08.3.36.36,0,0,1-.27.1h-.61a.38.38,0,0,1-.39-.35L1408,280l-1,3.26a.43.43,0,0,1-.41.32h-.61a.42.42,0,0,1-.4-.3Z"/><path class="cls-7" d="M1412.52,278.56v1.06h1.38a.33.33,0,0,1,.34.35v.61a.33.33,0,0,1-.34.33h-1.38v1.3h1.9a.36.36,0,0,1,.35.36v.63a.34.34,0,0,1-.35.35h-2.7a.51.51,0,0,1-.51-.53v-5.27a.48.48,0,0,1,.15-.37.46.46,0,0,1,.36-.16h2.7a.34.34,0,0,1,.35.35v.62a.36.36,0,0,1-.35.37Z"/><path class="cls-7" d="M1420.15,278.19a.36.36,0,0,1-.34.37h-1.17v4.64a.34.34,0,0,1-.33.35h-.63a.34.34,0,0,1-.35-.35v-4.64h-1.16a.36.36,0,0,1-.34-.37v-.62a.33.33,0,0,1,.34-.35h3.64a.34.34,0,0,1,.34.35Z"/><path class="cls-5" d="M439.07,236.13h0a5.69,5.69,0,0,1-7.41,3.12l-10-4.1,4.3-10.55,10,4.11A5.71,5.71,0,0,1,439.07,236.13Z"/><path class="cls-9" d="M421.63,235.15l-10-4.11a5.71,5.71,0,0,1-3.12-7.42h0a5.69,5.69,0,0,1,7.41-3.12l10,4.1Z"/><path class="cls-8" d="M421.46,239.56a11.32,11.32,0,1,0,15.86-2.84A11.47,11.47,0,0,0,421.46,239.56Z"/><path class="cls-6" d="M437.2,252.43l-14.5-10.58c-.32-.24-.25-.89.15-1.46s1-.84,1.32-.6l14.5,10.58c.32.24.25.89-.15,1.46S437.52,252.67,437.2,252.43Z"/><path class="cls-8" d="M402.67,270.59c3.76,5.09,8.14,8.27,9.74,7.08s-.18-6.31-3.94-11.4-8.15-8.27-9.75-7.08S398.9,265.5,402.67,270.59Z"/><path class="cls-6" d="M394.61,262.26c-1.61,1.19.16,6.29,3.94,11.4s8.14,8.27,9.74,7.07l4.12-3.06c-1.6,1.19-6-2-9.74-7.08s-5.55-10.2-3.95-11.4Z"/><path class="cls-6" d="M400.86,260.75l10.58,14.51a.72.72,0,0,1-1.17.85L399.69,261.6a.72.72,0,1,1,1.17-.85Z"/><path class="cls-11" d="M399.88,261.46l9.7,13.15a.23.23,0,0,1-.05.33.25.25,0,0,1-.33-.05l-9.7-13.15a.24.24,0,0,1,.05-.33A.25.25,0,0,1,399.88,261.46Z"/><path class="cls-5" d="M417.34,228.83h0a5.72,5.72,0,0,1,2.77,7.56l-4.53,9.86-10.32-4.77,4.54-9.86A5.69,5.69,0,0,1,417.34,228.83Z"/><path class="cls-9" d="M415.58,246.25,411,256.11a5.68,5.68,0,0,1-7.53,2.79h0a5.72,5.72,0,0,1-2.78-7.56l4.53-9.86Z"/><path class="cls-4" d="M441.57,198a6.43,6.43,0,0,1,5.15,6.29v74.56a6.42,6.42,0,0,1-6.4,6.41H395.73a6.42,6.42,0,0,1-6.4-6.41V204.3a6.44,6.44,0,0,1,5.15-6.29h0c9.88-2,8.27-7.69,8.27-11.72L418,187.74l15.27-1.45c0,4-1.6,9.68,8.28,11.72Zm-1,4.58c-4.77-1-9.35-3.18-11.2-8l0-.05h0a13.59,13.59,0,0,1-.73-3.31l-10.15-.68a4.31,4.31,0,0,1-.88,0l-10.16.68a13.1,13.1,0,0,1-.72,3.31h0l0,.05c-1.86,4.83-6.43,7-11.2,8l-.09,0A1.74,1.74,0,0,0,394,204.3v74.56a1.74,1.74,0,0,0,1.71,1.72h44.59a1.74,1.74,0,0,0,1.72-1.72V204.3a1.75,1.75,0,0,0-1.39-1.69Z"/><path class="cls-6" d="M402.49,173.49h32a2.48,2.48,0,0,1,2.47,2.48v12.67a2.48,2.48,0,0,1-2.47,2.48h-32a2.49,2.49,0,0,1-2.48-2.48V176A2.49,2.49,0,0,1,402.49,173.49Z"/><path class="cls-5" d="M437.9,274.84h0a5.69,5.69,0,0,1-7.06-3.83l-3.1-10.41,10.89-3.25,3.09,10.41A5.7,5.7,0,0,1,437.9,274.84Z"/><path class="cls-9" d="M427.74,260.6l-3.09-10.41a5.71,5.71,0,0,1,3.82-7.08h0a5.68,5.68,0,0,1,7.07,3.83l3.09,10.41Z"/><path class="cls-8" d="M428,275.43c6.32,0,11.48-1.63,11.48-3.63s-5.16-3.62-11.48-3.62-11.48,1.63-11.48,3.62S421.66,275.43,428,275.43Z"/><path class="cls-6" d="M416.5,276.94c0,2,5.14,3.63,11.48,3.63s11.48-1.62,11.48-3.63V271.8c0,2-5.14,3.63-11.48,3.63s-11.48-1.63-11.48-3.63Z"/><path class="cls-6" d="M419,271l17.93.14a.73.73,0,0,1,.72.73.74.74,0,0,1-.73.72L419,272.46a.73.73,0,0,1,0-1.45Z"/><path class="cls-8" d="M423.17,247.53A11.33,11.33,0,1,0,427.86,263,11.41,11.41,0,0,0,423.17,247.53Z"/><path class="cls-6" d="M412.29,264.72,421.05,249c.2-.35.86-.36,1.46,0s.95.89.76,1.24l-8.77,15.68c-.2.35-.85.36-1.46,0S412.09,265.07,412.29,264.72Z"/><path class="cls-5" d="M395.27,257.53h0a5.69,5.69,0,0,1,8-.84l8.41,6.85-7.16,8.84-8.41-6.84A5.72,5.72,0,0,1,395.27,257.53Z"/><path class="cls-9" d="M411.67,263.54l8.41,6.85a5.71,5.71,0,0,1,.83,8h0a5.69,5.69,0,0,1-8,.83l-8.41-6.85Z"/><path class="cls-5" d="M365.16,236.13h0a5.68,5.68,0,0,1-7.4,3.12l-10-4.1L352,224.6l10,4.11A5.71,5.71,0,0,1,365.16,236.13Z"/><path class="cls-9" d="M347.73,235.15l-10-4.11a5.71,5.71,0,0,1-3.11-7.42h0a5.68,5.68,0,0,1,7.4-3.12l10,4.1Z"/><path class="cls-8" d="M347.56,239.56a11.31,11.31,0,1,0,15.85-2.84A11.46,11.46,0,0,0,347.56,239.56Z"/><path class="cls-6" d="M363.29,252.43,348.8,241.85c-.33-.24-.26-.89.15-1.46s1-.84,1.31-.6l14.5,10.58c.32.24.26.89-.15,1.46S363.62,252.67,363.29,252.43Z"/><path class="cls-8" d="M328.76,270.59c3.77,5.09,8.14,8.27,9.74,7.08s-.17-6.31-3.94-11.4-8.15-8.27-9.75-7.08S325,265.5,328.76,270.59Z"/><path class="cls-6" d="M320.7,262.26c-1.6,1.19.16,6.29,3.94,11.4s8.14,8.27,9.75,7.07l4.11-3.06c-1.6,1.19-6-2-9.74-7.08s-5.55-10.2-3.95-11.4Z"/><path class="cls-6" d="M327,260.75l10.58,14.51a.72.72,0,1,1-1.16.85L325.78,261.6a.73.73,0,0,1,.16-1A.71.71,0,0,1,327,260.75Z"/><path class="cls-11" d="M326,261.46l9.7,13.15a.24.24,0,0,1,0,.33.25.25,0,0,1-.33-.05l-9.71-13.15a.24.24,0,0,1,.38-.28Z"/><path class="cls-5" d="M343.43,228.83h0a5.72,5.72,0,0,1,2.78,7.56l-4.54,9.86-10.31-4.77,4.53-9.86A5.69,5.69,0,0,1,343.43,228.83Z"/><path class="cls-9" d="M341.67,246.25l-4.54,9.86a5.68,5.68,0,0,1-7.53,2.79h0a5.72,5.72,0,0,1-2.78-7.56l4.54-9.86Z"/><path class="cls-4" d="M367.67,198a6.44,6.44,0,0,1,5.14,6.29v74.56a6.42,6.42,0,0,1-6.4,6.41H321.83a6.42,6.42,0,0,1-6.4-6.41V204.3a6.44,6.44,0,0,1,5.14-6.29h0c9.88-2,8.27-7.69,8.27-11.72l15.28,1.45,15.28-1.45c0,4-1.61,9.68,8.27,11.72Zm-1,4.58c-4.77-1-9.34-3.18-11.2-8l0-.05h0a13.1,13.1,0,0,1-.72-3.31l-10.16-.68a4.31,4.31,0,0,1-.88,0l-10.16.68a13.1,13.1,0,0,1-.72,3.31h0l0,.05c-1.86,4.83-6.43,7-11.2,8l-.09,0a1.74,1.74,0,0,0-1.38,1.69v74.56a1.74,1.74,0,0,0,1.72,1.72h44.58a1.74,1.74,0,0,0,1.72-1.72V204.3a1.74,1.74,0,0,0-1.38-1.69Z"/><path class="cls-6" d="M328.58,173.49h32A2.49,2.49,0,0,1,363,176v12.67a2.49,2.49,0,0,1-2.48,2.48h-32a2.48,2.48,0,0,1-2.47-2.48V176A2.48,2.48,0,0,1,328.58,173.49Z"/><path class="cls-5" d="M364,274.84h0a5.69,5.69,0,0,1-7.06-3.83l-3.09-10.41,10.88-3.25,3.1,10.41A5.71,5.71,0,0,1,364,274.84Z"/><path class="cls-9" d="M353.84,260.6l-3.1-10.41a5.71,5.71,0,0,1,3.83-7.08h0a5.68,5.68,0,0,1,7.06,3.83l3.09,10.41Z"/><path class="cls-8" d="M354.07,275.43c6.32,0,11.48-1.63,11.48-3.63s-5.16-3.62-11.48-3.62-11.47,1.63-11.47,3.62S347.75,275.43,354.07,275.43Z"/><path class="cls-6" d="M342.6,276.94c0,2,5.13,3.63,11.47,3.63s11.48-1.62,11.48-3.63V271.8c0,2-5.14,3.63-11.48,3.63s-11.47-1.63-11.47-3.63Z"/><path class="cls-6" d="M345.11,271l17.93.14a.73.73,0,0,1,0,1.45l-17.93-.14a.73.73,0,0,1,0-1.45Z"/><path class="cls-8" d="M349.27,247.53A11.33,11.33,0,1,0,354,263,11.4,11.4,0,0,0,349.27,247.53Z"/><path class="cls-6" d="M338.38,264.72,347.15,249c.19-.35.85-.36,1.46,0s.94.89.75,1.24l-8.77,15.68c-.19.35-.85.36-1.46,0S338.18,265.07,338.38,264.72Z"/><path class="cls-5" d="M321.37,257.53h0a5.69,5.69,0,0,1,8-.84l8.4,6.85-7.15,8.84-8.41-6.84A5.72,5.72,0,0,1,321.37,257.53Z"/><path class="cls-9" d="M337.76,263.54l8.42,6.85a5.72,5.72,0,0,1,.83,8h0a5.69,5.69,0,0,1-8,.83l-8.41-6.85Z"/><path class="cls-5" d="M482.66,285.27H570a6.78,6.78,0,0,0,6.75-6.77V224.86a6.79,6.79,0,0,0-6.75-6.78H482.66a6.79,6.79,0,0,0-6.75,6.78V278.5A6.78,6.78,0,0,0,482.66,285.27Z"/><path class="cls-8" d="M576.74,243.14V224.86a6.71,6.71,0,0,0-6.59-6.78H482.5a6.7,6.7,0,0,0-6.59,6.78v18.28Z"/><rect class="cls-1" x="495.18" y="255.66" width="62.28" height="14.89"/><path class="cls-12" d="M506.33,267.18a.43.43,0,0,1,.11.27.35.35,0,0,1-.08.24h0a2.09,2.09,0,0,1-1.67.79,2.24,2.24,0,0,1-2.14-2.3v-1.7a2.22,2.22,0,0,1,2.14-2.28,2.07,2.07,0,0,1,1.67.76.35.35,0,0,1,.08.24.44.44,0,0,1-.09.27l-.35.39a.33.33,0,0,1-.24.11.34.34,0,0,1-.26-.13,1,1,0,0,0-.81-.37,1,1,0,0,0-.88,1v1.7a1,1,0,0,0,.88,1,1,1,0,0,0,.81-.35.34.34,0,0,1,.26-.13.35.35,0,0,1,.24.11Z"/><path class="cls-12" d="M512.06,266a2.2,2.2,0,1,1-4.37,0v-3.4a.33.33,0,0,1,.33-.34h.6a.33.33,0,0,1,.32.34v3.43c0,.68.37,1.11.94,1.11s.92-.53.92-1.11v-3.43a.33.33,0,0,1,.32-.34h.62a.33.33,0,0,1,.32.34Z"/><path class="cls-12" d="M515.16,265l-.32,3a.39.39,0,0,1-.37.34h-.56a.31.31,0,0,1-.26-.12.37.37,0,0,1-.08-.28l.63-5.31a.42.42,0,0,1,.42-.38h.7a.38.38,0,0,1,.38.3l1.15,3.68,1.14-3.7a.4.4,0,0,1,.39-.28H519a.42.42,0,0,1,.43.38l.63,5.31a.42.42,0,0,1-.08.28.32.32,0,0,1-.25.12h-.6a.38.38,0,0,1-.37-.36l-.33-3-1,3.12a.42.42,0,0,1-.39.3h-.59a.4.4,0,0,1-.38-.28Z"/><path class="cls-12" d="M525.89,266.65c0-.33-.17-.41-.87-.71l-.22-.1a1.85,1.85,0,0,1-1.33-1.81,1.75,1.75,0,0,1,1.81-1.83,2.67,2.67,0,0,1,1.62.56.33.33,0,0,1,.09.41l-.25.51a.31.31,0,0,1-.28.18.46.46,0,0,1-.2-.05h0a1.86,1.86,0,0,0-1-.37.51.51,0,0,0-.57.53c0,.29.12.48.8.78a3.49,3.49,0,0,1,.53.21,1.73,1.73,0,0,1,1.09,1.63,1.85,1.85,0,0,1-1.95,1.89,3,3,0,0,1-1.65-.56.35.35,0,0,1-.09-.42l.27-.51a.3.3,0,0,1,.29-.19.29.29,0,0,1,.19.06h0a1.75,1.75,0,0,0,1,.35C525.61,267.21,525.88,267,525.89,266.65Z"/><path class="cls-12" d="M532.66,266.18a2.18,2.18,0,1,1-4.35,0v-1.7a2.18,2.18,0,1,1,4.35,0Zm-1.25-1.7a.93.93,0,1,0-1.85,0v1.7a.93.93,0,1,0,1.85,0Z"/><path class="cls-12" d="M537.74,267.18a.38.38,0,0,1,.11.27.35.35,0,0,1-.08.24h0a2.11,2.11,0,0,1-1.68.79,2.24,2.24,0,0,1-2.14-2.3v-1.7a2.23,2.23,0,0,1,2.14-2.28,2,2,0,0,1,1.67.76.36.36,0,0,1,.09.24.39.39,0,0,1-.1.27l-.34.39a.33.33,0,0,1-.24.11.35.35,0,0,1-.27-.13,1,1,0,0,0-.8-.37,1,1,0,0,0-.89,1v1.7a1,1,0,0,0,.89,1,1,1,0,0,0,.8-.35.35.35,0,0,1,.26-.13.37.37,0,0,1,.25.11Z"/><path class="cls-12" d="M541.48,262.26a.33.33,0,0,1,.33.34v.56a.33.33,0,0,1-.33.33H541v3.63h.49a.34.34,0,0,1,.33.35V268a.34.34,0,0,1-.33.36h-2.24a.34.34,0,0,1-.32-.36v-.54a.34.34,0,0,1,.32-.35h.49v-3.63h-.49a.32.32,0,0,1-.32-.33v-.56a.33.33,0,0,1,.32-.34Z"/><path class="cls-12" d="M545.17,262.26a.33.33,0,0,1,.33.34v.56a.33.33,0,0,1-.33.33h-.48v3.63h.48a.34.34,0,0,1,.33.35V268a.34.34,0,0,1-.33.36h-2.23a.34.34,0,0,1-.33-.36v-.54a.34.34,0,0,1,.33-.35h.48v-3.63h-.48a.33.33,0,0,1-.33-.33v-.56a.33.33,0,0,1,.33-.34Z"/><path class="cls-12" d="M548.94,266.65c0-.33-.17-.41-.87-.71l-.23-.1a1.85,1.85,0,0,1-1.32-1.81,1.75,1.75,0,0,1,1.81-1.83,2.62,2.62,0,0,1,1.61.56.35.35,0,0,1,.1.41l-.26.51a.29.29,0,0,1-.27.18.42.42,0,0,1-.2-.05h0a1.86,1.86,0,0,0-1-.37.52.52,0,0,0-.58.53c0,.29.13.48.81.78a4.07,4.07,0,0,1,.53.21,1.74,1.74,0,0,1,1.08,1.63,1.85,1.85,0,0,1-1.95,1.89,2.92,2.92,0,0,1-1.64-.56.35.35,0,0,1-.09-.42l.26-.51a.31.31,0,0,1,.29-.19.26.26,0,0,1,.19.06h0a1.78,1.78,0,0,0,1,.35C548.66,267.21,548.93,267,548.94,266.65Z"/><polygon class="cls-10" points="607.27 255.68 640.28 255.68 654.04 152.63 593.51 152.63 607.27 255.68"/><path class="cls-6" d="M607.27,255.68h33V281a4.24,4.24,0,0,1-4.22,4.23H611.49a4.24,4.24,0,0,1-4.22-4.23Z"/><path class="cls-4" d="M611.73,255.68h1.5v29.59h-1.5V255.68Zm7.53,0h1.51v29.59h-1.51V255.68Zm7.53,0h1.5v29.59h-1.5V255.68Zm7.53,0h1.5v29.59h-1.5Z"/><path class="cls-12" d="M607.17,170.59v3.21a.33.33,0,0,1-.33.34h-.54a.33.33,0,0,1-.33-.34v-5.32a.4.4,0,0,1,.39-.42H607a.4.4,0,0,1,.34.21l1.89,3.36v-3.21a.34.34,0,0,1,.32-.36h.55a.33.33,0,0,1,.32.36v5.32a.38.38,0,0,1-.38.4h-.63a.42.42,0,0,1-.35-.2Z"/><path class="cls-12" d="M616.32,173.67s0,.07,0,.11a.34.34,0,0,1-.34.36h-.55a.39.39,0,0,1-.39-.31l-.31-1H613.2l-.3,1a.42.42,0,0,1-.4.31H612a.34.34,0,0,1-.34-.36.37.37,0,0,1,0-.11l1.65-5.35a.4.4,0,0,1,.39-.29h.6a.38.38,0,0,1,.38.29Zm-2.34-3.5-.41,1.39h.8Z"/><path class="cls-12" d="M621.28,169a.34.34,0,0,1-.33.35h-1.11v4.44a.33.33,0,0,1-.33.34h-.6a.33.33,0,0,1-.32-.34v-4.44h-1.11a.34.34,0,0,1-.33-.35v-.59a.33.33,0,0,1,.33-.36H621a.33.33,0,0,1,.33.36Z"/><path class="cls-12" d="M626.56,172a2.18,2.18,0,1,1-4.35,0v-1.71a2.18,2.18,0,1,1,4.35,0Zm-1.25-1.71a.93.93,0,1,0-1.85,0V172a1,1,0,0,0,.92,1,1,1,0,0,0,.93-1Z"/><path class="cls-12" d="M632.22,172a2.31,2.31,0,0,1-.68,1.65l.25.22.15.13c.41.35.58.48.83.48h.39a.33.33,0,0,1,.33.33v.56a.33.33,0,0,1-.33.34h-.4a1.44,1.44,0,0,1-.59-.11,3.35,3.35,0,0,1-1-.61l-.61-.51a.69.69,0,0,0-.56-.21,2.22,2.22,0,0,1-2.18-2.27v-1.72a2.18,2.18,0,1,1,4.36,0Zm-3.1,0a.92.92,0,1,0,1.84,0v-1.72a.92.92,0,1,0-1.84,0Z"/><path class="cls-12" d="M638.2,171.8a2.2,2.2,0,1,1-4.37,0v-3.38a.32.32,0,0,1,.32-.34h.6a.32.32,0,0,1,.33.34v3.43c0,.67.37,1.1.93,1.1s.92-.52.92-1.1v-3.43a.34.34,0,0,1,.33-.34h.62a.33.33,0,0,1,.32.34Z"/><path class="cls-12" d="M641,169.36v1h1.32a.34.34,0,0,1,.33.34v.58a.33.33,0,0,1-.33.33H641v1.25h1.83a.34.34,0,0,1,.33.33v.61a.34.34,0,0,1-.33.34h-2.59a.5.5,0,0,1-.49-.51v-5a.55.55,0,0,1,.14-.37.44.44,0,0,1,.35-.16h2.59a.34.34,0,0,1,.33.36V169a.34.34,0,0,1-.33.35Z"/><path class="cls-4" d="M624.4,231.91c5.36-.73,10.47-3.76,12.31-10.73a14.07,14.07,0,0,0-11.78,8.34c.65-3.09,1.16-6.21,1.5-9.36,5-2,9.26-6.18,9.38-13.39a14.06,14.06,0,0,0-9.06,9.4,87.27,87.27,0,0,0,0-9.43c4.55-3,7.9-7.93,6.55-15.05a14.11,14.11,0,0,0-6.91,10.4c-.24-2.46-.58-4.91-1-7.37a13.93,13.93,0,0,0-3.34-15.58,14.24,14.24,0,0,0,2.44,15.77,95.49,95.49,0,0,1,1.4,12.78,14,14,0,0,0-9.32-9.44c.26,7.08,4.43,11.15,9.39,13.09,0,2.52-.12,5-.36,7.59-.09,1-.2,2-.32,2.94A14.08,14.08,0,0,0,617,210.39c-.55,7.12,3.2,11.66,8,14.14A105.09,105.09,0,0,1,622.67,235,13.78,13.78,0,0,0,615,222.46a14.28,14.28,0,0,0,7.13,14.6c-.24.82-.49,1.65-.74,2.48a.46.46,0,0,0,.31.57.45.45,0,0,0,.57-.3Q623.46,235.88,624.4,231.91Z"/><polygon class="cls-10" points="679.03 255.68 712.04 255.68 725.8 152.63 665.28 152.63 679.03 255.68"/><path class="cls-6" d="M679,255.68h33V281a4.24,4.24,0,0,1-4.22,4.23H683.26A4.24,4.24,0,0,1,679,281Z"/><path class="cls-4" d="M683.49,255.68H685v29.59h-1.51V255.68Zm7.53,0h1.51v29.59H691V255.68Zm7.53,0h1.51v29.59h-1.51V255.68Zm7.53,0h1.51v29.59h-1.51Z"/><path class="cls-12" d="M678.93,170.59v3.21a.32.32,0,0,1-.32.34h-.55a.33.33,0,0,1-.32-.34v-5.32a.4.4,0,0,1,.39-.42h.61a.4.4,0,0,1,.35.21l1.88,3.36v-3.21a.34.34,0,0,1,.33-.36h.55a.33.33,0,0,1,.32.36v5.32a.39.39,0,0,1-.38.4h-.64a.42.42,0,0,1-.34-.2Z"/><path class="cls-12" d="M688.08,173.67a.36.36,0,0,1,0,.11.34.34,0,0,1-.34.36h-.56a.39.39,0,0,1-.38-.31l-.31-1H685l-.31,1a.41.41,0,0,1-.4.31h-.52a.34.34,0,0,1-.35-.36.36.36,0,0,1,0-.11l1.64-5.35a.41.41,0,0,1,.4-.29h.6a.39.39,0,0,1,.38.29Zm-2.34-3.5-.41,1.39h.8Z"/><path class="cls-12" d="M693.05,169a.34.34,0,0,1-.33.35h-1.11v4.44a.34.34,0,0,1-.33.34h-.6a.34.34,0,0,1-.33-.34v-4.44h-1.11a.34.34,0,0,1-.33-.35v-.59a.34.34,0,0,1,.33-.36h3.48a.34.34,0,0,1,.33.36Z"/><path class="cls-12" d="M698.33,172a2.18,2.18,0,1,1-4.36,0v-1.71a2.18,2.18,0,1,1,4.36,0Zm-1.26-1.71a.92.92,0,1,0-1.84,0V172a1,1,0,0,0,.92,1,1,1,0,0,0,.92-1Z"/><path class="cls-12" d="M704,172a2.31,2.31,0,0,1-.68,1.65l.24.22.16.13c.41.35.58.48.83.48h.39a.33.33,0,0,1,.33.33v.56a.34.34,0,0,1-.33.34h-.4a1.41,1.41,0,0,1-.59-.11,3.23,3.23,0,0,1-1-.61l-.62-.51a.67.67,0,0,0-.56-.21,2.22,2.22,0,0,1-2.17-2.27v-1.72a2.18,2.18,0,1,1,4.36,0Zm-3.11,0a.93.93,0,1,0,1.85,0v-1.72a.93.93,0,1,0-1.85,0Z"/><path class="cls-12" d="M710,171.8a2.2,2.2,0,1,1-4.37,0v-3.38a.32.32,0,0,1,.33-.34h.6a.33.33,0,0,1,.33.34v3.43c0,.67.36,1.1.93,1.1s.92-.52.92-1.1v-3.43a.33.33,0,0,1,.33-.34h.61a.32.32,0,0,1,.32.34Z"/><path class="cls-12" d="M712.72,169.36v1H714a.34.34,0,0,1,.33.34v.58a.33.33,0,0,1-.33.33h-1.32v1.25h1.83a.34.34,0,0,1,.32.33v.61a.33.33,0,0,1-.32.34H712a.5.5,0,0,1-.49-.51v-5a.51.51,0,0,1,.15-.37.43.43,0,0,1,.34-.16h2.6a.34.34,0,0,1,.32.36V169a.34.34,0,0,1-.32.35Z"/><path class="cls-4" d="M696.16,231.91c5.36-.73,10.47-3.76,12.32-10.73a14.05,14.05,0,0,0-11.78,8.34q1-4.64,1.49-9.36c5-2,9.27-6.18,9.39-13.39a14,14,0,0,0-9.06,9.4,87.26,87.26,0,0,0,0-9.43c4.56-3,7.9-7.93,6.56-15.05a14.08,14.08,0,0,0-6.91,10.4c-.25-2.46-.59-4.91-1-7.37a13.93,13.93,0,0,0-3.35-15.58,14.26,14.26,0,0,0,2.45,15.77,97.13,97.13,0,0,1,1.39,12.78,14,14,0,0,0-9.32-9.44c.27,7.08,4.44,11.15,9.39,13.09,0,2.52-.12,5-.35,7.59q-.14,1.47-.33,2.94a14.08,14.08,0,0,0-8.34-11.48c-.55,7.12,3.2,11.66,8,14.14A102.36,102.36,0,0,1,694.43,235a13.75,13.75,0,0,0-7.69-12.58,14.29,14.29,0,0,0,7.13,14.6c-.24.82-.48,1.65-.74,2.48a.46.46,0,0,0,.31.57.45.45,0,0,0,.57-.3Q695.23,235.88,696.16,231.91Z"/><rect class="cls-1" x="294.21" y="384.78" width="97.8" height="76.9"/><rect class="cls-13" x="294.21" y="384.78" width="97.8" height="47.92"/><path class="cls-4" d="M365.62,428c11,0,20-8.32,20-18.53s-9-18.52-20-18.52-20,8.32-20,18.52S354.6,428,365.62,428Z"/><path class="cls-14" d="M355.14,405.92h6.92V399a1.71,1.71,0,0,1,1.7-1.71h3.72a1.71,1.71,0,0,1,1.7,1.71v6.93h6.91a1.71,1.71,0,0,1,1.7,1.71v3.73a1.71,1.71,0,0,1-1.7,1.71h-6.91V420a1.71,1.71,0,0,1-1.7,1.71h-3.72a1.71,1.71,0,0,1-1.7-1.71v-6.93h-6.92a1.71,1.71,0,0,1-1.7-1.71v-3.73A1.71,1.71,0,0,1,355.14,405.92Z"/><rect class="cls-13" x="294.21" y="457.22" width="97.8" height="4.46"/><path class="cls-12" d="M311.35,443.36a.34.34,0,0,1,0,.11.33.33,0,0,1-.32.34h-.51a.39.39,0,0,1-.38-.3l-.28-1h-1.45l-.3,1a.37.37,0,0,1-.36.3h-.51a.33.33,0,0,1-.32-.34.34.34,0,0,1,0-.11l1.56-5a.39.39,0,0,1,.37-.28h.56a.38.38,0,0,1,.36.28Zm-2.21-3.29-.39,1.3h.77Z"/><path class="cls-12" d="M313.57,439.29v1h1.23a.32.32,0,0,1,.32.32v.54a.31.31,0,0,1-.32.31h-1.23v1.18h1.71a.31.31,0,0,1,.31.32v.56a.32.32,0,0,1-.31.33h-2.44a.47.47,0,0,1-.46-.49v-4.75a.44.44,0,0,1,.14-.34.41.41,0,0,1,.32-.15h2.44a.32.32,0,0,1,.31.33V439a.31.31,0,0,1-.31.32Z"/><path class="cls-12" d="M317.94,440.46v3a.32.32,0,0,1-.32.33h-.51a.32.32,0,0,1-.31-.33v-5a.38.38,0,0,1,.37-.39h.58a.37.37,0,0,1,.33.19l1.77,3.17v-3a.32.32,0,0,1,.32-.33h.52a.31.31,0,0,1,.29.33v5a.37.37,0,0,1-.36.39H320a.39.39,0,0,1-.33-.19Z"/><path class="cls-12" d="M323.62,439.29v1h1.24a.32.32,0,0,1,.31.32v.54a.31.31,0,0,1-.31.31h-1.24v1.18h1.72a.32.32,0,0,1,.31.32v.56a.32.32,0,0,1-.31.33h-2.45a.48.48,0,0,1-.46-.49v-4.75a.48.48,0,0,1,.14-.34.41.41,0,0,1,.32-.15h2.45a.32.32,0,0,1,.31.33V439a.32.32,0,0,1-.31.32Z"/><path class="cls-12" d="M330.83,443.36s0,.06,0,.11a.33.33,0,0,1-.32.34H330a.37.37,0,0,1-.36-.3l-.3-1h-1.45l-.28,1a.4.4,0,0,1-.38.3h-.5a.33.33,0,0,1-.32-.34.34.34,0,0,1,0-.11l1.55-5a.4.4,0,0,1,.37-.28h.57a.38.38,0,0,1,.36.28Zm-2.21-3.29-.38,1.3H329Z"/><path class="cls-12" d="M333,440.46v3a.32.32,0,0,1-.31.33h-.51a.32.32,0,0,1-.32-.33v-5a.38.38,0,0,1,.37-.39h.59a.37.37,0,0,1,.32.19l1.78,3.17v-3a.32.32,0,0,1,.31-.33h.52a.3.3,0,0,1,.29.33v5a.37.37,0,0,1-.36.39h-.59a.38.38,0,0,1-.32-.19Z"/><path class="cls-12" d="M343,442.69a.38.38,0,0,1,.11.26.33.33,0,0,1-.08.22h0a2,2,0,0,1-1.59.73,2.1,2.1,0,0,1-2-2.16v-1.6a2.09,2.09,0,0,1,2-2.15,2,2,0,0,1,1.58.72.36.36,0,0,1,.08.24.42.42,0,0,1-.09.24l-.33.36a.31.31,0,0,1-.22.11.34.34,0,0,1-.25-.12.91.91,0,0,0-.76-.35.92.92,0,0,0-.84.95v1.6a.9.9,0,0,0,1.6.61.33.33,0,0,1,.24-.12.34.34,0,0,1,.23.1Z"/><path class="cls-12" d="M348.09,441.75a2.06,2.06,0,1,1-4.11,0v-1.6a2.06,2.06,0,1,1,4.11,0Zm-1.19-1.6a.92.92,0,0,0-.87-.95.94.94,0,0,0-.87.95v1.6a.94.94,0,0,0,.87.95.92.92,0,0,0,.87-.95Z"/><path class="cls-12" d="M350.84,440.64l-.29,2.85a.37.37,0,0,1-.35.32h-.54a.33.33,0,0,1-.24-.1.35.35,0,0,1-.08-.27l.6-5a.39.39,0,0,1,.39-.37H351a.36.36,0,0,1,.36.29l1.08,3.46,1.07-3.48a.4.4,0,0,1,.38-.27h.59a.39.39,0,0,1,.4.37l.6,5a.35.35,0,0,1-.08.27.33.33,0,0,1-.23.1h-.57a.35.35,0,0,1-.34-.33l-.31-2.85-.91,2.94a.37.37,0,0,1-.36.28h-.55a.39.39,0,0,1-.37-.27Z"/><path class="cls-12" d="M358.31,440.64l-.29,2.85a.37.37,0,0,1-.35.32h-.54a.37.37,0,0,1-.24-.1.4.4,0,0,1-.08-.27l.6-5a.39.39,0,0,1,.39-.37h.66a.38.38,0,0,1,.37.29l1.07,3.46,1.08-3.48a.38.38,0,0,1,.37-.27h.59a.38.38,0,0,1,.4.37l.6,5a.35.35,0,0,1-.08.27.29.29,0,0,1-.23.1h-.57a.35.35,0,0,1-.34-.33l-.31-2.85-.91,2.94a.36.36,0,0,1-.36.28h-.55a.37.37,0,0,1-.36-.27Z"/><path class="cls-12" d="M368.33,441.75a2.05,2.05,0,1,1-4.1,0v-1.6a2.05,2.05,0,1,1,4.1,0Zm-1.18-1.6a.87.87,0,1,0-1.74,0v1.6a.94.94,0,0,0,.87.95.93.93,0,0,0,.87-.95Z"/><path class="cls-12" d="M373.63,441.54a2.18,2.18,0,0,1-2.13,2.27h-1.41a.48.48,0,0,1-.46-.49v-4.75a.48.48,0,0,1,.14-.34.41.41,0,0,1,.32-.15h1.41a2.19,2.19,0,0,1,2.13,2.27Zm-1.18-1.21a1,1,0,0,0-1-1h-.65v3.31h.65a1,1,0,0,0,1-1.05Z"/><path class="cls-12" d="M378.93,441.75a2.06,2.06,0,1,1-4.11,0v-1.6a2.06,2.06,0,1,1,4.11,0Zm-1.18-1.6a.87.87,0,1,0-1.74,0v1.6a.87.87,0,1,0,1.74,0Z"/><path class="cls-12" d="M307.48,446.16a.32.32,0,0,1,.32.33v4.19h1.5a.31.31,0,0,1,.3.32v.56a.3.3,0,0,1-.3.32h-2.23a.46.46,0,0,1-.46-.48v-4.91a.31.31,0,0,1,.31-.33Z"/><path class="cls-12" d="M312.72,446.13a.31.31,0,0,1,.3.33V447a.31.31,0,0,1-.3.32h-.46v3.42h.46a.31.31,0,0,1,.3.32v.52a.3.3,0,0,1-.3.32h-2.11a.3.3,0,0,1-.3-.32V451a.31.31,0,0,1,.3-.32h.45V447.3h-.45a.31.31,0,0,1-.3-.32v-.52a.31.31,0,0,1,.3-.33Z"/><path class="cls-12" d="M317.54,448.34a.5.5,0,0,1,.48.5v.88a2.06,2.06,0,1,1-4.12,0V448.1a2.12,2.12,0,0,1,2.06-2.16,2.06,2.06,0,0,1,1.62.72.36.36,0,0,1,.09.23.48.48,0,0,1-.09.26l-.34.36a.29.29,0,0,1-.22.11.36.36,0,0,1-.25-.11,1,1,0,0,0-.8-.36,1,1,0,0,0-.89,1v1.62a1,1,0,0,0,.89,1,.91.91,0,0,0,.87-.93v-.22H316a.31.31,0,0,1-.31-.31v-.55a.32.32,0,0,1,.31-.33Z"/><path class="cls-12" d="M323.54,449.69a2.07,2.07,0,1,1-4.12,0v-3.2a.32.32,0,0,1,.31-.32h.57a.31.31,0,0,1,.31.32v3.24c0,.63.34,1,.87,1s.88-.5.88-1v-3.24a.31.31,0,0,1,.31-.32h.57a.31.31,0,0,1,.3.32Z"/><path class="cls-12" d="M325.69,446.16a.32.32,0,0,1,.31.33v4.19h1.5a.31.31,0,0,1,.31.32v.56a.3.3,0,0,1-.31.32h-2.23a.47.47,0,0,1-.46-.48v-4.91a.31.31,0,0,1,.31-.33Z"/><path class="cls-12" d="M333,451.44a.31.31,0,0,1,0,.11.32.32,0,0,1-.32.33h-.52a.37.37,0,0,1-.37-.29l-.29-1H330l-.29,1a.39.39,0,0,1-.37.29h-.51a.32.32,0,0,1-.32-.33.31.31,0,0,1,0-.11l1.55-5a.38.38,0,0,1,.37-.28H331a.37.37,0,0,1,.36.28Zm-2.2-3.3-.39,1.31h.76Z"/><path class="cls-12" d="M337.19,447.37v1h1.24a.31.31,0,0,1,.31.32v.54a.31.31,0,0,1-.31.31h-1.24v1.18h1.71a.32.32,0,0,1,.32.32v.56a.32.32,0,0,1-.32.32h-2.44a.47.47,0,0,1-.46-.48v-4.75a.42.42,0,0,1,.14-.34.41.41,0,0,1,.32-.15h2.44a.32.32,0,0,1,.32.33v.56a.32.32,0,0,1-.32.32Z"/><path class="cls-12" d="M343.81,448.34a.5.5,0,0,1,.47.5v.88a2.06,2.06,0,1,1-4.11,0V448.1a2.12,2.12,0,0,1,2.06-2.16,2.06,2.06,0,0,1,1.62.72.36.36,0,0,1,.08.23.41.41,0,0,1-.09.26l-.33.36a.33.33,0,0,1-.23.11.34.34,0,0,1-.24-.11,1,1,0,0,0-.8-.36.94.94,0,0,0-.89,1v1.62a1,1,0,0,0,.89,1,.92.92,0,0,0,.87-.93v-.22h-.82a.31.31,0,0,1-.31-.31v-.55a.32.32,0,0,1,.31-.33Z"/><path class="cls-12" d="M346.7,447.37v1h1.23a.32.32,0,0,1,.32.32v.54a.31.31,0,0,1-.32.31H346.7v1.18h1.71a.32.32,0,0,1,.32.32v.56a.32.32,0,0,1-.32.32H346a.47.47,0,0,1-.47-.48v-4.75a.43.43,0,0,1,.15-.34.41.41,0,0,1,.32-.15h2.44a.32.32,0,0,1,.32.33v.56a.32.32,0,0,1-.32.32Z"/><path class="cls-12" d="M353.46,447.05a.31.31,0,0,1-.31.32h-1v4.19a.32.32,0,0,1-.32.32h-.56a.32.32,0,0,1-.32-.32v-4.19h-1a.31.31,0,0,1-.31-.32v-.56a.32.32,0,0,1,.31-.33h3.28a.32.32,0,0,1,.31.33Z"/><path class="cls-12" d="M360.54,449.62a2.17,2.17,0,0,1-2.13,2.26H357a.47.47,0,0,1-.46-.48v-4.75a.46.46,0,0,1,.14-.34.41.41,0,0,1,.32-.15h1.41a2.19,2.19,0,0,1,2.13,2.27Zm-1.18-1.21a1,1,0,0,0-1-1h-.65v3.31h.65a1,1,0,0,0,1-1.05Z"/><path class="cls-12" d="M365.84,449.83a2.06,2.06,0,1,1-4.11,0v-1.61a2.06,2.06,0,1,1,4.11,0Zm-1.18-1.61a.87.87,0,1,0-1.74,0v1.61a.87.87,0,1,0,1.74,0Z"/><path class="cls-12" d="M367.8,446.16a.32.32,0,0,1,.31.33v4.19h1.5a.31.31,0,0,1,.31.32v.56a.3.3,0,0,1-.31.32h-2.23a.47.47,0,0,1-.46-.48v-4.91a.32.32,0,0,1,.31-.33Z"/><path class="cls-12" d="M374.86,449.83a2.06,2.06,0,1,1-4.11,0v-1.61a2.06,2.06,0,1,1,4.11,0Zm-1.19-1.61a.92.92,0,0,0-.87-.94.93.93,0,0,0-.87.94v1.61a.94.94,0,0,0,.87.95.92.92,0,0,0,.87-.95Z"/><path class="cls-12" d="M378.52,449.61l1.09,1.77a.41.41,0,0,1,.05.18.31.31,0,0,1-.31.32h-.59a.37.37,0,0,1-.32-.17l-1.14-1.94h-.11v1.79a.31.31,0,0,1-.31.32h-.57a.31.31,0,0,1-.31-.32v-4.91a.46.46,0,0,1,.14-.34.41.41,0,0,1,.32-.15h1.34a1.77,1.77,0,0,1,1.75,1.8A1.8,1.8,0,0,1,378.52,449.61Zm-1.33-2.26v1.23h.57a.62.62,0,0,0,0-1.23Z"/><rect class="cls-1" x="1184" y="384.78" width="97.8" height="76.9"/><rect class="cls-13" x="1184" y="384.78" width="97.8" height="47.92"/><path class="cls-4" d="M1255.41,428c11,0,20-8.32,20-18.53s-9-18.52-20-18.52-20,8.32-20,18.52S1244.39,428,1255.41,428Z"/><path class="cls-14" d="M1244.94,405.92h6.91V399a1.71,1.71,0,0,1,1.7-1.71h3.72A1.71,1.71,0,0,1,1259,399v6.93h6.92a1.71,1.71,0,0,1,1.7,1.71v3.73a1.71,1.71,0,0,1-1.7,1.71H1259V420a1.71,1.71,0,0,1-1.7,1.71h-3.72a1.71,1.71,0,0,1-1.7-1.71v-6.93h-6.91a1.71,1.71,0,0,1-1.7-1.71v-3.73A1.71,1.71,0,0,1,1244.94,405.92Z"/><rect class="cls-13" x="1184" y="457.22" width="97.8" height="4.46"/><path class="cls-12" d="M1201.14,443.36a.34.34,0,0,1,0,.11.33.33,0,0,1-.32.34h-.51a.39.39,0,0,1-.38-.3l-.29-1h-1.44l-.3,1a.38.38,0,0,1-.37.3h-.5a.33.33,0,0,1-.32-.34.34.34,0,0,1,0-.11l1.56-5a.38.38,0,0,1,.36-.28h.56a.39.39,0,0,1,.37.28Zm-2.21-3.29-.39,1.3h.77Z"/><path class="cls-12" d="M1203.35,439.29v1h1.24a.31.31,0,0,1,.31.32v.54a.31.31,0,0,1-.31.31h-1.24v1.18h1.72a.31.31,0,0,1,.31.32v.56a.32.32,0,0,1-.31.33h-2.44a.48.48,0,0,1-.47-.49v-4.75a.45.45,0,0,1,.15-.34.41.41,0,0,1,.32-.15h2.44a.32.32,0,0,1,.31.33V439a.31.31,0,0,1-.31.32Z"/><path class="cls-12" d="M1207.72,440.46v3a.31.31,0,0,1-.31.33h-.51a.32.32,0,0,1-.31-.33v-5a.38.38,0,0,1,.37-.39h.58a.39.39,0,0,1,.33.19l1.77,3.17v-3a.32.32,0,0,1,.31-.33h.52a.31.31,0,0,1,.3.33v5a.37.37,0,0,1-.36.39h-.59a.39.39,0,0,1-.33-.19Z"/><path class="cls-12" d="M1213.4,439.29v1h1.24a.32.32,0,0,1,.32.32v.54a.31.31,0,0,1-.32.31h-1.24v1.18h1.72a.32.32,0,0,1,.32.32v.56a.32.32,0,0,1-.32.33h-2.44a.48.48,0,0,1-.47-.49v-4.75a.45.45,0,0,1,.15-.34.41.41,0,0,1,.32-.15h2.44a.32.32,0,0,1,.32.33V439a.32.32,0,0,1-.32.32Z"/><path class="cls-12" d="M1220.61,443.36a.31.31,0,0,1,0,.11.33.33,0,0,1-.32.34h-.52a.38.38,0,0,1-.37-.3l-.29-1h-1.45l-.29,1a.39.39,0,0,1-.37.3h-.51a.33.33,0,0,1-.32-.34.31.31,0,0,1,0-.11l1.55-5a.4.4,0,0,1,.37-.28h.57a.39.39,0,0,1,.36.28Zm-2.2-3.29-.39,1.3h.76Z"/><path class="cls-12" d="M1222.83,440.46v3a.32.32,0,0,1-.32.33H1222a.32.32,0,0,1-.31-.33v-5a.38.38,0,0,1,.37-.39h.58a.37.37,0,0,1,.33.19l1.77,3.17v-3a.32.32,0,0,1,.32-.33h.52a.31.31,0,0,1,.29.33v5a.37.37,0,0,1-.36.39h-.59a.39.39,0,0,1-.33-.19Z"/><path class="cls-12" d="M1232.76,442.69a.37.37,0,0,1,.1.26.32.32,0,0,1-.07.22h0a2,2,0,0,1-1.58.73,2.1,2.1,0,0,1-2-2.16v-1.6a2.09,2.09,0,0,1,2-2.15,2,2,0,0,1,1.58.72.36.36,0,0,1,.08.24.42.42,0,0,1-.09.24l-.33.36a.31.31,0,0,1-.22.11.32.32,0,0,1-.25-.12.91.91,0,0,0-.76-.35.92.92,0,0,0-.84.95v1.6a.9.9,0,0,0,1.6.61.32.32,0,0,1,.24-.12.34.34,0,0,1,.23.1Z"/><path class="cls-12" d="M1237.87,441.75a2.05,2.05,0,1,1-4.1,0v-1.6a2.05,2.05,0,1,1,4.1,0Zm-1.18-1.6a.87.87,0,1,0-1.74,0v1.6a.87.87,0,1,0,1.74,0Z"/><path class="cls-12" d="M1240.63,440.64l-.3,2.85a.36.36,0,0,1-.35.32h-.53a.33.33,0,0,1-.24-.1.35.35,0,0,1-.08-.27l.6-5a.39.39,0,0,1,.39-.37h.66a.37.37,0,0,1,.36.29l1.08,3.46,1.07-3.48a.4.4,0,0,1,.38-.27h.59a.39.39,0,0,1,.4.37l.6,5a.4.4,0,0,1-.08.27.33.33,0,0,1-.23.1h-.57a.36.36,0,0,1-.35-.33l-.31-2.85-.9,2.94a.37.37,0,0,1-.36.28h-.55a.38.38,0,0,1-.37-.27Z"/><path class="cls-12" d="M1248.1,440.64l-.29,2.85a.38.38,0,0,1-.36.32h-.53a.33.33,0,0,1-.24-.1.35.35,0,0,1-.08-.27l.6-5a.39.39,0,0,1,.39-.37h.66a.37.37,0,0,1,.36.29l1.08,3.46,1.07-3.48a.4.4,0,0,1,.38-.27h.59a.39.39,0,0,1,.4.37l.6,5a.4.4,0,0,1-.08.27.33.33,0,0,1-.23.1h-.57a.34.34,0,0,1-.34-.33l-.32-2.85-.9,2.94a.37.37,0,0,1-.36.28h-.55a.38.38,0,0,1-.37-.27Z"/><path class="cls-12" d="M1258.12,441.75a2.06,2.06,0,1,1-4.11,0v-1.6a2.06,2.06,0,1,1,4.11,0Zm-1.18-1.6a.87.87,0,1,0-1.74,0v1.6a.87.87,0,1,0,1.74,0Z"/><path class="cls-12" d="M1263.42,441.54a2.19,2.19,0,0,1-2.13,2.27h-1.41a.48.48,0,0,1-.46-.49v-4.75a.44.44,0,0,1,.14-.34.41.41,0,0,1,.32-.15h1.41a2.2,2.2,0,0,1,2.13,2.27Zm-1.18-1.21a1,1,0,0,0-1-1h-.64v3.31h.64a1,1,0,0,0,1-1.05Z"/><path class="cls-12" d="M1268.72,441.75a2.06,2.06,0,1,1-4.11,0v-1.6a2.06,2.06,0,1,1,4.11,0Zm-1.18-1.6a.88.88,0,1,0-1.75,0v1.6a.94.94,0,0,0,.87.95.93.93,0,0,0,.88-.95Z"/><path class="cls-12" d="M1197.27,446.16a.32.32,0,0,1,.31.33v4.19h1.51a.31.31,0,0,1,.3.32v.56a.3.3,0,0,1-.3.32h-2.23a.47.47,0,0,1-.47-.48v-4.91a.32.32,0,0,1,.31-.33Z"/><path class="cls-12" d="M1202.51,446.13a.31.31,0,0,1,.3.33V447a.31.31,0,0,1-.3.32h-.46v3.42h.46a.31.31,0,0,1,.3.32v.52a.31.31,0,0,1-.3.32h-2.11a.31.31,0,0,1-.31-.32V451a.31.31,0,0,1,.31-.32h.45V447.3h-.45a.31.31,0,0,1-.31-.32v-.52a.32.32,0,0,1,.31-.33Z"/><path class="cls-12" d="M1207.33,448.34a.49.49,0,0,1,.47.5v.88a2.06,2.06,0,1,1-4.11,0V448.1a2.12,2.12,0,0,1,2.06-2.16,2.06,2.06,0,0,1,1.62.72.36.36,0,0,1,.08.23.41.41,0,0,1-.09.26l-.33.36a.31.31,0,0,1-.23.11.34.34,0,0,1-.24-.11,1,1,0,0,0-.8-.36.94.94,0,0,0-.89,1v1.62a1,1,0,0,0,.89,1,.92.92,0,0,0,.87-.93v-.22h-.82a.31.31,0,0,1-.31-.31v-.55a.33.33,0,0,1,.31-.33Z"/><path class="cls-12" d="M1213.33,449.69a2.07,2.07,0,1,1-4.12,0v-3.2a.31.31,0,0,1,.31-.32h.57a.31.31,0,0,1,.31.32v3.24c0,.63.34,1,.87,1s.87-.5.87-1v-3.24a.31.31,0,0,1,.31-.32h.58a.31.31,0,0,1,.3.32Z"/><path class="cls-12" d="M1215.47,446.16a.32.32,0,0,1,.32.33v4.19h1.5a.31.31,0,0,1,.3.32v.56a.3.3,0,0,1-.3.32h-2.23a.47.47,0,0,1-.46-.48v-4.91a.31.31,0,0,1,.31-.33Z"/><path class="cls-12" d="M1222.74,451.44a.34.34,0,0,1,0,.11.32.32,0,0,1-.31.33h-.52a.37.37,0,0,1-.37-.29l-.3-1h-1.44l-.29,1a.39.39,0,0,1-.38.29h-.5a.32.32,0,0,1-.32-.33.31.31,0,0,1,0-.11l1.55-5a.37.37,0,0,1,.36-.28h.57a.37.37,0,0,1,.36.28Zm-2.21-3.3-.38,1.31h.76Z"/><path class="cls-12" d="M1227,447.37v1h1.24a.31.31,0,0,1,.31.32v.54a.31.31,0,0,1-.31.31H1227v1.18h1.72a.31.31,0,0,1,.31.32v.56a.31.31,0,0,1-.31.32h-2.44a.47.47,0,0,1-.47-.48v-4.75a.43.43,0,0,1,.15-.34.41.41,0,0,1,.32-.15h2.44a.32.32,0,0,1,.31.33v.56a.31.31,0,0,1-.31.32Z"/><path class="cls-12" d="M1233.6,448.34a.5.5,0,0,1,.47.5v.88a2.06,2.06,0,1,1-4.12,0V448.1a2.13,2.13,0,0,1,2.07-2.16,2.07,2.07,0,0,1,1.62.72.36.36,0,0,1,.08.23.41.41,0,0,1-.09.26l-.34.36a.29.29,0,0,1-.22.11.37.37,0,0,1-.25-.11,1,1,0,0,0-.8-.36.94.94,0,0,0-.88,1v1.62a1,1,0,0,0,.88,1,.92.92,0,0,0,.88-.93v-.22h-.82a.31.31,0,0,1-.31-.31v-.55a.32.32,0,0,1,.31-.33Z"/><path class="cls-12" d="M1236.48,447.37v1h1.24a.31.31,0,0,1,.31.32v.54a.31.31,0,0,1-.31.31h-1.24v1.18h1.72a.31.31,0,0,1,.31.32v.56a.31.31,0,0,1-.31.32h-2.44a.47.47,0,0,1-.47-.48v-4.75a.43.43,0,0,1,.15-.34.41.41,0,0,1,.32-.15h2.44a.32.32,0,0,1,.31.33v.56a.31.31,0,0,1-.31.32Z"/><path class="cls-12" d="M1243.24,447.05a.31.31,0,0,1-.3.32h-1v4.19a.31.31,0,0,1-.31.32H1241a.31.31,0,0,1-.31-.32v-4.19h-1a.31.31,0,0,1-.3-.32v-.56a.31.31,0,0,1,.3-.33h3.29a.31.31,0,0,1,.3.33Z"/><path class="cls-12" d="M1250.33,449.62a2.18,2.18,0,0,1-2.13,2.26h-1.41a.47.47,0,0,1-.46-.48v-4.75a.46.46,0,0,1,.14-.34.41.41,0,0,1,.32-.15h1.41a2.2,2.2,0,0,1,2.13,2.27Zm-1.18-1.21a1,1,0,0,0-1-1h-.65v3.31h.65a1,1,0,0,0,1-1.05Z"/><path class="cls-12" d="M1255.63,449.83a2.06,2.06,0,1,1-4.11,0v-1.61a2.06,2.06,0,1,1,4.11,0Zm-1.18-1.61a.88.88,0,1,0-1.75,0v1.61a.94.94,0,0,0,.88.95.93.93,0,0,0,.87-.95Z"/><path class="cls-12" d="M1257.59,446.16a.32.32,0,0,1,.31.33v4.19h1.5a.3.3,0,0,1,.3.32v.56a.29.29,0,0,1-.3.32h-2.23a.47.47,0,0,1-.46-.48v-4.91a.31.31,0,0,1,.31-.33Z"/><path class="cls-12" d="M1264.64,449.83a2.05,2.05,0,1,1-4.1,0v-1.61a2.05,2.05,0,1,1,4.1,0Zm-1.18-1.61a.87.87,0,1,0-1.74,0v1.61a.87.87,0,1,0,1.74,0Z"/><path class="cls-12" d="M1268.31,449.61l1.09,1.77a.41.41,0,0,1,0,.18.31.31,0,0,1-.32.32h-.58a.36.36,0,0,1-.32-.17l-1.14-1.94H1267v1.79a.32.32,0,0,1-.32.32h-.56a.31.31,0,0,1-.31-.32v-4.91a.42.42,0,0,1,.14-.34.41.41,0,0,1,.32-.15h1.34a1.78,1.78,0,0,1,1.75,1.8A1.81,1.81,0,0,1,1268.31,449.61Zm-1.33-2.26v1.23h.57a.62.62,0,0,0,0-1.23Z"/><rect class="cls-1" x="1053.03" y="384.78" width="97.8" height="76.9"/><rect class="cls-13" x="1053.03" y="384.78" width="97.8" height="47.92"/><path class="cls-4" d="M1124.43,428c11,0,20-8.32,20-18.53s-9-18.52-20-18.52-20,8.32-20,18.52S1113.41,428,1124.43,428Z"/><path class="cls-14" d="M1114,405.92h6.91V399a1.71,1.71,0,0,1,1.7-1.71h3.72A1.72,1.72,0,0,1,1128,399v6.93h6.91a1.71,1.71,0,0,1,1.7,1.71v3.73a1.71,1.71,0,0,1-1.7,1.71H1128V420a1.72,1.72,0,0,1-1.71,1.71h-3.72a1.71,1.71,0,0,1-1.7-1.71v-6.93H1114a1.71,1.71,0,0,1-1.7-1.71v-3.73A1.71,1.71,0,0,1,1114,405.92Z"/><rect class="cls-13" x="1053.03" y="457.22" width="97.8" height="4.46"/><path class="cls-12" d="M1070.16,443.36a.34.34,0,0,1,0,.11.33.33,0,0,1-.32.34h-.51a.39.39,0,0,1-.38-.3l-.29-1h-1.44l-.3,1a.38.38,0,0,1-.37.3h-.5a.33.33,0,0,1-.32-.34.34.34,0,0,1,0-.11l1.56-5a.39.39,0,0,1,.37-.28h.55a.39.39,0,0,1,.37.28Zm-2.21-3.29-.39,1.3h.77Z"/><path class="cls-12" d="M1072.37,439.29v1h1.24a.31.31,0,0,1,.31.32v.54a.31.31,0,0,1-.31.31h-1.24v1.18h1.72a.31.31,0,0,1,.31.32v.56a.32.32,0,0,1-.31.33h-2.44a.48.48,0,0,1-.47-.49v-4.75a.45.45,0,0,1,.15-.34.41.41,0,0,1,.32-.15h2.44a.32.32,0,0,1,.31.33V439a.31.31,0,0,1-.31.32Z"/><path class="cls-12" d="M1076.74,440.46v3a.31.31,0,0,1-.31.33h-.51a.32.32,0,0,1-.31-.33v-5a.38.38,0,0,1,.37-.39h.58a.39.39,0,0,1,.33.19l1.77,3.17v-3a.32.32,0,0,1,.31-.33h.52a.31.31,0,0,1,.3.33v5a.37.37,0,0,1-.36.39h-.59a.39.39,0,0,1-.33-.19Z"/><path class="cls-12" d="M1082.43,439.29v1h1.24a.32.32,0,0,1,.31.32v.54a.31.31,0,0,1-.31.31h-1.24v1.18h1.71a.32.32,0,0,1,.32.32v.56a.32.32,0,0,1-.32.33h-2.44a.48.48,0,0,1-.46-.49v-4.75a.44.44,0,0,1,.14-.34.41.41,0,0,1,.32-.15h2.44a.32.32,0,0,1,.32.33V439a.32.32,0,0,1-.32.32Z"/><path class="cls-12" d="M1089.63,443.36a.31.31,0,0,1,0,.11.33.33,0,0,1-.32.34h-.52a.39.39,0,0,1-.37-.3l-.29-1h-1.45l-.29,1a.39.39,0,0,1-.37.3h-.51a.33.33,0,0,1-.32-.34.31.31,0,0,1,0-.11l1.55-5a.4.4,0,0,1,.37-.28h.57a.39.39,0,0,1,.36.28Zm-2.2-3.29-.38,1.3h.75Z"/><path class="cls-12" d="M1091.85,440.46v3a.32.32,0,0,1-.31.33H1091a.32.32,0,0,1-.31-.33v-5a.38.38,0,0,1,.37-.39h.58a.37.37,0,0,1,.33.19l1.77,3.17v-3a.32.32,0,0,1,.32-.33h.52a.31.31,0,0,1,.29.33v5a.37.37,0,0,1-.36.39h-.59a.4.4,0,0,1-.33-.19Z"/><path class="cls-12" d="M1101.78,442.69a.37.37,0,0,1,.1.26.32.32,0,0,1-.07.22h0a2,2,0,0,1-1.58.73,2.1,2.1,0,0,1-2-2.16v-1.6a2.09,2.09,0,0,1,2-2.15,2,2,0,0,1,1.58.72.36.36,0,0,1,.08.24.42.42,0,0,1-.09.24l-.33.36a.31.31,0,0,1-.22.11.34.34,0,0,1-.25-.12.91.91,0,0,0-.76-.35.92.92,0,0,0-.84.95v1.6a.9.9,0,0,0,1.6.61.33.33,0,0,1,.24-.12.34.34,0,0,1,.23.1Z"/><path class="cls-12" d="M1106.89,441.75a2.05,2.05,0,1,1-4.1,0v-1.6a2.05,2.05,0,1,1,4.1,0Zm-1.18-1.6a.87.87,0,1,0-1.74,0v1.6a.94.94,0,0,0,.87.95.93.93,0,0,0,.87-.95Z"/><path class="cls-12" d="M1109.65,440.64l-.29,2.85a.38.38,0,0,1-.36.32h-.53a.33.33,0,0,1-.24-.1.35.35,0,0,1-.08-.27l.6-5a.39.39,0,0,1,.39-.37h.66a.37.37,0,0,1,.36.29l1.08,3.46,1.07-3.48a.4.4,0,0,1,.38-.27h.59a.39.39,0,0,1,.4.37l.6,5a.4.4,0,0,1-.08.27.33.33,0,0,1-.23.1h-.57a.34.34,0,0,1-.34-.33l-.32-2.85-.9,2.94a.37.37,0,0,1-.36.28h-.55a.38.38,0,0,1-.37-.27Z"/><path class="cls-12" d="M1117.12,440.64l-.29,2.85a.37.37,0,0,1-.35.32h-.54a.33.33,0,0,1-.24-.1.35.35,0,0,1-.08-.27l.6-5a.39.39,0,0,1,.39-.37h.66a.36.36,0,0,1,.36.29l1.08,3.46,1.07-3.48a.4.4,0,0,1,.38-.27h.59a.39.39,0,0,1,.4.37l.6,5a.35.35,0,0,1-.08.27.33.33,0,0,1-.23.1h-.57a.35.35,0,0,1-.34-.33l-.31-2.85-.91,2.94a.37.37,0,0,1-.36.28h-.55a.39.39,0,0,1-.37-.27Z"/><path class="cls-12" d="M1127.14,441.75a2.05,2.05,0,1,1-4.1,0v-1.6a2.05,2.05,0,1,1,4.1,0Zm-1.18-1.6a.87.87,0,1,0-1.74,0v1.6a.87.87,0,1,0,1.74,0Z"/><path class="cls-12" d="M1132.44,441.54a2.19,2.19,0,0,1-2.13,2.27h-1.41a.48.48,0,0,1-.46-.49v-4.75a.48.48,0,0,1,.14-.34.41.41,0,0,1,.32-.15h1.41a2.2,2.2,0,0,1,2.13,2.27Zm-1.18-1.21a1,1,0,0,0-1-1h-.65v3.31h.65a1,1,0,0,0,1-1.05Z"/><path class="cls-12" d="M1137.74,441.75a2.06,2.06,0,1,1-4.11,0v-1.6a2.06,2.06,0,1,1,4.11,0Zm-1.18-1.6a.88.88,0,1,0-1.75,0v1.6a.94.94,0,0,0,.88.95.93.93,0,0,0,.87-.95Z"/><path class="cls-12" d="M1066.29,446.16a.32.32,0,0,1,.31.33v4.19h1.51a.31.31,0,0,1,.3.32v.56a.3.3,0,0,1-.3.32h-2.23a.47.47,0,0,1-.47-.48v-4.91a.32.32,0,0,1,.32-.33Z"/><path class="cls-12" d="M1071.53,446.13a.31.31,0,0,1,.3.33V447a.31.31,0,0,1-.3.32h-.46v3.42h.46a.31.31,0,0,1,.3.32v.52a.31.31,0,0,1-.3.32h-2.11a.31.31,0,0,1-.31-.32V451a.31.31,0,0,1,.31-.32h.45V447.3h-.45a.31.31,0,0,1-.31-.32v-.52a.32.32,0,0,1,.31-.33Z"/><path class="cls-12" d="M1076.35,448.34a.49.49,0,0,1,.47.5v.88a2.06,2.06,0,1,1-4.11,0V448.1a2.12,2.12,0,0,1,2.06-2.16,2.06,2.06,0,0,1,1.62.72.36.36,0,0,1,.08.23.47.47,0,0,1-.08.26l-.34.36a.29.29,0,0,1-.22.11.34.34,0,0,1-.25-.11,1,1,0,0,0-.8-.36.94.94,0,0,0-.89,1v1.62a1,1,0,0,0,.89,1,.92.92,0,0,0,.87-.93v-.22h-.81a.31.31,0,0,1-.32-.31v-.55a.33.33,0,0,1,.32-.33Z"/><path class="cls-12" d="M1082.35,449.69a2.07,2.07,0,1,1-4.12,0v-3.2a.31.31,0,0,1,.31-.32h.57a.31.31,0,0,1,.31.32v3.24c0,.63.34,1,.87,1s.87-.5.87-1v-3.24a.32.32,0,0,1,.32-.32h.57a.31.31,0,0,1,.3.32Z"/><path class="cls-12" d="M1084.5,446.16a.32.32,0,0,1,.31.33v4.19h1.5a.3.3,0,0,1,.3.32v.56a.29.29,0,0,1-.3.32h-2.23a.47.47,0,0,1-.46-.48v-4.91a.31.31,0,0,1,.31-.33Z"/><path class="cls-12" d="M1091.76,451.44a.31.31,0,0,1,0,.11.32.32,0,0,1-.32.33h-.52a.37.37,0,0,1-.37-.29l-.3-1h-1.44l-.29,1a.39.39,0,0,1-.38.29h-.5a.32.32,0,0,1-.32-.33.31.31,0,0,1,0-.11l1.55-5a.38.38,0,0,1,.36-.28h.57a.37.37,0,0,1,.36.28Zm-2.21-3.3-.38,1.31h.76Z"/><path class="cls-12" d="M1096,447.37v1h1.24a.32.32,0,0,1,.32.32v.54a.31.31,0,0,1-.32.31H1096v1.18h1.72a.31.31,0,0,1,.31.32v.56a.31.31,0,0,1-.31.32h-2.44a.47.47,0,0,1-.47-.48v-4.75a.43.43,0,0,1,.15-.34.41.41,0,0,1,.32-.15h2.44a.32.32,0,0,1,.31.33v.56a.31.31,0,0,1-.31.32Z"/><path class="cls-12" d="M1102.62,448.34a.5.5,0,0,1,.47.5v.88a2.06,2.06,0,1,1-4.11,0V448.1a2.12,2.12,0,0,1,2.06-2.16,2.07,2.07,0,0,1,1.62.72.36.36,0,0,1,.08.23.41.41,0,0,1-.09.26l-.33.36a.33.33,0,0,1-.23.11.37.37,0,0,1-.25-.11,1,1,0,0,0-.79-.36.94.94,0,0,0-.89,1v1.62a1,1,0,0,0,.89,1,.92.92,0,0,0,.87-.93v-.22h-.82a.31.31,0,0,1-.31-.31v-.55a.32.32,0,0,1,.31-.33Z"/><path class="cls-12" d="M1105.5,447.37v1h1.24a.31.31,0,0,1,.31.32v.54a.31.31,0,0,1-.31.31h-1.24v1.18h1.72a.31.31,0,0,1,.31.32v.56a.31.31,0,0,1-.31.32h-2.44a.47.47,0,0,1-.47-.48v-4.75a.43.43,0,0,1,.15-.34.41.41,0,0,1,.32-.15h2.44a.32.32,0,0,1,.31.33v.56a.31.31,0,0,1-.31.32Z"/><path class="cls-12" d="M1112.26,447.05a.31.31,0,0,1-.3.32h-1v4.19a.31.31,0,0,1-.31.32H1110a.31.31,0,0,1-.31-.32v-4.19h-1a.31.31,0,0,1-.31-.32v-.56a.32.32,0,0,1,.31-.33H1112a.31.31,0,0,1,.3.33Z"/><path class="cls-12" d="M1119.35,449.62a2.17,2.17,0,0,1-2.13,2.26h-1.41a.47.47,0,0,1-.46-.48v-4.75a.46.46,0,0,1,.14-.34.41.41,0,0,1,.32-.15h1.41a2.19,2.19,0,0,1,2.13,2.27Zm-1.18-1.21a1,1,0,0,0-1-1h-.65v3.31h.65a1,1,0,0,0,1-1.05Z"/><path class="cls-12" d="M1124.65,449.83a2.06,2.06,0,1,1-4.11,0v-1.61a2.06,2.06,0,1,1,4.11,0Zm-1.18-1.61a.87.87,0,1,0-1.74,0v1.61a.87.87,0,1,0,1.74,0Z"/><path class="cls-12" d="M1126.61,446.16a.32.32,0,0,1,.31.33v4.19h1.5a.31.31,0,0,1,.31.32v.56a.3.3,0,0,1-.31.32h-2.23a.47.47,0,0,1-.46-.48v-4.91a.31.31,0,0,1,.31-.33Z"/><path class="cls-12" d="M1133.66,449.83a2.05,2.05,0,1,1-4.1,0v-1.61a2.05,2.05,0,1,1,4.1,0Zm-1.18-1.61a.87.87,0,1,0-1.74,0v1.61a.87.87,0,1,0,1.74,0Z"/><path class="cls-12" d="M1137.33,449.61l1.09,1.77a.41.41,0,0,1,0,.18.31.31,0,0,1-.31.32h-.59a.36.36,0,0,1-.32-.17l-1.14-1.94H1136v1.79a.31.31,0,0,1-.31.32h-.57a.31.31,0,0,1-.31-.32v-4.91a.42.42,0,0,1,.14-.34.41.41,0,0,1,.32-.15h1.34a1.78,1.78,0,0,1,1.75,1.8A1.81,1.81,0,0,1,1137.33,449.61Zm-1.33-2.26v1.23h.57a.62.62,0,0,0,0-1.23Z"/><rect class="cls-7" x="1324.04" y="403.17" width="103.91" height="58.51"/><rect class="cls-15" x="1396.13" y="403.17" width="31.82" height="58.51"/><rect class="cls-1" x="1382.8" y="403.17" width="4.44" height="58.51"/><path class="cls-4" d="M1331.12,411.86h45.29a1.27,1.27,0,0,1,0,2.53h-45.29a1.27,1.27,0,0,1,0-2.53Z"/><path class="cls-4" d="M1331.12,418.48h45.29a1.26,1.26,0,0,1,0,2.52h-45.29a1.26,1.26,0,1,1,0-2.52Z"/><path class="cls-4" d="M1331.12,425.58h45.29a1.27,1.27,0,0,1,0,2.53h-45.29a1.27,1.27,0,0,1,0-2.53Z"/><path class="cls-4" d="M1331.12,433h45.29a1.27,1.27,0,0,1,0,2.53h-45.29a1.27,1.27,0,0,1,0-2.53Z"/><path class="cls-1" d="M1333.55,455.57v.09a.27.27,0,0,1-.27.28h-.41a.32.32,0,0,1-.3-.24l-.24-.79h-1.18l-.24.79a.32.32,0,0,1-.29.24h-.42a.26.26,0,0,1-.26-.28v-.09l1.28-4.1a.3.3,0,0,1,.3-.23h.45a.31.31,0,0,1,.31.23Zm-1.81-2.69-.31,1.07h.62Z"/><path class="cls-1" d="M1335.37,452.26V453h1a.25.25,0,0,1,.26.26v.44a.25.25,0,0,1-.26.25h-1v1h1.41a.27.27,0,0,1,.25.27v.45a.27.27,0,0,1-.25.27h-2a.38.38,0,0,1-.38-.4v-3.87a.39.39,0,0,1,.11-.28.34.34,0,0,1,.27-.12h2a.26.26,0,0,1,.25.26V452a.27.27,0,0,1-.25.27Z"/><path class="cls-1" d="M1339,453.2v2.47a.26.26,0,0,1-.26.27h-.41a.26.26,0,0,1-.25-.27v-4.09a.3.3,0,0,1,.29-.31h.48a.33.33,0,0,1,.27.15l1.44,2.59v-2.48a.26.26,0,0,1,.25-.26h.43a.24.24,0,0,1,.24.26v4.09a.3.3,0,0,1-.29.32h-.49a.31.31,0,0,1-.26-.16Z"/><path class="cls-1" d="M1343.61,452.26V453h1a.25.25,0,0,1,.26.26v.44a.25.25,0,0,1-.26.25h-1v1H1345a.27.27,0,0,1,.25.27v.45a.27.27,0,0,1-.25.27h-2a.38.38,0,0,1-.38-.4v-3.87a.39.39,0,0,1,.11-.28.34.34,0,0,1,.27-.12h2a.26.26,0,0,1,.25.26V452a.27.27,0,0,1-.25.27Z"/><path class="cls-1" d="M1349.52,455.57s0,.05,0,.09a.27.27,0,0,1-.26.28h-.43a.32.32,0,0,1-.29-.24l-.24-.79h-1.19l-.23.79a.32.32,0,0,1-.3.24h-.42a.27.27,0,0,1-.26-.28.24.24,0,0,1,0-.09l1.26-4.1a.32.32,0,0,1,.3-.23h.46a.31.31,0,0,1,.3.23Zm-1.8-2.69-.32,1.07h.62Z"/><path class="cls-1" d="M1351.35,453.2v2.47a.26.26,0,0,1-.25.27h-.42a.27.27,0,0,1-.25-.27v-4.09a.3.3,0,0,1,.3-.31h.47a.34.34,0,0,1,.27.15l1.45,2.59v-2.48a.25.25,0,0,1,.25-.26h.42a.25.25,0,0,1,.25.26v4.09a.31.31,0,0,1-.3.32h-.49a.31.31,0,0,1-.26-.16Z"/><path class="cls-1" d="M1357.9,453.35l-.25,2.33a.3.3,0,0,1-.29.26h-.43a.24.24,0,0,1-.19-.08.32.32,0,0,1-.07-.22l.49-4.08a.31.31,0,0,1,.31-.3h.54a.31.31,0,0,1,.3.23l.88,2.83.87-2.84a.32.32,0,0,1,.31-.22h.48a.3.3,0,0,1,.32.3l.5,4.08a.38.38,0,0,1-.07.22.26.26,0,0,1-.19.08H1361a.29.29,0,0,1-.28-.27l-.26-2.32-.73,2.39a.32.32,0,0,1-.3.24h-.44a.32.32,0,0,1-.31-.23Z"/><path class="cls-1" d="M1366.18,455.57v.09a.27.27,0,0,1-.26.28h-.42a.32.32,0,0,1-.3-.24l-.24-.79h-1.18l-.23.79a.34.34,0,0,1-.31.24h-.41a.27.27,0,0,1-.27-.28.24.24,0,0,1,0-.09l1.26-4.1a.32.32,0,0,1,.31-.23h.45a.3.3,0,0,1,.3.23Zm-1.81-2.69-.31,1.07h.61Z"/><path class="cls-1" d="M1368.75,454.63c0-.26-.13-.33-.66-.56l-.18-.08a1.42,1.42,0,0,1-1-1.39,1.34,1.34,0,0,1,1.4-1.4,2.06,2.06,0,0,1,1.23.43.26.26,0,0,1,.08.32l-.2.39a.23.23,0,0,1-.21.14.24.24,0,0,1-.15,0h0a1.35,1.35,0,0,0-.74-.28.39.39,0,0,0-.44.4c0,.22.1.37.62.6l.41.17a1.33,1.33,0,0,1,.83,1.25,1.42,1.42,0,0,1-1.5,1.44,2.15,2.15,0,0,1-1.26-.43.25.25,0,0,1-.07-.32l.21-.39a.22.22,0,0,1,.21-.14.26.26,0,0,1,.15,0h0a1.4,1.4,0,0,0,.74.28C1368.54,455.06,1368.74,454.89,1368.75,454.63Z"/><path class="cls-1" d="M1372.3,454.63c0-.26-.13-.33-.67-.56l-.17-.08a1.42,1.42,0,0,1-1-1.39,1.34,1.34,0,0,1,1.39-1.4,2.07,2.07,0,0,1,1.24.43.25.25,0,0,1,.07.32l-.19.39a.24.24,0,0,1-.21.14.29.29,0,0,1-.16,0h0a1.35,1.35,0,0,0-.74-.28.39.39,0,0,0-.44.4c0,.22.1.37.62.6l.4.17a1.33,1.33,0,0,1,.84,1.25,1.42,1.42,0,0,1-1.5,1.44,2.15,2.15,0,0,1-1.26-.43.25.25,0,0,1-.07-.32l.2-.39a.23.23,0,0,1,.22-.14.28.28,0,0,1,.15,0h0a1.37,1.37,0,0,0,.74.28C1372.09,455.06,1372.29,454.89,1372.3,454.63Z"/><path class="cls-1" d="M1377.62,455.57s0,.05,0,.09a.27.27,0,0,1-.27.28h-.42a.32.32,0,0,1-.3-.24l-.24-.79h-1.18l-.23.79a.34.34,0,0,1-.3.24h-.42a.27.27,0,0,1-.26-.28.25.25,0,0,1,0-.09l1.26-4.1a.32.32,0,0,1,.31-.23h.45a.31.31,0,0,1,.31.23Zm-1.81-2.69-.31,1.07h.62Z"/><path class="cls-5" d="M781.93,173.68h24a2.83,2.83,0,0,1,2.81,2.81v18.14a2.82,2.82,0,0,1-2.81,2.81h-24a2.82,2.82,0,0,1-2.81-2.81V176.49A2.83,2.83,0,0,1,781.93,173.68Z"/><path class="cls-9" d="M774.45,285.27h39a6.14,6.14,0,0,0,6.12-6.14V214.84c0-2.88-10.79-14.45-13.22-17.42H781.48c-2.42,3-13.16,14.54-13.16,17.43v64.29A6.15,6.15,0,0,0,774.45,285.27Z"/><path class="cls-4" d="M777.43,235.71h10.89V224.8a2.7,2.7,0,0,1,2.68-2.69h5.86a2.69,2.69,0,0,1,2.68,2.69v10.91h10.89a2.69,2.69,0,0,1,2.68,2.69v5.88a2.69,2.69,0,0,1-2.68,2.69H799.54v10.91a2.69,2.69,0,0,1-2.68,2.69H791a2.7,2.7,0,0,1-2.68-2.69V247H777.43a2.69,2.69,0,0,1-2.67-2.69V238.4A2.69,2.69,0,0,1,777.43,235.71Z"/><path class="cls-16" d="M744.44,412.45v40a9.26,9.26,0,0,0,9.23,9.25H854.84a9.26,9.26,0,0,0,9.23-9.25v-40a9.27,9.27,0,0,0-9.23-9.25H753.67A9.27,9.27,0,0,0,744.44,412.45Z"/><path class="cls-17" d="M750.79,432.44h0a1.59,1.59,0,0,0,1.59,1.59H856.14a1.59,1.59,0,0,0,1.58-1.59h0a1.59,1.59,0,0,0-1.58-1.59H752.38A1.59,1.59,0,0,0,750.79,432.44Z"/><path class="cls-4" d="M798.25,418.41h0A7.31,7.31,0,0,1,791,425.7l-13.88,0,0-14.59H791A7.31,7.31,0,0,1,798.25,418.41Z"/><path class="cls-9" d="M777.09,425.68l-13.87,0a7.3,7.3,0,0,1-7.27-7.3h0a7.3,7.3,0,0,1,7.28-7.29l13.88,0Z"/><path class="cls-4" d="M759.93,414.07c.14.77,1.67.41,3.78.17.88-.1,3.36-.13,5.13-.2,2.21-.08,3.27,0,3.29-.76s-2.66-.91-6-.86C762.85,412.47,759.66,412.57,759.93,414.07Z"/><path class="cls-4" d="M798.25,446.52h0a7.3,7.3,0,0,1-7.28,7.29l-13.88,0,0-14.59,13.87,0A7.3,7.3,0,0,1,798.25,446.52Z"/><path class="cls-9" d="M777.09,453.79H763.21a7.3,7.3,0,0,1-7.26-7.31h0a7.29,7.29,0,0,1,7.28-7.28h13.88Z"/><path class="cls-4" d="M759.93,442.18c.14.78,1.66.41,3.77.17.89-.1,3.37-.13,5.14-.19,2.21-.08,3.27,0,3.29-.77s-2.67-.9-6.06-.85C762.85,440.58,759.66,440.69,759.93,442.18Z"/><path class="cls-4" d="M852.56,446.52h0a7.3,7.3,0,0,1-7.28,7.29l-13.87,0V439.2l13.88,0A7.29,7.29,0,0,1,852.56,446.52Z"/><path class="cls-9" d="M831.41,453.79H817.53a7.32,7.32,0,0,1-7.27-7.31h0a7.3,7.3,0,0,1,7.29-7.28h13.87Z"/><path class="cls-4" d="M814.24,442.18c.14.78,1.67.42,3.78.17.88-.1,3.36-.13,5.13-.19,2.22-.08,3.27,0,3.29-.77s-2.66-.9-6.05-.85C817.17,440.58,814,440.69,814.24,442.18Z"/><path class="cls-4" d="M852.56,418.41h0a7.31,7.31,0,0,1-7.28,7.29l-13.87,0V411.09H845.3A7.3,7.3,0,0,1,852.56,418.41Z"/><path class="cls-9" d="M831.41,425.68l-13.88,0a7.31,7.31,0,0,1-7.27-7.3h0a7.31,7.31,0,0,1,7.29-7.29l13.87,0Z"/><path class="cls-4" d="M814.24,414.07c.14.77,1.67.41,3.78.17.88-.1,3.36-.13,5.14-.2,2.21-.08,3.26,0,3.28-.76s-2.66-.91-6.05-.86C817.17,412.47,814,412.57,814.24,414.07Z"/><path class="cls-16" d="M887.27,412.45v40a9.26,9.26,0,0,0,9.23,9.25H997.67a9.26,9.26,0,0,0,9.23-9.25v-40a9.27,9.27,0,0,0-9.23-9.25H896.5A9.27,9.27,0,0,0,887.27,412.45Z"/><path class="cls-17" d="M893.62,432.44h0A1.59,1.59,0,0,0,895.2,434H999a1.59,1.59,0,0,0,1.58-1.59h0a1.59,1.59,0,0,0-1.58-1.59H895.2A1.59,1.59,0,0,0,893.62,432.44Z"/><path class="cls-4" d="M941.08,418.41h0a7.32,7.32,0,0,1-7.29,7.29l-13.87,0,0-14.59h13.87A7.31,7.31,0,0,1,941.08,418.41Z"/><path class="cls-9" d="M919.92,425.68l-13.88,0a7.29,7.29,0,0,1-7.26-7.3h0a7.3,7.3,0,0,1,7.28-7.29l13.88,0Z"/><path class="cls-4" d="M902.76,414.07c.14.77,1.66.41,3.77.17.89-.1,3.37-.13,5.14-.2,2.21-.08,3.27,0,3.29-.76s-2.67-.91-6.06-.86C905.68,412.47,902.49,412.57,902.76,414.07Z"/><path class="cls-4" d="M941.08,446.52h0a7.31,7.31,0,0,1-7.29,7.29l-13.87,0,0-14.59,13.87,0A7.31,7.31,0,0,1,941.08,446.52Z"/><path class="cls-9" d="M919.92,453.79H906a7.32,7.32,0,0,1-7.27-7.31h0a7.31,7.31,0,0,1,7.29-7.28h13.88Z"/><path class="cls-4" d="M902.76,442.18c.14.78,1.66.41,3.77.17.88-.1,3.37-.13,5.14-.19,2.21-.08,3.27,0,3.29-.77s-2.67-.9-6.06-.85C905.68,440.58,902.48,440.69,902.76,442.18Z"/><path class="cls-4" d="M995.39,446.52h0a7.3,7.3,0,0,1-7.28,7.29l-13.88,0,0-14.59,13.87,0A7.3,7.3,0,0,1,995.39,446.52Z"/><path class="cls-9" d="M974.23,453.79H960.36a7.3,7.3,0,0,1-7.27-7.31h0a7.29,7.29,0,0,1,7.28-7.28h13.88Z"/><path class="cls-4" d="M957.07,442.18c.14.78,1.67.42,3.77.17.89-.1,3.37-.13,5.14-.19,2.21-.08,3.27,0,3.29-.77s-2.66-.9-6-.85C960,440.58,956.8,440.69,957.07,442.18Z"/><path class="cls-4" d="M995.39,418.41h0a7.31,7.31,0,0,1-7.28,7.29l-13.88,0,0-14.59h13.88A7.3,7.3,0,0,1,995.39,418.41Z"/><path class="cls-9" d="M974.23,425.68l-13.87,0a7.3,7.3,0,0,1-7.27-7.3h0a7.3,7.3,0,0,1,7.28-7.29l13.88,0Z"/><path class="cls-4" d="M957.07,414.07c.14.77,1.67.41,3.77.17.89-.1,3.37-.13,5.14-.2,2.21-.08,3.27,0,3.29-.76s-2.66-.91-6-.86C960,412.47,956.8,412.57,957.07,414.07Z"/><path class="cls-8" d="M695.37,385.15H712a2.08,2.08,0,0,1,2.07,2.08v6.25a2.08,2.08,0,0,1-2.07,2.08H695.37a2.09,2.09,0,0,1-2.08-2.08v-6.25A2.08,2.08,0,0,1,695.37,385.15Z"/><rect class="cls-7" x="695.37" y="380.85" width="16.61" height="4.3"/><path class="cls-6" d="M694.7,369.61h17.94a2.49,2.49,0,0,1,2.48,2.48v6.28a2.49,2.49,0,0,1-2.48,2.48H694.7a2.48,2.48,0,0,1-2.47-2.48v-6.28A2.48,2.48,0,0,1,694.7,369.61Z"/><path class="cls-4" d="M696.47,369.61h13.7q-2.08-16-4.18-31.93c-.77-1.94-5-1.9-5.75,0Z"/><path class="cls-5" d="M693.71,461.68h19.88a5.61,5.61,0,0,0,5.58-5.6V409.85c0-4.47-4.84-10.37-7.19-14.29H695.37c-2.53,4.19-7.24,9.59-7.24,14.5v46A5.61,5.61,0,0,0,693.71,461.68Z"/><path class="cls-5" d="M415.38,350.09h24a2.81,2.81,0,0,1,2.81,2.81V371a2.82,2.82,0,0,1-2.81,2.81h-24a2.83,2.83,0,0,1-2.81-2.81V352.9A2.82,2.82,0,0,1,415.38,350.09Z"/><path class="cls-6" d="M407.9,461.68h39a6.15,6.15,0,0,0,6.13-6.14V391.25c0-2.88-10.8-14.46-13.23-17.42H414.93c-2.42,3-13.15,14.54-13.15,17.43v64.29A6.14,6.14,0,0,0,407.9,461.68Z"/><path class="cls-4" d="M410.89,412.12h10.89V401.2a2.69,2.69,0,0,1,2.68-2.68h5.86A2.69,2.69,0,0,1,433,401.2v10.92h10.89a2.69,2.69,0,0,1,2.67,2.69v5.88a2.7,2.7,0,0,1-2.68,2.69H433v10.91a2.7,2.7,0,0,1-2.68,2.69h-5.86a2.69,2.69,0,0,1-2.68-2.69V423.38H410.89a2.7,2.7,0,0,1-2.68-2.69v-5.88A2.69,2.69,0,0,1,410.89,412.12Z"/><path class="cls-5" d="M857.69,173.68h24a2.83,2.83,0,0,1,2.81,2.81v18.14a2.82,2.82,0,0,1-2.81,2.81h-24a2.82,2.82,0,0,1-2.81-2.81V176.49A2.83,2.83,0,0,1,857.69,173.68Z"/><path class="cls-9" d="M850.21,285.27h39a6.14,6.14,0,0,0,6.12-6.14V214.84c0-2.88-10.79-14.45-13.22-17.42H857.24c-2.42,3-13.16,14.54-13.16,17.43v64.29A6.15,6.15,0,0,0,850.21,285.27Z"/><path class="cls-4" d="M853.19,235.71h10.89V224.8a2.7,2.7,0,0,1,2.68-2.69h5.86a2.7,2.7,0,0,1,2.69,2.69v10.91h10.88a2.69,2.69,0,0,1,2.68,2.69v5.88a2.69,2.69,0,0,1-2.68,2.69H875.31v10.91a2.7,2.7,0,0,1-2.69,2.69h-5.86a2.7,2.7,0,0,1-2.68-2.69V247H853.19a2.69,2.69,0,0,1-2.67-2.69V238.4A2.69,2.69,0,0,1,853.19,235.71Z"/><path class="cls-10" d="M629.15,498.54h53.69a5.87,5.87,0,0,0,5.83-5.85V363.3a5.86,5.86,0,0,0-5.83-5.85H629.15a5.86,5.86,0,0,0-5.83,5.85V492.69A5.87,5.87,0,0,0,629.15,498.54Z"/><path class="cls-6" d="M511.21,549.14H615.15a2.39,2.39,0,0,0,2.38-2.38v-7.45a2.39,2.39,0,0,0-2.38-2.39H511.21a2.39,2.39,0,0,0-2.37,2.39v7.45A2.38,2.38,0,0,0,511.21,549.14Z"/><rect class="cls-2" x="522.7" y="494.8" width="80.97" height="42.13"/><path class="cls-5" d="M673.09,498.54H453.28a5.49,5.49,0,0,1-5.46-5.48V362.92a5.48,5.48,0,0,1,5.46-5.47H673.09a5.47,5.47,0,0,1,5.45,5.47V493.06A5.48,5.48,0,0,1,673.09,498.54Z"/><path class="cls-9" d="M801,522.21h6.49a2.94,2.94,0,0,1,2.94,2.94V528A2.94,2.94,0,0,1,807.5,531H801a3,3,0,0,1-2.94-2.94v-2.89A3,3,0,0,1,801,522.21Z"/><path class="cls-10" d="M782.59,517.25h6.49a2.94,2.94,0,0,1,2.94,2.94v2.89a2.94,2.94,0,0,1-2.94,2.94h-6.49a2.94,2.94,0,0,1-2.93-2.94v-2.89A2.94,2.94,0,0,1,782.59,517.25Z"/><path class="cls-9" d="M764.61,512.61h6.48a3,3,0,0,1,2.94,2.95v2.88a3,3,0,0,1-2.94,2.95h-6.48a3,3,0,0,1-2.94-2.95v-2.88A3,3,0,0,1,764.61,512.61Z"/><path class="cls-10" d="M745.91,508.21h6.49a2.94,2.94,0,0,1,2.94,2.94V514A2.94,2.94,0,0,1,752.4,517h-6.49A3,3,0,0,1,743,514v-2.89A3,3,0,0,1,745.91,508.21Z"/><path class="cls-6" d="M720.91,549.14h101V531.41c-13.38-3.51-84.92-24-92.64-21.44C719.3,513.25,720.91,531.71,720.91,549.14Z"/><path class="cls-5" d="M227.62,27.87v1032.4c0,8.56-2,13.83-5.11,17a9,9,0,0,1-6,2.74l12.55,0c45.18,0,52.64-1.38,52.64-33.26V33.26C281.69,1.74,274.58,0,227.62,0h-9.53a8.34,8.34,0,0,1,6.39,4c2,2.86,3.43,6.51,3.14,15.15v8.69ZM215.39,1080h0Z"/><path class="cls-14" d="M7.08,62.12C3.8,64.23.05,69.29,0,76.76v925.49c0,12.72,3.5,13.4,12.09,18.92,3.52,2.27,197.13,58.09,202.68,58.74a9.05,9.05,0,0,0,7.74-2.68c3.12-3.13,5.11-8.4,5.11-17V19.18c.29-8.64-1.16-12.29-3.14-15.15a8.34,8.34,0,0,0-6.39-4,14.77,14.77,0,0,0-6.62,1.37C197.15,7.32,25.84,54.07,7.08,62.12Z"/><path class="cls-18" d="M218.45,33V1042c-.29,9.28,2.7,23.85-9.89,20-22.84-7-173-46.49-188.91-52.42-7.93-4.61-9.35-5.39-9.69-15.73l0-908c.28-6.64-.78-9.3,4.73-12.8C54.62,59.78,165.21,29.76,208.21,17.63,216,15.43,218.33,17.08,218.45,33Z"/><path class="cls-18" d="M240.52,124.08V260a15.13,15.13,0,0,0,15.06,15.11h0A15.13,15.13,0,0,0,270.64,260V124.08A15.12,15.12,0,0,0,255.58,109h0A15.12,15.12,0,0,0,240.52,124.08Z"/><path class="cls-6" d="M249,123.26v59.19a6.59,6.59,0,0,0,6.55,6.58h0a6.59,6.59,0,0,0,6.56-6.58V123.26a6.59,6.59,0,0,0-6.56-6.58h0A6.59,6.59,0,0,0,249,123.26Z"/><path class="cls-6" d="M249,201.62v59.19a6.59,6.59,0,0,0,6.55,6.58h0a6.59,6.59,0,0,0,6.56-6.58V201.62a6.59,6.59,0,0,0-6.56-6.58h0A6.59,6.59,0,0,0,249,201.62Z"/><path class="cls-18" d="M249,795.17V958.54a6.59,6.59,0,0,0,6.55,6.58h0a6.59,6.59,0,0,0,6.56-6.58V795.17a6.59,6.59,0,0,0-6.56-6.57h0A6.58,6.58,0,0,0,249,795.17Z"/><path class="cls-8" d="M68.92,194.57c-14.38-17.33-11-44,7.55-59.48s45.29-14,59.68,3.28,11,44-7.55,59.48-45.28,14.05-59.68-3.28Zm57.45,19.19.21.25,29.62,35.67a8.89,8.89,0,0,0,12.49,1.15l4.62-3.87a8.93,8.93,0,0,0,1.13-12.53l-29.63-35.66-.2-.24c16-20.07,16.89-48.39.74-67.84-18.63-22.42-52.89-24.59-76.54-4.81s-27.71,54-9.08,76.38C75.89,221.71,103.82,225.91,126.37,213.76Z"/><path class="cls-8" d="M80.61,158.85a19.08,19.08,0,0,0-1.52,11.42c1.84,9.93,11.32,16,9.33,18.52-5.9,7.39-16.81-7.57-17.8-15.71C68.28,153.7,86.7,145.14,80.61,158.85Z"/><path class="cls-8" d="M31.26,655.93l162.27,3.34a6.32,6.32,0,0,1-.26,12.64L31,668.56a6.32,6.32,0,0,1,.26-12.63Z"/><path class="cls-8" d="M31.46,723.12l162.26,8.4a6.32,6.32,0,0,1-.65,12.62l-162.26-8.4a6.32,6.32,0,0,1,.65-12.62Z"/><path class="cls-8" d="M31.73,791.33,194,806.68a6.32,6.32,0,0,1-1.19,12.58L30.54,803.91a6.32,6.32,0,0,1,1.19-12.58Z"/><path class="cls-5" d="M84,334.79h56.48a6.63,6.63,0,0,1,6.6,6.62v42.66a6.63,6.63,0,0,1-6.6,6.62H84a6.64,6.64,0,0,1-6.61-6.62V341.41A6.63,6.63,0,0,1,84,334.79Z"/><path class="cls-6" d="M66.44,597.28h91.65a14.47,14.47,0,0,0,14.41-14.45V431.62c0-6.78-25.39-34-31.1-41l-58.43,0c-5.69,7-30.94,34.21-30.94,41V582.83A14.47,14.47,0,0,0,66.44,597.28Z"/><path class="cls-4" d="M73.46,480.71H99.07V455a6.32,6.32,0,0,1,6.3-6.32h13.79a6.32,6.32,0,0,1,6.3,6.32v25.68h25.62a6.33,6.33,0,0,1,6.3,6.32v13.83a6.33,6.33,0,0,1-6.31,6.32H125.46v25.68a6.32,6.32,0,0,1-6.3,6.32H105.37a6.32,6.32,0,0,1-6.3-6.32V507.18H73.46a6.33,6.33,0,0,1-6.31-6.32V487A6.33,6.33,0,0,1,73.46,480.71Z"/><path class="cls-5" d="M76.75,878.16a11.58,11.58,0,1,1-11.57-11.6A11.58,11.58,0,0,1,76.75,878.16Z"/><path class="cls-8" d="M120.93,885.41a11.58,11.58,0,1,1-11.58-11.61A11.58,11.58,0,0,1,120.93,885.41Z"/><path class="cls-8" d="M164.55,892.93A11.58,11.58,0,1,1,153,881.33,11.58,11.58,0,0,1,164.55,892.93Z"/><rect class="cls-19" x="371.68" y="544.75" width="998.22" height="425.49"/><rect class="cls-1" x="360.94" y="711.88" width="1019.7" height="12.64"/><path class="cls-4" d="M490.09,970.24h761.39V742.71c0-46.62-38-84.77-84.54-84.77H574.63c-46.5,0-84.54,38.15-84.54,84.77V970.24Zm12.6-12.64V742.71c0-39.65,32.4-72.14,71.94-72.14h592.31c39.54,0,71.94,32.49,71.94,72.14V957.6Z"/><path class="cls-6" d="M502.69,970.24h736.19V742.71c0-39.65-32.4-72.14-71.94-72.14H574.63c-39.54,0-71.94,32.49-71.94,72.14Z"/><path class="cls-1" d="M631.64,747.71h-5.73V764a3.13,3.13,0,0,1-3.07,3.32h-5.9a3.14,3.14,0,0,1-3.08-3.32V713.7a4.85,4.85,0,0,1,4.74-5h13c10.46,0,18.68,9.23,18.68,19.46S642.18,747.71,631.64,747.71Zm4.48-24.61a6.41,6.41,0,0,0-4.9-2.17h-5.31v14.55h5.31a7.29,7.29,0,0,0,4.9-12.38Z"/><path class="cls-1" d="M702.59,708.38a3.24,3.24,0,0,1,3.16,3.32V764a3.19,3.19,0,0,1-3.16,3.32h-5.88a3.13,3.13,0,0,1-3.08-3.32V743.3H674.87V764a3.13,3.13,0,0,1-3.08,3.32H665.9a3.19,3.19,0,0,1-3.16-3.32V711.7a3.24,3.24,0,0,1,3.16-3.32h5.89a3.18,3.18,0,0,1,3.08,3.32V731h18.76V711.7a3.18,3.18,0,0,1,3.08-3.32Z"/><path class="cls-1" d="M762.75,762.76a4.4,4.4,0,0,1,.09,1.16,3.3,3.3,0,0,1-3.33,3.41h-5.22a3.88,3.88,0,0,1-3.82-3l-2.91-9.9H732.7l-3,9.9a3.87,3.87,0,0,1-3.74,3h-5.15a3.29,3.29,0,0,1-3.31-3.41,4.93,4.93,0,0,1,.08-1.16l15.94-51.56a3.9,3.9,0,0,1,3.82-2.9H743a3.91,3.91,0,0,1,3.81,2.9ZM740.09,729l-3.91,13.39H744Z"/><path class="cls-1" d="M799.58,744l11.12,18.21a3.73,3.73,0,0,1,.51,1.83,3.21,3.21,0,0,1-3.24,3.32h-6a3.69,3.69,0,0,1-3.24-1.83L787,745.63h-1.16V764a3.19,3.19,0,0,1-3.15,3.32h-5.82a3.19,3.19,0,0,1-3.15-3.32V713.7a4.89,4.89,0,0,1,1.41-3.49,4.3,4.3,0,0,1,3.32-1.5h13.7a18.15,18.15,0,0,1,17.94,18.46A18.36,18.36,0,0,1,799.58,744Zm-13.7-23V733.4h5.89a5.94,5.94,0,0,0,6.15-6.15c0-3.66-2.41-6.32-6.15-6.32Z"/><path class="cls-1" d="M838.23,734.91l-3.07,29.18a3.71,3.71,0,0,1-3.57,3.24h-5.48a3.08,3.08,0,0,1-2.41-1,3.89,3.89,0,0,1-.83-2.74L829,712.36a4,4,0,0,1,4-3.82h6.72a3.89,3.89,0,0,1,3.74,2.91l11,35.59,11-35.67a4,4,0,0,1,3.82-2.83h6.06a4,4,0,0,1,4.07,3.82l6.14,51.23a3.84,3.84,0,0,1-.83,2.74,3,3,0,0,1-2.4,1H876.6A3.62,3.62,0,0,1,873,764l-3.15-29.19-9.22,30.1a3.87,3.87,0,0,1-3.74,2.91h-5.64a3.93,3.93,0,0,1-3.74-2.82Z"/><path class="cls-1" d="M943.37,762.76a4.4,4.4,0,0,1,.09,1.16,3.3,3.3,0,0,1-3.33,3.41h-5.22a3.88,3.88,0,0,1-3.82-3l-2.91-9.9H913.31l-3,9.9a3.87,3.87,0,0,1-3.74,3h-5.15a3.3,3.3,0,0,1-3.32-3.41,4.93,4.93,0,0,1,.08-1.16l15.95-51.56a3.9,3.9,0,0,1,3.82-2.9h5.64a3.91,3.91,0,0,1,3.82,2.9ZM920.71,729l-3.91,13.39h7.81Z"/><path class="cls-1" d="M989.67,755.94a4,4,0,0,1,1.08,2.66,3.62,3.62,0,0,1-.75,2.24l-.08.09a20.83,20.83,0,0,1-16.19,7.48c-11.88,0-20.6-10.64-20.6-22.12V729.83c0-11.56,8.8-22,20.6-22a20.21,20.21,0,0,1,16.1,7.4,3.58,3.58,0,0,1,.83,2.42,4.65,4.65,0,0,1-.91,2.58l-3.33,3.66a3.2,3.2,0,0,1-2.32,1.08,3.08,3.08,0,0,1-2.49-1.25,10,10,0,0,0-7.88-3.49c-4.49,0-8.47,4.49-8.47,9.64v16.46c0,5.24,4,9.74,8.47,9.74a10,10,0,0,0,7.88-3.5,3,3,0,0,1,2.41-1.24,3.3,3.3,0,0,1,2.4,1.08Z"/><path class="cls-1" d="M1039.45,708.71a3.36,3.36,0,0,1,3.33,3.41,3.19,3.19,0,0,1-.59,1.91L1027,740.8V764a3.18,3.18,0,0,1-3.15,3.32H1018a3.2,3.2,0,0,1-3.16-3.32V740.8L999.68,714a3.18,3.18,0,0,1-.58-1.91,3.35,3.35,0,0,1,3.32-3.41h6.15a3.07,3.07,0,0,1,2.82,1.66l9.55,17.54,9.55-17.54a3,3,0,0,1,2.82-1.66Z"/><path class="cls-4" d="M1075.94,727.81l15.79-.07-.08-15.82a3.9,3.9,0,0,1,3.87-3.92l8.5,0a3.9,3.9,0,0,1,3.9,3.88l.07,15.83,15.79-.07a3.9,3.9,0,0,1,3.9,3.88l0,8.52a3.9,3.9,0,0,1-3.86,3.91l-15.78.07.07,15.83a3.91,3.91,0,0,1-3.87,3.91l-8.5,0a3.9,3.9,0,0,1-3.9-3.88l-.07-15.82-15.79.07a3.91,3.91,0,0,1-3.9-3.88l0-8.52A3.9,3.9,0,0,1,1075.94,727.81Z"/></g></svg>