<svg xmlns="http://www.w3.org/2000/svg" xmlns:xlink="http://www.w3.org/1999/xlink" viewBox="0 0 1920 1080"><defs><style>.cls-1{fill:none;}.cls-2{fill:#6558f5;}.cls-3{clip-path:url(#clip-path);}.cls-4{fill:#8b82f7;}.cls-5{fill:#dc827b;}.cls-6{fill:#c455a8;}.cls-7{fill:#d1594f;}.cls-8{fill:#f5be00;}.cls-9{fill:#d380be;}</style><clipPath id="clip-path"><rect class="cls-1" width="1920" height="1080"/></clipPath></defs><g id="Calque_2" data-name="Calque 2"><rect class="cls-2" width="1920" height="1080"/></g><g id="Calque_1" data-name="Calque 1"><g class="cls-3"><path class="cls-4" d="M414.83,342.67c-7.2-6.73-22.26-13.25-41.53-19-94.85-28.17-197.19-12.12-281.51,39.67C17.07,409.28-68.58,473.24-133.68,580.44-226.29,733-236.83,932.16-160.82,1093.6c46.64,99.05,151,191.55,255.24,157.92,78.37-25.29,118.81-108.83,159-180.71s105.47-147.7,187.2-137.52c94,11.72,133,122.74,191.7,197.13,85.81,108.74,244.14,148,375.95,105.39S1242,1077.46,1282.58,945s23.69-278.65-31.42-405.73C1202.75,427.64,1121.8,325.85,1011.28,275c-129.12-59.45-300.89-37.16-382.49,88-25,38.33-68.43,62.33-114.08,59.17-54.39-3.77-63.53-45.46-99.88-79.49"/><path class="cls-5" d="M220.48,43.51c-32.11,13-72.06,43.31-92.82,79.16-25.29,43.69,18,96.07,17.53,146.55-.37,38.76-27.67,73.12-60.82,93.2S12.6,391.08-25,400.34c-48.76,12-97.86,26-140.53,52.48S-244.29,520-254.77,569.14c-11.74,55,9.68,111.87,38.57,160.12,17.65,29.48,40.08,58.66,72.26,70.71,63.25,23.68,129.25-27.35,196.63-32.08,82.5-5.79,151.84,57.05,228.35,88.47,111.52,45.78,243.19,22.33,346.26-40.21,58.18-35.29,110.59-84.5,135.52-147.82s17.43-142-30.05-190.75c-47.21-48.47-119.94-58.13-185.14-76.15S411.4,343.21,403.8,276c-4.55-40.31,15.5-78.68,27.88-117.31S446.2,71.37,415,45.43C401,33.78,382.56,29,364.54,26.12c-56.43-9-113.31,4.92-144.06,17.39"/><path class="cls-6" d="M959.68,501.82a276.41,276.41,0,0,1-49.28,59.39c-53.29,48.85-83.3,123.29-75.65,195.45,9.43,88.81,75.38,169,160.69,195.46,41.21,12.77,89.33,15.84,118,48.1,52.18,58.78-3.53,159.49,35.92,227.48,29.64,51.08,99.85,60.73,158.26,52,109-16.27,212.17-79.82,267.3-175.27s57.11-221.87-3.19-314.13c-13.91-21.27-31.14-40.9-52.92-54-36.41-21.91-81.63-23.61-120.1-41.65-61.39-28.77-96-93.28-131.29-151.15s-83.33-117.86-150.68-125.66c-40.78-4.72-82,11.55-114.08,37.13-18.08,14.41-33.62,31.56-43,46.84"/><path class="cls-7" d="M1731.74,161c-97.93-16.23-203.34,26.7-262,106.75s-68,193.46-23.13,282c22.35,44.1,56.37,81.28,80.34,124.51,64.61,116.57,43.34,274.44-49.85,369.73-49.82,51-121.83,93.54-128.15,164.51-2.44,27.45,6.14,54.87,18.64,79.43,48,94.42,149.63,149.8,251.16,180.06,88.72,26.44,185.21,37.82,273.36,9.51,182.54-58.63,272.72-262.67,313.71-450,41.14-187.95,53.65-391.12-24.91-566.75S1911.79,149.09,1731.74,161"/><path class="cls-8" d="M2424.05-.52c-23.36-24.16-42.93-52.15-61.63-80.8-70.09-107.31-195.57-166-319.17-189.79-274.8-53-589.71-47-778.58,192.78-48.43,61.45-78.77-28.93-143.57,10C1001,3.92,854.66-38,742-110.33S490.79-37.07,363.85,17.77C224.36,78,171.45,272.56,192,430.14c13.89,106.78,83.38,158.19,176.72,195.53,88.12,35.25,170.66,53.33,248.91,45,97.79-10.41,180.69-88,276.18-93.58,131.08-7.65,263,4.55,384.24,51.25s329.76,2.57,415.54-110.58c63.29-83.48-.77-139.09,59.13-225.42,45.25-65.24,123-52.59,194.95-42.86C2025.37,260,2087,318.22,2148.73,368.05S2286,463,2363.67,442.6c98.34-25.89,156.44-153.28,143.09-260.36-9.91-79.5-49.12-148-82.71-182.76"/><path class="cls-9" d="M1938,1418.05c92.84-105.27,227.57-163.86,367.94-164.73a290.09,290.09,0,0,0,30.72-1.77c58.17-6.56,117.06-36.11,143.37-88.37,21.1-41.93,18.44-92.63,3.26-137-26.27-76.83-89.81-140-166.82-165.73-73.74-24.66-154.39-15.93-230.62-31.17C1990,810.1,1889.07,754,1801.39,797.05c-45.14,22.16-74.65,66.34-102,108.55-73,112.78-146.32,226-203.92,347.36-22.78,48-43.51,101-33.1,153.1s51.86,94.72,100.48,116.51,103.63,25.25,156.76,21.11c49.36-3.86,99.89-14.7,140-43.74,29.8-21.57,52-51.74,76.15-79.44.71-.82,1.43-1.64,2.15-2.45"/></g></g></svg>