<svg id="Calque_1" data-name="Calque 1" xmlns="http://www.w3.org/2000/svg" viewBox="0 0 1920 1080"><defs><style>.cls-1{fill:none;}.cls-2{fill-rule:evenodd;}</style></defs><path class="cls-1" d="M734.88,535.7A100.12,100.12,0,0,1,634.8,635.84h0A100.11,100.11,0,0,1,534.74,535.7V287A100.1,100.1,0,0,1,634.8,186.89h0A100.1,100.1,0,0,1,734.88,287Z"/><path d="M634.8,206.33A80.76,80.76,0,0,1,715.44,287V535.7a80.63,80.63,0,1,1-161.26,0V287a80.75,80.75,0,0,1,80.62-80.69m0-19.44A100.1,100.1,0,0,0,534.74,287V535.7a100.07,100.07,0,1,0,200.14,0V287A100.1,100.1,0,0,0,634.8,186.89Z"/><path d="M634.8,186.89A100.1,100.1,0,0,0,534.74,287V411.35H734.88V287A100.1,100.1,0,0,0,634.8,186.89Z"/><path d="M844.11,355.09q-6.52,0-10-3.73t-3.5-10.27V200.88q0-6.76,3.74-10.39c2.48-2.41,5.91-3.61,10.26-3.61q5.83,0,9.22,2.22t6.18,7.58L917.61,303.3h-7.47l57.62-106.62q2.81-5.37,6.07-7.58t9.1-2.22q6.52,0,10,3.61t3.5,10.39V341.09q0,6.54-3.38,10.27t-10.15,3.73q-6.54,0-10-3.73t-3.5-10.27v-108h5.13l-49,89.36a19.05,19.05,0,0,1-4.9,5.83,11.67,11.67,0,0,1-7,1.87,12.15,12.15,0,0,1-7.23-2,17,17,0,0,1-4.9-5.71l-49.46-89.59h5.6V341.09q0,6.54-3.39,10.27T844.11,355.09Z"/><path d="M1058.75,397.08a12.8,12.8,0,0,1-8.4-2.68,10.64,10.64,0,0,1-3.85-7.11A17.67,17.67,0,0,1,1048,378l15.86-35.23v12.14l-42.46-98.22a17.86,17.86,0,0,1-1.4-9.57,10.65,10.65,0,0,1,4.32-7.12q3.62-2.67,9.91-2.68a14.08,14.08,0,0,1,8.64,2.45q3.25,2.46,5.83,9.22l31.49,78.62h-7l32.19-78.86q2.56-6.52,6.07-9t9.33-2.45A11.9,11.9,0,0,1,1129,240a11.54,11.54,0,0,1,3.74,7,16.51,16.51,0,0,1-1.63,9.45l-56.7,129.49q-3,6.53-6.53,8.86A16.16,16.16,0,0,1,1058.75,397.08Z"/><path d="M847.11,633.18q-7.7,0-11.78-4.08t-4.08-11.78V484.57q0-7.69,4.08-11.78t11.78-4.08h45.27q41.28,0,63.8,21.23t22.52,60.89q0,19.83-5.72,35.11a67.44,67.44,0,0,1-16.8,25.78,73.28,73.28,0,0,1-27.06,16q-16,5.49-36.74,5.48Zm14-24.73h29.4q14.46,0,25.08-3.61a45.38,45.38,0,0,0,17.73-10.73,44.09,44.09,0,0,0,10.61-18,82.38,82.38,0,0,0,3.5-25.31q0-28.92-14.23-43.16t-42.69-14.23h-29.4Z"/><path d="M1084.38,635.52q-19.37,0-33.36-7.24a51.3,51.3,0,0,1-21.58-20.53q-7.59-13.29-7.58-31.49,0-17.73,7.35-31a53.94,53.94,0,0,1,20.29-20.88,61.59,61.59,0,0,1,51.33-3.62,46,46,0,0,1,16.56,11.44,50,50,0,0,1,10.5,18.07,74,74,0,0,1,3.62,23.92,7.59,7.59,0,0,1-2.92,6.42q-2.91,2.2-8.28,2.21h-74.89V566H1111l-3.74,3.5q0-10.72-3.14-18a24.44,24.44,0,0,0-9.1-11.08q-6-3.86-14.82-3.85-9.79,0-16.68,4.55A28.66,28.66,0,0,0,1053,554q-3.62,8.28-3.61,19.71v1.64q0,19.13,9,28.57t26.48,9.45a70.4,70.4,0,0,0,13.65-1.51,49.64,49.64,0,0,0,14.34-5.25q4.9-2.8,8.64-2.45a9.08,9.08,0,0,1,6,2.68,10.12,10.12,0,0,1,2.68,5.72,11.66,11.66,0,0,1-1.28,6.88,15.38,15.38,0,0,1-5.95,6.07,60.94,60.94,0,0,1-18.78,7.58A88.26,88.26,0,0,1,1084.38,635.52Z"/><path d="M1215.5,635.52q-19.38,0-29.17-11.09t-9.8-32.54V481.54q0-7.23,3.74-11t10.73-3.73q7,0,10.85,3.73t3.85,11v109q0,10.74,4.55,15.87t12.94,5.13c1.25,0,2.41,0,3.5-.12s2.18-.19,3.27-.35c2.18-.31,3.65.27,4.43,1.75s1.17,4.47,1.17,9q0,5.84-2.33,9.1t-7.7,4c-1.56.15-3.19.31-4.9.46S1217.2,635.52,1215.5,635.52Z"/><path d="M1287.35,634.82q-7,0-10.73-4.2T1272.88,619V533.33q0-7.7,3.74-11.78t10.73-4.08q7,0,10.85,4.08t3.85,11.78V619q0,7.47-3.74,11.67T1287.35,634.82Z"/><path d="M550.12,892.65q-7.23,0-11.08-4.08t-3.85-11.31V741.47q0-7.46,4-11.31t11.2-3.85h56.23q27.06,0,41.76,13.53t14.7,37.8q0,24.25-14.7,37.91T606.58,829.2H565.05v48.06q0,7.23-3.73,11.31T550.12,892.65Zm14.93-87h36.86q15.87,0,24-7.11t8.17-20.88q0-13.77-8.17-20.77t-24-7H565.05Z"/><path d="M720.89,892.65q-7,0-10.73-3.85t-3.73-11.08V739.14q0-7.23,3.73-11t10.73-3.74q7,0,10.85,3.74t3.85,11v60.43h-3.27a38,38,0,0,1,16-18.79,47.47,47.47,0,0,1,24.61-6.41q13.76,0,22.63,5.13A31.69,31.69,0,0,1,808.85,795q4.42,10.38,4.43,26.24v56.46q0,7.24-3.73,11.08t-10.73,3.85q-7,0-10.85-3.85t-3.85-11.08V822.66q0-13.29-5-19.36t-15.51-6.07q-12.84,0-20.42,8t-7.58,21.35v51.09Q735.59,892.66,720.89,892.65Z"/><path d="M902.4,893.12a49.25,49.25,0,0,1-22-4.78,38.1,38.1,0,0,1-15.16-13A32.27,32.27,0,0,1,859.71,857q0-12.6,6.53-20t21.23-10.61q14.7-3.27,39.43-3.27h11.66v16.8H927.13a150,150,0,0,0-23.1,1.4q-8.62,1.39-12.24,4.78t-3.62,9.45a16.26,16.26,0,0,0,5.37,12.6q5.36,4.89,14.93,4.9a25.72,25.72,0,0,0,13.64-3.62,26.29,26.29,0,0,0,9.45-9.92,29.15,29.15,0,0,0,3.5-14.46V818.23q0-11.65-5.13-16.8t-17.26-5.13a72.14,72.14,0,0,0-14.59,1.63,77.85,77.85,0,0,0-16.44,5.6q-4.44,2.1-7.82,1.17a8.8,8.8,0,0,1-5.25-3.85,11.69,11.69,0,0,1-1.87-6.42,14.16,14.16,0,0,1,1.87-6.88,11.3,11.3,0,0,1,6.3-5,105.21,105.21,0,0,1,20.65-6.29,97.91,97.91,0,0,1,18.08-1.87q16.8,0,27.64,5.13A34.2,34.2,0,0,1,957.46,795q5.37,10.38,5.37,26.71v56q0,7.24-3.5,11.08t-10,3.85q-6.52,0-10.15-3.85t-3.61-11.08v-11.2h1.86A31.54,31.54,0,0,1,919,889.85,39.79,39.79,0,0,1,902.4,893.12Z"/><path d="M1029.32,892.65q-7.24,0-11.09-3.85t-3.84-11.08V789.53q0-7.23,3.73-11t10.5-3.73q6.77,0,10.49,3.73t3.74,11v14.7h-2.34q3.27-14,12.84-21.23t25.42-8.63a9.26,9.26,0,0,1,7.82,2.45q2.91,2.92,3.38,9,.46,5.84-2.68,9.45t-9.45,4.32l-5.13.46q-14.24,1.41-21.46,8.75T1044,829.43v48.29q0,7.24-3.73,11.08T1029.32,892.65Z"/><path d="M1142.7,892.65q-7,0-10.73-3.85t-3.74-11.08V789.53q0-7.23,3.74-11t10.49-3.73q6.76,0,10.5,3.73t3.74,11v17l-2.57-7a39.72,39.72,0,0,1,14.46-18.43q9.81-6.76,23.33-6.77,13.77,0,22.63,6.53T1226.92,801h-3.27a39.39,39.39,0,0,1,15.4-19.48,43.67,43.67,0,0,1,24.73-7.12q13.07,0,21.58,5.13T1298.08,795q4.2,10.38,4.2,26.24v56.46q0,7.24-3.85,11.08t-10.85,3.85q-7,0-10.73-3.85t-3.74-11.08V822.43q0-13.06-4.31-19.13t-14.58-6.07q-11.45,0-18,8t-6.53,22.28v50.16q0,7.24-3.73,11.08t-10.74,3.85q-7,0-10.84-3.85t-3.85-11.08V822.43q0-13.06-4.32-19.13t-14.35-6.07q-11.43,0-18,8t-6.53,22.28v50.16Q1157.4,892.66,1142.7,892.65Z"/><path class="cls-2" d="M1289.22,187.85c-53.26,0-96.76,42.76-96.76,96a95.72,95.72,0,0,0,12.75,48l83.27,144.8L1371,334.15a97.87,97.87,0,0,0,14.27-50.27A95.75,95.75,0,0,0,1289.22,187.85Zm.76,153a54.77,54.77,0,1,1,54.76-54.77A55.08,55.08,0,0,1,1290,340.9Z"/></svg>