<svg id="Calque_1" data-name="Calque 1" xmlns="http://www.w3.org/2000/svg" viewBox="0 0 850.08 705.28"><defs><style>.cls-1{fill:none;}.cls-2{fill-rule:evenodd;}</style></defs><path class="cls-1" d="M199.69,347.85A100.12,100.12,0,0,1,99.61,448h0A100.11,100.11,0,0,1-.45,347.85V99.15A100.1,100.1,0,0,1,99.61-1h0A100.1,100.1,0,0,1,199.69,99.15Z"/><path d="M99.61,18.48a80.76,80.76,0,0,1,80.64,80.67v248.7a80.63,80.63,0,0,1-161.26,0V99.15A80.75,80.75,0,0,1,99.61,18.46M99.61-1A100.1,100.1,0,0,0-.45,99.15v248.7a100.07,100.07,0,0,0,200.14,0V99.15A100.1,100.1,0,0,0,99.61-1Z"/><path d="M99.61-1A100.1,100.1,0,0,0-.45,99.15V223.5H199.69V99.15A100.1,100.1,0,0,0,99.61-1Z"/><path d="M308.92,167.24q-6.53,0-10-3.73t-3.5-10.27V13q0-6.76,3.74-10.39C301.64.23,305.07-1,309.42-1q5.83,0,9.22,2.22t6.18,7.58l57.6,106.62H375L432.57,8.83q2.81-5.37,6.07-7.58C440.81-.22,443.85-1,447.74-1q6.52,0,10,3.61T461.24,13V153.24q0,6.54-3.38,10.27t-10.15,3.73q-6.54,0-10-3.73t-3.5-10.27v-108h5.13l-49,89.36a19,19,0,0,1-4.9,5.83,11.65,11.65,0,0,1-7,1.87,12.19,12.19,0,0,1-7.23-2,17,17,0,0,1-4.9-5.71L316.85,45h5.6V153.24q0,6.54-3.39,10.27T308.92,167.24Z"/><path d="M523.56,209.23a12.79,12.79,0,0,1-8.4-2.68,10.65,10.65,0,0,1-3.85-7.11,17.67,17.67,0,0,1,1.5-9.29l15.86-35.23v12.14L486.21,68.84a17.86,17.86,0,0,1-1.4-9.57,10.63,10.63,0,0,1,4.32-7.12q3.62-2.67,9.91-2.68a14.06,14.06,0,0,1,8.64,2.45q3.26,2.46,5.83,9.22L545,139.76h-7L570.19,60.9q2.56-6.52,6.07-9t9.33-2.45a11.91,11.91,0,0,1,8.22,2.7,11.53,11.53,0,0,1,3.74,7,16.51,16.51,0,0,1-1.63,9.45l-56.7,129.49q-3,6.53-6.53,8.86A16.18,16.18,0,0,1,523.56,209.23Z"/><path d="M311.92,445.33q-7.69,0-11.78-4.08t-4.08-11.78V296.72q0-7.7,4.08-11.78t11.78-4.08h45.27q41.28,0,63.8,21.23T443.51,363q0,19.83-5.72,35.11A67.47,67.47,0,0,1,421,423.87a73.25,73.25,0,0,1-27.06,16q-16,5.49-36.74,5.48Zm14-24.73h29.4q14.46,0,25.08-3.61a45.29,45.29,0,0,0,17.73-10.73,44,44,0,0,0,10.61-18,82.13,82.13,0,0,0,3.5-25.31q0-28.92-14.23-43.16t-42.69-14.23h-29.4Z"/><path d="M549.19,447.67q-19.37,0-33.36-7.24a51.24,51.24,0,0,1-21.58-20.53q-7.59-13.29-7.58-31.49,0-17.73,7.35-31a53.92,53.92,0,0,1,20.29-20.88,61.59,61.59,0,0,1,51.33-3.62,45.93,45.93,0,0,1,16.56,11.44,50.08,50.08,0,0,1,10.5,18.07,74.11,74.11,0,0,1,3.62,23.92,7.59,7.59,0,0,1-2.92,6.42c-1.94,1.47-4.7,2.2-8.28,2.21H510.23V378.15h65.58l-3.74,3.5q0-10.72-3.14-18a24.47,24.47,0,0,0-9.1-11.08q-6-3.85-14.82-3.85-9.79,0-16.68,4.55a28.7,28.7,0,0,0-10.52,12.88q-3.62,8.28-3.61,19.71v1.64q0,19.13,9,28.57t26.48,9.45A70.36,70.36,0,0,0,563.33,424a49.64,49.64,0,0,0,14.34-5.25c3.27-1.87,6.15-2.68,8.64-2.45a9.09,9.09,0,0,1,6,2.68,10.13,10.13,0,0,1,2.68,5.72,11.65,11.65,0,0,1-1.28,6.88,15.37,15.37,0,0,1-6,6.07A60.77,60.77,0,0,1,569,445.24,87.93,87.93,0,0,1,549.19,447.67Z"/><path d="M680.31,447.67q-19.38,0-29.17-11.09T641.34,404V293.69q0-7.23,3.74-11T655.81,279q7,0,10.85,3.73t3.85,11v109q0,10.74,4.55,15.87T688,423.69a32.58,32.58,0,0,0,3.5-.12c1.09-.12,2.18-.19,3.27-.35,2.18-.31,3.65.27,4.43,1.75s1.17,4.47,1.17,9c0,3.89-.78,6.93-2.33,9.1s-4.12,3.51-7.7,4c-1.56.15-3.19.31-4.9.46S682,447.67,680.31,447.67Z"/><path d="M752.16,447q-7,0-10.73-4.2t-3.74-11.62V345.48q0-7.69,3.74-11.78t10.73-4.08q7,0,10.85,4.08t3.85,11.78v85.67q0,7.47-3.74,11.67T752.16,447Z"/><path d="M14.93,704.8q-7.23,0-11.08-4.08T0,689.41V553.62q0-7.46,4-11.31t11.2-3.85H71.43q27.06,0,41.76,13.53t14.7,37.8q0,24.26-14.7,37.91t-41.8,13.65H29.86v48.06q0,7.23-3.73,11.31T14.93,704.8Zm14.93-87H66.72q15.87,0,24-7.11t8.17-20.88q0-13.77-8.17-20.77t-24-7H29.86Z"/><path d="M185.7,704.8q-7,0-10.73-3.85t-3.73-11.08V551.29q0-7.23,3.73-11t10.73-3.74q7,0,10.85,3.74t3.85,11v60.43h-3.27a38,38,0,0,1,16-18.79,47.55,47.55,0,0,1,24.61-6.41q13.75,0,22.63,5.13a31.7,31.7,0,0,1,13.29,15.5q4.43,10.38,4.43,26.24v56.46q0,7.24-3.73,11.08t-10.73,3.85q-7,0-10.85-3.85t-3.85-11.08v-55q0-13.29-5-19.36t-15.51-6.07q-12.84,0-20.42,8t-7.58,21.35v51.09Q200.41,704.8,185.7,704.8Z"/><path d="M367.21,705.27a49.24,49.24,0,0,1-22-4.78,38.16,38.16,0,0,1-15.16-13,32.21,32.21,0,0,1-5.53-18.34q0-12.6,6.53-20t21.23-10.61q14.7-3.27,39.43-3.27h11.66v16.8H391.94a150,150,0,0,0-23.1,1.4q-8.62,1.39-12.24,4.78T353,667.7a16.25,16.25,0,0,0,5.37,12.6q5.36,4.89,14.93,4.9a25.65,25.65,0,0,0,13.64-3.62,26.32,26.32,0,0,0,9.45-9.92,29.18,29.18,0,0,0,3.5-14.46V630.38q0-11.65-5.13-16.8t-17.26-5.13a72.31,72.31,0,0,0-14.59,1.63,78.17,78.17,0,0,0-16.44,5.6q-4.44,2.1-7.82,1.17a8.75,8.75,0,0,1-5.25-3.85,11.6,11.6,0,0,1-1.87-6.42,14.23,14.23,0,0,1,1.87-6.88,11.34,11.34,0,0,1,6.3-5,105,105,0,0,1,20.65-6.29,98.07,98.07,0,0,1,18.08-1.87q16.8,0,27.64,5.13a34.17,34.17,0,0,1,16.22,15.48q5.37,10.38,5.37,26.71v56q0,7.25-3.5,11.08t-10,3.85q-6.52,0-10.15-3.85t-3.61-11.08v-11.2h1.86A31.52,31.52,0,0,1,383.81,702,39.79,39.79,0,0,1,367.21,705.27Z"/><path d="M494.13,704.8q-7.25,0-11.09-3.85t-3.84-11.08V601.68q0-7.23,3.73-11t10.5-3.73q6.76,0,10.49,3.73t3.74,11v14.7h-2.34q3.27-14,12.84-21.23t25.42-8.63A9.26,9.26,0,0,1,551.4,589q2.91,2.92,3.38,9,.47,5.84-2.68,9.45t-9.45,4.32l-5.13.46q-14.24,1.41-21.46,8.75t-7.25,20.63v48.29q0,7.25-3.73,11.08T494.13,704.8Z"/><path d="M607.51,704.8q-7,0-10.73-3.85T593,689.87V601.68q0-7.23,3.74-11T607.27,587q6.76,0,10.5,3.73t3.74,11v17l-2.57-7a39.74,39.74,0,0,1,14.46-18.43q9.81-6.76,23.33-6.77,13.77,0,22.63,6.53t12.37,20.14h-3.27a39.4,39.4,0,0,1,15.4-19.48,43.73,43.73,0,0,1,24.73-7.12q13.06,0,21.58,5.13t12.72,15.47q4.2,10.38,4.2,26.24v56.46q0,7.24-3.85,11.08t-10.85,3.85q-7,0-10.73-3.85t-3.74-11.08V634.58q0-13.07-4.31-19.13T719,609.38q-11.44,0-18,8t-6.53,22.28v50.16q0,7.24-3.73,11.08T680,704.75q-7,0-10.84-3.85t-3.85-11.08V634.58q0-13.07-4.32-19.13t-14.35-6.07q-11.43,0-18,8t-6.53,22.28v50.16Q622.22,704.8,607.51,704.8Z"/><path class="cls-2" d="M754,0c-53.26,0-96.76,42.76-96.76,96A95.69,95.69,0,0,0,670,144l83.27,144.8,82.52-142.5A97.88,97.88,0,0,0,850.08,96,95.76,95.76,0,0,0,754.61,0Zm.76,153a54.77,54.77,0,1,1,54.76-54.78h0a55.08,55.08,0,0,1-54.74,54.82Z"/></svg>