<svg id="Слой_1" data-name="Слой 1" xmlns="http://www.w3.org/2000/svg" xmlns:xlink="http://www.w3.org/1999/xlink" viewBox="0 0 3200 2000"><defs><style>.cls-1{fill:none;}.cls-2{fill:#fff;}.cls-3{clip-path:url(#clip-path);}.cls-4{fill:#caf0ff;}.cls-5{fill:#f6dedc;}.cls-6{fill:#d380be;}.cls-7{fill:#f0d4e9;}.cls-8{fill:#abc8f7;}.cls-9{fill:#d1594f;}.cls-10{fill:#aec3ff;}.cls-11{fill:#ebf3fa;}.cls-12{fill:#cde0fb;}.cls-13{fill:#e2884b;}.cls-14{fill:#c455a8;}.cls-15{fill:#c0d8fb;}.cls-15,.cls-17{opacity:0.5;}.cls-16,.cls-17{fill:#afcdfb;}.cls-18{fill:#f5be00;}.cls-19{fill:#d9aa03;}.cls-20{fill:#e6f1ff;}.cls-21{fill:#4a4d91;}.cls-22{fill:#6558f5;}.cls-23{fill:#2a4e96;}.cls-24{fill:#233862;}.cls-25{fill:#70c0fd;}.cls-26{fill:#2b478b;}.cls-27{fill:#ffb27d;}.cls-28{fill:#e2915a;}.cls-29{fill:#6ea8ce;}.cls-30{fill:#7da8f4;}.cls-31{fill:#e8945b;}.cls-32{fill:#466aa5;}.cls-33{fill:#225399;}.cls-34{fill:#174884;}.cls-35{fill:#ed985f;}.cls-36{fill:#2c3a64;}.cls-37{fill:#cbccea;}.cls-38{fill:#b8cdfb;}.cls-39{fill:#f1f5fe;}.cls-40{fill:#8b82f7;}.cls-41{fill:#2e3552;}</style><clipPath id="clip-path"><path class="cls-1" d="M331.54,1856C155.93,1603.2-180.42,967.86,448.32,601,990.71,284.6,978,115.18,1753.33,148.09c753.74,32,544.9,306,998.64,405.51,501.8,110,427.13,1219.88,130.54,1302.36Z"/></clipPath></defs><g id="Calque_3" data-name="Calque 3"><rect class="cls-2" width="3200" height="2000"/></g><g class="cls-3"><rect class="cls-4" x="2.99" y="60.87" width="3200" height="2000"/><rect class="cls-5" x="362.91" y="760.2" width="678.79" height="1088.49"/><rect class="cls-6" x="1170.91" y="641.3" width="159.54" height="154.77" rx="11.41"/><rect class="cls-7" x="1177.82" y="648.01" width="145.71" height="141.36" rx="10.42"/><path class="cls-6" d="M1247.37,662.13a3.31,3.31,0,1,1,3.31,3.31A3.31,3.31,0,0,1,1247.37,662.13Z"/><path class="cls-6" d="M1274,666.8a3.31,3.31,0,1,1,1.28,4.5A3.3,3.3,0,0,1,1274,666.8Z"/><path class="cls-6" d="M1296.88,685a3.31,3.31,0,1,1-1,4.57A3.32,3.32,0,0,1,1296.88,685Z"/><path class="cls-6" d="M1308.2,713.05a3.31,3.31,0,1,1-3.31,3.3A3.3,3.3,0,0,1,1308.2,713.05Z"/><path class="cls-6" d="M1302.42,745.65a3.3,3.3,0,1,1-4.67,0A3.3,3.3,0,0,1,1302.42,745.65Z"/><path class="cls-6" d="M1281.67,766.46a3.3,3.3,0,1,1-4.67,0A3.3,3.3,0,0,1,1281.67,766.46Z"/><path class="cls-6" d="M1247.37,777.18a3.31,3.31,0,1,1,3.31,3.3A3.3,3.3,0,0,1,1247.37,777.18Z"/><path class="cls-6" d="M1227.21,666.8a3.31,3.31,0,1,0-1.28,4.5A3.3,3.3,0,0,0,1227.21,666.8Z"/><path class="cls-6" d="M1204.36,685a3.31,3.31,0,1,0,1,4.57A3.31,3.31,0,0,0,1204.36,685Z"/><path class="cls-6" d="M1193.05,713.05a3.31,3.31,0,1,0,3.3,3.3A3.31,3.31,0,0,0,1193.05,713.05Z"/><path class="cls-6" d="M1198.83,745.65a3.3,3.3,0,1,0,4.67,0A3.3,3.3,0,0,0,1198.83,745.65Z"/><path class="cls-6" d="M1219.58,766.46a3.3,3.3,0,1,0,4.67,0A3.3,3.3,0,0,0,1219.58,766.46Z"/><path class="cls-6" d="M1249.79,716.35a3.31,3.31,0,1,1,3.3,3.31A3.3,3.3,0,0,1,1249.79,716.35Z"/><rect class="cls-6" x="1252.64" y="675.07" width="0.9" height="41.28"/><rect class="cls-6" x="1249.7" y="706.35" width="27.83" height="2.71" transform="matrix(0.79, -0.62, 0.62, 0.79, -167.33, 931.21)"/><rect class="cls-2" x="362.91" y="573.97" width="678.79" height="148.79"/><rect class="cls-8" x="362.91" y="930.23" width="678.79" height="14.89"/><rect class="cls-5" x="1479.61" y="761.25" width="678.79" height="1088.49"/><rect class="cls-2" x="1474.27" y="573.97" width="678.79" height="148.79"/><rect class="cls-8" x="1479.61" y="925.91" width="678.79" height="14.89"/><rect class="cls-8" x="1479.61" y="1127.41" width="678.79" height="14.89"/><rect class="cls-8" x="1474.27" y="1305.37" width="678.79" height="14.89"/><rect class="cls-8" x="1479.61" y="1499.01" width="678.79" height="14.89"/><rect class="cls-8" x="1479.61" y="1690.72" width="678.79" height="14.89"/><rect class="cls-5" x="2311.75" y="760.2" width="678.79" height="1088.49"/><rect class="cls-9" x="799.09" y="873.45" width="70.7" height="56.78"/><rect class="cls-2" x="799.09" y="883.27" width="38.44" height="8.14"/><rect class="cls-9" x="915.24" y="873.45" width="70.7" height="56.78"/><rect class="cls-2" x="915.24" y="883.27" width="38.44" height="8.14"/><rect class="cls-10" x="386.46" y="884.66" width="83.04" height="45.6"/><rect class="cls-2" x="386.46" y="892.55" width="45.14" height="6.53"/><polygon class="cls-2" points="501.33 859 501.13 863.07 498.14 925.56 486.28 925.56 481.23 863.07 480.9 859 501.33 859"/><polygon class="cls-11" points="501.33 859 501.13 863.07 481.23 863.07 480.9 859 501.33 859"/><rect class="cls-10" x="485.83" y="919.98" width="12.53" height="10.28"/><rect class="cls-12" x="491.34" y="902.58" width="0.88" height="13.87"/><rect class="cls-9" x="524" y="884.66" width="83.04" height="45.6"/><rect class="cls-2" x="524" y="892.55" width="45.14" height="6.53"/><polygon class="cls-9" points="638.87 859 638.67 863.07 635.69 925.56 623.83 925.56 618.77 863.07 618.44 859 638.87 859"/><polygon class="cls-13" points="638.87 859 638.67 863.07 618.77 863.07 618.44 859 638.87 859"/><rect class="cls-2" x="623.38" y="919.98" width="12.53" height="10.28"/><rect class="cls-10" x="659.41" y="884.66" width="83.04" height="45.6"/><rect class="cls-2" x="659.41" y="892.55" width="45.14" height="6.53"/><polygon class="cls-2" points="774.28 859 774.08 863.07 771.09 925.56 759.23 925.56 754.18 863.07 753.85 859 774.28 859"/><polygon class="cls-11" points="774.28 859 774.08 863.07 754.18 863.07 753.85 859 774.28 859"/><rect class="cls-10" x="758.78" y="919.98" width="12.53" height="10.28"/><rect class="cls-12" x="764.3" y="902.58" width="0.88" height="13.87"/><rect class="cls-9" x="1999.23" y="1081.81" width="83.04" height="45.6"/><rect class="cls-2" x="1999.23" y="1089.7" width="45.14" height="6.53"/><polygon class="cls-2" points="2114.1 1056.15 2113.91 1060.22 2110.92 1122.72 2099.06 1122.72 2094 1060.22 2093.67 1056.15 2114.1 1056.15"/><polygon class="cls-11" points="2114.1 1056.15 2113.91 1060.22 2094 1060.22 2093.67 1056.15 2114.1 1056.15"/><rect class="cls-10" x="2098.61" y="1117.13" width="12.53" height="10.28"/><rect class="cls-12" x="2104.12" y="1099.73" width="0.88" height="13.87"/><rect class="cls-10" x="1852.39" y="1081.81" width="83.04" height="45.6"/><rect class="cls-2" x="1852.39" y="1089.7" width="45.14" height="6.53"/><polygon class="cls-2" points="1967.26 1056.15 1967.07 1060.22 1964.08 1122.72 1952.22 1122.72 1947.16 1060.22 1946.83 1056.15 1967.26 1056.15"/><polygon class="cls-11" points="1967.26 1056.15 1967.07 1060.22 1947.16 1060.22 1946.83 1056.15 1967.26 1056.15"/><rect class="cls-10" x="1951.77" y="1117.13" width="12.53" height="10.28"/><rect class="cls-12" x="1957.28" y="1099.73" width="0.88" height="13.87"/><rect class="cls-14" x="1999.23" y="1644.99" width="83.04" height="45.6"/><rect class="cls-2" x="1999.23" y="1652.88" width="45.14" height="6.53"/><polygon class="cls-2" points="2114.1 1619.33 2113.91 1623.4 2110.92 1685.89 2099.06 1685.89 2094 1623.4 2093.67 1619.33 2114.1 1619.33"/><polygon class="cls-11" points="2114.1 1619.33 2113.91 1623.4 2094 1623.4 2093.67 1619.33 2114.1 1619.33"/><rect class="cls-10" x="2098.61" y="1680.31" width="12.53" height="10.28"/><rect class="cls-12" x="2104.12" y="1662.91" width="0.88" height="13.87"/><rect class="cls-10" x="1852.39" y="1644.99" width="83.04" height="45.6"/><rect class="cls-2" x="1852.39" y="1652.88" width="45.14" height="6.53"/><polygon class="cls-2" points="1967.26 1619.33 1967.07 1623.4 1964.08 1685.89 1952.22 1685.89 1947.16 1623.4 1946.83 1619.33 1967.26 1619.33"/><polygon class="cls-11" points="1967.26 1619.33 1967.07 1623.4 1947.16 1623.4 1946.83 1619.33 1967.26 1619.33"/><rect class="cls-10" x="1951.77" y="1680.31" width="12.53" height="10.28"/><rect class="cls-12" x="1957.28" y="1662.91" width="0.88" height="13.87"/><rect class="cls-10" x="1707.1" y="1081.81" width="83.04" height="45.6"/><rect class="cls-2" x="1707.1" y="1089.7" width="45.14" height="6.53"/><polygon class="cls-2" points="1821.97 1056.15 1821.78 1060.22 1818.79 1122.72 1806.93 1122.72 1801.87 1060.22 1801.55 1056.15 1821.97 1056.15"/><polygon class="cls-11" points="1821.97 1056.15 1821.78 1060.22 1801.87 1060.22 1801.55 1056.15 1821.97 1056.15"/><rect class="cls-10" x="1806.48" y="1117.13" width="12.53" height="10.28"/><rect class="cls-12" x="1811.99" y="1099.73" width="0.88" height="13.87"/><rect class="cls-12" x="569.5" y="623.65" width="230.58" height="18.1"/><rect class="cls-12" x="546.62" y="654.75" width="276.34" height="18.1"/><rect class="cls-12" x="1698.37" y="623.65" width="230.58" height="18.1"/><rect class="cls-12" x="1675.49" y="654.75" width="276.34" height="18.1"/><rect class="cls-2" x="2299.65" y="573.97" width="678.79" height="148.79"/><rect class="cls-12" x="2523.75" y="623.65" width="230.58" height="18.1"/><rect class="cls-12" x="2500.88" y="654.75" width="276.34" height="18.1"/><rect class="cls-2" x="431.6" y="930.23" width="45.11" height="25.17"/><rect class="cls-2" x="569.14" y="930.23" width="45.11" height="25.17"/><path class="cls-15" d="M413.09,1129.54H390.67a5.49,5.49,0,0,1-5.47-5.48v-54.19a5.49,5.49,0,0,1,5.48-5.47h22.42a5.48,5.48,0,0,1,5.47,5.47v54.19A5.49,5.49,0,0,1,413.09,1129.54Z"/><path class="cls-16" d="M416.2,1114.18l-.39-2.85h0l-.39-2.85a2.67,2.67,0,0,0-3-2.29l-.23,0a2.79,2.79,0,0,0,.46-1.26,2.67,2.67,0,0,0,5.06-1.65l-.67-2.8h0l-.67-2.8a2.68,2.68,0,0,0-1.2-1.65,2.63,2.63,0,0,0-2-.32,2.68,2.68,0,0,0-2,3.22l1,4.21a2.6,2.6,0,0,0-.56-.59,1,1,0,1,1-1-1.7,14.69,14.69,0,0,0-1.07-4.48l-4.44-3.66a2.67,2.67,0,0,0-3.64,3.89,3,3,0,0,0-.72.09l-2.77.76h0l-2.78.76a2.7,2.7,0,0,0-1.89,2l-.29-.7h0l-1.11-2.66a2.67,2.67,0,0,0-4.93,2.06l1.11,2.66h0l.71,1.7a2.71,2.71,0,0,0-1.69,2.35l-.14,2.87h0l-.15,2.88a2.68,2.68,0,0,0,2.53,2.8,2.5,2.5,0,0,0,.91-.11,2.7,2.7,0,0,0-.22,1.81,2.63,2.63,0,0,0-1.13,1.28l-1.1,2.66h0l-1.1,2.67a2.62,2.62,0,0,0,0,2,2.66,2.66,0,0,0,4.43.78,2.62,2.62,0,0,0,.83,1.08,2.67,2.67,0,0,0,3.74-.5l1.75-2.29h0l1.75-2.28a2.58,2.58,0,0,0,.48-1,2.67,2.67,0,0,0,1.78-.45l.46-.32-.64.83h0l-1.75,2.28a2.68,2.68,0,0,0,4.25,3.25l1.75-2.28h0l1.75-2.29.06-.09a2.46,2.46,0,0,0,.51.6l-.62.82a2.67,2.67,0,0,0,4.24,3.25l3.5-4.58a2.66,2.66,0,0,0-.5-3.74,2.33,2.33,0,0,0-.63-.36h.09A2.68,2.68,0,0,0,416.2,1114.18Zm-24.08-2.55.05-1a2.82,2.82,0,0,0,.67.76,3.53,3.53,0,0,0,.32.21l-1.22.84A2.86,2.86,0,0,0,392.12,1111.63Zm18-2.43.52,3.83a2.67,2.67,0,0,0-2.77-1.47,2.46,2.46,0,0,0,.72-.65l1.51-2A1.1,1.1,0,0,0,410.13,1109.2Zm-6.08-10.36.67.55-.69.48A2.74,2.74,0,0,0,404.05,1098.84Zm.58,8.47a2.64,2.64,0,0,0-.47-1.13,3.46,3.46,0,0,0,.57-.3l2.11-1.45Zm1.75,5a2.71,2.71,0,0,0-2-.61l.06-.72a2.56,2.56,0,0,0,.44.43,2.66,2.66,0,0,0,2,.52A2.59,2.59,0,0,0,406.38,1112.31ZM401,1102.2a2.71,2.71,0,0,0,0,3l0,0a2.89,2.89,0,0,0-.55.29,2.74,2.74,0,0,0,.11-1.17,2.68,2.68,0,0,0-1-1.77h0Zm-2.66,6.42,1-1.34,0,.25-.19,2.47a2.66,2.66,0,0,0-1.36-.65l.55-.73Zm-4.82,11.3.3-.73a2.7,2.7,0,0,0,.13-1.63l.18-.11,4.74-3.27.09-.07a2.34,2.34,0,0,0,.3.73l-.85.59a2.63,2.63,0,0,0-1.07,1.59,2.66,2.66,0,0,0-2.39,1Zm12.57-3.3.15.62a2.49,2.49,0,0,0-.74-.21Zm5.65.63-.21-.86h0l0-.17a2.69,2.69,0,0,0,1.09.8A2.76,2.76,0,0,0,411.73,1117.25Zm-16.19-13.77-1.45,1.89h0l-1.75,2.29,0,0,.09-1.81v-.14l.24-.09a2.68,2.68,0,0,0,1.64-2.67A2.65,2.65,0,0,0,395.54,1103.48Z"/><path class="cls-17" d="M398.43,1129.54h-7.76a5.49,5.49,0,0,1-5.47-5.48v-54.19a5.49,5.49,0,0,1,5.48-5.47h6.88a6.7,6.7,0,0,1,.9,3.39l0,61.2C398.45,1129.18,398.44,1129.36,398.43,1129.54Z"/><path class="cls-18" d="M418.22,1067H385.57a1.07,1.07,0,0,1-1.06-1.07v-5.1a1.07,1.07,0,0,1,1.07-1.06h32.65a1.07,1.07,0,0,1,1.06,1.06v5.1A1.07,1.07,0,0,1,418.22,1067Z"/><path class="cls-19" d="M397.39,1067H385.57a1.07,1.07,0,0,1-1.06-1.07v-5.1a1.07,1.07,0,0,1,1.07-1.06h11.8a1.06,1.06,0,0,1,1.06,1.07v5.1A1.06,1.06,0,0,1,397.39,1067Z"/><path class="cls-15" d="M470.51,1129.54H448.09a5.49,5.49,0,0,1-5.47-5.48v-54.19a5.49,5.49,0,0,1,5.48-5.47h22.42a5.48,5.48,0,0,1,5.47,5.47v54.19A5.49,5.49,0,0,1,470.51,1129.54Z"/><path class="cls-16" d="M473.62,1114.18l-.39-2.85h0l-.39-2.85a2.67,2.67,0,0,0-3-2.29l-.23,0a2.79,2.79,0,0,0,.46-1.26,2.67,2.67,0,0,0,5.06-1.65l-.67-2.8h0l-.67-2.8a2.68,2.68,0,0,0-1.2-1.65,2.63,2.63,0,0,0-2-.32,2.68,2.68,0,0,0-2,3.22l1,4.21a2.6,2.6,0,0,0-.56-.59,1,1,0,1,1-1-1.7,14.69,14.69,0,0,0-1.07-4.48l-4.44-3.66a2.67,2.67,0,0,0-3.64,3.89,3,3,0,0,0-.72.09l-2.77.76h0l-2.78.76a2.7,2.7,0,0,0-1.89,2l-.29-.7h0l-1.11-2.66a2.67,2.67,0,0,0-4.93,2.06l1.11,2.66h0l.71,1.7a2.71,2.71,0,0,0-1.69,2.35l-.14,2.87h0l-.15,2.88a2.68,2.68,0,0,0,2.53,2.8,2.5,2.5,0,0,0,.91-.11,2.7,2.7,0,0,0-.22,1.81,2.63,2.63,0,0,0-1.13,1.28l-1.1,2.66h0l-1.1,2.67a2.62,2.62,0,0,0,0,2,2.66,2.66,0,0,0,4.43.78,2.62,2.62,0,0,0,.83,1.08,2.67,2.67,0,0,0,3.74-.5l1.75-2.29h0l1.75-2.28a2.58,2.58,0,0,0,.48-1,2.67,2.67,0,0,0,1.78-.45l.46-.32-.64.83h0l-1.75,2.28a2.68,2.68,0,0,0,4.25,3.25l1.75-2.28h0l1.75-2.29.06-.09a2.46,2.46,0,0,0,.51.6l-.62.82a2.67,2.67,0,0,0,4.24,3.25l3.5-4.58a2.66,2.66,0,0,0-.5-3.74,2.33,2.33,0,0,0-.63-.36h.09A2.68,2.68,0,0,0,473.62,1114.18Zm-24.08-2.55,0-1a2.82,2.82,0,0,0,.67.76,3.53,3.53,0,0,0,.32.21l-1.22.84A2.86,2.86,0,0,0,449.54,1111.63Zm18-2.43.52,3.83a2.67,2.67,0,0,0-2.77-1.47,2.46,2.46,0,0,0,.72-.65l1.51-2A2.29,2.29,0,0,0,467.55,1109.2Zm-6.08-10.36.67.55-.69.48A2.74,2.74,0,0,0,461.47,1098.84Zm.58,8.47a2.64,2.64,0,0,0-.47-1.13,3.1,3.1,0,0,0,.57-.3l2.11-1.45Zm1.75,5a2.71,2.71,0,0,0-2-.61l.06-.72a2.56,2.56,0,0,0,.44.43,2.66,2.66,0,0,0,2,.52A2.59,2.59,0,0,0,463.8,1112.31Zm-5.39-10.11a2.71,2.71,0,0,0,0,3l0,0a2.89,2.89,0,0,0-.55.29,2.74,2.74,0,0,0,.11-1.17,2.68,2.68,0,0,0-1-1.77h0Zm-2.66,6.42,1-1.34,0,.25-.19,2.47a2.66,2.66,0,0,0-1.36-.65l.55-.73Zm-4.82,11.3.3-.73a2.7,2.7,0,0,0,.13-1.63l.18-.11,4.74-3.27.09-.07a2.34,2.34,0,0,0,.3.73l-.85.59a2.63,2.63,0,0,0-1.07,1.59,2.66,2.66,0,0,0-2.39,1Zm12.57-3.3.15.62a2.49,2.49,0,0,0-.74-.21Zm5.65.63-.21-.86h0l0-.17a2.69,2.69,0,0,0,1.09.8A2.76,2.76,0,0,0,469.15,1117.25ZM453,1103.48l-1.45,1.89h0l-1.75,2.29,0,0,.09-1.81v-.14l.24-.09a2.68,2.68,0,0,0,1.64-2.67A2.65,2.65,0,0,0,453,1103.48Z"/><path class="cls-17" d="M455.85,1129.54h-7.76a5.49,5.49,0,0,1-5.47-5.48v-54.19a5.49,5.49,0,0,1,5.48-5.47H455a6.7,6.7,0,0,1,.9,3.39l0,61.2C455.87,1129.18,455.86,1129.36,455.85,1129.54Z"/><path class="cls-18" d="M475.64,1067H443a1.07,1.07,0,0,1-1.06-1.07v-5.1a1.07,1.07,0,0,1,1.07-1.06h32.65a1.07,1.07,0,0,1,1.06,1.06v5.1A1.07,1.07,0,0,1,475.64,1067Z"/><path class="cls-19" d="M454.82,1067H443a1.07,1.07,0,0,1-1.06-1.07v-5.1a1.07,1.07,0,0,1,1.07-1.06h11.8a1.06,1.06,0,0,1,1.06,1.07v5.1A1.06,1.06,0,0,1,454.82,1067Z"/><rect class="cls-8" x="362.91" y="1129.74" width="678.79" height="14.89"/><rect class="cls-9" x="502.85" y="1072.96" width="70.7" height="56.78"/><rect class="cls-2" x="502.85" y="1082.78" width="38.44" height="8.14"/><rect class="cls-14" x="603.25" y="1072.99" width="103.29" height="56.72"/><rect class="cls-2" x="603.25" y="1082.8" width="56.15" height="8.13"/><rect class="cls-10" x="737" y="1103.19" width="70.62" height="26.52"/><rect class="cls-2" x="737" y="1107.77" width="38.39" height="3.8"/><rect class="cls-10" x="834.48" y="1103.19" width="70.62" height="26.52"/><rect class="cls-2" x="834.48" y="1107.77" width="38.39" height="3.8"/><rect class="cls-11" x="949.76" y="1075.2" width="32.41" height="54.54" rx="8.28"/><rect class="cls-9" x="958.7" y="1070.5" width="12.97" height="4.69"/><rect class="cls-2" x="949.76" y="1093.31" width="32.41" height="14.53"/><path class="cls-11" d="M1005,1096.9h9.54a5,5,0,0,1,5,5v22.86a5,5,0,0,1-5,5H1005a5,5,0,0,1-5-5v-22.86A5,5,0,0,1,1005,1096.9Z"/><rect class="cls-9" x="1005.42" y="1094.08" width="7.81" height="2.83"/><rect class="cls-2" x="1000.04" y="1107.8" width="19.51" height="8.75"/><rect class="cls-2" x="403.82" y="1130.07" width="45.11" height="25.17"/><rect class="cls-2" x="535.5" y="1130.07" width="45.11" height="25.17"/><rect class="cls-2" x="632.34" y="1130.07" width="45.11" height="25.17"/><rect class="cls-2" x="776.53" y="1130.07" width="45.11" height="25.17"/><rect class="cls-2" x="959.62" y="1130.07" width="45.11" height="25.17"/><rect class="cls-8" x="362.91" y="1335.61" width="678.79" height="14.89"/><rect class="cls-14" x="399.47" y="1290.01" width="83.04" height="45.6"/><rect class="cls-2" x="399.47" y="1297.9" width="45.14" height="6.53"/><polygon class="cls-2" points="466.42 1280.75 466.42 1290.01 401.83 1290.01 404.8 1269.84 431.65 1274.59 466.42 1280.75"/><polygon class="cls-11" points="466.42 1280.75 466.42 1290.01 431.65 1290.01 431.65 1274.59 466.42 1280.75"/><polygon class="cls-20" points="408.79 1270.55 405.79 1290.01 401.83 1290.01 404.8 1269.85 408.79 1270.55"/><polygon class="cls-9" points="460.12 1279.64 468.83 1280.5 468.83 1290.01 460.12 1290.01 460.12 1279.64"/><rect class="cls-10" x="520.22" y="1290.01" width="83.04" height="45.6"/><rect class="cls-2" x="520.22" y="1297.9" width="45.14" height="6.53"/><polygon class="cls-2" points="592.82 1280.75 592.82 1290.01 528.24 1290.01 531.2 1269.84 558.06 1274.59 592.82 1280.75"/><polygon class="cls-11" points="592.82 1280.75 592.82 1290.01 558.06 1290.01 558.06 1274.59 592.82 1280.75"/><polygon class="cls-20" points="535.19 1270.55 532.19 1290.01 528.24 1290.01 531.2 1269.85 535.19 1270.55"/><polygon class="cls-9" points="586.52 1279.64 595.24 1280.5 595.24 1290.01 586.52 1290.01 586.52 1279.64"/><rect class="cls-2" x="572.68" y="1335.5" width="45.11" height="25.17"/><rect class="cls-2" x="702.31" y="930.23" width="45.11" height="25.17"/><rect class="cls-2" x="2012.28" y="925.91" width="45.11" height="25.17"/><rect class="cls-2" x="2012.28" y="1127.41" width="45.11" height="25.17"/><rect class="cls-2" x="1857.63" y="1127.41" width="45.11" height="25.17"/><rect class="cls-8" x="2316.07" y="1127.41" width="678.79" height="14.89"/><rect class="cls-10" x="2835.68" y="1081.81" width="83.04" height="45.6"/><rect class="cls-2" x="2835.68" y="1089.7" width="45.14" height="6.53"/><polygon class="cls-2" points="2950.55 1056.15 2950.36 1060.22 2947.37 1122.72 2935.51 1122.72 2930.45 1060.22 2930.13 1056.15 2950.55 1056.15"/><polygon class="cls-11" points="2950.55 1056.15 2950.36 1060.22 2930.45 1060.22 2930.13 1056.15 2950.55 1056.15"/><rect class="cls-10" x="2935.06" y="1117.13" width="12.53" height="10.28"/><rect class="cls-12" x="2940.57" y="1099.73" width="0.88" height="13.87"/><rect class="cls-14" x="2571.94" y="1081.81" width="83.04" height="45.6"/><rect class="cls-2" x="2571.94" y="1089.7" width="45.14" height="6.53"/><polygon class="cls-2" points="2686.81 1056.15 2686.61 1060.22 2683.63 1122.72 2671.77 1122.72 2666.71 1060.22 2666.38 1056.15 2686.81 1056.15"/><polygon class="cls-11" points="2686.81 1056.15 2686.61 1060.22 2666.71 1060.22 2666.38 1056.15 2686.81 1056.15"/><rect class="cls-10" x="2671.32" y="1117.13" width="12.53" height="10.28"/><rect class="cls-12" x="2676.83" y="1099.73" width="0.88" height="13.87"/><rect class="cls-10" x="2352.6" y="1081.81" width="83.04" height="45.6"/><rect class="cls-2" x="2352.6" y="1089.7" width="45.14" height="6.53"/><rect class="cls-2" x="2848.74" y="1127.41" width="45.11" height="25.17"/><rect class="cls-2" x="2371.56" y="1127.41" width="45.11" height="25.17"/><rect class="cls-2" x="2610.15" y="1127.41" width="45.11" height="25.17"/><rect class="cls-2" x="1849.96" y="925.91" width="45.11" height="25.17"/><rect class="cls-2" x="834.44" y="930.23" width="45.11" height="25.17"/><rect class="cls-2" x="953.68" y="930.23" width="45.11" height="25.17"/><polygon class="cls-21" points="946.11 1243.25 757.79 1243.25 731.96 1099.94 920.27 1099.94 946.11 1243.25"/><polygon class="cls-22" points="943.1 1243.25 754.78 1243.25 728.94 1099.94 917.26 1099.94 943.1 1243.25"/><polygon class="cls-21" points="845.85 1279.27 802.53 1279.27 812 1184.68 855.33 1184.68 845.85 1279.27"/><rect class="cls-21" x="805.83" y="1276.55" width="61.15" height="2.72"/><path class="cls-10" d="M2090.15,1260.16v45.34h-45.71V1260c0-.44,0-.87.06-1.3a14,14,0,0,1,8.44-11.54,9.25,9.25,0,0,0,5.79-8l.33-6.55h16.78l.11,6.53a8.92,8.92,0,0,0,5.6,8,14.11,14.11,0,0,1,8.53,11.53C2090.12,1259.19,2090.15,1259.67,2090.15,1260.16Z"/><polygon class="cls-23" points="2077.04 1235.53 2057.46 1235.53 2057.98 1230.41 2076.52 1230.41 2077.04 1235.53"/><path class="cls-2" d="M2090.15,1260.16v29.24h-45.71V1260c0-.44,0-.87.06-1.3h45.58C2090.12,1259.19,2090.15,1259.67,2090.15,1260.16Z"/><path class="cls-10" d="M2121.46,880.57v45.34h-45.71V880.43a11.38,11.38,0,0,1,.07-1.31,13.9,13.9,0,0,1,8.43-11.53,9.27,9.27,0,0,0,5.79-8l.33-6.55h16.78l.11,6.53a8.92,8.92,0,0,0,5.6,8,14.11,14.11,0,0,1,8.53,11.53C2121.43,879.6,2121.46,880.08,2121.46,880.57Z"/><polygon class="cls-23" points="2108.35 855.94 2088.77 855.94 2089.29 850.83 2107.83 850.83 2108.35 855.94"/><path class="cls-2" d="M2121.46,880.57v29.24h-45.71V880.43a11.38,11.38,0,0,1,.07-1.31h45.57C2121.43,879.6,2121.46,880.08,2121.46,880.57Z"/><path class="cls-10" d="M2037,880.57v45.34h-45.72V880.43a11.38,11.38,0,0,1,.07-1.31,13.93,13.93,0,0,1,8.44-11.53,9.24,9.24,0,0,0,5.78-8l.34-6.55h16.78l.11,6.53a8.9,8.9,0,0,0,5.6,8,14.1,14.1,0,0,1,8.52,11.53A13.94,13.94,0,0,1,2037,880.57Z"/><polygon class="cls-23" points="2023.9 855.94 2004.32 855.94 2004.84 850.83 2023.38 850.83 2023.9 855.94"/><path class="cls-2" d="M2037,880.57v29.24h-45.72V880.43a11.38,11.38,0,0,1,.07-1.31h45.57A13.94,13.94,0,0,1,2037,880.57Z"/><path class="cls-10" d="M1954.52,880.57v45.34H1908.8V880.43a11.38,11.38,0,0,1,.07-1.31,13.91,13.91,0,0,1,8.44-11.53,9.24,9.24,0,0,0,5.78-8l.34-6.55h16.78l.1,6.53a8.92,8.92,0,0,0,5.6,8,14.09,14.09,0,0,1,8.53,11.53A13.94,13.94,0,0,1,1954.52,880.57Z"/><polygon class="cls-23" points="1941.41 855.94 1921.83 855.94 1922.35 850.83 1940.89 850.83 1941.41 855.94"/><path class="cls-2" d="M1954.52,880.57v29.24H1908.8V880.43a11.38,11.38,0,0,1,.07-1.31h45.57A13.94,13.94,0,0,1,1954.52,880.57Z"/><path class="cls-10" d="M1878.35,880.57v45.34h-45.71V880.43c0-.44,0-.88.06-1.31a13.93,13.93,0,0,1,8.44-11.53,9.27,9.27,0,0,0,5.79-8l.33-6.55H1864l.11,6.53a8.92,8.92,0,0,0,5.6,8,14.11,14.11,0,0,1,8.53,11.53C1878.32,879.6,1878.35,880.08,1878.35,880.57Z"/><polygon class="cls-23" points="1865.24 855.94 1845.66 855.94 1846.18 850.83 1864.72 850.83 1865.24 855.94"/><path class="cls-2" d="M1878.35,880.57v29.24h-45.71V880.43c0-.44,0-.88.06-1.31h45.58C1878.32,879.6,1878.35,880.08,1878.35,880.57Z"/><path class="cls-10" d="M1806.48,891.62v34.29h-34.57v-34.4a7.94,7.94,0,0,1,0-1,10.54,10.54,0,0,1,6.38-8.73,7,7,0,0,0,4.38-6l.25-5h12.69l.08,4.94a6.75,6.75,0,0,0,4.24,6,10.64,10.64,0,0,1,6.44,8.72A9.82,9.82,0,0,1,1806.48,891.62Z"/><polygon class="cls-23" points="1796.57 873 1781.76 873 1782.15 869.13 1796.17 869.13 1796.57 873"/><path class="cls-2" d="M1806.48,891.62v22.11h-34.57V891.51a7.94,7.94,0,0,1,0-1h34.46A9.82,9.82,0,0,1,1806.48,891.62Z"/><path class="cls-10" d="M1731.81,891.62v34.29h-34.57v-34.4a7.94,7.94,0,0,1,0-1,10.54,10.54,0,0,1,6.38-8.73,7,7,0,0,0,4.37-6l.26-5H1721l.08,4.94a6.74,6.74,0,0,0,4.23,6,10.67,10.67,0,0,1,6.45,8.72A9.82,9.82,0,0,1,1731.81,891.62Z"/><polygon class="cls-23" points="1721.89 873 1707.09 873 1707.48 869.13 1721.5 869.13 1721.89 873"/><path class="cls-2" d="M1731.81,891.62v22.11h-34.57V891.51a7.94,7.94,0,0,1,0-1h34.46A9.82,9.82,0,0,1,1731.81,891.62Z"/><path class="cls-10" d="M1646.12,891.62v34.29h-34.58v-34.4a7.93,7.93,0,0,1,.06-1,10.54,10.54,0,0,1,6.38-8.73,7,7,0,0,0,4.37-6l.25-5h12.7l.08,4.94a6.74,6.74,0,0,0,4.23,6,10.67,10.67,0,0,1,6.45,8.72C1646.09,890.89,1646.12,891.25,1646.12,891.62Z"/><polygon class="cls-23" points="1636.2 873 1621.39 873 1621.79 869.13 1635.81 869.13 1636.2 873"/><path class="cls-2" d="M1646.12,891.62v22.11h-34.58V891.51a7.93,7.93,0,0,1,.06-1h34.46C1646.09,890.89,1646.12,891.25,1646.12,891.62Z"/><path class="cls-18" d="M1554.36,891.62v34.29h-34.57v-34.4c0-.33,0-.66,0-1a10.56,10.56,0,0,1,6.38-8.73,7,7,0,0,0,4.38-6l.25-5h12.69l.08,4.94a6.75,6.75,0,0,0,4.24,6,10.64,10.64,0,0,1,6.44,8.72A9.82,9.82,0,0,1,1554.36,891.62Z"/><polygon class="cls-23" points="1544.45 873 1529.64 873 1530.04 869.13 1544.06 869.13 1544.45 873"/><path class="cls-2" d="M1554.36,891.62v22.11h-34.57V891.51c0-.33,0-.66,0-1h34.46A9.82,9.82,0,0,1,1554.36,891.62Z"/><path class="cls-10" d="M2954.27,1645.38v45.34h-45.71v-45.49c0-.44,0-.87.06-1.3a14,14,0,0,1,8.44-11.54,9.25,9.25,0,0,0,5.79-8l.33-6.55H2940l.11,6.54a8.92,8.92,0,0,0,5.6,8,14.11,14.11,0,0,1,8.53,11.53C2954.24,1644.41,2954.27,1644.89,2954.27,1645.38Z"/><polygon class="cls-23" points="2941.16 1620.75 2921.58 1620.75 2922.1 1615.64 2940.64 1615.64 2941.16 1620.75"/><path class="cls-2" d="M2954.27,1645.38v29.24h-45.71v-29.39c0-.44,0-.87.06-1.3h45.58C2954.24,1644.41,2954.27,1644.89,2954.27,1645.38Z"/><path class="cls-10" d="M2869.82,1645.38v45.34H2824.1v-45.49a11.2,11.2,0,0,1,.07-1.3,13.94,13.94,0,0,1,8.44-11.54,9.22,9.22,0,0,0,5.78-8l.34-6.55h16.78l.1,6.54a8.93,8.93,0,0,0,5.6,8,14.09,14.09,0,0,1,8.53,11.53A13.94,13.94,0,0,1,2869.82,1645.38Z"/><polygon class="cls-23" points="2856.71 1620.75 2837.13 1620.75 2837.65 1615.64 2856.19 1615.64 2856.71 1620.75"/><path class="cls-2" d="M2869.82,1645.38v29.24H2824.1v-29.39a11.2,11.2,0,0,1,.07-1.3h45.57A13.94,13.94,0,0,1,2869.82,1645.38Z"/><path class="cls-10" d="M2787.32,1645.38v45.34h-45.71v-45.49a11.2,11.2,0,0,1,.07-1.3,14,14,0,0,1,8.43-11.54,9.23,9.23,0,0,0,5.79-8l.33-6.55H2773l.1,6.54a8.92,8.92,0,0,0,5.6,8,14.11,14.11,0,0,1,8.53,11.53A13.94,13.94,0,0,1,2787.32,1645.38Z"/><polygon class="cls-23" points="2774.22 1620.75 2754.64 1620.75 2755.15 1615.64 2773.7 1615.64 2774.22 1620.75"/><path class="cls-2" d="M2787.32,1645.38v29.24h-45.71v-29.39a11.2,11.2,0,0,1,.07-1.3h45.57A13.94,13.94,0,0,1,2787.32,1645.38Z"/><path class="cls-10" d="M2711.16,1645.38v45.34h-45.71v-45.49a11.21,11.21,0,0,1,.06-1.3,14,14,0,0,1,8.44-11.54,9.22,9.22,0,0,0,5.78-8l.34-6.55h16.78l.11,6.54a8.92,8.92,0,0,0,5.6,8,14.08,14.08,0,0,1,8.52,11.53A13.94,13.94,0,0,1,2711.16,1645.38Z"/><polygon class="cls-23" points="2698.05 1620.75 2678.47 1620.75 2678.99 1615.64 2697.53 1615.64 2698.05 1620.75"/><path class="cls-2" d="M2711.16,1645.38v29.24h-45.71v-29.39a11.21,11.21,0,0,1,.06-1.3h45.57A13.94,13.94,0,0,1,2711.16,1645.38Z"/><path class="cls-10" d="M2639.29,1656.43v34.29h-34.57v-34.4a7.94,7.94,0,0,1,.05-1,10.54,10.54,0,0,1,6.38-8.73,7,7,0,0,0,4.37-6l.26-4.95h12.69l.08,4.94a6.75,6.75,0,0,0,4.23,6,10.65,10.65,0,0,1,6.45,8.72A9.82,9.82,0,0,1,2639.29,1656.43Z"/><polygon class="cls-23" points="2629.38 1637.81 2614.57 1637.81 2614.96 1633.94 2628.98 1633.94 2629.38 1637.81"/><path class="cls-2" d="M2639.29,1656.43v22.11h-34.57v-22.22a7.94,7.94,0,0,1,.05-1h34.46A9.82,9.82,0,0,1,2639.29,1656.43Z"/><path class="cls-10" d="M2564.62,1656.43v34.29H2530v-34.4a7.93,7.93,0,0,1,.06-1,10.54,10.54,0,0,1,6.38-8.73,7,7,0,0,0,4.37-6l.25-4.95h12.7l.07,4.94a6.77,6.77,0,0,0,4.24,6,10.67,10.67,0,0,1,6.45,8.72C2564.59,1655.7,2564.62,1656.06,2564.62,1656.43Z"/><polygon class="cls-23" points="2554.7 1637.81 2539.89 1637.81 2540.29 1633.94 2554.31 1633.94 2554.7 1637.81"/><path class="cls-2" d="M2564.62,1656.43v22.11H2530v-22.22a7.93,7.93,0,0,1,.06-1h34.46C2564.59,1655.7,2564.62,1656.06,2564.62,1656.43Z"/><path class="cls-10" d="M2478.92,1656.43v34.29h-34.57v-34.4c0-.33,0-.66.05-1a10.57,10.57,0,0,1,6.39-8.73,7,7,0,0,0,4.37-6l.25-4.95h12.69l.08,4.94a6.76,6.76,0,0,0,4.24,6,10.67,10.67,0,0,1,6.45,8.72C2478.9,1655.7,2478.92,1656.06,2478.92,1656.43Z"/><polygon class="cls-23" points="2469.01 1637.81 2454.2 1637.81 2454.6 1633.94 2468.62 1633.94 2469.01 1637.81"/><path class="cls-2" d="M2478.92,1656.43v22.11h-34.57v-22.22c0-.33,0-.66.05-1h34.47C2478.9,1655.7,2478.92,1656.06,2478.92,1656.43Z"/><path class="cls-10" d="M2387.17,1656.43v34.29H2352.6v-34.4a7.94,7.94,0,0,1,.05-1,10.54,10.54,0,0,1,6.38-8.73,7,7,0,0,0,4.38-6l.25-4.95h12.69l.08,4.94a6.76,6.76,0,0,0,4.24,6,10.66,10.66,0,0,1,6.44,8.72A9.82,9.82,0,0,1,2387.17,1656.43Z"/><polygon class="cls-23" points="2377.26 1637.81 2362.45 1637.81 2362.84 1633.94 2376.86 1633.94 2377.26 1637.81"/><path class="cls-2" d="M2387.17,1656.43v22.11H2352.6v-22.22a7.94,7.94,0,0,1,.05-1h34.46A9.82,9.82,0,0,1,2387.17,1656.43Z"/><rect class="cls-14" x="1979.67" y="1217.69" width="49.98" height="87.68"/><rect class="cls-2" x="1971.63" y="1274.07" width="46.66" height="15.92" transform="translate(3277 -712.92) rotate(90)"/><path class="cls-10" d="M1925.6,1260.16v45.34h-45.72V1260a11.2,11.2,0,0,1,.07-1.3,14,14,0,0,1,8.44-11.54,9.22,9.22,0,0,0,5.78-8l.34-6.55h16.78l.1,6.53a8.94,8.94,0,0,0,5.6,8,14.09,14.09,0,0,1,8.53,11.53A13.94,13.94,0,0,1,1925.6,1260.16Z"/><polygon class="cls-23" points="1912.49 1235.53 1892.91 1235.53 1893.43 1230.41 1911.97 1230.41 1912.49 1235.53"/><path class="cls-2" d="M1925.6,1260.16v29.24h-45.72V1260a11.2,11.2,0,0,1,.07-1.3h45.57A13.94,13.94,0,0,1,1925.6,1260.16Z"/><rect class="cls-10" x="1817.69" y="1217.69" width="49.98" height="87.68"/><rect class="cls-8" x="2311.75" y="1305.37" width="678.79" height="14.89"/><path class="cls-10" d="M2624.19,1260.16v45.34h-45.71V1260a11.21,11.21,0,0,1,.06-1.3,14,14,0,0,1,8.44-11.54,9.25,9.25,0,0,0,5.79-8l.33-6.55h16.78l.11,6.53a8.92,8.92,0,0,0,5.6,8,14.08,14.08,0,0,1,8.52,11.53A13.94,13.94,0,0,1,2624.19,1260.16Z"/><polygon class="cls-23" points="2611.08 1235.53 2591.5 1235.53 2592.02 1230.41 2610.56 1230.41 2611.08 1235.53"/><path class="cls-2" d="M2624.19,1260.16v29.24h-45.71V1260a11.21,11.21,0,0,1,.06-1.3h45.57A13.94,13.94,0,0,1,2624.19,1260.16Z"/><rect class="cls-10" x="2513.7" y="1217.69" width="49.98" height="87.68"/><rect class="cls-2" x="2505.67" y="1274.07" width="46.66" height="15.92" transform="translate(3811.04 -1246.96) rotate(90)"/><path class="cls-10" d="M2469.47,1260.16v45.34h-45.72V1260a11.2,11.2,0,0,1,.07-1.3,14,14,0,0,1,8.44-11.54,9.22,9.22,0,0,0,5.78-8l.34-6.55h16.78l.1,6.53a8.94,8.94,0,0,0,5.6,8,14.09,14.09,0,0,1,8.53,11.53A13.94,13.94,0,0,1,2469.47,1260.16Z"/><polygon class="cls-23" points="2456.36 1235.53 2436.78 1235.53 2437.3 1230.41 2455.84 1230.41 2456.36 1235.53"/><path class="cls-2" d="M2469.47,1260.16v29.24h-45.72V1260a11.2,11.2,0,0,1,.07-1.3h45.57A13.94,13.94,0,0,1,2469.47,1260.16Z"/><rect class="cls-14" x="2354.58" y="1217.69" width="49.98" height="87.68"/><rect class="cls-2" x="2346.54" y="1274.07" width="46.66" height="15.92" transform="translate(3651.91 -1087.84) rotate(90)"/><rect class="cls-11" x="2051.95" y="1394.43" width="62.16" height="104.58" rx="15.88"/><rect class="cls-9" x="2069.09" y="1385.43" width="24.86" height="9"/><rect class="cls-2" x="2051.95" y="1429.15" width="62.16" height="27.86"/><rect class="cls-11" x="1973.58" y="1434.69" width="38.23" height="64.32" rx="9.77"/><rect class="cls-9" x="1984.12" y="1429.15" width="15.29" height="5.54"/><rect class="cls-2" x="1973.58" y="1456.04" width="38.23" height="17.14"/><rect class="cls-11" x="1912.53" y="1455.54" width="25.84" height="43.47" rx="6.6"/><rect class="cls-9" x="1919.66" y="1451.79" width="10.33" height="3.74"/><rect class="cls-2" x="1912.53" y="1469.97" width="25.84" height="11.58"/><rect class="cls-11" x="1843.68" y="1434.69" width="38.23" height="64.32" rx="9.77"/><rect class="cls-9" x="1854.23" y="1429.15" width="15.29" height="5.54"/><rect class="cls-2" x="1843.68" y="1456.04" width="38.23" height="17.14"/><rect class="cls-11" x="1782.64" y="1455.54" width="25.84" height="43.47" rx="6.6"/><rect class="cls-9" x="1789.76" y="1451.79" width="10.33" height="3.74"/><rect class="cls-2" x="1782.64" y="1469.97" width="25.84" height="11.58"/><rect class="cls-2" x="722.5" y="399.85" width="581.45" height="52.04"/><rect class="cls-2" x="805.24" y="144.2" width="5.41" height="255.64"/><rect class="cls-2" x="1216.45" y="144.2" width="5.41" height="255.64"/><rect class="cls-2" x="1941.41" y="399.85" width="581.45" height="52.04"/><rect class="cls-2" x="2024.15" y="144.2" width="5.41" height="255.64"/><rect class="cls-2" x="2435.36" y="144.2" width="5.41" height="255.64"/><rect class="cls-2" x="362.91" y="760.2" width="674.74" height="16.98"/><rect class="cls-2" x="345.64" y="760.2" width="17.27" height="1088.49"/><rect class="cls-2" x="1033.07" y="760.2" width="17.27" height="1088.49"/><rect class="cls-2" x="1489.87" y="760.2" width="674.74" height="16.98"/><rect class="cls-2" x="1472.6" y="760.2" width="17.27" height="1088.49"/><rect class="cls-2" x="2160.02" y="760.2" width="17.27" height="1088.49"/><rect class="cls-2" x="2316.07" y="760.2" width="674.74" height="16.98"/><rect class="cls-2" x="2298.8" y="760.2" width="17.27" height="1088.49"/><rect class="cls-2" x="2986.22" y="760.2" width="17.27" height="1088.49"/><path class="cls-24" d="M1204,1796.87h51a123.7,123.7,0,0,0-4.06-18.31,52.93,52.93,0,0,0-2.89-7.34c-5-9.9-36.46-3.61-36.46-3.61s-2.93,2.51-5.21,12.09A100,100,0,0,0,1204,1796.87Z"/><path class="cls-25" d="M1297.62,1018s40.64,7.13,49.82,31.12,61.09,411.4,61.09,411.4-25.7,20.36-80.87,13S1297.62,1018,1297.62,1018Z"/><path class="cls-24" d="M1358.11,1780.77c.14,6.94,1,13.51,3.53,16.1H1462.5c-1.28-3.65-4.91-9.14-15.27-10.82-11.76-1.91-30.11-7.57-40.81-18.89a30.42,30.42,0,0,1-7.91-14.31c-4.74-21.13-39.23,6.47-39.23,6.47A169.39,169.39,0,0,0,1358.11,1780.77Z"/><path class="cls-24" d="M1401.54,1770.5c-11.27,3.59-32.81,14.57-46.5,9.41-8.84-3.33-58.28-146.34-61.49-208.89a158.42,158.42,0,0,0-2.53-18.63c-2.93-16.15-8-38.33-14-62.81-15.82-65.59-37.22-147.64-36.75-173.86.72-40.71,121.3-8.54,121.3-8.54s8.3,33.39,10,81.74c3.28,95.95,12.28,258,36.77,370.6C1409.37,1764.3,1406.22,1769,1401.54,1770.5Z"/><path class="cls-26" d="M1317.85,1315.86l-63.75,462s-28,6.75-49.77,1.35c0,0-18.66-245.72-17.11-305.13s-13.39-159,3.42-169.94S1317.85,1315.86,1317.85,1315.86Z"/><path class="cls-2" d="M1182.58,1039.11s67-43.32,115-21.16c7.66,3.53,16.39,13.38,22.65,20.27,17.37,19.14,51.3,323.16,51.3,323.16s-96.34,32.63-189-11.07Z"/><path class="cls-25" d="M1301.43,1016.85s67.83,27.79,77,49.15S1434,1279.73,1434,1295.11s-40.37,50-48.74,25.14c-7-20.59-58.55-191.61-70.91-231.63Z"/><path class="cls-27" d="M1287.35,1038c-14.81,2.9-36.56-.2-52.48-10.69,7.19-17.17,10.14-30.73,11.19-39.5.06-.47.1-.92.15-1.36a40.71,40.71,0,0,0,.18-9.05h38.28s10.46,4.79,10.46,8.1c0,1.76,0,3.46,0,5.07.08,4.4.25,8.25.48,11.55a105.31,105.31,0,0,0,2,15.8S1302.3,1035.09,1287.35,1038Z"/><path class="cls-28" d="M1295.66,1002.15c-29,5.6-45.83-10.25-49.6-14.31-.54-.58-.82-.93-.82-.93.31-.15.63-.29,1-.43,10.79-4.37,35.29-.89,49,4.12C1295.26,995,1295.43,998.85,1295.66,1002.15Z"/><path class="cls-27" d="M1236.58,971.14c5.19,27.89,41.17,27,56.72,25.22,4.38-.48,7.13-1,7.13-1,4.94-1.32,7.69-9.09,9-19.28,2.54-20.14-.67-49.72-4.07-57.29-5.12-11.38-14.77-23.69-51-14.81S1229.93,935.41,1236.58,971.14Z"/><path class="cls-24" d="M1306.68,903.2c-5-6.86-15.46-15.24-25-20.4-20.5-11.09-46.72.35-46.83.4-29.6,13-37.33,35.66-21.64,70.94,16.59,37.3,32.4,33.1,32.4,33.1s-3.36-2.08-3-13.71c0-.66,0-1.21.07-1.69a7.83,7.83,0,0,0-2.47-6.36c-3.68-3.28-5.47-13.21-2.39-16,3.71-3.33,8.93.72,10.6,3.83a4.55,4.55,0,0,0,6.5,1.43c9.21-5.82,3.23-17.47,12-24.6s26.67-1.14,39.87-6.82C1324.07,916.91,1310.41,908.36,1306.68,903.2Z"/><path class="cls-25" d="M1310.8,1488.94q-8.74,2.25-17.34,3.68c-5.09.86-10.13,1.51-15.2,1.93-28.66,2.5-57.46-1.54-91.12-11.19q-11.36-3.25-23.55-7.37c-.85-.29,2.22-89.3,5.78-181.1.36-9.48.73-19,1.1-28.45.16-4,.31-8,.47-12,3.22-81.2,6.42-154.52,7.09-158.48,1.54-8.93,3-16.55,4.55-23.14,4.58-19.25,10.28-29.79,22.7-38.86,1.2-.92,11.14-5.93,19.89-10.29,7.26-3.61,13.7-6.75,13.7-6.75h0c2.89,1.41,6.36,8,10,17.32,6.68,17.11,13.86,43.32,18.87,62.9a.19.19,0,0,1,0,.1h0c3.22,12.64,5.53,22.48,6.19,25.3,1.12,4.78,2.59,14,4.34,26.52,2.35,17,5.17,40.15,8.15,66.4.3,2.69.61,5.42.92,8.17.35,3.15.71,6.34,1.06,9.55.12,1,.23,2.06.34,3.11C1289.9,1246.72,1311.21,1483.62,1310.8,1488.94Z"/><path class="cls-29" d="M1288.42,1233.23c-19.34-.85-112.66-5.1-114.37-7.84-1.92-3.06,37.88-96.65,37.88-96.65,0,.19-7.75,75.72,53.88,85.68,6.44,1-1,9.19,3.41,10.08C1269.57,1227.65,1288.07,1230,1288.42,1233.23Z"/><path class="cls-29" d="M1283.06,1250.52,1262,1262.71c-9.4,6-38.79,17.94-79.41,28.91-4.27,1.15-8.68,2.25-13.22,3.26.36-9.48.74-19,1.1-28.44a119.13,119.13,0,0,1-15.27-2.11c.16-1.25.33-2.5.49-3.75,5.17-2.12,10.31-4.16,15.26-6.1,4-1.57,7.94-3.07,11.64-4.47,16.68-6.34,29.06-10.63,29.06-10.63L1261,1255Z"/><path class="cls-29" d="M1296.27,1009.08c3.85,1.46,11.25,9,12.91,13.22l5.2,66.32s-11.1-48.67-16.76-70.67A37.6,37.6,0,0,1,1296.27,1009.08Z"/><path class="cls-2" d="M1286,978.91s3.79,4.89,8.89,4.27,8.88-2.23,9.5-4.55,1-4,1-4S1298.32,973.11,1286,978.91Z"/><path class="cls-27" d="M1273.62,1223.2l15.6-7.28c3.27-1.53,14.86-4.16,14.86-4.16l-.47,6.32-11.48,7.89-17.65,9Z"/><rect class="cls-9" x="1299.52" y="1191.56" width="74.82" height="60.09" transform="translate(-243.49 337.31) rotate(-13.19)"/><rect class="cls-2" x="1296.47" y="1206.26" width="40.68" height="8.61" transform="translate(-241.51 332.44) rotate(-13.19)"/><path class="cls-27" d="M1281.82,1244s18.65.57,29.14-.45,22.62-11.41,23.28-14-.88-7.21-12.9-7.85c-10.21-.55-22.55,0-22.55,0l-24.87,5.72Z"/><path class="cls-25" d="M1283.06,1250.52s-12.33,5.66-22.44,7.7l-.11,0c-18.63,3.74-50,9-77.93,8.71-4.13,0-8.19-.2-12.12-.51a119.13,119.13,0,0,1-15.27-2.11c-10.23-2.16-18.79-5.81-24.4-11.52-41.62-42.4,22.72-194.56,36.24-209.36,15.8-17.29,44.62-23.35,60.54-25.43l1.92-.25c5.59-.67,9.18-.8,9.38-.81h0s-1.25,4-3.34,10.82c-.81,2.63-1.75,5.68-2.78,9.09-9.78,32-28.64,94.93-37,130.42-3,13-4.67,22.29-3.93,25.07,3.24,12.12,36.87,18.35,58.18,21.1a125.71,125.71,0,0,0,15.76,1C1278.79,1212.49,1283.06,1250.52,1283.06,1250.52Z"/><path class="cls-29" d="M1241.77,1008s-13.21,2.29-19.08,10.71c0,0,45.26,79.27,45.07,78.56S1253,1017.74,1241.77,1008Z"/><rect class="cls-9" x="738.95" y="1309.74" width="1069.35" height="538.95"/><rect class="cls-2" x="704.56" y="1279.27" width="1138.12" height="44.07"/><path class="cls-2" d="M990,1426.94h20.12c11.89,0,19.4,6.78,19.4,17.21,0,11.44-9.19,17.42-20.42,17.42H998.92V1478h-9Zm19.39,26.54c6.78,0,11-3.79,11-9.26,0-6-4.3-9.11-11-9.11H998.92v18.37Z"/><path class="cls-2" d="M1038.65,1426.94h9v21.22H1072v-21.22h9v51h-9v-21.51h-24.36V1478h-9Z"/><path class="cls-2" d="M1112.15,1426.57h8.31l22.46,51.41h-9.48l-5.17-12.32h-24.14l-5.25,12.32h-9.19Zm12.83,31.14-8.82-20.42-8.75,20.42Z"/><path class="cls-2" d="M1151.67,1426.94h22.75c12,0,19,6.42,19,16.26,0,8.38-5,13.42-12.18,15.46L1195,1478h-10.57l-12.69-17.79h-11.08V1478h-9Zm22.09,25.3c6.42,0,10.5-3.35,10.5-8.68s-3.94-8.45-10.57-8.45h-13v17.13Z"/><path class="cls-2" d="M1204.39,1426.94h9.55l15.53,24.13,15.53-24.13h9.55v51h-9v-36.6l-16.11,24.06h-.29l-16-23.92V1478h-8.82Z"/><path class="cls-2" d="M1285.76,1426.57h8.31l22.46,51.41h-9.48l-5.18-12.32h-24.13l-5.25,12.32h-9.19Zm12.83,31.14-8.82-20.42-8.75,20.42Z"/><path class="cls-2" d="M1319.88,1452.46c0-14.51,10.86-26.4,26.32-26.4,9.41,0,15.1,3.29,20,8l-5.76,6.64c-4.08-3.79-8.46-6.35-14.29-6.35-9.77,0-16.84,8-16.84,18.16,0,10,7.07,18.15,16.84,18.15,6.27,0,10.28-2.55,14.65-6.63l5.77,5.83c-5.33,5.54-11.16,9-20.71,9C1331,1478.85,1319.88,1467.26,1319.88,1452.46Z"/><path class="cls-2" d="M1390.24,1457.85,1370,1426.94h10.57l14.3,22.6,14.43-22.6h10.28l-20.27,30.7V1478h-9Z"/><rect class="cls-2" x="738.95" y="1666.24" width="1069.35" height="87.03"/><path class="cls-2" d="M859,1519.87a67.41,67.41,0,1,1,47.66-19.74A67,67,0,0,1,859,1519.87Zm0-128.62a61.22,61.22,0,1,0,43.28,17.93A60.83,60.83,0,0,0,859,1391.25Z"/><polygon class="cls-2" points="902.49 1441.46 869.94 1441.46 869.94 1408.92 847.95 1408.92 847.95 1441.46 815.4 1441.46 815.4 1463.46 847.95 1463.46 847.95 1496 869.94 1496 869.94 1463.46 902.49 1463.46 902.49 1441.46"/><rect class="cls-8" x="2316.07" y="925.91" width="670.15" height="14.89"/><rect class="cls-2" x="2416.5" y="925.91" width="45.11" height="25.17"/><rect class="cls-2" x="2582.16" y="925.91" width="45.11" height="25.17"/><rect class="cls-2" x="2847.26" y="925.91" width="45.11" height="25.17"/><rect class="cls-8" x="2316.07" y="1499.01" width="670.15" height="14.89"/><rect class="cls-8" x="2316.07" y="1690.72" width="670.15" height="14.89"/><rect class="cls-18" x="2361.91" y="1446.72" width="74.87" height="52.29"/><rect class="cls-10" x="2467.28" y="1424.14" width="74.87" height="74.87"/><rect class="cls-18" x="2572.64" y="1424.14" width="74.87" height="74.87"/><rect class="cls-2" x="2361.91" y="1461.58" width="36.37" height="7.04"/><rect class="cls-2" x="2467.28" y="1436.79" width="36.37" height="7.04"/><rect class="cls-2" x="2572.64" y="1436.79" width="36.37" height="7.04"/><rect class="cls-14" x="2346.87" y="867.01" width="50.88" height="58.91"/><rect class="cls-11" x="2346.87" y="877.75" width="31.39" height="18.71"/><rect class="cls-10" x="2437.63" y="867.01" width="50.88" height="58.91"/><rect class="cls-11" x="2437.63" y="877.75" width="31.39" height="18.71"/><rect class="cls-9" x="2509.9" y="889.58" width="31.39" height="36.34"/><rect class="cls-11" x="2509.9" y="896.2" width="19.36" height="11.54"/><rect class="cls-9" x="2568.9" y="889.58" width="31.39" height="36.34"/><rect class="cls-11" x="2568.9" y="896.2" width="19.36" height="11.54"/><rect class="cls-9" x="2635.45" y="889.58" width="31.39" height="36.34"/><rect class="cls-11" x="2635.45" y="896.2" width="19.36" height="11.54"/><rect class="cls-10" x="2812.54" y="872.33" width="46.28" height="53.59"/><rect class="cls-11" x="2812.54" y="882.1" width="28.55" height="17.02"/><rect class="cls-14" x="2906.98" y="872.33" width="46.28" height="53.59"/><rect class="cls-11" x="2906.98" y="882.1" width="28.55" height="17.02"/><rect class="cls-10" x="2727.9" y="872.33" width="46.28" height="53.59"/><rect class="cls-11" x="2727.9" y="882.1" width="28.55" height="17.02"/><path class="cls-9" d="M1897.82,1533.64V1579h-45.71V1533.5a11.28,11.28,0,0,1,.06-1.31,14,14,0,0,1,8.44-11.54,9.25,9.25,0,0,0,5.79-8l.33-6.55h16.78l.11,6.53a8.92,8.92,0,0,0,5.6,8,14.08,14.08,0,0,1,8.52,11.53A13.94,13.94,0,0,1,1897.82,1533.64Z"/><polygon class="cls-23" points="1884.71 1509.01 1865.13 1509.01 1865.65 1503.9 1884.19 1503.9 1884.71 1509.01"/><rect class="cls-30" x="1914.1" y="1510.25" width="83.04" height="45.6" transform="translate(-473.42 2056.91) rotate(-50.26)"/><polygon class="cls-9" points="2013.88 1511.6 2012.56 1515.45 1992.28 1574.64 1980.89 1571.34 1993.44 1509.9 1994.26 1505.91 2013.88 1511.6"/><polygon class="cls-11" points="2013.88 1511.6 2012.56 1515.45 1993.44 1509.9 1994.26 1505.91 2013.88 1511.6"/><rect class="cls-10" x="1980.33" y="1567.39" width="12.53" height="10.28" transform="translate(516.6 -491.09) rotate(16.17)"/><rect class="cls-12" x="1990.21" y="1550.52" width="0.88" height="13.87" transform="translate(511.21 -491.84) rotate(16.13)"/><path class="cls-27" d="M1899.4,1389.76s19,12.62,21.88,17.93,2,16.71,2,16.71-18.93,8.43-16.62-1.48c2.21-9.49-6.17-5.8-11.48-10.39s-11.51-18-11.51-18Z"/><path class="cls-24" d="M1709.51,978.12s46.78-56.22,71.55-20.24c0,0,18.48,7.66,25.16,39.12,6.82,32.09-14.52,56.48-25.55,50.45-7.08-3.87-12.43,8.52-12.43,8.52Z"/><path class="cls-27" d="M1651.48,1277.3c-37.2-13.71-73-77.36-73-77.36l11.73-8.21c9.77,14.29,53.73,41.73,53.73,41.73,1-12,2.46-23,4.25-32.86,12.21-67.28,40.12-87.2,47.62-91.43a16.9,16.9,0,0,1,1.89-1s0,.5-.09,1.43c-.1,2-.34,6.11-.73,11.7C1694,1163,1682.56,1288.76,1651.48,1277.3Z"/><path class="cls-24" d="M1776,952.18s6.29-25.17,43.25-17.3c0,0-17.69-2.23-22.54,4.58,0,0,14-6.42,22.8-1s10.22,23.45,8.91,29-11,21.88-17.43,21.88-14-5.63-14-5.63Z"/><path class="cls-27" d="M1831.25,1346c-18.37-41.21-27.16-52.87-27.47-65.83-.25-10.26,4.81-21.32,14.63-48.45a101,101,0,0,0,4.89-19.61c7.77-52.3-22.47-108.83-41.27-112.69-5.23-1.38-14.09-20.27-14-50.71l-2.35.47-39.58,7.84s.9,12.45.93,24.19c0,9.77-.57,19-2.78,20.21-2.85.26-4.53.43-4.53.43s-33,45.83-35.78,88.45,26.43,61.15-.22,146.33C1656.53,1423.62,1841.4,1368.76,1831.25,1346Z"/><path class="cls-31" d="M1726.11,1057s.9,12.45.93,24.19c22.15-.63,33.85-20.83,38.65-32Z"/><path class="cls-24" d="M1769.78,1044.86s11.6-18.34,14.39-34c2-11.2-3.71-52.7-45.41-46.72a56.6,56.6,0,0,0-23.5,8.88c-9.06,6.12-22.12,19.32-7.51,55.53l3.79,12.24Z"/><path class="cls-27" d="M1718.71,1068.12s52.41.86,52.44-31.78,6.83-54.51-26.63-56.45-40,10.52-42.63,21.41S1705.08,1067.05,1718.71,1068.12Z"/><path class="cls-24" d="M1720.65,979.09s14.35,38.3,36.37,44,31.57-.24,31.57-.24S1771.7,1009.4,1768.2,986C1768.2,986,1731.48,960.87,1720.65,979.09Z"/><path class="cls-24" d="M1724.21,982.2s-10.72,8.55-13.33,16.86-3.78,25.43-8.77,24.85c0,0-10.81-26,1.34-40.76C1716.33,967.54,1724.21,982.2,1724.21,982.2Z"/><path class="cls-21" d="M1784.85,1741.43a517.26,517.26,0,0,1-33,92.65l-17.28-1.19s8.48-40.32,8-94.79c-.34-38.08-5-83.09-20.1-126.06-51.7-147.67-43.35-255.14-43.35-255.14l97.24,11.37,4.53.53c.4,44.66,1.55,105.29,2.56,152.7.89,42.64,1.68,74.58,1.68,74.58C1803.78,1636.34,1797,1693.17,1784.85,1741.43Z"/><path class="cls-27" d="M1899.4,1389.76l-15.73,4.72s-51.89-86.11-56.61-108.51c-1.54-7.3-5.31-21.89-9.72-38.25-9.11-33.86-20.87-75.3-20.87-75.3l-3.87-16.78-13.21-57.21s25.29,2.59,40.09,8.77c4.9,2,8.63,4.49,9.94,7.35,10.87,23.9,21.72,84.21,29.35,127.24,4.25,24,7.49,42.59,9.18,46.54C1872.67,1299.33,1887.09,1359.88,1899.4,1389.76Z"/><path class="cls-22" d="M1840.64,1733.06c-5.59,59.67-30.21,98.25-30.21,98.25l-8.25,6s-7.82-42-13.35-92c-5.26-47.54-12.49-97.84-20.65-113.19-32.43-60.89-42.19-290.76-42.19-290.76l98.58-4.89c9.92,16.67,14.24,44,15.27,75.09,2.59,78.45-15.85,180.75-18.61,195.54a.08.08,0,0,1,0,0,5.23,5.23,0,0,0,.65,3.31C1841.49,1649.22,1844.32,1693.65,1840.64,1733.06Z"/><path class="cls-24" d="M1722.22,983.5s10.22,40.1,38,52.94c0,0-27.79-24.64-30.15-51.11S1722.22,983.5,1722.22,983.5Z"/><path class="cls-27" d="M1590.19,1191.73c0-1.62,1.36-25-2.81-29.94s-12.67-11.91-15.35-11.7-13.14,14.12-10,24.78,16.42,25.07,16.42,25.07Z"/><path class="cls-27" d="M1840.64,1733.06c-5.59,59.67-30.21,98.25-30.21,98.25L1802,1839s-7.67-43.69-13.2-93.7C1794.66,1745.68,1820.34,1746.62,1840.64,1733.06Z"/><path class="cls-27" d="M1784.85,1741.43a517.26,517.26,0,0,1-33,92.65l-17.28-1.19s8.48-40.32,8-94.79C1748.39,1741.06,1760.49,1744.05,1784.85,1741.43Z"/><path class="cls-24" d="M1761.78,1848.58h-11c-3.69-.59-6.42-1.66-10.21-2.15-5.76-.76-8.41,1.6-8.93,2.15l-.11.11h-46.86c-1.18-1.69-.05-5.59,1.06-8.46a6.68,6.68,0,0,1,4.39-4c5-1.44,14.77-2.72,23.74-10.84,5-4.56,24.37-16.77,24.37-16.77l.11,0c.42,0,2.44.63,11.23,8.05,4.55,3.83,12.29-5.4,12.29-5.4a10.9,10.9,0,0,1,2.54,3.44,11.68,11.68,0,0,1,1,7.19c-.7,4.23,1.56,12.07,3.36,17.38,1.09,3.22,2,5.5,2,5.5S1771.27,1847.39,1761.78,1848.58Z"/><path class="cls-32" d="M1764.36,1814.67c-2.63,1.86-8.19,5.51-11.88,6-5,.65-14.29-12.05-14.29-12.05l.11,0c.42,0,2.44.63,11.23,8.05,4.55,3.83,12.29-5.4,12.29-5.4A10.9,10.9,0,0,1,1764.36,1814.67Z"/><path class="cls-32" d="M1761.78,1848.58h-11c-3.69-.59-6.42-1.66-10.21-2.15-5.76-.76-8.41,1.6-8.93,2.15l-.11.11h-46.86c-1.18-1.69-.05-5.59,1.06-8.46,1.42-1.26,1.83,5.5,2.61,6.58s38.23.39,40.39-1.18,8.65-4.33,17.7-2.17c7.87,1.88,19.47-2.94,22.34-4.22,1.09,3.22,2,5.5,2,5.5S1771.27,1847.39,1761.78,1848.58Z"/><path class="cls-24" d="M1820.65,1848.58h-11c-3.69-.59-6.42-1.66-10.21-2.15-5.76-.76-8.41,1.6-8.93,2.15l-.11.11H1743.5c-1.18-1.69,0-5.59,1.06-8.46a6.68,6.68,0,0,1,4.39-4c5-1.44,14.77-2.72,23.74-10.84,5-4.56,24.38-16.77,24.38-16.77l.1,0c.42,0,2.44.63,11.23,8.05,4.55,3.83,12.29-5.4,12.29-5.4a10.9,10.9,0,0,1,2.54,3.44,11.61,11.61,0,0,1,1,7.19c-.7,4.23,1.56,12.07,3.36,17.38,1.09,3.22,2,5.5,2,5.5S1830.14,1847.39,1820.65,1848.58Z"/><path class="cls-32" d="M1823.23,1814.67c-2.63,1.86-8.19,5.51-11.88,6-5,.65-14.28-12.05-14.28-12.05l.1,0c.42,0,2.44.63,11.23,8.05,4.55,3.83,12.29-5.4,12.29-5.4A10.9,10.9,0,0,1,1823.23,1814.67Z"/><path class="cls-32" d="M1820.65,1848.58h-11c-3.69-.59-6.42-1.66-10.21-2.15-5.76-.76-8.41,1.6-8.93,2.15l-.11.11H1743.5c-1.18-1.69,0-5.59,1.06-8.46,1.43-1.26,1.83,5.5,2.61,6.58s38.23.39,40.4-1.18,8.65-4.33,17.69-2.17c7.87,1.88,19.47-2.94,22.34-4.22,1.09,3.22,2,5.5,2,5.5S1830.14,1847.39,1820.65,1848.58Z"/><path class="cls-33" d="M1867.67,1170.91c-19.56-34.39-20.49-48.19-39.7-60.1-21.44-9.78-37.47-10.9-37.47-10.9s-7.47,33.12-12.18,37.44-73.13,11.4-74.71,3.54c-1.5-7.51,17.79-36.72,19.23-39.29a28.4,28.4,0,0,0-3.11.24c-7.8,1-13.3,1.81-17.27,2.48-5.27.91-7.86,1.62-9.58,2.46-4.65.76-27.49,7.79-51.5,72.93,0,0,19.5,24.46,34.58,28.79l1.19.31c-2.62,43.73-18.72,116.52-12.92,158.63,5.58,40.49,90.75,30.13,107.63,26.38q17.36-3.85,26.92-36.56c2.11,15.22,6.86,33.06,17.5,34.16,17.42,1.8,24.62-1.2,26.72-7.8a23.51,23.51,0,0,0,.61-7.88c-.8-16-11.84-70.93-22.35-117-4.47-19.62-10.69-34.16-13-49.06C1829.21,1209.65,1857.63,1193.12,1867.67,1170.91Z"/><path class="cls-27" d="M1562,1166.32c.49-1.9,3-39,4-35.49s3.57,23,3.57,23Z"/><polygon class="cls-33" points="1572.77 1112.73 1574.22 1116.53 1596.69 1174.92 1585.83 1179.7 1556.01 1124.55 1554.07 1120.96 1572.77 1112.73"/><polygon class="cls-34" points="1572.77 1112.73 1574.22 1116.53 1556.01 1124.55 1554.07 1120.96 1572.77 1112.73"/><rect class="cls-2" x="1584.71" y="1171.82" width="12.53" height="10.28" transform="translate(-339.46 741.26) rotate(-23.77)"/><path class="cls-27" d="M1569.53,1151.89s10.1-15.54,12.57-14.68c3.52,1.24-9.16,21-9.16,21s9.4-14.74,10.86-13.63c3.35,2.52-2,11.78-7.26,18.88,0,0,9.45-8.65,9.76-7.09,1.08,5.46-10.37,18.68-10.37,18.68l-6.4-14.62Z"/><path class="cls-2" d="M1729,1048.74s-.9,3.85-10.47,3.25c0,0-8-.49-7.79-4.72C1710.69,1047.27,1718.48,1044.26,1729,1048.74Z"/><path class="cls-2" d="M2026.5,1491.63h-228a3.94,3.94,0,0,1-3.94-3.94h0a3.94,3.94,0,0,1,3.94-4h228a4,4,0,0,1,3.94,4h0A4,4,0,0,1,2026.5,1491.63Z"/><rect class="cls-2" x="1816.51" y="1534.82" width="192.85" height="6.62"/><rect class="cls-2" x="1825.54" y="1579.55" width="175.27" height="8.83"/><rect class="cls-2" x="1811.7" y="1484.47" width="6.86" height="104.82" transform="translate(-336.7 523.8) rotate(-15.04)"/><rect class="cls-2" x="1909.5" y="1491.63" width="6.86" height="92.29"/><rect class="cls-2" x="1857.74" y="1491.24" width="6.86" height="93.78" transform="matrix(0.99, -0.13, 0.13, 0.99, -181.67, 251.03)"/><rect class="cls-2" x="1958.65" y="1533.45" width="104.82" height="6.86" transform="matrix(0.26, -0.97, 0.97, 0.26, 4.95, 3080.21)"/><rect class="cls-2" x="1918.13" y="1534.7" width="93.78" height="6.86" transform="translate(187.63 3289.71) rotate(-82.63)"/><path class="cls-19" d="M1796.75,1488.44h0a2.6,2.6,0,0,1,.76-3.59l114.79-74.79a2.62,2.62,0,0,1,3.6.75h0a2.62,2.62,0,0,1-.76,3.6l-114.8,74.79A2.6,2.6,0,0,1,1796.75,1488.44Z"/><path class="cls-19" d="M2026.34,1488.44h0a2.6,2.6,0,0,0-.76-3.59l-114.79-74.79a2.62,2.62,0,0,0-3.6.75h0a2.61,2.61,0,0,0,.76,3.6l114.8,74.79A2.6,2.6,0,0,0,2026.34,1488.44Z"/><path class="cls-27" d="M1885.74,1398.64s3.15,14.86,7,19.21,9.19,11.6,11.36,9.67-2.42-18.13-2.42-18.13Z"/><path class="cls-27" d="M2507.07,1118.47s-8.84-28.5-13.85-31.57-25.94-13.37-27.18-10.59,11.29,16.33,14.08,20.85,4.18,9,2.23,7-12.54-8.48-13.66-7,5.3,7,8.36,11.48,6.41,12,17.28,13.65S2507.07,1118.47,2507.07,1118.47Z"/><polygon class="cls-2" points="2487.94 1059.1 2487.23 1063.11 2476.37 1124.73 2464.6 1123.23 2467.49 1060.6 2467.67 1056.52 2487.94 1059.1"/><polygon class="cls-11" points="2487.94 1059.1 2487.23 1063.11 2467.49 1060.6 2467.67 1056.52 2487.94 1059.1"/><rect class="cls-10" x="2464.16" y="1118.38" width="12.53" height="10.28" transform="translate(161.83 -303.26) rotate(7.26)"/><rect class="cls-12" x="2471.65" y="1101.07" width="0.88" height="13.87" transform="translate(160.36 -304.38) rotate(7.28)"/><path class="cls-19" d="M2763.25,1119.3S2738.67,1222,2599,1237.23c-38.08,4.14-108.57-105.77-108.57-105.77s-1.74-23.61,16.66-21c0,0,77.92,69.55,88.16,75.41,9.09,5.19,90.26-53.1,117.5-64.7S2763.25,1119.3,2763.25,1119.3Z"/><path class="cls-24" d="M2903.89,1779.8s14.62,13.34,11.77,22.81-16,15.8-17.83,27.38-8.91,17.9-15.32,17.9h-30.59s-4.73-8.15,6.68-10.61,15.71-16.06,15-28.7,1.07-29.48,1.07-29.48l24.24-5.62Z"/><path class="cls-24" d="M2724.6,1814.3s2.62,30.35-3.79,33.51l-82.11-.17s0-9.48,13.18-11.58,36.36-9.83,40.28-27S2724.6,1814.3,2724.6,1814.3Z"/><path class="cls-23" d="M2655.28,1385.54s4.33,53.2,9.42,117.16c6.91,86.88,15.23,193.59,16.06,213.81,1.42,35.1,7.13,91.25,7.13,91.25s13.54,13.35,40.64,7.72c0,0,24.14-80.16,31-165,.11-1.39.21-2.79.32-4.19,6.42-86.34,16.39-268.15,16.39-268.15Z"/><path class="cls-24" d="M2655.28,1385.54s4.33,53.2,9.42,117.16l94.87,147.81c.11-1.39.21-2.79.32-4.19,6.42-86.34,16.39-268.15,16.39-268.15Z"/><path class="cls-23" d="M2675.05,1391.86s78.06,192.68,129.39,283.24,67.37,115.82,67.37,115.82,29.41-11.58,32.08-19.48c0,0-19.63-174.82-54-217.43-19.42-24.08-42.24-96.34-43.31-121.62s-6.95-75.28-6.95-75.28Z"/><path class="cls-27" d="M2777.76,1094.91s-52.82,25.49-83.27,16a72,72,0,0,1,20.62-16.49c-1.06-6.11-1.88-11.42-2.35-15.91a146.82,146.82,0,0,1-1.29-16.26l20.38-16,19.33-15.34C2749.65,1074,2777.76,1094.91,2777.76,1094.91Z"/><path class="cls-18" d="M2805.59,1367c.12,3.23-6.78,6.92-9.84,8.3-22.59,9.92-43.68,16.84-67.57,19.14-28.22,2.89-61.6-3.46-73.08-3.22a4.73,4.73,0,0,1-3.16-1.28c-.82-.57-1.4-34.59-.82-77.37,0-1.73,0-3.46.12-5.19v-.57c.23-16.72.82-34.25,1.64-51.78,1.64-38.52,4.69-75.65,9.84-96.17,6.2-24.22,20.26-40.25,33-51.9l10.53-9.22c10.54,2.07,21.67,1.49,32.79-3.92,12.19-5.88,25.3-12.22,27.41-10.61,15.92,11.64,26.7,37.82,32.44,71.27l.09.49a372.45,372.45,0,0,1,4.71,62.92c0,8.31-.23,16.84-.7,25.26-2.35,38.13-.78,72.08.76,95.61.3,4.65.61,8.88.88,12.67C2805.13,1358.1,2805.48,1363.29,2805.59,1367Z"/><path class="cls-19" d="M2803.78,1338.74c-87.55-101.09-33.24-174.55-33.24-174.55L2799,1155a372.45,372.45,0,0,1,4.71,62.92c0,8.31-.23,16.84-.7,25.26C2800.67,1281.26,2802.24,1315.21,2803.78,1338.74Z"/><path class="cls-35" d="M2751.53,1047.4s-13.35,24.33-38.77,31.14a146.82,146.82,0,0,1-1.29-16.26l20.38-16Z"/><path class="cls-27" d="M2702.18,1061.57s50.39,8.25,55.12-22.73,14.42-50.77-17.55-57.34-40,4.32-44.18,14.28S2689.2,1058.63,2702.18,1061.57Z"/><path class="cls-36" d="M2775.61,977.79c.46-.53,1.51-.95,3.86-1.08a9.49,9.49,0,0,0-4.38-1.23c-.49-3.27-2.23-9.05-7.85-10.45a7,7,0,0,1,3.41,5.08c-6.5-6.69-20.45-11.55-59.06-8.5-50.9,4-34.12,36.6-27.54,40.48s23.18-6.76,35.45-5.79,14.61,18.71,18.78,21.15,2.52-1.87,8.16-4.42,6.17,6.79,4.54,12.86,6.12,14.08,6.12,14.08l7.82-8.43c7.82-8.42,15.19-44.11,11.64-51.72C2776.24,979.15,2775.93,978.47,2775.61,977.79Z"/><path class="cls-27" d="M2479.73,1112.72s-8.66-13.92-7.7-16.65,11.72,9,14.48,8.32S2479.73,1112.72,2479.73,1112.72Z"/><path class="cls-2" d="M2937.67,1487.89h-228a3.93,3.93,0,0,1-3.94-3.94h0a3.93,3.93,0,0,1,3.94-3.94h228a3.94,3.94,0,0,1,3.94,3.94h0A3.94,3.94,0,0,1,2937.67,1487.89Z"/><rect class="cls-2" x="2727.68" y="1531.09" width="192.85" height="6.61"/><rect class="cls-2" x="2736.71" y="1575.81" width="175.27" height="8.83"/><rect class="cls-2" x="2722.87" y="1480.73" width="6.86" height="104.82" transform="translate(-304.5 760.17) rotate(-15.04)"/><rect class="cls-2" x="2820.67" y="1487.89" width="6.86" height="92.29"/><rect class="cls-2" x="2768.91" y="1487.51" width="6.86" height="93.78" transform="translate(-173.68 367.69) rotate(-7.36)"/><rect class="cls-2" x="2869.82" y="1529.71" width="104.82" height="6.86" transform="translate(683.3 3957.43) rotate(-74.96)"/><rect class="cls-2" x="2829.3" y="1530.97" width="93.78" height="6.86" transform="translate(985.67 4190.1) rotate(-82.63)"/><path class="cls-19" d="M2707.92,1484.71h0a2.61,2.61,0,0,1,.76-3.6l114.79-74.79a2.61,2.61,0,0,1,3.6.76h0a2.61,2.61,0,0,1-.76,3.59l-114.8,74.79A2.61,2.61,0,0,1,2707.92,1484.71Z"/><path class="cls-19" d="M2937.51,1484.71h0a2.61,2.61,0,0,0-.76-3.6L2822,1406.32a2.61,2.61,0,0,0-3.6.76h0a2.6,2.6,0,0,0,.76,3.59l114.8,74.79A2.61,2.61,0,0,0,2937.51,1484.71Z"/><path class="cls-27" d="M2844,1383.45s-3.79,25.22-5.55,30.61c-2.8,8.55-16.87,13-31.25,9.07,0,0,13.35-7.8,12.85-10.67-.82-4.64-7.4,2.14-9.73,2.44a41.14,41.14,0,0,0,1.26-9.36c-.09-4.24,11.3-14.71,15.31-23.75S2844,1383.45,2844,1383.45Z"/><path class="cls-18" d="M2766.46,1082.93s31.88,15.1,47.16,38.31c23.71,36,51.2,167.2,51.7,179.34s-20.06,97.93-20.06,97.93-20.86-1.38-26.24-11.9c0,0,4.17-88.13,1.53-93.8s-87-118.22-77.48-142.23S2766.46,1082.93,2766.46,1082.93Z"/><path class="cls-37" d="M474.66,1655.73s-30.83-36-1.9-58.8c0,0,21.13-12.79,38.35-11.75,0,0-24.41,40.93-16.51,45s23.91-47.57,23.91-47.57,48.08-4.66,63.55,2.77c0,0-41.11,33.64-32.45,35.64s53-31,53-31,44.75,7.61,42.36,34.91-17.8,35.73-24.58,35-46.42-15.86-47.28-10.31,23,23.7,39.71,24.55c0,0-31.55,34.79-52.52,24.75s-22.75-26-35.82-31.92-24.23-6-18.83.13,29.05,12,36.52,25.23,14.18,22.13-7.51,18.87-57-19.14-58.5-37.31Z"/><path class="cls-38" d="M623,1625.66S501.5,1621,474.66,1655.73c0,0-5.94,17.78-24.2,34l-2.85,7.76s21.06-22.21,28.6-23.55C476.21,1673.91,464.42,1630.85,623,1625.66Z"/><path class="cls-38" d="M450.46,1689.7s-26.09,19.29-27.9,53.76l4.73.42s8.33-35.64,23.39-49.58S450.46,1689.7,450.46,1689.7Z"/><path class="cls-38" d="M366.88,1610.51s49-27.46,26.16-64.73c0,0-18.31-22.88-37.92-28.77,0,0,10.46,55.58,0,56.88s-7.19-62.76-7.19-62.76-51.65-24.84-71.92-22.88c0,0,32,54.26,21.57,53S251.16,1485,251.16,1485s-52.95-9.81-61.45,21.57,5.23,47.08,13.07,49,58.19,1.3,56.88,7.84-35.3,17-54.26,11.12c0,0,20.92,51.65,48.38,49s36-19.61,53-20.92,29.42,3.27,20.92,7.85-37.27,1.5-51,13.17-24.84,18.86.66,24.09,71.26,2,80.41-17.65Z"/><path class="cls-38" d="M213.9,1516.36s137.29,44.46,153,94.15c0,0-.65,22.22,13.08,47.72V1668s-14.38-33.34-22.23-37.92C357.73,1630.12,388.46,1587,213.9,1516.36Z"/><path class="cls-38" d="M380,1658.23s21.17,32.15,9.1,71.29l-5.44-1.46s5.28-43.11-5.79-64.79S380,1658.23,380,1658.23Z"/><path class="cls-39" d="M444.89,1572.64s-64.63-36.2-34.47-85.32c0,0,24.13-30.17,50-37.92,0,0-13.79,73.25,0,75s9.48-82.73,9.48-82.73,68.08-32.75,94.8-30.16c0,0-42.23,71.53-28.44,69.8s61.19-74.11,61.19-74.11,69.8-12.93,81,28.44-6.9,62.05-17.24,64.63-76.7,1.73-75,10.34,46.54,22.41,71.53,14.66c0,0-27.58,68.08-63.77,64.63s-47.4-25.85-69.81-27.58-38.78,4.31-27.58,10.35,49.13,2,67.22,17.36,32.75,24.87-.86,31.76-93.93,2.58-106-23.27Z"/><path class="cls-38" d="M646.56,1448.53s-181,58.61-201.67,124.11c0,0,.87,29.3-17.23,62.91v12.93s19-44,29.3-50C457,1598.49,416.45,1541.61,646.56,1448.53Z"/><path class="cls-38" d="M427.66,1635.55s-27.91,42.38-12,94l7.18-1.93s-7-56.82,7.63-85.4S427.66,1635.55,427.66,1635.55Z"/><path class="cls-22" d="M442.72,1841.4a126.61,126.61,0,0,0,126.61-126.61H316.1A126.61,126.61,0,0,0,442.72,1841.4Z"/><path class="cls-40" d="M473.87,1840.43a126.68,126.68,0,0,1-142.33-125.64H363A126.63,126.63,0,0,0,473.87,1840.43Z"/><rect class="cls-40" x="311.94" y="1714.79" width="260.27" height="3.88"/><rect class="cls-22" x="399.58" y="1833.44" width="80.42" height="14.45"/></g><g id="Calque_2" data-name="Calque 2"><path class="cls-41" d="M86.57,1847.89H3113.38a3.44,3.44,0,0,1,3.44,3.44v1.18a3.44,3.44,0,0,1-3.44,3.44H86.57a3.44,3.44,0,0,1-3.44-3.44v-1.18a3.45,3.45,0,0,1,3.45-3.45Z"/></g></svg>