<svg xmlns="http://www.w3.org/2000/svg" viewBox="0 0 3200 2000"><defs><style>.cls-1,.cls-11{fill:#fff;}.cls-2{fill:#caf0ff;}.cls-3{fill:#07085b;}.cls-4{fill:#6558f5;}.cls-5,.cls-7{fill:#8b82f7;}.cls-11,.cls-22,.cls-26,.cls-5,.cls-9{isolation:isolate;}.cls-22,.cls-5{opacity:0.3;}.cls-6{opacity:0.75;}.cls-26,.cls-8{fill:#d1594f;}.cls-9{fill:#b8cdfb;}.cls-10{fill:#70c0fd;}.cls-11{opacity:0.8;}.cls-12{fill:#ffc0bb;}.cls-13{fill:#f99893;}.cls-14{fill:#283f56;}.cls-15{fill:#ffe5b6;}.cls-16{fill:#1a1a1a;}.cls-17{fill:#9e9da2;}.cls-18{fill:#333;}.cls-19{fill:#dc827b;}.cls-20{fill:#282828;}.cls-21{fill:#daeef7;}.cls-22{fill:#e87b50;}.cls-23{fill:#f9b7b4;}.cls-24{fill:#f5be00;}.cls-25{fill:#d9aa03;}</style></defs><g id="Calque_2" data-name="Calque 2"><rect class="cls-1" width="3200" height="2000"/></g><g id="Calque_3" data-name="Calque 3"><path class="cls-2" d="M335.09,1797.54S-67.67,845.41,798.61,668.4C1339.15,558,1325,174,2089.87,200.18c786.77,33,476.64,770.05,576.41,936.08,101.69,169.22,362.42,237.17,267.85,661.28Z"/><rect class="cls-3" x="177.46" y="1793.97" width="2845.07" height="7.13" rx="3.13"/><path class="cls-4" d="M2492.75,1794V1635.81H2432v27.73h-21.32v-55.46h-77.85v55.46h-17.06v-42.66h-17.07V1364.94h-21.33v-162.1H2173.89l1.07,195.39-69,.8V1242.61H1999v166.26l-32,1.07V1242.3h-37.32v-71.46h-22.41v-48h-87.41v48h-22.41v71.46H1760.1v90.83l-17.23,1.07-5.17-269.1H1622.54v143.15l-40.51,1.07V985.57h-13.87V938.35H1446.58v47.22h-13.86v352.21H1407.1v-144.7h-21.33v-46h-30.93V1012.91H1310v134.21h-30.93v46h-21.24v159.06H1242.9l-11.72-.15V1167.7l-315.67,3v415H888.83v-54.35h-96v104.51H765.12v-38.42H704.34v77.85H643.55V1794Z"/><path class="cls-1" d="M2126.42,335.58a79.45,79.45,0,0,0-74.65,52.3,54.5,54.5,0,0,0-81,47.63c0,1.79.1,3.55.27,5.3h354.7A43.82,43.82,0,0,0,2273.15,408l-1.15.29A64.48,64.48,0,0,0,2194.45,374a79.36,79.36,0,0,0-68-38.42Z"/><path class="cls-1" d="M758.75,923.05a23.22,23.22,0,0,1,27.88-17.34l.53.13a34.11,34.11,0,0,1,41-18.11,42,42,0,0,1,75.47,7.34,28.81,28.81,0,0,1,42.84,25.19c0,.93,0,1.87-.13,2.79Z"/><path class="cls-1" d="M1461.35,578.82a28.08,28.08,0,0,1,33.67-21l.75.18a41.35,41.35,0,0,1,49.7-21.92,50.91,50.91,0,0,1,91.44,8.9,34.92,34.92,0,0,1,51.9,30.51,31.86,31.86,0,0,1-.17,3.4Z"/><path class="cls-1" d="M2295.31,778.91a28.07,28.07,0,0,1,33.7-21l.72.18a41.3,41.3,0,0,1,49.69-22,50.91,50.91,0,0,1,91.41,8.87,34.92,34.92,0,0,1,51.9,30.52,32.05,32.05,0,0,1-.16,3.39Z"/><path class="cls-1" d="M497.56,1077.15a28.08,28.08,0,0,1,33.7-21l.72.18a41.34,41.34,0,0,1,49.69-22,50.92,50.92,0,0,1,91.45,8.89A34.94,34.94,0,0,1,725,1073.79c0,1.15-.07,2.28-.17,3.39Z"/><path class="cls-1" d="M1016.05,961.27,1008.3,955c.19-.24,4.91-6.07,14-16.09l7.4,6.7C1020.82,955.39,1016.1,961.21,1016.05,961.27Z"/><path class="cls-1" d="M2152,934.2c-10.34-9.92-20.81-19.69-31.22-29.05l6.68-7.4c10.46,9.42,21,19.27,31.44,29.26ZM1059.16,915l-7-7.1c10-9.92,20.58-19.86,31.34-29.54l6.68,7.41c-10.65,9.54-21.08,19.37-31,29.18Zm1029.56-37.86c-10.95-9.21-22.08-18.25-33.08-26.85l6.14-7.87c11.1,8.68,22.33,17.8,33.36,27.09ZM1122.5,857.92l-6.34-7.7c11.06-9.11,22.41-18.06,33.83-26.62l6,8c-11.32,8.43-22.58,17.29-33.53,26.3Zm899-33.22c-11.61-8.36-23.4-16.49-35.06-24.16l5.49-8.33c11.77,7.74,23.68,15.95,35.4,24.4ZM1190.6,806.78l-5.6-8.24c11.88-8.1,24-16,36.14-23.41l5.22,8.51C1214.36,791,1202.34,798.77,1190.6,806.78ZM1950.43,778c-12.27-7.3-24.75-14.31-37.08-20.81l4.68-8.81c12.47,6.61,25.08,13.71,37.5,21.09Zm-687.28-15.68-4.8-8.74c12.66-6.93,25.54-13.56,38.31-19.7l4.32,9c-12.62,6-25.35,12.59-37.85,19.43Zm612.13-24.13c-12.93-6-26-11.69-39-16.86L1840,712c13.13,5.25,26.41,11,39.53,17.09Zm-535.51-12.7-3.81-9.22c13.32-5.53,26.86-10.69,40.26-15.36l3.28,9.42c-13.21,4.58-26.57,9.68-39.72,15.13Zm456.55-18.75c-13.49-4.48-27.22-8.57-40.71-12.15l2.56-9.65c13.72,3.64,27.6,7.78,41.29,12.33ZM1420,697.55l-2.7-9.61c13.86-3.9,27.94-7.39,41.84-10.41l2.09,9.76c-13.71,3-27.56,6.39-41.22,10.23ZM1714.24,685c-13.9-2.73-28-5-41.91-6.8l1.26-9.9c14.14,1.81,28.46,4.13,42.57,6.91Zm-211.19-5.23-1.45-9.87c14.22-2.08,28.64-3.7,42.86-4.8l.8,9.94c-14,1.07-28.21,2.66-42.2,4.71Zm127-5.52c-14.07-.8-28.37-1.2-42.42-1.06l-.09-10c14.27-.13,28.82.22,43.11,1.07Z"/><path class="cls-1" d="M2197,979.32c-4.8-5.05-9.73-10.12-14.61-15.09l7.12-7c4.9,5,9.85,10.1,14.7,15.21Z"/><rect class="cls-5" x="1632.42" y="1097.52" width="93.09" height="12.45"/><g class="cls-6"><rect class="cls-7" x="941.54" y="1200.79" width="37.35" height="48.38"/><rect class="cls-7" x="941.54" y="1356.4" width="37.35" height="48.38"/><rect class="cls-7" x="998.94" y="1200.79" width="37.35" height="48.38"/><rect class="cls-7" x="1056.33" y="1200.79" width="37.35" height="48.38"/><rect class="cls-7" x="1056.33" y="1461.71" width="37.35" height="48.38"/><rect class="cls-7" x="998.94" y="1277.98" width="37.35" height="48.38"/><rect class="cls-7" x="998.94" y="1544.35" width="37.35" height="48.38"/><rect class="cls-7" x="998.94" y="1356.4" width="37.35" height="48.38"/><rect class="cls-7" x="1105.66" y="1356.4" width="37.35" height="48.38"/><rect class="cls-7" x="1105.66" y="1544.35" width="37.35" height="48.38"/><rect class="cls-7" x="1152.63" y="1200.79" width="37.35" height="48.38"/><rect class="cls-7" x="1455.5" y="1008.88" width="20.75" height="26.88"/><rect class="cls-7" x="1498.66" y="1008.88" width="20.75" height="26.88"/><rect class="cls-7" x="1455.5" y="1056.3" width="20.75" height="26.88"/><rect class="cls-7" x="1541.83" y="1056.3" width="20.75" height="26.88"/><rect class="cls-7" x="1498.66" y="1103.74" width="20.75" height="26.88"/><rect class="cls-7" x="1541.83" y="1103.74" width="20.75" height="26.88"/><rect class="cls-7" x="1455.5" y="1151.17" width="20.75" height="26.88"/><rect class="cls-7" x="1541.83" y="1151.17" width="20.75" height="26.88"/><rect class="cls-7" x="1455.5" y="1198.61" width="20.75" height="26.88"/><rect class="cls-7" x="1498.66" y="1198.61" width="20.75" height="26.88"/><rect class="cls-7" x="1541.83" y="1246.04" width="20.75" height="26.88"/><rect class="cls-7" x="1455.5" y="1340.92" width="20.75" height="26.88"/><rect class="cls-7" x="1791.69" y="1261.62" width="20.75" height="26.88"/><rect class="cls-7" x="1906.96" y="1261.62" width="20.75" height="26.88"/><rect class="cls-7" x="1847.79" y="1188.61" width="20.75" height="26.88"/><rect class="cls-7" x="2181.3" y="1229.17" width="20.75" height="26.88"/><rect class="cls-7" x="2250.69" y="1229.17" width="20.75" height="26.88"/><rect class="cls-7" x="2250.69" y="1277.08" width="20.75" height="26.88"/><rect class="cls-7" x="2181.3" y="1324.99" width="20.75" height="26.88"/><rect class="cls-7" x="2250.69" y="1324.99" width="20.75" height="26.88"/><rect class="cls-7" x="2181.3" y="1372.89" width="20.75" height="26.88"/><rect class="cls-7" x="2215.99" y="1420.81" width="20.75" height="26.88"/><rect class="cls-7" x="2250.69" y="1420.81" width="20.75" height="26.88"/><rect class="cls-7" x="2250.69" y="1468.72" width="20.75" height="26.88"/><rect class="cls-7" x="2181.3" y="1516.62" width="20.75" height="26.88"/><rect class="cls-7" x="2215.99" y="1516.62" width="20.75" height="26.88"/><rect class="cls-7" x="1892.36" y="1188.61" width="20.75" height="26.88"/><rect class="cls-7" x="1791.69" y="1315.69" width="20.75" height="26.88"/><rect class="cls-7" x="1830.11" y="1315.69" width="20.75" height="26.88"/><rect class="cls-7" x="1791.69" y="1369.77" width="20.75" height="26.88"/><rect class="cls-7" x="1868.53" y="1369.77" width="20.75" height="26.88"/><rect class="cls-7" x="1906.96" y="1369.77" width="20.75" height="26.88"/><rect class="cls-7" x="1830.11" y="1423.84" width="20.75" height="26.88"/><rect class="cls-7" x="1791.69" y="1477.92" width="20.75" height="26.88"/><rect class="cls-7" x="1868.53" y="1477.92" width="20.75" height="26.88"/><rect class="cls-7" x="1906.96" y="1477.92" width="20.75" height="26.88"/><rect class="cls-7" x="1791.69" y="1586.07" width="20.75" height="26.88"/><rect class="cls-7" x="1868.53" y="1586.07" width="20.75" height="26.88"/><rect class="cls-7" x="1152.63" y="1461.71" width="37.35" height="48.38"/><rect class="cls-7" x="1272.75" y="1213.41" width="114.55" height="12.46"/><rect class="cls-7" x="1632.42" y="1178.14" width="93.09" height="12.46"/><rect class="cls-7" x="1632.42" y="1205.02" width="93.09" height="12.46"/><rect class="cls-7" x="1632.42" y="1285.65" width="93.09" height="12.46"/><rect class="cls-7" x="2005.44" y="1261.62" width="93.09" height="12.46"/><rect class="cls-7" x="2005.44" y="1288.49" width="93.09" height="12.45"/><rect class="cls-7" x="2005.44" y="1342.24" width="93.09" height="12.46"/><rect class="cls-7" x="2005.44" y="1422.87" width="93.09" height="12.46"/><rect class="cls-7" x="2005.44" y="1476.63" width="93.09" height="12.46"/><rect class="cls-7" x="2005.44" y="1530.38" width="93.09" height="12.45"/><rect class="cls-7" x="2005.44" y="1584.13" width="93.09" height="12.46"/><rect class="cls-7" x="1632.42" y="1366.27" width="93.09" height="12.46"/><rect class="cls-7" x="1632.42" y="1420.03" width="93.09" height="12.46"/><rect class="cls-7" x="1272.75" y="1249.17" width="114.55" height="12.46"/><rect class="cls-7" x="1272.75" y="1284.92" width="114.55" height="12.46"/><rect class="cls-7" x="1272.75" y="1356.43" width="114.55" height="12.46"/><rect class="cls-7" x="1272.75" y="1427.93" width="114.55" height="12.46"/><rect class="cls-7" x="1272.75" y="1463.69" width="114.55" height="12.46"/><rect class="cls-7" x="1272.75" y="1535.19" width="114.55" height="12.46"/><rect class="cls-7" x="1272.75" y="1606.71" width="114.55" height="12.46"/></g><rect class="cls-5" x="1632.42" y="1124.39" width="93.09" height="12.46"/><path class="cls-8" d="M969.05,1034.65,995.94,1088l28.22-52.67c8.35-19.33-5.06-41.36-26.09-42.24h-1.88C975.15,993.44,961.19,1015.13,969.05,1034.65Zm13.76-11.07a13.95,13.95,0,1,1,13.77,14.11h0a13.92,13.92,0,0,1-13.76-14.11Z"/><path class="cls-9" d="M587.25,1545.58a28.22,28.22,0,0,0,22.09-22.77c5.92-32.39,24.67-89.42,83.25-90.45,69-1.23,81.28,50.48,79.64,88.15a16.08,16.08,0,0,0,15.31,16.81c.45,0,.89,0,1.34,0,20.41-.84,50.17,3.89,50.17,38.69,0,0,18.45,65.54-34,81.34s-77.85-5-100.34,16.09c-20.76,19.46-88.52,39.67-121.23-4.62a71.51,71.51,0,0,0-18.67-17.46c-12.28-8-28.45-27.27-14.94-71.55a49.37,49.37,0,0,1,36.53-34.06Z"/><path class="cls-3" d="M715.18,1602.59a90.42,90.42,0,0,0-13.32,12.55c-1,1.2-2.05,2.41-3,3.7.35-5.82,1-10.4,2.12-13.43,1.25-3.44,4.85-9.27,9.28-17.52a127.22,127.22,0,0,1,17-17.61c6.82-5.73,14.27-10.62,22.75-13.32-8.86,1.38-17,5.18-24.63,9.9q-3.61,2.25-7.21,4.92c10.11-22.83,20-56.24,15.95-100.67,0,0-1.14,29.87-7.57,57.13a83.94,83.94,0,0,0-4.2-12.73c-4.27-9.78-7.09-14.07-13-22.47,4.94,9.06,7.25,13.61,10.41,23.7,6.25,21.46,2.19,28.68-1.19,36-10,21.71-22.17,37.35-27.33,50.07q-2.91-6.21-5.92-12.32-6.4-13-13.27-25.82c-.74-1.38-1.49-2.75-2.25-4.13a70.18,70.18,0,0,1-2.29-10.32c-.49-3-.9-6.07-1.19-9.15a147.58,147.58,0,0,1-.63-18.57,147.73,147.73,0,0,0-1.07,18.69c0,3.13.13,6.27.37,9.42,0,.51.08,1,.12,1.55l-.07-.14c-2.4-4.17-4.8-8.31-7.36-12.38s-5.11-8.08-7.83-12a126.53,126.53,0,0,0-8.65-11.2,124.78,124.78,0,0,1,7.94,11.8c2.47,4.08,4.8,8.26,7.07,12.49s4.43,8.53,6.56,12.81,4.19,8.69,6.21,13.08c.26.56.52,1.13.81,1.69-1.37-.42-2.65-.8-4.93-1.37a145.78,145.78,0,0,0-26.77-3.9,146.26,146.26,0,0,1,26.12,6.72,81.7,81.7,0,0,1,7.7,3.2q4.5,10,8.74,20.23,2.77,6.73,5.46,13.49c.88,2.25,1.76,4.52,2.61,6.77v.06c0,.58,0,1.14,0,1.7.32,4,1.08,13.69,1.9,26a80.41,80.41,0,0,0-21.61-7.48c-8.69-1.69-15.15-1.41-28.59-1.89a25.86,25.86,0,0,1-4.52-4.1,35.32,35.32,0,0,1-8.27-18.41,37.53,37.53,0,0,0,6.86,19.86c.61.85,1.27,1.67,2,2.45-3.8-.19-7.59-.47-11.37-.93a71.6,71.6,0,0,1-12.22-2.5,33.66,33.66,0,0,1-11.45-5.64,34.92,34.92,0,0,0,11.08,6.71,71.91,71.91,0,0,0,11.25,3.32l-2.32.37c-2.8.51-5.6,1.08-8.37,1.76s-5.52,1.46-8.24,2.4a55,55,0,0,0-7.92,3.45,53.79,53.79,0,0,1,8.08-2.75c2.75-.7,5.52-1.23,8.3-1.68s5.61-.8,8.38-1,10.8-.53,13.61-.59h0c14.33,1.93,23,2,32.72,4.7a75.84,75.84,0,0,1,22.36,10.29l.8.57c2.06,33.46,3.93,79.25-.45,90.86-6.53,17.28,33.1,11.07,33.1,11.07s-13.33-7.43-18.61-46.3c-3.06-22.59-6.49-51.8-6.69-73.85.19-.41.36-.8.55-1.24.62-1.33,1.3-2.65,2-4a82.59,82.59,0,0,1,4.69-7.55,88.94,88.94,0,0,1,11.51-13.38A95.38,95.38,0,0,1,746.19,1587,93.31,93.31,0,0,0,715.18,1602.59Z"/><path class="cls-10" d="M989.12,1610.5a133.44,133.44,0,0,0,75.43-21.43c18-11.72,34.86-29,38-53.39,7.12-55.72-25-53.88-32.82-76.61s15.48-32.9,5.39-74.3c-5.41-22.23-22.55-31.86-49.27-67.6s-59.09-54.05-82.72-40.72-22.67,42-40.23,51.53-44.56,42.86-34.26,106.2-59.37,39.72-32.1,113C856.46,1600.92,943.88,1609.66,989.12,1610.5Z"/><path class="cls-3" d="M957.31,1562.56c2.49,35.22,6.12,175.37.85,187.55-7.88,18.17,33.42-4.47,33.42-4.47s-11-83.68-17.34-124.56c-2.83-18.19-8-72.93-8.06-77.69.21-.43.43-.86.67-1.3.73-1.4,1.56-2.79,2.4-4.16a86.51,86.51,0,0,1,5.65-7.94,99,99,0,0,1,13.86-14c9.6-8.23,22.76-15.28,34.83-19.72-15.12,3.82-28.48,10.16-37.38,16.31a103.73,103.73,0,0,0-16.06,13.21q-1.86,1.89-3.63,3.88c.43-6.12,1.26-11,2.56-14.12,1.51-3.62,5.85-9.75,11.21-18.41a144.54,144.54,0,0,1,20.55-18.53c8.39-6.16,17.35-11.2,27.42-14-10.56,1.44-20.37,5.35-29.7,10.4-2.94,1.6-5.82,3.32-8.72,5.17,12.19-24,24.17-59.16,19.21-105.88,0,0-1.39,31.41-9.13,60.09a81.58,81.58,0,0,0-5.07-13.39c-5.16-10.3-8.56-14.82-15.68-23.63,5.93,9.49,8.74,14.3,12.52,24.92,7.3,21.84,3,29.62-1.42,37.87-12.1,22.84-26.73,39.28-33,52.67q-3.51-6.52-7.13-13-7.74-13.74-16-27.16c-.89-1.45-1.8-2.9-2.7-4.34a46.7,46.7,0,0,1-1.78-6.13c-.36-1.6-.7-3.15-1-4.74-.59-3.2-1.09-6.41-1.43-9.61s-.63-6.47-.73-9.73c-.18-3.43-.08-7.21,0-9.8-.32,2.47-.8,6.33-1,9.79-.24,3.27-.3,6.56-.29,9.86s.17,6.61.43,9.9c0,.56.1,1.1.15,1.61l-.09-.15c-2.89-4.39-5.81-8.75-8.86-13s-6.17-8.51-9.44-12.61A136.81,136.81,0,0,0,897,1421.91a134.12,134.12,0,0,1,9.61,12.4c3,4.3,5.79,8.7,8.52,13.15s5.34,9,7.91,13.52,5,9.13,7.49,13.75l.93,1.77a159.32,159.32,0,0,0-16.64-3.41,208.79,208.79,0,0,0-21.61-2.12,205.87,205.87,0,0,1,21.16,4.13,132.27,132.27,0,0,1,19.61,6.34q5.43,10.56,10.54,21.28,3.36,7.07,6.58,14.18c.86,1.92,2.12,3.7,2.55,5.75C955.27,1530.14,957.31,1562.56,957.31,1562.56Z"/><path class="cls-3" d="M2194.17,1067.66l26.65,53.49,28.45-52.55c8.45-19.28-4.87-41.39-25.9-42.35h-1.87C2200.45,1026.47,2186.37,1048.11,2194.17,1067.66Zm13.82-11a13.94,13.94,0,1,1,13.7,14.18h0A13.94,13.94,0,0,1,2208,1056.67Z"/><path class="cls-10" d="M772.38,1724.82s2.31-38.43,35.75-34.86c0,0,45.54-72.58,93.21,29.88,0,0,43-23.26,58.88,27.32,0,0,26.5-49.38,64.21-33s57,79.82,57,79.82H795.25Z"/><path class="cls-11" d="M1318.67,1795.18H1091.81s-103.7-32.09,0-31c0,0-61-45.35,31.33-34.56s101,38.34,101,38.34S1242.5,1735.4,1318.67,1795.18Z"/><path class="cls-12" d="M1603.32,1021.18c-1.39.92-25.91,45-25.91,45l-33-29,32-53.43,26.9,15Z"/><path class="cls-13" d="M1557.93,1014.64c4.07,11.5,12.41,26.72,29.09,34.42,7-12.48,15.5-27.29,16.3-27.82V998.77l-26.84-15.06Z"/><path class="cls-1" d="M1258.51,1466.1s-9.32-6.58-18.24,14.48,3.06,29.44,3.06,29.44,15.33-11.34,15.21-13.5-.69-29.36-.69-29.36Z"/><path class="cls-8" d="M1273.85,1458.51s-7.55-4.65-16,8.65c-3.13,4.9-6.4,12.24-9.45,23.15-11.34,40.51,0,40.51,0,40.51l19-8.1s18.22-46.43,17.14-50.24S1273.85,1458.51,1273.85,1458.51Z"/><rect class="cls-14" x="1112.8" y="1354.2" width="325.7" height="12.42" rx="4.48"/><rect class="cls-14" x="1355.46" y="1360.41" width="21.88" height="57.93"/><path class="cls-14" d="M1184.91,1349.07h26.33v44a9.51,9.51,0,0,1-9.51,9.51h-7.32a9.51,9.51,0,0,1-9.51-9.51h0v-44Z"/><path class="cls-14" d="M1207.59,1389.39c3.15,3.6,79.81,75.76,79.81,75.76l-6.48,8.92-81-79.91Z"/><path class="cls-15" d="M1903.81,1522.44h4.29a16.21,16.21,0,0,1,16.21,16.21v20.81h-20s-8.91-15.39-12.15-12.15S1903.81,1522.44,1903.81,1522.44Z"/><circle class="cls-16" cx="1381.4" cy="1679.89" r="117.43"/><path class="cls-17" d="M1434.33,1679.89a52.94,52.94,0,1,1-52.94-52.93h0A52.93,52.93,0,0,1,1434.33,1679.89Z"/><circle class="cls-16" cx="1938.08" cy="1679.86" r="117.43"/><path class="cls-17" d="M1991.06,1679.89a52.94,52.94,0,1,1-52.94-52.93h0a52.93,52.93,0,0,1,52.93,52.93Z"/><path class="cls-14" d="M1244.19,1588.61h277.43v74H1244.19a24.43,24.43,0,0,1-24.43-24.43h0V1613a24.43,24.43,0,0,1,24.43-24.43Z"/><rect class="cls-8" x="1327.78" y="1406.05" width="262.89" height="44.11" rx="15.92"/><path class="cls-18" d="M1581.46,1446s-21,11.61-38,60.23-13.37,121.92,92.36,127.6h162.44l16.2-28.49s-13.76-193.91-45.37-279.79h53.47s16.15,165.06,72.85,187.3a14.29,14.29,0,0,1,9,13.34v32.67l-85.88,111H1535.72s-66.44,5.86-82.64-106.94l-191.7-2.94a15.82,15.82,0,0,1-14.88-20.41c6-19.46,18.17-46.93,40.27-53C1321.83,1477.08,1581.46,1446,1581.46,1446Z"/><path class="cls-14" d="M1271.74,1493c.26.44.53.88.8,1.32H1548l2.81-6.48c15.16-33.21,30.67-41.77,30.67-41.77H1299C1274.87,1446,1259.44,1472.24,1271.74,1493Z"/><path class="cls-8" d="M1255.05,1588.61h205.79a32.14,32.14,0,0,0,30.42-42.69c-11-31.54-36.44-65.47-99.18-71.24-81-7.51-130,57.24-149.4,93.18a14.09,14.09,0,0,0,12.37,20.75Z"/><path class="cls-8" d="M1818.47,1669.9l63.2-102.08s32.41-25.12,96.42-12.15c39.75,8,63.23,34.58,75.35,53.51a13.17,13.17,0,0,1-11.07,20.3h-97.31a98.62,98.62,0,0,0-76.79,36.74l-2.5,3.09a71.17,71.17,0,0,1-55.42,26.52h0a57.24,57.24,0,0,1-39.17-15.53l-11-10.41Z"/><path class="cls-8" d="M1826.9,1223.93a13.61,13.61,0,0,0-13.58-13.64,13.39,13.39,0,0,0-2.68.27c-35.84,7-73.46,35.76-73.46,70.12s37.62,63.07,73.46,70.12a13.59,13.59,0,0,0,16.26-13.37Z"/><path class="cls-1" d="M1826.9,1224.24V1337.1a59.23,59.23,0,0,0,0-112.86Z"/><rect class="cls-19" x="1136.03" y="1185.81" width="279.25" height="168.38"/><rect class="cls-8" x="1130.09" y="1164.61" width="291.13" height="21.2"/><path class="cls-20" d="M1203.85,1388.36a5.78,5.78,0,1,1-5.79-5.77h0A5.77,5.77,0,0,1,1203.85,1388.36Z"/><rect class="cls-18" x="1309.35" y="1518.12" width="138.54" height="7.7" rx="2.78"/><rect class="cls-18" x="1309.35" y="1537.59" width="138.54" height="7.7" rx="2.78"/><polygon class="cls-12" points="1686.03 1531.88 1675.88 1640.91 1667.15 1656.62 1651.47 1645.28 1651.79 1529.09 1686.03 1531.88"/><polygon class="cls-12" points="1744.9 1521.65 1739.9 1640.91 1731.18 1656.62 1715.5 1645.28 1715.82 1529.09 1744.9 1521.65"/><path class="cls-21" d="M1779.84,1664l-67.68.23a1,1,0,0,1-1-1v-5.09a1,1,0,0,1,1-1l67.69-.22a1,1,0,0,1,1,.94h0v5.09A1,1,0,0,1,1779.84,1664Z"/><path class="cls-8" d="M1714.29,1635.94l-2.24,19.49c-.28,2.4,1.07,4.58,2.84,4.57l61.34-.2a4.49,4.49,0,0,0,4-2.88c.85-1.93,1-4.81-1.75-8.68-5.51-7.75-23.56-9.61-32.41-16.18l-28.57.1C1715.89,1632.2,1714.54,1633.8,1714.29,1635.94Z"/><path class="cls-21" d="M1741.77,1643.42h0a1.31,1.31,0,0,1-.36-1.6c1.2-2.67,4.94-9.18,12.6-7.88a1.1,1.1,0,0,1,.67,1.28h0c-.06.59-.46,1-.89.9-6.87-1.15-10,4.59-11,6.83C1742.56,1643.46,1742.12,1643.64,1741.77,1643.42Z"/><path class="cls-21" d="M1748.15,1645.91h0a1.33,1.33,0,0,1-.37-1.6c1.21-2.68,4.94-9.19,12.61-7.88.44.07.75.67.67,1.27h0c-.07.58-.46,1-.89.9-6.87-1.15-10.05,4.59-11,6.83C1748.94,1646,1748.52,1646.13,1748.15,1645.91Z"/><path class="cls-21" d="M1754.08,1648.23h0a1.31,1.31,0,0,1-.36-1.6c1.2-2.67,4.94-9.19,12.6-7.88a1.12,1.12,0,0,1,.68,1.27h0c-.07.58-.47,1-.9.89-6.87-1.14-10,4.6-11,6.84C1754.87,1648.26,1754.44,1648.45,1754.08,1648.23Z"/><path class="cls-22" d="M1731.26,1660c-4.88-15.73-13.22-17.43-17.77-17.06l-1.44,12.54c-.28,2.4,1.07,4.58,2.84,4.57Z"/><rect class="cls-18" x="1309.35" y="1557.07" width="138.54" height="7.7" rx="2.78"/><path class="cls-20" d="M1701.94,1371.4c8,.62,41.34,14.19,45.63,38.25s0,211,0,211h-37S1681,1472.57,1681,1468.26,1701.94,1371.4,1701.94,1371.4Z"/><path class="cls-18" d="M1447.76,1317.73c.61,1.85-8.14,84.52,76.14,91.31s133,17.89,133,17.89-11.72,186.94-11.1,196.19c0,0,29,4.93,41.33,3.08,0,0,66-207.32,46.9-249.86s-171.52-58.61-171.52-58.61Z"/><path class="cls-23" d="M1588.05,1169.09s.87,40.24,3.54,44,130.38,52.5,130.38,52.5l-21,23.7-94.09-26.87s-67.39-24.18-66.7-25.92,4.39-26.51,7.73-36.2,15.91-31.62,15.91-31.62Z"/><path class="cls-24" d="M1540.94,1028.68s-85.32,31-95,199.43l-4.16,95.78s97.17,41.63,152.69,5.56c0,0,5.61-171,11.47-233.46a32,32,0,0,0-11.45-27.63C1575.83,1052.94,1544.08,1027.23,1540.94,1028.68Z"/><path class="cls-12" d="M1511.32,1148.35s-20.86,86.23,8.3,109.92c18.19,14.78,187.77,43.75,187.77,43.75l10.93-26.41s-135-48.2-143.1-53.78,5.47-79.3,5.47-79.3Z"/><path class="cls-25" d="M1577.28,1059.88a26.67,26.67,0,0,0-28-4.6c-13,5.5-31.69,21.13-41.77,65.14l-8.55,38s63.39,15.56,82.83,14.68l10-58.7S1597.37,1077.69,1577.28,1059.88Z"/><path class="cls-18" d="M1369.74,1164.61h-51.87l-97.36,189.56h51.91l97.32-189.59Z"/><path class="cls-15" d="M1304.44,1284.43l-34.83-17.88a10.91,10.91,0,0,1-4.72-14.66l10.24-20a10.89,10.89,0,0,1,14.66-4.7l34.83,17.88a10.9,10.9,0,0,1,4.72,14.66l-10.24,20A10.9,10.9,0,0,1,1304.44,1284.43Zm-17.61-51.52a4.51,4.51,0,0,0-6.06,1.95h0l-10.23,19.93a4.51,4.51,0,0,0,2,6.07l34.84,17.88a4.5,4.5,0,0,0,6.06-2l10.24-19.94a4.52,4.52,0,0,0-1.95-6.07Z"/><path class="cls-12" d="M1568.55,965.25c4.29,9.35.8,19.83-7.8,23.42s-19.06-1.07-23.36-10.41-.8-19.83,7.8-23.42S1564.25,955.9,1568.55,965.25Z"/><path class="cls-21" d="M1714.29,1664l-67.69.23a.94.94,0,0,1-1-.94h0v-5.09a1,1,0,0,1,.95-1l67.69-.22a1,1,0,0,1,1,.94h0v5.09a1,1,0,0,1-1,1Z"/><path class="cls-8" d="M1648.74,1635.94l-2.25,19.49c-.28,2.4,1.08,4.58,2.84,4.57l61.34-.2a4.49,4.49,0,0,0,4-2.88c.85-1.93,1-4.81-1.75-8.68-5.51-7.75-23.56-9.61-32.41-16.18l-28.57.1C1650.34,1632.2,1649,1633.8,1648.74,1635.94Z"/><path class="cls-21" d="M1676.2,1643.42h0a1.31,1.31,0,0,1-.35-1.6c1.2-2.67,4.94-9.18,12.6-7.88a1.11,1.11,0,0,1,.67,1.28h0c-.07.59-.46,1-.9.9-6.87-1.15-10,4.59-11,6.83C1677,1643.46,1676.58,1643.64,1676.2,1643.42Z"/><path class="cls-21" d="M1682.58,1645.91h0a1.31,1.31,0,0,1-.35-1.6c1.19-2.68,4.94-9.19,12.6-7.88.44.07.74.67.67,1.27h0c-.07.58-.47,1-.9.9-6.87-1.15-10,4.59-11,6.83C1683.38,1646,1683,1646.13,1682.58,1645.91Z"/><path class="cls-21" d="M1688.49,1648.23h0a1.31,1.31,0,0,1-.36-1.6c1.2-2.67,4.94-9.19,12.6-7.88a1.1,1.1,0,0,1,.68,1.27h0c-.08.58-.48,1-.9.89-6.87-1.14-10,4.6-11,6.84C1689.29,1648.26,1688.89,1648.45,1688.49,1648.23Z"/><path class="cls-22" d="M1665.7,1660c-4.89-15.73-13.22-17.43-17.76-17.06l-1.45,12.54c-.28,2.4,1.08,4.58,2.84,4.57Z"/><rect class="cls-14" x="1476.85" y="1658.04" width="371.61" height="40.54" rx="14.63"/><path class="cls-1" d="M1633.5,1006.29l-3.35,13.08s-29.27-23.72-29-24.19,5.32-8.91,7.51-8.21,20.48,7.75,20.48,8.21S1633.5,1006.29,1633.5,1006.29Z"/><path class="cls-12" d="M1613,997.3c8.91,8.68,17.61,10.47,21.61,10.83,1.25-4.51,2.11-7.77,2.11-7.77s9.85-3.05,13-6.55c0,0-10-13.61-10.1-20s9.77-44.68-17.79-66.37-43.93,17.22-43.93,17.22l-11.69,40.27-16,24.36s3.83,22,25.72,37.51,46,9.6,50.12,7.67c1-.46,4-10,6.49-18.84C1618.23,1010.7,1613,997.3,1613,997.3Z"/><path class="cls-18" d="M1618.16,972.59a4.48,4.48,0,0,0,5.94,1.61,4.06,4.06,0,0,0,1.81-5.46,1.28,1.28,0,0,0-.11-.2,4.47,4.47,0,0,0-5.93-1.6,4.06,4.06,0,0,0-1.82,5.45A1.28,1.28,0,0,0,1618.16,972.59Z"/><path class="cls-18" d="M1611.9,964.9a36.16,36.16,0,0,1,4.59-3.38,19.59,19.59,0,0,1,4.85-2.18,18,18,0,0,1,5.21-.75h.68a4.05,4.05,0,0,1,.69,0l1.39.07c.94.06,1.86.25,2.89.27a16.4,16.4,0,0,0-2.5-1.53,13.33,13.33,0,0,0-9.08-.6,13.7,13.7,0,0,0-5.43,3.09A12.24,12.24,0,0,0,1611.9,964.9Z"/><path class="cls-8" d="M1582.38,943.54s-9.68,8.2-12.1,45.88c-1.87,29.22-26.33,34-25.84,33.81s6.87-64.2,8.1-66.36,9.47-26.52,10.75-27.14,17.94,10.26,18.87,10.53S1582.38,943.54,1582.38,943.54Z"/><path class="cls-8" d="M1659.89,916.73S1650,852,1567,855.54s-80.27,99.75-80.27,99.75-3.34,69.73,46.32,69.72c0,0,33.62,2.16,33.62-39.79,0-40.59,12.35-40.59,12.35-40.59Z"/><path class="cls-26" d="M1504.91,889c-19.21,29-18.12,66.23-18.12,66.23s-3.34,69.73,46.32,69.72c0,0,32.74,2.09,33.62-38.16C1521.19,970.65,1506.44,930.58,1504.91,889Z"/><path class="cls-19" d="M1541.29,998.77a9.42,9.42,0,1,1-9.42-9.41h0A9.43,9.43,0,0,1,1541.29,998.77Z"/><path class="cls-16" d="M1579.08,944.63c2.51-.86,65.8-5.74,95.52-8a5.42,5.42,0,0,0,2.68-9.85l-17.39-12.11Z"/><path class="cls-14" d="M1579.08,944.63c2.82-1,64.62-21.43,82.45-27.32a4.6,4.6,0,0,0,2.91-5.83,2.37,2.37,0,0,0-.13-.34l-2.4-5.61a4.6,4.6,0,0,0-6.05-2.41l-.35.16Z"/><path class="cls-12" d="M1702.83,1272.86s21-12.76,30.07-12.76,28.26,5.46,28.26,14.58a21.79,21.79,0,0,1-5.47,14.58l-18.51,16s-8.81,6.82-12.47,3.21-14.59.91-32.64-9.07c-17.71-9.8-1.09-15.54,1.6-18.28S1702.83,1272.86,1702.83,1272.86Z"/><path class="cls-16" d="M1760.9,1286.33a19.4,19.4,0,1,1-19.4-19.4h0A19.41,19.41,0,0,1,1760.9,1286.33Z"/><path class="cls-9" d="M2242.68,1649a110.26,110.26,0,0,1-62.27-17.68c-14.85-9.69-28.76-23.95-31.34-44.07-5.87-46,20.62-44.47,27.11-63.23s-12.8-27.16-4.45-61.32c4.47-18.36,18.61-26.31,40.67-55.8s48.77-44.61,68.27-33.62,18.7,34.66,33.21,42.53,36.77,35.37,28.27,87.65,49,32.82,26.5,93.27C2352.15,1641.11,2280,1648.33,2242.68,1649Z"/><path class="cls-3" d="M2268.92,1609.49c-2.05,29-5.05,144.73-.69,154.78,6.5,15-27.59-3.69-27.59-3.69s9.06-69.06,14.31-102.8c2.33-15,6.62-60.19,6.66-64.12l-.55-1.07c-7.61-14.36-23.5-29.27-46.85-37.86,17.94,4.53,34.77,13.6,47.11,27.56-.35-5-1-9.06-2.11-11.65-3.43-8.29-9.43-18.14-26.2-30.51a86.32,86.32,0,0,0-10.74-6.79q-2.83-1.48-5.8-2.71a56.62,56.62,0,0,0-6.09-2.06,56,56,0,0,1,6.4,1.22c2.1.55,4.19,1.19,6.23,1.94a88.26,88.26,0,0,1,11.92,5.43q3.66,2,7.2,4.27c-10.05-19.82-19.94-48.83-15.87-87.39,0,0,1.14,25.92,7.53,49.62a67.21,67.21,0,0,1,4.19-11,85.58,85.58,0,0,1,9.28-15c1.2-1.53,2.45-3,3.66-4.53-1,1.65-2.07,3.27-3.08,4.92a84.52,84.52,0,0,0-7.26,15.65,62.88,62.88,0,0,0-2.7,11,53.36,53.36,0,0,0-.37,10.72,83.12,83.12,0,0,0,4.25,9.55c10,18.85,22.06,32.42,27.21,43.47q2.9-5.39,5.89-10.7c4.26-7.55,8.64-15,13.2-22.41.74-1.2,1.49-2.4,2.24-3.58a82.6,82.6,0,0,0,3.46-16.9,111.28,111.28,0,0,0,.63-16.12,112.69,112.69,0,0,1,1.06,16.21c0,2.72-.14,5.45-.36,8.18a12.33,12.33,0,0,1-.13,1.35l.08-.11c2.4-3.63,4.81-7.21,7.31-10.76s5.09-7,7.8-10.41a114.87,114.87,0,0,1,8.6-9.72,116.87,116.87,0,0,0-7.9,10.25c-2.45,3.55-4.8,7.2-7,10.85s-4.41,7.4-6.53,11.16-4.16,7.54-6.18,11.35l-.8,1.46c.86-.22,2.15-.58,4.89-1.18a163.81,163.81,0,0,1,26.65-3.39,162.74,162.74,0,0,0-26,5.83c-2.52.8-5.23,1.76-7.66,2.81q-4.48,8.72-8.7,17.61-2.77,5.82-5.43,11.7c-.71,1.6-1.75,3.06-2.1,4.75C2270.64,1582.7,2268.92,1609.49,2268.92,1609.49Z"/><path class="cls-3" d="M618,1794s24.35-49.29,60.63-42.83c0,0,20-42.42,75.43-42.92,56.2-.5,66.88,38.65,66.88,38.65s16-13.51,52.29.36S926.15,1794,926.15,1794Z"/><path class="cls-10" d="M2479.1,1724.82s-2.31-38.43-35.76-34.86c0,0-45.53-72.58-93.2,29.88,0,0-43-23.26-58.88,27.32,0,0-26.51-49.38-64.22-33s-60.59,79.82-60.59,79.82h289.33Z"/><path class="cls-3" d="M2642.67,1794s-33.57-49.29-69.85-42.83c0,0-20-42.42-75.43-42.92-56.2-.5-66.88,38.65-66.88,38.65s-16-13.51-52.29.36-50.43,46.74-50.43,46.74Z"/><path class="cls-10" d="M2413.06,1550.56c-20.9-10.69-38.43-28.49-44.74-50.23-6.05-20.94-1.36-43.22,3.73-64.38,2.22-9.27,4.48-19.22.86-28.08-2.25-5.52-6.55-10-10.46-14.61-33.76-39.78-41.46-94.4-37.19-145.32,1.19-14.13,3.31-28.56,10.33-41.07s19.87-22.88,34.77-23.86c23-1.51,44.92,18.83,66.83,12,15.7-4.91,23.62-21.78,37.85-29.76,12-6.7,26.74-6.31,40.61-5.71,4.37.19,8.81.4,12.88,2,9.17,3.6,13.85,13.2,16.76,22.2,4.71,14.55,7,29.73,11.76,44.27s12.28,28.91,25,38.14c10.23,7.42,22.93,10.94,34.46,16.37,28.52,13.44,49.28,38.36,64.68,64.84,4.61,7.92,8.85,16.11,11.2,24.88,7.41,27.57-6.89,59.06-33.08,72.84-9.74,5.15-20.7,8-30.42,13.18-22.24,11.94-35.22,34.55-47.93,55.58s-28.07,42.94-52,51.3C2496.19,1576.57,2442.84,1565.76,2413.06,1550.56Z"/><path class="cls-3" d="M2644.24,1411.05c-5.2-.75-10.41-1.14-15.65-1.37s-10.47-.18-15.7,0c-1.43,0-2.87.11-4.29.19a136,136,0,0,0,19.45-11.1,72,72,0,0,0,18.17-17.61A66.88,66.88,0,0,1,2627.3,1397a133.37,133.37,0,0,1-21.45,9.87c-6.73,2.45-13.52,4.54-20.38,6.46,1-1.81,2-3.69,2.84-5.61a77.78,77.78,0,0,0,4.62-13.35,82,82,0,0,0,2.26-14.1,89,89,0,0,0-.15-14.23,87.8,87.8,0,0,1-1,14,78.12,78.12,0,0,1-3.3,13.3,70,70,0,0,1-5.41,12c-1.06,1.87-2.2,3.67-3.41,5.38-.95,1.33-2.74,3.81-4,4.58-5.6,1.48-11.27,2.89-16.92,4.33-18,4.66-43.35,10.59-71.19,34.42-1.17-13.92-2.44-29.86-3.31-41a103.71,103.71,0,0,1,1.66-28.35v-.15q2.88-14.32,6-28.62,4.8-21.68,10.05-43.19c7.08-30.12,5.43-34,6.05-40.9a30.81,30.81,0,0,0,0-5.6V1266c-.5-6.25-1.17-12.44-2.05-18.59a304.76,304.76,0,0,0-7.32-36.14,310.58,310.58,0,0,1,4.21,36.61c.36,6.13.49,12.27.47,18.41,0,3.06-.09,6.11-.2,9.15-.07,1.52-.14,3-.23,4.54,0,.75-.1,1.51-.16,2.25,0,.45-2.54,11.21-3.49,14.22-5.89,18.5-11.39,37.18-16.67,56q-3.69,13.21-7.2,26.53a107.82,107.82,0,0,0-2.4,11.94c-.56-1.73-5.15-14.41-7.38-19.66-11.2-26.41-22.54-49-41.23-76-7.2-10.41-8.12-11.4-17.61-23.73,11.79,17.34,8.33,12,16.36,25,17.07,28.09,27.22,51.48,36.89,78,3.5,10.54,5.35,15.86,8.91,29.74.42,1.67.84,3.35,1.21,5,.21,1,.43,1.89.64,2.84a221.81,221.81,0,0,0,1.25,39.16c.64,5.3,6.81,100.27,7.52,135.09,1.6,78.25-12.21,166.78-12.21,166.78s82.76,25.77,65.94-5.39c-11.27-20.89-38.35-209.72-44.24-276l1.33-1.47c25.16-27.22,51.32-36.11,69.89-42.63,8.56-3,17.18-5.91,25.74-9.15h0c5-1,19.68-3.72,24.82-4.37s10.31-1.16,15.48-1.43,10.36-.31,15.53-.08a90.6,90.6,0,0,1,15.47,2.08A92.53,92.53,0,0,0,2644.24,1411.05Z"/><path class="cls-11" d="M1616.34,1794.49l147.54-1.08s-80.6-46.42-91.94-26.16C1671.94,1767.25,1529.15,1737.72,1616.34,1794.49Z"/><path class="cls-11" d="M2079.43,1794.61H1820.68s-23.14-27.76,27.77-17.69c0,0-33-42.49,43.29-25.47l46.38,15.53s-75.69-95.75,9.32-62.53S2079.43,1794.61,2079.43,1794.61Z"/><path class="cls-11" d="M1469.83,1794.49h-68.39s-8.88-19.45,16-9.72C1417.42,1784.77,1383.94,1719.41,1469.83,1794.49Z"/></g></svg>