<svg xmlns="http://www.w3.org/2000/svg" viewBox="0 0 3200 2000"><defs><style>.cls-1{fill:#fff;}.cls-2{fill:#caf0ff;}.cls-3{fill:#2e3552;}.cls-4{fill:#07085b;}.cls-19,.cls-5{fill:#8b82f7;}.cls-11,.cls-12,.cls-39,.cls-5,.cls-6{isolation:isolate;}.cls-12,.cls-26,.cls-5{opacity:0.3;}.cls-6{fill:#b8cdfb;}.cls-39,.cls-7{fill:#cbccea;}.cls-8{fill:#c455a8;}.cls-10,.cls-14,.cls-8{opacity:0.3;}.cls-9{fill:#cecdd6;}.cls-10,.cls-24{fill:#d1594f;}.cls-12{fill:#d380be;}.cls-13{opacity:0.5;}.cls-14,.cls-18{fill:#6558f5;}.cls-15{fill:#f7b686;}.cls-16{fill:#3b3d73;}.cls-17{fill:#4a4d91;}.cls-20{fill:#434683;}.cls-21{fill:#e28569;}.cls-22{fill:#2f1a31;}.cls-23{fill:#060633;}.cls-25{fill:#6f4975;}.cls-27{fill:#dc827b;}.cls-28,.cls-42{fill:#f5be00;}.cls-28{opacity:0.75;}.cls-29{fill:#e08b65;}.cls-30{fill:#dd8964;}.cls-31{fill:#ced891;}.cls-32{fill:#56335b;}.cls-33{fill:#ea946e;}.cls-34{fill:#020202;}.cls-35{opacity:0.4;}.cls-36{fill:#8197d3;}.cls-37{fill:#d8d5fc;}.cls-38{fill:#e1aad3;}.cls-40{fill:#f6dedc;}.cls-41{fill:#42428e;}.cls-43{fill:#ccdddb;}.cls-44{fill:#70c0fd;}</style></defs><g id="Calque_2" data-name="Calque 2"><rect class="cls-1" width="3200" height="2000"/></g><g id="Слой_1" data-name="Слой 1"><path class="cls-2" d="M265.87,1797.54c-94.57-424.11,166.23-492,267.85-661.28S326.9,227,1110.14,200.18C1875,174,1860.85,558,2401.39,668.4c866.28,177,463.52,1129.14,463.52,1129.14Z"/><rect class="cls-3" x="177.46" y="1793.97" width="2845.07" height="7.13" rx="3.13"/><path class="cls-4" d="M2632.78,1784.09c0-54.09-452.39-97.95-1010.43-97.95S611.92,1730,611.92,1784.09c0,3.33,1.73,6.63,5.09,9.88H2627.69C2631.05,1790.72,2632.78,1787.42,2632.78,1784.09Z"/><path class="cls-5" d="M954,1062c-6.29,11.89-11.89,13.45-16.61,11s-6.58-8-.31-19.92c11.45-21.7,25.43-27.73,25.43-27.73S965.63,1040,954,1062Z"/><path class="cls-5" d="M1004.94,1269.05l-2.53.36c0-.39-5.73-39.54-31.55-92.88-23.77-49.21-70.14-120.92-155.6-183l1.49-2.06c86,62.47,132.51,134.6,156.46,184.1C999.17,1229.2,1004.89,1268.66,1004.94,1269.05Z"/><path class="cls-5" d="M905.85,1074.18l-2.4-.87c31.26-87.12-19.21-172.66-19.72-173.52l2.17-1.31C886.49,899.34,937.53,985.88,905.85,1074.18Z"/><path class="cls-5" d="M859.2,1042.44c-25.24,5.78-47.2-2.48-47.46-2.58l.92-2.38c.28.11,28.42,10.67,57.15-1.08l1,2.36A74.46,74.46,0,0,1,859.2,1042.44Z"/><path class="cls-5" d="M987.92,1214c-52.36,5.89-99.41-9.52-139.87-45.8a36.71,36.71,0,0,0-3.08-2.62,1,1,0,0,0,.28.07l.25-2.53c.75.07,1.32.57,4.25,3.24,39.88,35.76,86.27,51,137.89,45.14Z"/><path class="cls-5" d="M909.64,1203.82l-2.55-.1c1.36-34.58-31.34-77.46-31.64-77.89l2-1.55a209.07,209.07,0,0,1,16.59,26.22C901.62,1164.55,910.36,1185.22,909.64,1203.82Z"/><path class="cls-5" d="M810.48,980c15.85,8.85,18.49,15.21,15.92,19.83s-9.37,5.71-25.23-3.13C772.27,980.6,763,964.47,763,964.47S781.15,963.68,810.48,980Z"/><path class="cls-5" d="M816.58,1030.3c17.78,3.65,22.21,8.93,21.15,14s-7.22,8.28-25,4.63c-32.42-6.65-46.15-19.22-46.15-19.22S783.69,1023.55,816.58,1030.3Z"/><path class="cls-5" d="M881,1116.05c8.64,10.29,8,16.11,4,19.52s-9.89,3.1-18.58-7.19c-15.83-18.75-16.21-34-16.21-34S864.94,1097,881,1116.05Z"/><path class="cls-5" d="M875.54,997.06c5.92,12.1,3.85,17.58-.89,19.89s-10.35.62-16.21-11.49c-10.81-22-7.43-36.88-7.43-36.88S864.6,974.68,875.54,997.06Z"/><path class="cls-5" d="M939.44,1183.12c2.28,13.27-1.26,18-6.49,18.85s-10.1-2.33-12.38-15.6c-4.16-24.18,3.24-37.49,3.24-37.49S935.26,1158.6,939.44,1183.12Z"/><path class="cls-5" d="M858.76,1163.47c10.7,8.19,11.27,14,8.06,18.21s-9,5.15-19.69-3c-19.45-14.92-23.07-29.73-23.07-29.73S839,1148.34,858.76,1163.47Z"/><path class="cls-5" d="M888.84,887.22c8.08,16.2,6.64,23,1.92,25.35s-11-.59-19-16.86c-14.7-29.64-13.24-48.22-13.24-48.22S873.93,857.14,888.84,887.22Z"/><path class="cls-6" d="M996.37,1535.7s-164.61-437.38-281.61-388.26S890,1416.09,933.88,1544.92Z"/><path class="cls-7" d="M921.15,1499.4s-243-378.71-364.24-306.63,230.56,216.45,297.1,329Z"/><path class="cls-8" d="M883.68,1512.25c-44.54-78.57-119.58-148-174.68-192.34-59.73-48.11-109.53-78-110-78.28l1.84-3.1c.5.3,50.52,30.25,110.45,78.57,55.35,44.57,130.75,114.3,175.54,193.37Z"/><path class="cls-9" d="M550,1517c60.58,31.92,22.69,126.51,101.18,128.89s73.75-4.08,100.19,37.68c0,0,5.16,34.69,32.95,48,109.64,52.35,314.78-74.21,220.7-201.68-6.8-9.2-18.72-15.34-32.1-21.43-72.62-33-106-4.75-140.86-110.89s-151.83-.48-201.48-19.18-90.27-46.47-145-3.59S489.36,1485.14,550,1517Z"/><path class="cls-10" d="M933.68,1643.67l3.42-2.93c-1.28-1.5-132.8-152.23-464.95-253.19l-1.31,4.32C801.75,1492.44,932.39,1642.17,933.68,1643.67Z"/><path class="cls-10" d="M761.64,1456.61c55.11-27.4,71.68-56.75,72.4-58l-4-2.16c-.15.28-16.67,29.4-70.42,56.11Z"/><path class="cls-10" d="M741,1501.28c18.46-18.37,26.06-50.17,21.95-91.93a301.1,301.1,0,0,0-11.76-57.79l-4.33,1.41c.35,1,33.38,102.85-9.08,145.12Z"/><path class="cls-10" d="M655.07,1469.28c6.48-2.93,10.1-5,10.27-5.09l-2.26-3.91c-.76.45-77.3,43.84-164.82,16.59l-1.34,4.32C567.45,1503.09,631,1480.15,655.07,1469.28Z"/><path class="cls-10" d="M583.76,1557.47c26.41-16.86,38.41-37.72,43.83-52.24,5.9-15.81,5.51-27.53,5.5-28l-4.51.17c0,.45,1.09,45.38-47.24,76.3Z"/><g class="cls-11"><path class="cls-12" d="M2211.09,1520.88s39.15-627.39,209-610.37-119.38,414.59-125,597.57Z"/></g><path class="cls-9" d="M2248.63,1397.3s294.91-511.12,458.24-424.19S2418.24,1270.89,2338,1422.45Z"/><path class="cls-10" d="M2298.52,1411.81c53.48-105.68,147.48-201.22,216.9-262.76,75.28-66.71,138.67-108.92,139.29-109.34l-2.61-4c-.63.43-64.3,42.82-139.81,109.75-69.74,61.81-164.17,157.82-218,264.16Z"/><path class="cls-6" d="M2679.76,1478.75c-70.88,20.34-51.68,128.4-135,113.66s-76.85-20.53-113.9,17.72c0,0-13,35.42-45.27,43.31-127.08,31.12-315.53-147.35-188.36-261.07,9.18-8.21,23.09-12.06,38.54-15.54,83.8-18.84,112.77,18.27,172.89-86s160.16,32.84,216.62,24,105.37-29.18,153.63,28.1S2750.65,1458.47,2679.76,1478.75Z"/><g class="cls-13"><path class="cls-14" d="M2247.43,1528l-3-3.82c1.69-1.32,173.43-131.32,545.76-164.81l.44,4.83C2419.73,1397.55,2249.11,1526.7,2247.43,1528Z"/><path class="cls-14" d="M2469.88,1368.59c-52.13-41.07-63.12-75.58-63.56-77l4.63-1.41c.11.33,11.13,34.66,61.93,74.62Z"/><path class="cls-14" d="M2481.86,1420.22c-15.43-23.43-16.46-58.63-3-101.75a324.66,324.66,0,0,1,25.09-58.35l4.21,2.43c-.59,1-57.78,101.09-22.3,155Z"/><path class="cls-14" d="M2579.45,1405.28c-6.18-4.5-9.55-7.47-9.73-7.56l3.25-3.61c.7.64,71.85,63.18,170.11,53.68l.47,4.82C2664.38,1460.22,2602.47,1422.1,2579.45,1405.28Z"/><path class="cls-14" d="M2635.24,1514c-24.13-23.57-32.2-48.2-34.73-64.7-2.74-18,.23-30.25.36-30.74l4.71,1.17c-.12.47-11.13,47.64,33.05,90.77Z"/></g><path class="cls-15" d="M1227.64,844.33c2.36,1.38,42.15,19.21,50.79,84.87s-45.53,6.48-45.53,6.48Z"/><path class="cls-16" d="M1163.48,1724.39s.57,22.83,16,29.27,60.22,12.26,43.5,26.94c-9.61,8.43-54.84,3-67.62,3s-24.76,5.56-34.25-3c-10.44-9.41,0-56.19,0-56.19s11,5.74,20.93,5.49C1156.34,1729.5,1163.48,1724.39,1163.48,1724.39Z"/><path class="cls-16" d="M986,1724.39s.58,22.83,16,29.27,60.22,12.26,43.49,26.94c-9.6,8.42-54.84,3-67.61,3s-24.77,5.56-34.26-3c-10.43-9.4,0-56.19,0-56.19s11,5.74,20.94,5.48C978.9,1729.5,986,1724.39,986,1724.39Z"/><path class="cls-17" d="M1278.32,1098.42s2.85,95.58-27.65,278.94c-22,132.37-48,265.76-60.78,329.71-4.56,22.88-23.78,39.59-46.61,40.51l-12.25.49c-24.65,1-44.66-20.19-42.86-45.39l30.95-432.63,7.63-142.39Z"/><path class="cls-18" d="M999.25,1182.53c1.41,11.64,67.19,10.22,147.73,0s143.23-27.64,141.82-39.28-66.38-13-147-2.85S997.84,1170.9,999.25,1182.53Z"/><path class="cls-17" d="M1185.81,1166.71,1013.9,1719a55.44,55.44,0,0,1-51.77,39.37l-10.33.17c-24.4.42-43-22.14-38.61-46.69l94-519a17.07,17.07,0,0,1,11.89-12.79C1051.42,1170.79,1189.05,1143.85,1185.81,1166.71Z"/><path class="cls-19" d="M1026.14,864.52s22.88-64.37,104.38-61.44,143,110,158.28,340.2c0,0-133.45-29.26-289.79,39C999,1182.29,990.34,958.34,1026.14,864.52Z"/><path class="cls-19" d="M968.91,860.64l57.74,37s148.41,14.85,187.81,7.71S1260,869.23,1260,869.23s-37.43-51.45-108.75-64.21c-6.7-1.21-13.45-1.41-20.65-1.93a202.07,202.07,0,0,0-36.06.79C1024,811.49,968.91,860.64,968.91,860.64Z"/><path class="cls-20" d="M1107.63,1414.57a1.78,1.78,0,0,1-.45-.08,1.44,1.44,0,0,1-.93-1.81v0l37-112.38a112,112,0,0,1,10.22-22.39,1.45,1.45,0,0,1,2.48,1.49,109.25,109.25,0,0,0-10,21.81l-37,112.38A1.46,1.46,0,0,1,1107.63,1414.57Z"/><path class="cls-21" d="M1186.41,788.75l-.22-.93c.11,0,10.49-2.56,13.43-9.64,1.53-3.67.8-8-2.16-12.78-1.39-2.25-2.67-4.32-3.85-6.17-8.09-12.89-11.11-17.72-8.9-28.28l.93.2c-2.16,10.18.62,14.56,8.77,27.58,1.18,1.87,2.47,3.92,3.86,6.17,3.12,5.09,3.87,9.73,2.23,13.65C1197.36,786.08,1186.89,788.64,1186.41,788.75Z"/><path class="cls-21" d="M1185.18,731.05s-3.61,16.35,7.21,33.5-1,29.61-15.62,23-20.26,12.13-39,1.79S1185.18,731.05,1185.18,731.05Z"/><path class="cls-15" d="M1098.5,803.32a22.55,22.55,0,0,0,18.37-13.43l10.1-23.46,2.93-6.81,17.29-40-3,41.48L1142.41,786l-.52,7.09a11.33,11.33,0,0,0,9.34,11.89h0c3.07,5,7.31,15.13-5.35,19.16-14.86,4.73-38.9-7-47.54-20.84Z"/><path class="cls-22" d="M1126.93,765.74v.69c1,13.36,15.29,19.62,15.29,19.62l.09-.07,1.79-24.86c-4.37-1.61-10.6-3.24-14.24-1.46C1128,760.56,1126.8,762.43,1126.93,765.74Z"/><path class="cls-15" d="M1188,726.23c0-26.56-17.45-48.09-39-48.09s-39,21.53-39,48.09,17.44,48.07,39,48.07S1188,752.78,1188,726.23Z"/><path class="cls-15" d="M1115.25,733.48c4.42,4.21,10.59,4.65,13.79,1s2.16-10.08-2.16-14.29-10.59-4.66-13.79-1S1110.84,729.27,1115.25,733.48Z"/><path class="cls-23" d="M1152.79,726.68a.83.83,0,0,0,.59-.52.89.89,0,0,0-.49-1.15,9.6,9.6,0,0,0-11.48,2.56.88.88,0,0,0,0,1.25h0a1,1,0,0,0,1.25,0,15.29,15.29,0,0,1,9.54-2.16A.8.8,0,0,0,1152.79,726.68Z"/><path class="cls-23" d="M1145.83,736.43c-.07,2.16,1.08,3.87,2.65,3.92s2.84-1.63,2.91-3.75-1.09-3.87-2.66-3.91S1145.83,734.31,1145.83,736.43Z"/><path class="cls-23" d="M1184.43,731.31a.89.89,0,0,0,1-.76.87.87,0,0,0-.26-.75,9.6,9.6,0,0,0-11.58-2,.9.9,0,0,0-.45,1.17,1,1,0,0,0,1.17.45,15.09,15.09,0,0,1,9.62,1.66A.9.9,0,0,0,1184.43,731.31Z"/><path class="cls-23" d="M1174.24,737.65c-.88,1.92-.44,4,1,4.63s3.24-.43,4.11-2.36.43-4-1-4.62S1175.1,735.72,1174.24,737.65Z"/><path class="cls-21" d="M1165.56,686.85s-.83,16.69-21.61,19.53-35.21,11.66-32.42,26.67,36.39,46.15,11.69,58.21-19.45-10.43-46.18-5.21-31.59-30.53-13.16-51.26,11-75.64,80.06-73.18,43.77,57.56,43.77,57.56S1165.53,705.3,1165.56,686.85Z"/><path class="cls-24" d="M1116.08,794.35l-.21-.52c5.1-2.06,8.1-5,9.16-8.92,3-10.92-10-27.7-21.41-42.51-3-3.93-5.89-7.64-8.43-11.19-7.06-9.86-7.69-21.61-1.63-30.73,6.73-10.09,19.54-14.36,33.43-11.14,13.42,3.11,22.69.3,28-2.6a25.22,25.22,0,0,0,8.5-7.06l.46.31c-.11.16-11,15.93-37.08,9.89-13.65-3.16-26.23,1-32.83,10.91-6,9-5.41,20.27,1.62,30.1,2.54,3.53,5.4,7.24,8.43,11.17,11.49,14.9,24.54,31.81,21.5,43C1124.48,789.12,1121.28,792.25,1116.08,794.35Z"/><path class="cls-25" d="M1181.72,762.82a11.15,11.15,0,0,1-6-1.75c-8.38-5.21-11.54-21-7-35.07h0c2.76-8.64,7.91-15.13,13.76-17.29a11.13,11.13,0,0,1,10.13,1c8.38,5.19,11.54,20.91,7,35-2.75,8.65-7.91,15.13-13.76,17.29A12.32,12.32,0,0,1,1181.72,762.82Zm-11.35-36.27c-4.32,13.39-1.45,28.23,6.31,33.07a9.72,9.72,0,0,0,8.65.82c5.4-2,10.11-8.05,12.7-16.21,4.33-13.41,1.45-28.26-6.31-33.06a9.61,9.61,0,0,0-8.64-.84c-5.4,2-10.12,8-12.71,16.21Z"/><g class="cls-26"><path class="cls-1" d="M1123.62,716.83c-3.13,13.72,1.87,28.46,11.17,32.92s19.36-3.06,22.48-16.79-1.87-28.47-11.16-32.92S1126.75,703.14,1123.62,716.83Z"/></g><g class="cls-26"><path class="cls-1" d="M1168.34,727.16c-3.13,13.79,1.08,28.74,9.33,33.4s17.53-2.74,20.67-16.54-1.08-28.75-9.32-33.41S1171.47,713.36,1168.34,727.16Z"/></g><path class="cls-25" d="M1141.36,751.47a14,14,0,0,1-6.23-1.46c-10.24-4.78-15.8-20.63-12.38-35.31h0c2-8.53,6.54-15.13,12.51-18a14.3,14.3,0,0,1,12.66-.1c10.24,4.81,15.79,20.65,12.38,35.31-2,8.55-6.55,15.13-12.55,18A14.76,14.76,0,0,1,1141.36,751.47Zm.35-54.57a12.9,12.9,0,0,0-5.68,1.35c-5.4,2.66-9.73,9-11.59,16.85h0c-3.25,13.91,1.89,28.87,11.43,33.36a12.9,12.9,0,0,0,11.12-.08c5.4-2.62,9.79-9,11.64-16.87,3.24-13.9-1.92-28.87-11.44-33.35a12.82,12.82,0,0,0-5.48-1.26Z"/><path class="cls-25" d="M1170.18,732.31a1.61,1.61,0,0,1-1-.37h0c-.17-.16-4.38-3.43-11.62-2.06a1.66,1.66,0,0,1-1.9-1.27,1.58,1.58,0,0,1,1.22-1.87h.06c8.74-1.83,14,2.53,14.3,2.7a1.62,1.62,0,0,1,.21,2.28A1.55,1.55,0,0,1,1170.18,732.31Z"/><path class="cls-22" d="M1157.24,761.27a20.69,20.69,0,0,1-10.56-3.1,1,1,0,0,1,.84-1.85,1,1,0,0,1,.25.16c.07,0,7.73,5,15.45,1.43a1.08,1.08,0,0,1,1.36.5,1,1,0,0,1-.49,1.35h0A16.17,16.17,0,0,1,1157.24,761.27Z"/><path class="cls-18" d="M968.08,862c-2,5.81,13.1,16.69,33.73,24.31s39,9.06,41,3.24-13.1-16.74-33.73-24.3S970.09,856.12,968.08,862Z"/><path class="cls-20" d="M1064,1170s160.74-30.7,212.87-16.21l-25,37L1159,1196Z"/><path class="cls-1" d="M1600.28,489.25c-15.12-23.18-46.54-37.4-49-64.95-.89-10.22,2.5-21.46-2.82-30.25-5.84-9.64-19.17-11.17-30.38-10-12.34,1.24-25.41,5-33,14.8-9.57,12.34-7.45,29.72-10.46,45-7.28,36.92-43.65,59.63-76.85,77.37-17.29,9.21-35.31,19-45.79,35.49-17.73,27.92-8,64.18-9.43,97.25a137.84,137.84,0,0,1-25.28,73.36c-9,12.58-18.24,24.92-28.33,36.61-17.81,20.66-10.25,48.23,15.69,52.17,14.5,2.16,28.69-3.37,34.58-12.91,18.37-29.75,72.2-32.33,92.26-35.21s41.06-12.82,48.62-31.61c7.15-17.7.5-37.92,3.4-56.79,4-26.16,25.28-45.75,45.27-63.1l51.42-44.65c7.94-6.89,16-13.92,21.54-22.87C1612.82,531.09,1611.74,506.86,1600.28,489.25Zm-51,61.59c-18.23,20.26-47.08,22.14-70.92,31.84-18.54,7.57-34.57,16.69-55.4,15.7-13.5-.63-30.06-4.73-30.47-20.85-.71-27.85,37.18-32.73,56.85-33.93,12.22-.74,24.85-1.65,35.79-7.1a47.12,47.12,0,0,0,19.58-18.24c3.14-5.34,5.29-11.4,9.66-15.8a23.7,23.7,0,0,1,10.6-6A28.5,28.5,0,0,1,1556.11,509c7.75,13,3.35,30.57-6.78,41.76Z"/><path class="cls-27" d="M1080.91,863.19s55.66,390.94,96.34,394.55,193.14,11.77,239.61,0S1489,857.58,1476.17,848.2,1063.9,818.62,1080.91,863.19Z"/><path class="cls-27" d="M1464.06,1099.71,1446,1064.05a640.56,640.56,0,0,0,64-38.41c54.56-37.54,64.33-59.6,66-67.34a11,11,0,0,0-2.33-10.33c-19.74-24.67-52.55-16.55-63.33-13.88a181.15,181.15,0,0,0-44.76,18.37l-21-34a218.66,218.66,0,0,1,56.13-23.18c56.52-14,87.8,7.34,104.09,27.7a50.71,50.71,0,0,1,10.16,43.78c-6,27.8-33.06,57.92-82.75,92A677.87,677.87,0,0,1,1464.06,1099.71Z"/><path class="cls-28" d="M1210.6,1053.71c-13.3-72.4,53.83-101.25,105.26-101.25s89.86,37.26,89.86,88.69-50.56,105.69-102,105.69S1219.89,1104.3,1210.6,1053.71Z"/><path class="cls-1" d="M1292.79,1134.36c-24.73,0-46.85-9.79-64-28.3-15.57-16.83-26.4-39.88-31.34-66.64-4.83-26.35.3-48.81,15.27-66.77,10-12,24.63-21.84,42.21-28.33a146.2,146.2,0,0,1,50-8.77c25.55,0,48.9,9.12,65.78,25.69s26.31,39.82,26.31,65.21-11.78,52.13-32.32,73.66C1343.92,1121.88,1317.72,1134.36,1292.79,1134.36ZM1304.92,940c-43.64,0-74.47,18.37-88.76,35.5-14.05,16.91-18.9,38.15-14.31,63.14,4.76,25.93,15.2,48.21,30.2,64.42,16.27,17.59,37.28,26.89,60.74,26.89,49.43,0,99.77-52.23,99.77-103.48,0-24.19-8.87-46.23-25-62.05S1329.28,940,1304.92,940Z"/><path class="cls-15" d="M1109.71,1063l.68-42.15a10.82,10.82,0,0,0-10.1-11c-29.24-2.09-49.7-11.16-60.93-27-15.57-22-13.93-56.19-9.6-80,2.23-12.14-1.78-20.27-16.44-28a100.77,100.77,0,0,0-28.17-9.62c-6.24-1.08-12.43,1.44-14,7.56a257.29,257.29,0,0,0-7.34,42c-3.68,41.6,4.32,77.8,23.21,104.66,23.17,33,60.52,51.22,111.1,54.31a10.9,10.9,0,0,0,11.61-10.15C1109.7,1063.4,1109.7,1063.21,1109.71,1063Z"/><g class="cls-13"><path class="cls-29" d="M1002.11,1008.4a12,12,0,0,1-3.52-.55,18.71,18.71,0,0,1-8.87-6.29h0c-5.21-6.48-5.71-14.75-1.08-18.44s12.59-1.46,17.79,5,5.71,14.75,1.09,18.46A8.47,8.47,0,0,1,1002.11,1008.4ZM994,984.16a5.64,5.64,0,0,0-3.61,1.16c-3.32,2.68-2.62,9.31,1.54,14.47h0a15.72,15.72,0,0,0,7.49,5.4c2.52.77,4.77.5,6.32-.75,3.33-2.68,2.63-9.31-1.53-14.47-2.9-3.72-6.91-5.81-10.18-5.81Z"/></g><path class="cls-15" d="M1089.55,1007.15s10.28-31.09,27.87-38.7,45.81-4,35.91,3-25,12.52-25,12.52,32.89-10.21,32-1.48-29.63,17.29-29.63,17.29,40.1-9,36.54-1.08-34.07,14.61-34.07,14.61,37.65-6.92,33.29,2.23-31.14,5.51-32.08,14.23-7.64,43.06-32.21,43.4Z"/><path class="cls-30" d="M1116.57,991.2l-1.28-.6c2.7-5.7,12.48-7.25,12.89-7.32l.22,1.39C1128.3,984.68,1119,986.19,1116.57,991.2Z"/><path class="cls-30" d="M1116.42,1008.5l-1.08-.84c5.33-7.13,14.82-8.48,15.23-8.54l.19,1.4C1130.61,1000.54,1121.39,1001.86,1116.42,1008.5Z"/><path class="cls-30" d="M1119.9,1021.35l-1.32-.5c2.36-6.31,13.93-8.13,14.41-8.21l.22,1.39C1133.08,1014.06,1122,1015.82,1119.9,1021.35Z"/><path class="cls-15" d="M1492.46,1009.7s2.53,19.86-14.27,21.75c-21.41,2.4-50.79-16.77-37.22-18.49,12-1.53,29.65.72,29.65.72s-44.8-6.38-40.63-15.91,42.63-3.49,42.63-3.49-43.22-10.61-36.49-18.16,41.63-2.31,41.63-2.31-42.66-7.94-34.7-16.52,29.35.33,39.17,1.89c9.27,1.48,11.54,8.37,9.81,17.87,0,0,3.4,10.66.81,16.52-1,2.25.83,4.92.82,6.69A63.81,63.81,0,0,1,1492.46,1009.7Z"/><path class="cls-24" d="M1825.77,1746.8s162.9,25.3,299.49,11.89,325.25-20.77,290.91-245.94,2.82-319.27-132.05-374.66-291.76-19.46-397,109.3S1535.51,1650.46,1825.77,1746.8Z"/><path class="cls-17" d="M1698.16,1712.17s-1.08,23.19-16.9,29.41-61.45,11.2-44.76,26.47c9.58,8.76,55.67,4.18,68.64,4.45s25.06,6.17,34.89-2.31c10.8-9.35,1.17-57.13,1.17-57.13s-11.31,5.6-21.38,5.13C1705.31,1717.51,1698.16,1712.17,1698.16,1712.17Z"/><path class="cls-17" d="M1559.7,1698.86s-1.32,23.18-17.23,29.17-61.59,10.53-45,25.94c9.49,8.86,55.62,4.77,68.6,5.18s25,6.49,34.9-1.93c10.92-9.22,1.8-57.11,1.8-57.11s-11.38,5.48-21.44,4.91C1566.8,1704.27,1559.7,1698.86,1559.7,1698.86Z"/><path class="cls-25" d="M1570.31,1718a50.47,50.47,0,0,1-44.65-53.59c10.46-152.13,24.61-228.75,76-292.15,33-40.71,81.24-79.37,139.08-100.49,49.87-18.21,91.85-25.94,146.39-24.41,88.9,2.45,129.44,19.21,129.44,19.21,54.5,143.78-51.08,153.14-128.33,150.28-2.55-.09-5.11-.16-7.69-.23-46.82-1.08-130.66,3.61-166,47.19-28,34.5-49.63,84.47-68.34,216.54a47.23,47.23,0,0,1-52.08,40.36Z"/><path class="cls-25" d="M1697.79,1737a50.47,50.47,0,0,1-44.65-53.59c10.46-152.13,24.61-228.75,76-292.13,33-40.73,79.89-69.58,139.3-85.76,42.41-11.54,91.55-16.63,146.06-15.13,88.9,2.45,129.56-4.81,129.56-4.81,56.35,182.9-202.27,122.81-276.92,192.24-32.54,30.26-74.72,89.47-93.42,221.52a47.24,47.24,0,0,1-52.09,40.36Z"/><path class="cls-31" d="M2120.67,1027.8s-27.31-72.29-120.67-67.28-158.92,41.84-172.47,302.36c0,0,128.83-7.32,276.12,79.38,24.8,14.6,63.52,11.65,65.11-17.08C2171.92,1268,2160.15,1158.67,2120.67,1027.8Z"/><path class="cls-18" d="M2202.65,1039.2l-82,26s-169.84,19.88-215.11,12.62-58.2-43-58.2-43,47.27-54.94,128.79-70.87a231.37,231.37,0,0,1,23.86-3.38c13.84-1.23,27.16-2.49,40.75-1.08C2173.57,973.39,2202.65,1039.2,2202.65,1039.2Z"/><path class="cls-22" d="M2202.65,1039.2c4.4,9.79-14.82,19-38.37,27.7s-44.58,10.49-46.93,3.93,14.82-19,38.38-27.7S2199.83,1032.86,2202.65,1039.2Z"/><path class="cls-15" d="M1969.16,1288.9c-16-2.36-28.49-8.35-37.93-18-17.86-18.13-18-42.84-12.69-58.5l20.88-8.32c1.74-5.13,35.93,20,35.86,19.94.16.08,16.94,7.76,82.36-14.29,45.53-15.34,71.42-42.88,79.13-84.15,5.83-31.14-4.32-47.11-6.48-55.22-.28-1.08,5.62-14.66,29.92-22.7,26.25-8.64,35.79-1.92,35.79-1.92a203.82,203.82,0,0,1,3.78,91.66c-8.42,45.08-36.43,104.88-122,133.72C2031.14,1286.9,1995.48,1292.82,1969.16,1288.9Z"/><g class="cls-26"><path class="cls-29" d="M2136.17,1220.37a5.63,5.63,0,0,1-3.64-1.19c-3.79-3-2.52-10.8,2.89-17.67,3.54-4.49,8.09-7.57,11.89-8a6,6,0,0,1,4.56,1.13c3.78,3,2.52,10.81-2.9,17.68h0c-3.53,4.49-8.09,7.57-11.88,8C2136.78,1220.35,2136.48,1220.37,2136.17,1220.37Zm12.06-24.68h-.67c-3.18.37-7.26,3.18-10.39,7.16-4.49,5.7-6,12.37-3.24,14.55a3.81,3.81,0,0,0,2.91.66c3.18-.37,7.25-3.18,10.38-7.15h0c4.5-5.71,6-12.38,3.25-14.56a3.52,3.52,0,0,0-2.24-.66Z"/></g><path class="cls-15" d="M2001.87,960.69l-16.94-22.92-4.88-6.63-29-39.22,13.51,44.39,8.11,26.63,2.58,8.43c1.74,5.73-1.29,8.12-3.76,14.48-1,2.58-7.64,18.37,6.58,19.56,17.72,1.42,42.82-18.88,49-36.15C2026.92,969.23,2007.35,968.09,2001.87,960.69Z"/><path class="cls-32" d="M1910.13,887.62a61.3,61.3,0,0,0,8.4,24c7.44,12.38,9.55-25.19,9.55-25.19Z"/><path class="cls-15" d="M1918.26,916c-5.64-27,7.94-52.68,30.33-57.35s45.11,13.42,50.79,40.42-7.94,52.67-30.33,57.35S1923.86,943,1918.26,916Z"/><path class="cls-23" d="M1956.06,906.29a.85.85,0,0,1-.64-1,.86.86,0,0,1,.47-.58,9.09,9.09,0,0,1,11,2,.84.84,0,0,1,0,1.19.92.92,0,0,1-1.19,0,14.42,14.42,0,0,0-9.08-1.68A.86.86,0,0,1,1956.06,906.29Z"/><path class="cls-23" d="M1925.91,914.21a.58.58,0,0,1-.56-.25,1,1,0,0,1-.07-1.18,5.89,5.89,0,0,1,8.06-2.11l.34.21a1,1,0,0,1,.41,1.08.63.63,0,0,1-.77.45l-.07,0a8.78,8.78,0,0,0-7,1.58A.55.55,0,0,1,1925.91,914.21Z"/><path class="cls-32" d="M2021.11,877.75s-3.24,32.76-21,41.32c0,0,7.47-26.73-28.7-28.79C1971.4,890.28,1998.79,875.58,2021.11,877.75Z"/><path class="cls-15" d="M2000.42,902.45c-3.08,3.9-8.41,4.84-11.89,2.09s-3.83-8.16-.75-12.06,8.41-4.84,11.89-2.1S2003.51,898.54,2000.42,902.45Z"/><path class="cls-32" d="M1945.16,943.48a.9.9,0,0,1-.9-.91.94.94,0,0,1,.21-.58c.27-.31,6.49-7.47,17.61-4.32a.91.91,0,1,1-.36,1.78l-.14,0c-10-2.84-15.67,3.66-15.72,3.73A.9.9,0,0,1,1945.16,943.48Z"/><path class="cls-23" d="M1936,919.81c.89,1.79.56,3.77-.75,4.42s-3.08-.28-4-2.08-.56-3.78.73-4.42S1935.09,918,1936,919.81Z"/><path class="cls-23" d="M1963.05,915.28c.14,2-.93,3.69-2.38,3.8s-2.73-1.43-2.87-3.43.92-3.71,2.36-3.81S1962.91,913.28,1963.05,915.28Z"/><path class="cls-33" d="M1941.88,928.83c.77,2.16-1.75,5-5.61,6.36s-7.56.79-8.38-1.33,1.75-5,5.62-6.36S1941.14,926.71,1941.88,928.83Z"/><path class="cls-33" d="M1972.59,925.61c-.15,2.25-3.6,3.84-7.69,3.55s-7.3-2.34-7.14-4.59,3.6-3.85,7.7-3.55S1972.75,923.35,1972.59,925.61Z"/><path class="cls-33" d="M1949.22,932.52c-2.49,0-4.51-2.37-4.51-5.31s2-5.34,4.5-5.34,4.5,2.38,4.51,5.32S1951.71,932.52,1949.22,932.52Z"/><path class="cls-22" d="M2021.11,877.75s1.25-35.14-32.09-44-43.77-7.77-37.54,0c0,0-28.83-6.87-29.52,2.32s6.13,10.21,6.13,10.21-22.69,1.08-22.13,8.34,13.16,6.13,13.16,6.13-23.28,7.56-21.5,14.47,15,2.35,15,2.35-17.53,11.6-10,19.93c5.4,6,42.62-12.24,42.62-12.24s-4.92,4.32,1.21,7.39,21.43.78,37.52-7.39S2021.11,877.75,2021.11,877.75Z"/><path class="cls-22" d="M1944.56,830.2a.52.52,0,0,1-.32-.11,14.1,14.1,0,0,0-9.84-2.61.51.51,0,0,1-.56-.45.5.5,0,0,1,.45-.56,14.74,14.74,0,0,1,10.59,2.83.51.51,0,0,1,0,.73.48.48,0,0,1-.37.17Z"/><path class="cls-22" d="M1947.63,830.2a.52.52,0,0,1-.48-.33c-2.6-6.92-.06-11.36,0-11.54a.51.51,0,0,1,.88.52h0s-2.39,4.23,0,10.66a.51.51,0,0,1-.29.66h0Z"/><path class="cls-34" d="M1659.92,1597.87c0-.59.09-58.65,21.61-121,12.68-36.64,30.18-67.58,52-92a193.4,193.4,0,0,1,101.73-60.18l.24,1c-40,9.39-74,29.53-101.2,59.85-21.75,24.27-39.19,55.11-51.87,91.6-21.52,62.19-21.61,120.11-21.61,120.68Z"/><path class="cls-19" d="M1929.4,1005c3,12.1,4.62,19.31-10.29,38.3a44.32,44.32,0,0,0-6.69,12.66,89.57,89.57,0,0,0-3.9,16.4c-.67,4.41-1.17,9.13-1.53,14.1h0c-.14,1.9-.25,3.81-.36,5.76-.3,5.65-.46,11.58-.57,17.76v3.16c0,4.23-.09,8.54-.11,13h0v6.11h0v8.29h0c0,2.34,0,4.71-.06,7.12-.09,6.06-.21,12.25-.43,18.56-.06,2.23-.14,4.45-.24,6.68h0c-.11,2.41-.24,4.84-.37,7.27,0,1.08-.12,2.16-.2,3.24a78.2,78.2,0,0,1-3.43,17.74h0q-.92,3-2,6.08h0a160.07,160.07,0,0,1-8.64,19.4c-.71,1.34-1.43,2.68-2.16,4h0a258.51,258.51,0,0,1-25.68,37.75q-3.48,4.32-7.16,8.5c-1.15,1.31-2.31,2.6-3.48,3.89s-2.34,2.57-3.56,3.84c-25.82,27.4-57.55,50.28-88.52,57.87-1.38.33-2.74.65-4.12.91a86.2,86.2,0,0,1-13.77,1.69c-.8,0-1.61.07-2.42.07H1738a69.58,69.58,0,0,1-8.65-.6c-.85-.09-1.7-.22-2.54-.37a65.14,65.14,0,0,1-14.66-4.19q-1.26-.51-2.52-1.08l-.32-.16a93.54,93.54,0,0,1-12.42-6.71c-.57-.37-1.08-.76-1.67-1.14a60.7,60.7,0,0,1-9-7.7c-.54-.57-1.09-1.14-1.56-1.73a43.37,43.37,0,0,1-5.53-8l-1.08-2.16a38.93,38.93,0,0,1-3.46-14.23,56.87,56.87,0,0,1,3.24-21.08h0c.28-.82.56-1.65.88-2.47a113.72,113.72,0,0,1,8.93-18.37c2.81-4.76,6-9.52,9.38-14.27l1.74-2.38c2.35-3.19,4.8-6.35,7.32-9.5l1.79-2.23q5.19-6.35,10.67-12.51c3.55-4,7.17-8,10.8-11.89,6.38-6.91,12.7-13.54,18.57-19.74a80.7,80.7,0,0,0,13.39-19.3,108.47,108.47,0,0,0,6.26-15.42c.64-2,1.22-4,1.79-6,1.52-5.56,2.75-11.28,3.78-17.11.64-3.54,1.19-7.1,1.7-10.69.28-1.91.53-3.82.79-5.74h0c.2-1.52.38-3,.58-4.56.15-1.17.29-2.33.43-3.5.59-4.81,1.15-9.63,1.76-14.43q.12-1,.24-2h0c.07-.51.15-1,.2-1.52.19-1.43.38-2.86.58-4.32.73-5.32,1.56-10.58,2.55-15.75.9-4.73,1.94-9.38,3.24-13.92q1.37-5,3.1-9.84.6-1.66,1.26-3.3c4.84-12.15,11.81-23.11,22.34-32.09a129.67,129.67,0,0,1,11.81-8.93,135.92,135.92,0,0,1,12.12-7.23q5.89-3.12,11.89-5.61l2.16-.9c2.45-1,4.91-1.91,7.34-2.75l1.74-.6,2.22-.72c4.46-1.44,8.88-2.66,13.2-3.68,4.06-1,8-1.79,11.89-2.45h0l1.51-.25a209.25,209.25,0,0,1,21-2.42c1.28-.08,2.55-.15,3.77-.2,5.89-.28,10.91-.27,14.77-.17,1.28,0,2.4.07,3.4.13,3.25.14,5,.33,5,.33,2.62,8.53-8.46,8.65-9,21.42a28.48,28.48,0,0,0,.47,6.18C1927.93,998.94,1928.71,1002.09,1929.4,1005Z"/><g class="cls-35"><path class="cls-18" d="M1712.06,1340.13q-1.26-.51-2.52-1.08l-.32-.16a93.46,93.46,0,0,1-12.29-6.85c-.57-.37-1.08-.76-1.67-1.14l-3.58-12.48-.71-2.49-2.94-10.26-.73-2.49-4-13.78-4.17-14.52-.39-1.36a113.72,113.72,0,0,1,8.93-18.37l2.79,9.72,4.17,14.53,4,13.78.71,2.48,2.94,10.27.73,2.49,4.17,14.58,4.17,14.53Z"/><path class="cls-18" d="M1766.47,1331.57c-.31.43-.61.87-.89,1.31-.14.2-.27.38-.39.58-.34.51-.67,1.08-1,1.54s-.73,1.15-1.08,1.72-.5.83-.74,1.23-.42.73-.61,1.08c-.44.76-.86,1.53-1.27,2.29l-.68,1.3c-1.38.33-2.74.65-4.13.91l-3.24-11.14-7.15-24.92-4.17-14.54-4.17-14.58-.72-2.48-3-10.28-.71-2.48-3.93-13.77-4.12-14.55-5.9-20.53c3.55-4.06,7.17-8,10.8-11.89l6.49,22.51,4.18,14.51,3.94,13.78.72,2.49,3,10.27.71,2.49,4.18,14.58,4.17,14.53,7.16,24.91Z"/><path class="cls-18" d="M1729.35,1344.69c-.85-.09-1.71-.22-2.54-.37l-4.68-16.32-4.16-14.52-4.19-14.59-.7-2.49-2.95-10.25-.72-2.5-4-13.78-4.21-14.55-4.15-14.48c.58-.79,1.15-1.59,1.74-2.39l4.33,15.13,4.17,14.51,3.94,13.78.7,2.49,3,10.26.71,2.5,4.18,14.58,4.17,14.52Z"/><path class="cls-18" d="M1741.14,1342.42l.8,2.8c-.8,0-1.61.07-2.42.07l-.33-1.15-7.15-24.93-4.17-14.52-4.18-14.58-.72-2.48-2.94-10.28-.71-2.49-4-13.78-4.16-14.51-5-17.6,1.79-2.22,5.2,18.1,4.17,14.53,4,13.77.72,2.48,2.94,10.27.71,2.48,4.19,14.6,4.17,14.52Z"/><path class="cls-18" d="M1813.64,1295.89c-4.51,1.91-8.65,3.89-12.5,5.94l-2.82-9.85-7.16-24.93-4.16-14.51-4.19-14.59-.72-2.49-2.94-10.27-.71-2.48-4-13.78-4.16-14.52-8.95-31.15a108,108,0,0,0,6.27-15.42c.63-2,1.22-4,1.78-6l1,3.53,11.21,39,4.16,14.51,4,13.78.72,2.5,2.94,10.25.72,2.5,4.18,14.57,4.16,14.53,7.17,24.93Z"/><path class="cls-18" d="M1862.55,1268.52q-3.48,4.34-7.16,8.5c-1.15,1.31-2.31,2.6-3.48,3.89l-.18-.66-4-13.77-4.16-14.52-7.16-24.93-4.17-14.52-4.18-14.58-.71-2.5-3-10.26-.71-2.49-4-13.81-4.18-14.52-11.18-39-4.18-14.52-4.19-14.58-.7-2.48-3-10.27-.7-2.5-4-13.75-2.55-8.87q1.36-5,3.1-9.83c.41-1.11.83-2.21,1.27-3.31l3.69-1.08,1.91-.55,3.91,13.62,4,13.77.7,2.49,3,10.28.72,2.47,4.18,14.6,4.26,14.53,11.19,39,4.17,14.54,4,13.78.71,2.47,2.94,10.28.71,2.48,4.2,14.59,4.16,14.52L1855,1242l4.17,14.52Z"/><path class="cls-18" d="M1827.94,1290.55l-2.16.73-1.23-4.26-4.16-14.52-7.15-24.93-4.16-14.52-4.2-14.58-.71-2.5-3-10.26-.71-2.5-4-13.81-4.16-14.5-11.22-39.05-4.16-14.52-2.11-7.33q.41-2.87.79-5.74l3.25,11.36,4.17,14.51,11.2,39.06,4.17,14.53,4,13.76.71,2.49,3,10.29.71,2.48,4.18,14.59,4.17,14.52,7.15,24.93,4.16,14.51Z"/><path class="cls-18" d="M1839.42,1287.07l-2.25.63-2.71-9.46-4.17-14.53-7.15-24.92-4.18-14.52-4.17-14.6-.71-2.48-2.95-10.27-.71-2.48-4-13.77-4.17-14.53-11.21-39-4.16-14.53-4.18-14.59-.72-2.48-2.94-10.27-.41-1.41h0c.07-.51.15-1,.2-1.51.19-1.44.38-2.87.58-4.33l.86,3,.72,2.49,2.94,10.28.72,2.47,4.18,14.6,4.17,14.52,11.2,39,4.17,14.52,3.94,13.78.72,2.48,3,10.28.71,2.5,4.19,14.56,4.16,14.54,7.15,24.93,4.16,14.51Z"/><path class="cls-36" d="M1899,1207.31h0a160.8,160.8,0,0,1-8.64,19.39l-3.69-12.82-7.13-24.93-4.18-14.52-4.17-14.58-.72-2.5-3-10.25-.72-2.51-3.94-13.77-4.18-14.52-11.2-39-4.16-14.53-4.19-14.59-.64-2.47-2.94-10.27-.71-2.49-4-13.76-4.19-14.54-3-10.44a134.51,134.51,0,0,1,12.12-7.23l2.16,7.67,4.16,14.52,3.95,13.77.71,2.49,3,10.28.71,2.47,4.19,14.6,4.16,14.52,11.2,39,4.17,14.53,4,13.77.71,2.49,3,10.27.71,2.49,4.18,14.57,4.17,14.53,7.15,24.93Z"/><path class="cls-18" d="M1912.42,1056a89.57,89.57,0,0,0-3.9,16.4c-.67,4.41-1.17,9.13-1.53,14.1l-2.92-10.16-11.21-39-4.16-14.52-4.19-14.59-.71-2.48-3-10.27-.72-2.49-3.94-13.78-1.85-6.42q6.11-1.46,11.89-2.44h0l1.51-.25,3.71,12.9.71,2.49,2.94,10.26.71,2.5,4.2,14.59,4.16,14.52Z"/><path class="cls-36" d="M1905.07,1172.9h0c-.1,2.42-.23,4.84-.36,7.27l-3.07-10.69-4.17-14.54-4.17-14.57-.73-2.5-2.94-10.27-.71-2.48-4-13.77-4.17-14.53-11.18-39-4.17-14.54-4.18-14.58-.73-2.48-2.94-10.28-.72-2.49-4-13.77-4.15-14.49-1.08-3.78,2.17-.9.85,3,4.17,14.53,3.94,13.76.72,2.49,3,10.29.71,2.48,4.18,14.58,4.17,14.53,11.26,39,4.16,14.51,4,13.77.71,2.51,2.94,10.25.71,2.5,4.2,14.58,4.16,14.52Z"/><path class="cls-36" d="M1905.86,1132.23h0v8.29l-2.56-9-.71-2.49-2.95-10.26-.71-2.51-4-13.77-4.16-14.51-11.27-39-4.17-14.52-4.19-14.59-.7-2.5-3-10.27-.72-2.49-4-13.76-4-13.77,2.23-.72,3.66,12.78,4,13.78.71,2.48,3,10.27.71,2.48,4.18,14.59,4.16,14.52,11.21,39,4.17,14.53,4,13.76.72,2.49,3,10.28.71,2.47Z"/><path class="cls-18" d="M1908.52,1072.35c-.67,4.41-1.17,9.13-1.53,14.1h0c-.14,1.9-.25,3.81-.36,5.76l-9.72,8.65-1.94,1.7-8,7.07-1.93,1.72-10.74,9.49-11.33,10-31.79,28.1-11.37,9.94-11.37,10-2,1.73-8,7.07-1.93,1.69-10.81,9.49-11.32,10L1740,1239.29l-11.32,10-11.38,10-2,1.7-8,7.07-1.94,1.72-10.74,9.49-11.34,10-8.7,7.69a56.61,56.61,0,0,1,3.25-21.08h0l1.26-1.09,11.34-10,10.82-9.52,2-1.7,8-7.08,1.94-1.71,11.37-10,11.32-10,34.45-30.41,11.33-10,10.8-9.48,1.93-1.72,8-7.07,2-1.72,11.36-10,11.33-10,31.79-28.09,11.33-10,10.74-9.49,1.94-1.69,8-7.08,1.93-1.72,11.38-10Z"/><path class="cls-18" d="M1899.42,1153.24l6.32-5.58c-.08,6.06-.2,12.25-.42,18.56l-1.74,1.54-1.94,1.73-10.73,9.47-11.36,10-31.8,28.1-11.34,10-11.36,10-1.94,1.71-8,7.08-1.93,1.7-10.75,9.48-11.33,10-34.39,30.38-11.34,10-11.36,10-2,1.71-8,7.07-1.94,1.72-10.74,9.49-1.76,1.55-.33-.16a93.22,93.22,0,0,1-12.33-6.84l10.26-9,10.8-9.48,1.94-1.71,8-7.08,2-1.7,11.36-10,11.33-10,34.44-30.4,11.33-10,10.8-9.48,1.92-1.71,8-7.06,2-1.73,11.35-10,11.35-10,31.78-28.09,11.34-10,10.73-9.47Z"/><path class="cls-18" d="M1900.81,1114.62l5.25-4.64v3.17l-4.49,4-1.94,1.72-8,7.08-1.94,1.7-10.74,9.49-11.33,10-31.79,28.09-11.38,10-11.37,10-1.94,1.71-8,7.07-1.94,1.72-10.75,9.49-11.32,10-34.44,30.41-11.33,10-11.36,10-2,1.72-8,7.08-1.93,1.72-10.74,9.46-11.32,10-8.86,7.81-1.08-2.16,9.19-8.12,11.34-10,10.74-9.49,1.93-1.71,8-7.08,1.93-1.71,11.37-10,11.34-10,34.44-30.4,11.32-10,10.74-9.49,2-1.7,8-7.07,1.94-1.72,11.38-10,11.33-10,31.78-28.1,11.34-10,10.74-9.48,1.94-1.73,8-7.08Z"/><path class="cls-18" d="M1904.48,1127.39l1.43-1.27v3.14l-.69.6-2,1.72-8,7.08-1.93,1.72-10.74,9.48-11.33,10-31.8,28.09-11.32,10-11.38,10-1.94,1.7-8,7.07-2,1.72-10.74,9.48-11.34,10-34.42,30.39-11.33,10-11.38,10-1.94,1.73-8,7.06-1.94,1.71-10.73,9.49-11.34,10-5.4,4.78c-.54-.57-1.08-1.14-1.56-1.73l6.27-5.54,11.32-10,10.81-9.48,1.93-1.72,8-7.06,2-1.73,11.37-10,11.33-10,34.43-30.41,11.32-10,10.81-9.47,1.79-1.75,8-7.08,1.94-1.71,11.37-10,11.33-10,31.8-28.1,11.32-10,10.73-9.49,2-1.72,8-7.07Z"/><path class="cls-36" d="M1898.05,1203.89l3-2.67c-.61,2-1.29,4-2,6.09h0a159.25,159.25,0,0,1-8.64,19.39l-2.16,4h0l-29.18,25.7-11.33,10-11.38,10-1.94,1.72-8,7.06-1.94,1.72-9.27,8.19h0l-1.46,1.3-.17-.62c-4.51,1.9-8.65,3.89-12.49,5.94-16.86,9-27.34,19.25-34.64,29.73-.3.44-.6.88-.88,1.32-.14.2-.27.38-.39.57-.35.52-.67,1.08-1,1.55s-.72,1.15-1.08,1.72-.49.83-.73,1.23-.42.72-.62,1.08c-.43.76-.85,1.52-1.26,2.29l-.68,1.3c-1.39.33-2.75.65-4.13.91a86.2,86.2,0,0,1-13.77,1.69c-.8,0-1.61.07-2.42.07h-1.62l1.3-1.15,1.94-1.72,11.37-10,11.34-10,34.44-30.4,11.32-10,10.74-9.47,1.93-1.71,8-7.08,2-1.7,11.38-10,11.32-10,31.78-28.1Z"/><path class="cls-36" d="M1851.73,1280.25l3.66-3.24c-1.15,1.31-2.31,2.6-3.48,3.89s-2.35,2.57-3.56,3.84l-2.41.61Z"/><path class="cls-36" d="M1886.24,970.25l-10,8.86-11.38,10-1.93,1.71-8,7.07-2,1.72-10.73,9.48-11.33,10-31.79,28.09-11.36,10-5.74,5c.91-4.72,2-9.38,3.24-13.92q1.36-5,3.11-9.83l5-4.32,33.42-29.57,11.33-10,10.73-9.49,2-1.71,6.48-5.73,1.74-.59,2.23-.72c4.45-1.44,8.87-2.66,13.19-3.69Q1880.45,971.24,1886.24,970.25Z"/><path class="cls-18" d="M1929.4,1005l-25.21,22.26-11.33,10-11.37,10-1.93,1.72-8,7.08-1.93,1.72-10.81,9.47-11.33,10-31.78,28.1-11.33,10-11.37,10-2,1.72-8,7.07-1.94,1.71-10.74,9.49-2.8,2.48c.64-2,1.22-4,1.78-6,1.52-5.57,2.76-11.28,3.78-17.12l3.82-3.36,1.93-1.71,8-7.07,1.94-1.71,11.37-10.05,11.34-10,31.79-28.09,11.33-10,10.74-9.48,1.94-1.72,8-7.07,1.93-1.72,11.38-10,11.43-10,26.8-23.66a28.43,28.43,0,0,0,.47,6.18C1927.93,998.94,1928.71,1002.09,1929.4,1005Z"/><path class="cls-18" d="M1908.81,967.57c1.29-.09,2.55-.15,3.77-.21l-20.4,18-11.33,10-11.37,10-1.93,1.7-8,7.08-1.94,1.72-10.8,9.48-11.33,10-31.8,28.09-11.32,10-11.31,10-2,1.73-.65.58c.07-.67.16-1.33.24-2h0c.07-.51.15-1,.2-1.51l1.44-1.28,11.38-10,11.32-10,31.79-28.1,11.33-10,10.74-9.47,1.94-1.72,8-7.08,1.94-1.69,11.36-10,11.34-10Z"/><path class="cls-18" d="M1927.36,967.19c1.27,0,2.4.08,3.4.13l-34.92,30.82-11.33,10-11.37,10-1.94,1.72-8,7.08-1.93,1.71-10.81,9.47-11.33,10-31.78,28.09-11.34,10-11.37,10-1.94,1.72-6.49,5.75c.15-1.17.3-2.34.44-3.51l5.4-4.73,2-1.71,11.38-10,11.33-10,31.79-28.1,11.33-10,10.75-9.48,1.94-1.72,8-7.08,1.93-1.71,11.37-10,11.33-10Z"/></g><path class="cls-25" d="M1945.16,953.11s30.07,8,45.31-10.44,32.82-20.61,41.23-7.92,24.92,18.8,25.36,35.1-41.79,56.06-92.71,59.85-56.74-29.94-42.34-46.59C1941.14,961,1923.62,950.77,1945.16,953.11Z"/><path class="cls-37" d="M2128.27,1331.8h0a64.74,64.74,0,0,1-91.27-1.28L1558.11,838a64.72,64.72,0,0,1,1.28-91.26h0a64.72,64.72,0,0,1,91.27,1.28l478.9,492.56A64.74,64.74,0,0,1,2128.27,1331.8Z"/><path class="cls-38" d="M1669.55,803.22l-54.55,53a2,2,0,0,1-2.87,0h0a2,2,0,0,1,0-2.88h0l54.56-53.08a2,2,0,0,1,2.88,0h0a2,2,0,0,1,0,2.88Z"/><path class="cls-38" d="M1701.25,835.8l-54.54,53a2,2,0,0,1-2.88,0h0a2.06,2.06,0,0,1,0-2.89l54.55-53a2,2,0,0,1,2.88,0h0A2,2,0,0,1,1701.25,835.8Z"/><path class="cls-38" d="M1670.34,820.26l-24.86,24.11a1.66,1.66,0,0,1-2.35,0h0l-.52-.53a1.66,1.66,0,0,1,0-2.35v0l24.79-24.1a1.68,1.68,0,0,1,2.37,0l.51.54A1.67,1.67,0,0,1,1670.34,820.26Z"/><path class="cls-38" d="M1677.57,827.71l-24.79,24.11a1.68,1.68,0,0,1-2.37,0l-.52-.53a1.7,1.7,0,0,1,0-2.37l24.86-24.11a1.68,1.68,0,0,1,2.35,0l.53.54a1.65,1.65,0,0,1-.06,2.35Z"/><path class="cls-38" d="M1684.21,834.54l-24.79,24.1a1.66,1.66,0,0,1-2.35,0v0l-.52-.52a1.67,1.67,0,0,1,0-2.36l24.8-24.12a1.66,1.66,0,0,1,2.35,0h0l.52.53A1.69,1.69,0,0,1,1684.21,834.54Z"/><path class="cls-38" d="M1732.9,868.39l-54.54,53a2,2,0,0,1-2.88,0h0a2,2,0,0,1,0-2.88h0l54.54-53a2,2,0,0,1,2.89,0h0A2,2,0,0,1,1732.9,868.39Z"/><path class="cls-38" d="M1702,852.84,1677.16,877a1.67,1.67,0,0,1-2.36,0h0l-.52-.53a1.68,1.68,0,0,1,0-2.37l24.86-24.1a1.66,1.66,0,0,1,2.35,0l.52.54a1.66,1.66,0,0,1,0,2.35Z"/><path class="cls-38" d="M1709.25,860.29,1684.4,884.4a1.67,1.67,0,0,1-2.36,0h0l-.52-.53a1.68,1.68,0,0,1,0-2.37l24.79-24.11a1.68,1.68,0,0,1,2.37,0l.52.54A1.68,1.68,0,0,1,1709.25,860.29Z"/><path class="cls-38" d="M1715.9,867.13,1691,891.24a1.68,1.68,0,0,1-2.35,0l-.53-.54a1.67,1.67,0,0,1,0-2.36L1713,864.22a1.68,1.68,0,0,1,2.37,0l.52.53a1.67,1.67,0,0,1,0,2.37Z"/><path class="cls-38" d="M1764.58,901,1710,954a2.07,2.07,0,0,1-2.9,0h0a2.06,2.06,0,0,1,0-2.89L1761.77,898a2,2,0,0,1,2.87,0h0a2.06,2.06,0,0,1-.05,2.91Z"/><path class="cls-38" d="M1733.67,885.42l-24.85,24.11a1.67,1.67,0,0,1-2.36,0h0l-.52-.53a1.7,1.7,0,0,1,0-2.37l24.86-24.1a1.67,1.67,0,0,1,2.36,0l.52.54A1.66,1.66,0,0,1,1733.67,885.42Z"/><path class="cls-38" d="M1740.92,892.87,1716.13,917a1.67,1.67,0,0,1-2.36,0l-.52-.53a1.68,1.68,0,0,1,0-2.37l24.8-24.11a1.68,1.68,0,0,1,2.35,0l.52.54a1.66,1.66,0,0,1,0,2.34Z"/><path class="cls-38" d="M1747.57,899.71l-24.8,24.11a1.69,1.69,0,0,1-2.36,0l-.52-.54a1.67,1.67,0,0,1,0-2.36h0l24.86-24.11a1.66,1.66,0,0,1,2.35,0h0l.52.53A1.68,1.68,0,0,1,1747.57,899.71Z"/><path class="cls-38" d="M1795.27,932.57l-54.55,53a2,2,0,0,1-2.88,0v0h0a2,2,0,0,1,0-2.87h0l54.55-53a2.06,2.06,0,0,1,2.89,0h0A2.06,2.06,0,0,1,1795.27,932.57Z"/><path class="cls-38" d="M1764.41,917l-24.85,24.11a1.66,1.66,0,0,1-2.35,0h0l-.52-.53a1.67,1.67,0,0,1,0-2.37l24.85-24.11a1.69,1.69,0,0,1,2.36,0l.51.54a1.67,1.67,0,0,1,0,2.36Z"/><path class="cls-38" d="M1771.65,924.47l-24.85,24.11a1.66,1.66,0,0,1-2.35,0h0l-.52-.54a1.66,1.66,0,0,1,0-2.35h0l24.79-24.11a1.67,1.67,0,0,1,2.36,0l.52.54a1.66,1.66,0,0,1,.06,2.35Z"/><path class="cls-38" d="M1778.3,931.3l-24.85,24.11a1.67,1.67,0,0,1-2.36,0h0l-.53-.53a1.67,1.67,0,0,1,0-2.36l24.79-24.11a1.68,1.68,0,0,1,2.37,0l.51.54A1.66,1.66,0,0,1,1778.3,931.3Z"/><path class="cls-38" d="M1827.81,966l-54.53,53a2.07,2.07,0,0,1-2.9,0h0a2,2,0,0,1,0-2.89l54.55-53a2,2,0,0,1,2.88,0h0a2,2,0,0,1,0,2.87Z"/><path class="cls-38" d="M1796.92,950.46l-24.79,24.11a1.68,1.68,0,0,1-2.37,0l-.52-.53a1.7,1.7,0,0,1,0-2.37l24.86-24.1a1.66,1.66,0,0,1,2.35,0l.53.54a1.65,1.65,0,0,1-.06,2.35Z"/><path class="cls-38" d="M1804.16,957.91,1779.37,982a1.68,1.68,0,0,1-2.37,0l-.52-.53a1.68,1.68,0,0,1,0-2.37l24.8-24.11a1.69,1.69,0,0,1,2.36,0l.52.54A1.68,1.68,0,0,1,1804.16,957.91Z"/><path class="cls-38" d="M1810.8,964.75,1786,988.86a1.69,1.69,0,0,1-2.36,0l-.51-.54a1.67,1.67,0,0,1,0-2.36h0l24.85-24.12a1.69,1.69,0,0,1,2.36,0l.51.54A1.67,1.67,0,0,1,1810.8,964.75Z"/><path class="cls-38" d="M1860.91,1000.05l-54.54,53a2.06,2.06,0,0,1-2.89,0h0a2,2,0,0,1,0-2.89l54.55-53a2,2,0,0,1,2.87,0v0h0a2,2,0,0,1,0,2.87Z"/><path class="cls-38" d="M1830,984.51l-24.86,24.11a1.66,1.66,0,0,1-2.35,0l-.53-.54a1.67,1.67,0,0,1,0-2.36l24.85-24.1a1.67,1.67,0,0,1,2.36,0h0l.53.54A1.68,1.68,0,0,1,1830,984.51Z"/><path class="cls-38" d="M1837.26,992l-24.79,24.11a1.7,1.7,0,0,1-2.37,0l-.52-.54a1.69,1.69,0,0,1,0-2.36l24.86-24.11a1.66,1.66,0,0,1,2.35,0h0l.52.53a1.66,1.66,0,0,1,0,2.35Z"/><path class="cls-38" d="M1843.89,998.79l-24.85,24.1a1.66,1.66,0,0,1-2.36,0h0l-.52-.54a1.66,1.66,0,0,1,0-2.35h0L1841,995.89a1.68,1.68,0,0,1,2.35,0l.52.54a1.66,1.66,0,0,1,0,2.35Z"/><path class="cls-38" d="M1893.31,1033.37l-54.55,53a2,2,0,0,1-2.89,0h0a2,2,0,0,1,0-2.88l54.55-53a2,2,0,0,1,2.87,0h0A2.06,2.06,0,0,1,1893.31,1033.37Z"/><path class="cls-38" d="M1862.41,1017.83l-24.85,24.1a1.67,1.67,0,0,1-2.36,0l-.51-.54a1.65,1.65,0,0,1,0-2.35h0l24.78-24.11a1.68,1.68,0,0,1,2.37,0l.52.53A1.68,1.68,0,0,1,1862.41,1017.83Z"/><path class="cls-38" d="M1869.65,1025.27l-24.8,24.11a1.66,1.66,0,0,1-2.35,0h0l-.53-.53a1.67,1.67,0,0,1,0-2.36l24.85-24.11a1.67,1.67,0,0,1,2.37,0l.52.53A1.68,1.68,0,0,1,1869.65,1025.27Z"/><path class="cls-38" d="M1876.31,1032.1l-24.85,24.11a1.68,1.68,0,0,1-2.37,0l-.52-.54a1.69,1.69,0,0,1,0-2.36l24.8-24.1a1.65,1.65,0,0,1,2.35,0h0l.53.54A1.67,1.67,0,0,1,1876.31,1032.1Z"/><path class="cls-38" d="M1613.73,791.1l471.67,485.18a8,8,0,1,1-11.46,11.15h0L1602.26,802.25a8,8,0,0,1,.15-11.31,7.91,7.91,0,0,1,5.69-2.26A8,8,0,0,1,1613.73,791.1Z"/><path class="cls-24" d="M1857.32,1041.64,2085.16,1276a8,8,0,1,1-10.91,11.73c-.19-.18-.38-.38-.56-.58l-227.83-234.35Z"/><path class="cls-15" d="M1899.37,1178.41s-10.3-31.15-27.92-38.78-45.92-4-36,3,25.08,12.56,25.08,12.56-32.94-10.23-32-1.49,29.69,17.33,29.69,17.33-40.19-9-36.62-1.08,34.17,14.67,34.17,14.67-37.73-6.93-33.36,2.23,31.21,5.52,32.16,14.27,7.65,43.16,32.28,43.5Z"/><path class="cls-30" d="M1872.3,1162.39c-2.4-5-11.77-6.49-11.89-6.49l.22-1.4c.42.06,10.21,1.63,13,7.34Z"/><path class="cls-30" d="M1872.45,1179.77c-5-6.66-14.23-8-14.32-8l.19-1.41c.41,0,9.92,1.41,15.27,8.56Z"/><path class="cls-30" d="M1869,1192.64c-2.08-5.54-13.22-7.3-13.33-7.32l.2-1.41c.5.08,12.08,1.91,14.46,8.24Z"/><path class="cls-19" d="M2233.79,1190c0,7.25-.25,14.55-.64,21.85q-.34,6.65-.93,13.3h0c-.22,2.79-.49,5.59-.8,8.38-.14,1.35-.29,2.69-.44,4q-1,8.65-2.41,17.19c-.24,1.42-.49,2.85-.73,4.32-.32,1.75-.64,3.5-1,5.24h0q-2.07,10.8-4.87,21.28-1.34,5-2.83,9.92c-.49,1.58-1,3.16-1.49,4.74q-2.52,7.76-5.5,15.28l-1.08,2.69h0c-.55,1.34-1.08,2.66-1.7,4a215.85,215.85,0,0,1-9.94,20.19,192.41,192.41,0,0,1-11.43,18h0a166.36,166.36,0,0,1-50.14,46.63q-6.89,4.13-14.39,7.69-7.14,3.39-14.88,6.23l-2.57.92c-3.5,1.22-7.09,2.35-10.8,3.41l-2.65.72c-2.57.69-5.2,1.35-7.86,2h0c-2.27.53-4.57,1-6.89,1.44q-7.73,1.5-15.9,2.48l-2.57.3-4,.44h0q-15.33,1.78-28.74,4h0c-1.73.27-3.43.58-5.11.87h0l-4.26.78q-8.19,1.51-15.66,3.24l-2.23.52c-1.94.44-3.84.91-5.7,1.37-2.61.66-5.16,1.33-7.63,2l-2.62.74q-5.62,1.63-10.81,3.32c-.88.29-1.74.57-2.58.88-4.32,1.48-8.42,3-12.28,4.59h0l-1.91.8q-7.9,3.35-14.61,6.93c-19.7,10.53-32,22.52-40.48,34.77a118.5,118.5,0,0,0-9.29,16.09c-.56,1.15-1.08,2.29-1.64,3.44h0c-3.73,8.08-6.68,16-9.94,23.4h0c-.57,1.3-1.15,2.56-1.76,3.82-.34.74-.7,1.49-1.08,2.16-1.22,2.44-2.5,4.78-3.87,7h0c-.9,1.46-1.85,2.9-2.88,4.33h0c-.66.9-1.34,1.79-2.06,2.66a51.77,51.77,0,0,1-12.56,11.1,58.45,58.45,0,0,1-6.88,3.71l-.55.25h0a66.44,66.44,0,0,1-7.22,2.79h-.1c-9.32,2.92-16.26,2.29-21.7-1-4.22-2.57-7.56-6.78-10.33-12.17-3.85-7.42-6.72-17.11-9.66-28-1.48-5.47-3-11.26-4.63-17.19-1.53-5.52-3.24-11.18-5.1-16.86-.31-.94-.62-1.86-1-2.79q-2-5.64-4.32-11.26c-.37-.88-.74-1.77-1.08-2.64a135.15,135.15,0,0,0-7.05-14,111,111,0,0,0-9-13.35,96.63,96.63,0,0,0-9.56-10.56,138.41,138.41,0,0,1-18.55-21.81,147.07,147.07,0,0,1-15.42-29c-.36-.91-.71-1.82-1.08-2.73q-2.16-5.79-3.8-11.69c-.28-1-.54-2-.8-2.94a147.8,147.8,0,0,1-3.37-17.21,137.57,137.57,0,0,1-1.24-20.18c.32-29.94,10.71-56.87,30.1-71.79a80.79,80.79,0,0,1,8-5.4,115.82,115.82,0,0,1,14.5-7.32c4.58-2,9.34-3.73,14.19-5.4l2.58-.91q5.33-1.8,10.73-3.53l2.59-.85c5.06-1.64,10.14-3.3,15.2-5.1s10-3.7,14.93-5.85a131,131,0,0,0,18.72-10,93.22,93.22,0,0,0,20.85-18.43c.69-.82,1.35-1.64,2-2.51a94.82,94.82,0,0,0,11.16-18.67,123.22,123.22,0,0,0,6.86-18.89s.29-4.32,1.51-11.16c3.69-20.53,15.86-63.86,54-82.12,5.27-2.52,10.72-5,16.21-7.57,4.85-2.16,9.78-4.4,14.7-6.61,4.65-2.09,9.31-4.18,13.93-6.31l2.51-1.16c3.47-1.63,6.92-3.24,10.33-4.93l2.5-1.21c5-2.45,9.8-5,14.49-7.56,4.92-2.71,9.72-5.51,14.19-8.42,19.73-12.72,34.81-27.5,39.5-46.23a29.24,29.24,0,0,1,6.94-13.28,27.77,27.77,0,0,1,14.35-7.83,51.26,51.26,0,0,1,15.48-.91l2.92.29a95.09,95.09,0,0,1,12.42,2.36l3.09.82c3.51,1,7.08,2.16,10.66,3.52,2.63,1,5.28,2,7.91,3.17s5.55,2.45,8.3,3.8c3.73,1.82,7.43,3.77,11.07,5.83,1,.58,2.09,1.19,3.14,1.81.82.48,1.64,1,2.46,1.47h0q5.07,3.07,9.85,6.35l2.32,1.59c3.76,2.66,7.37,5.41,10.81,8.15a20.68,20.68,0,0,1,2,1.94,59.2,59.2,0,0,1,8.79,13.53c5.4,10.62,10.8,25.53,15.58,43.44q2.2,8.34,4.32,17.5,1.83,8.27,3.46,17.11c.19,1.08.38,2.09.56,3.16q1.15,6.48,2.16,13.14h0q.23,1.62.48,3.24c.89,6.28,1.69,12.72,2.37,19.27s1.26,13.1,1.7,19.79C2233.47,1166.08,2233.85,1178,2233.79,1190Z"/><path class="cls-18" d="M1855.58,1571.61a59.89,59.89,0,0,1-6.88,3.7l-.54.25h0a66.6,66.6,0,0,1-7.23,2.79h0l-4.6-16.14-4.88-17-8.35-29.18-4.87-17-4.89-17-.84-2.91-3.44-12-.84-2.92-4.62-16.1-4.87-17-13.09-45.63-4.88-17-5-17-.84-2.91-3.43-12-.85-2.92-4.61-16.1-4.89-17-10-34.77a115.75,115.75,0,0,1,14.5-7.31l8.72,30.39,4.88,17,4.61,16.11.83,2.91,3.45,12,.83,2.9,4.9,17.06,4.87,17,13.09,45.63,4.87,17,4.62,16.1.85,2.9,3.43,12,.84,2.91,4.89,17,4.87,17,8.36,29.18,4.87,17,4.63,16.1.83,2.9Z"/><path class="cls-18" d="M1900.74,1497.48a120.36,120.36,0,0,0-9.3,16.1c-.56,1.15-1.08,2.29-1.64,3.44l-.45-1.58-4.87-17-8.37-29.17-4.87-17-4.89-17-.84-2.91-3.44-12-.89-2.94-4.61-16.09-4.89-17-13.08-45.64-4.88-17-4.89-17-.83-2.92-3.45-12-.83-2.91-4.62-16.11-4.87-17-3.24-11.08c5-1.79,10-3.71,14.93-5.86l1.49,5.25,4.88,17,4.61,16.11.84,2.9,3.44,12,.84,2.92,4.89,17,4.87,17,13.1,45.65,4.87,17,4.63,16.11.83,2.92,3.43,12,.85,2.9,4.89,17,4.86,17,8.37,29.18Z"/><path class="cls-18" d="M1779.94,1253.09l7.08,24.7,4.87,17,4.63,16.1.84,2.92,3.44,12,.84,2.89,4.89,17,4.87,17,13.08,45.63,4.88,17,4.62,16.1.84,2.91,3.44,12,.83,2.91,4.89,17,4.87,17,8.37,29.17,4.87,17,4.62,16.1.84,2.91.59,2.07c.72-.87,1.41-1.76,2.06-2.67h0l-.4-1.38-.83-2.92-4.61-16.1-4.87-17-8.37-29.17-4.87-17-4.89-17-.83-2.92-3.45-12-.83-2.91-4.62-16.11-4.88-17-13.11-45.65-4.88-17-4.89-17-.84-2.89-3.44-12-.83-2.91-4.63-16.1-4.87-17-6.77-23.61Z"/><path class="cls-18" d="M1879.81,1540.42h0c-.57,1.3-1.16,2.56-1.76,3.82l-4.32-15.13-4.87-17L1860.5,1483l-4.87-17-4.89-17-.83-2.91-3.45-12-.83-2.92L1841,1415l-4.88-17L1823,1352.38l-4.87-17-4.89-17.05-.84-2.91-3.44-12-.83-2.91-4.63-16.11-4.86-17-5.4-18.87,2.59-.85,5.09,17.72,4.86,17,4.62,16.1.84,2.92,3.45,12,.83,2.9,4.88,17.05,4.88,17,13.1,45.63,4.87,17,4.62,16.1.83,2.91,3.45,12,.83,2.91,4.9,17,4.86,17,8.36,29.17,4.88,17Z"/><path class="cls-18" d="M1955.83,1455.78q-7.9,3.33-14.61,6.93L1938,1451.2l-8.37-29.18-4.87-17-4.89-17-.84-2.91-3.44-12-.83-2.91-4.62-16.11-4.87-17-13.11-45.64-4.86-17-4.9-17-.84-2.91-3.44-12-.83-2.9-4.62-16.1-4.87-17-.17-.58a95.35,95.35,0,0,0,11.18-18.69l2.17,7.57,4.87,17,4.61,16.1.85,2.91,3.44,12,.84,2.89,4.88,17,4.87,17,13.1,45.63,4.87,17,4.62,16.11.84,2.91,3.44,12,.84,2.92,4.89,17,4.87,17,8.36,29.17Z"/><path class="cls-18" d="M2017.24,1438.34q-8.19,1.52-15.66,3.24l-.33-1.16-.85-2.91-4.61-16.09-4.87-17-8.37-29.18-4.87-17-4.88-17-.85-2.92-3.43-12-.85-2.9-4.61-16.11-4.87-17-13.09-45.63-4.88-17-4.89-17-.83-2.9-3.45-12-.83-2.91-4.63-16.1-4.87-17-1.78-6.22,13.1-3.76,2.23-.64,4.57,15.92,4.63,16.1.82,2.9,3.46,12,.82,2.9,4.9,17,4.88,17,13.08,45.64,4.88,17,4.61,16.12.83,2.9,3.45,12,.83,2.91,4.9,17.06,4.87,17,8.36,29.18,4.88,17,4.61,16.09.83,2.92Z"/><path class="cls-18" d="M1972.61,1449.51c-.87.29-1.74.57-2.58.88l-1.44-5-4.86-17-8.36-29.18-4.88-17-4.89-17-.84-2.91-3.44-12-.83-2.91-4.62-16.1-4.87-17-13.11-45.65-4.86-17-4.9-17-.84-2.92-3.44-12-.83-2.91-4.62-16.11-4.87-17-6.09-21.2,2.63-.76,5.73,20,4.87,17,4.61,16.1.84,2.92,3.44,12,.84,2.91,4.89,17.06,4.87,17,13.1,45.64,4.87,17,4.61,16.1.85,2.9,3.43,12,.85,2.91,4.89,17,4.86,17,8.36,29.18,4.87,17Z"/><path class="cls-18" d="M1986,1445.5l-2.62.75-3.18-11.06-4.87-17L1967,1389l-4.88-17-4.89-17.06-.83-2.91-3.43-12-.85-2.9-4.62-16.12-4.88-17-13.08-45.64-4.88-17-4.89-17-.83-2.9-3.45-12-.83-2.9-4.62-16.1-4.88-17-6.39-22.26,2.64-.76,6,21,4.87,17,4.63,16.1.83,2.9,3.45,12,.83,2.91,4.89,17,4.88,17,13.08,45.65,4.9,17,4.61,16.1.84,2.92,3.45,12,.82,2.9,4.9,17.06,4.87,17,8.37,29.18,4.86,17Z"/><path class="cls-18" d="M2077.87,1429.44q-7.73,1.5-15.89,2.48l-1.16-4.05-4.89-17-.84-2.91-3.44-12-.84-2.9-4.62-16.09-4.86-17-8.36-29.18-4.88-17-4.89-17.06-.83-2.91-3.44-12-.84-2.92-4.62-16.09-4.87-17-13.1-45.6-4.86-17-4.9-17-.83-2.92-3.45-12-.83-2.91-4.63-16.09-4.86-17-13.68-47.65c4.85-2.16,9.78-4.4,14.71-6.61l12.21,42.57,4.87,17,4.62,16.1.84,2.91,3.44,12,.84,2.92,4.88,17,4.88,17,13.08,45.64,4.88,17,4.62,16.09.84,2.93,3.44,12,.84,2.91,4.89,17,4.87,17,8.35,29.18,4.88,17,4.62,16.09.83,2.9,3.45,12,.83,2.91,4.9,17Z"/><path class="cls-18" d="M2137.88,1407.08q-6.89,4.13-14.39,7.69l-4.79-16.72-4.88-17-4.89-17-.83-2.9-3.45-12-.83-2.9-4.62-16.1-4.87-17-8.36-29.18-4.88-17-4.87-17-.84-2.92-3.48-12-.85-2.91-4.56-16.11-4.87-17-13.1-45.64-4.89-17-4.89-17-.84-2.92-3.45-12-.83-2.91-4.61-16.11-4.88-17-8.21-28.63c4.93-2.71,9.73-5.51,14.19-8.42l7.27,25.35,4.88,17,4.61,16.1.83,2.91,3.45,12,.83,2.92,4.9,17,4.87,17,13.09,45.64,4.88,17,4.61,16.09.84,2.93,3.44,12,.83,2.91,4.9,17,4.87,17,8.36,29.17,4.86,17,4.63,16.09.84,2.91,3.44,12,.84,2.91,4.89,17,4.86,17Z"/><path class="cls-18" d="M1986.1,1054.69l10.8,37.82,4.87,17,4.63,16.1.83,2.92,3.45,12,.83,2.89,4.9,17.06,4.86,17,13.1,45.63,4.87,17,4.61,16.1.84,2.92,3.44,12,.84,2.91,4.89,17,4.87,17,8.37,29.17,4.86,17,4.63,16.11.83,2.91,3.43,12,.85,2.92,4.88,17.05,4.88,17,1.14,4,2.65-.73-1.51-5.27-4.88-17-4.88-17.05-.85-2.91-3.43-12-.84-2.92-4.62-16.09-4.87-17L2061,1306l-4.86-17-4.89-17-.85-2.9-3.36-12-.84-2.92-4.67-16.1-4.86-17-13.1-45.63-4.87-17-4.89-17.05-.84-2.9-3.43-12-.85-2.92-4.61-16.09-4.88-17-10.6-36.94Z"/><path class="cls-18" d="M2108.64,1421l-2.58.91-2.9-10.13-4.88-17-4.89-17-.83-2.91-3.45-12-.83-2.91-4.62-16.09-4.87-17-8.36-29.17-4.88-17-4.89-17-.83-2.92-3.45-12-.83-2.92-4.62-16.1-4.87-17-13.07-45.6-4.87-17-4.9-17.06-.83-2.91-3.44-12-.82-2.9-4.63-16.09-4.87-17L1999,1048.6l2.49-1.21,9.36,32.87,4.87,17,4.62,16.11.83,2.91,3.46,12,.82,2.91,4.9,17,4.86,17,13.11,45.63,4.87,17,4.61,16.09.84,2.93,3.44,12,.84,2.91,4.89,17,4.87,17,8.37,29.17,4.86,17,4.63,16.09.83,2.9,3.43,12,.85,2.91,4.89,17.05,4.86,16.94Z"/><path class="cls-18" d="M2199.41,1342.4a192.5,192.5,0,0,1-11.44,18l-5.4-18.83-4.86-17-4.9-17.05-.83-2.9-3.45-12-.83-2.9-4.62-16.1-4.87-17-8.36-29.18-4.87-17-4.9-17-.83-2.91-3.4-12-.84-2.92-4.61-16.09-4.87-17-13.1-45.64-4.86-17-4.9-17-.83-2.9-3.46-12-.82-2.91-4.62-16.1-4.83-17-11.51-40.11a27.77,27.77,0,0,1,14.35-7.83l10.39,36.25,4.88,17,4.62,16.1.83,2.91,3.45,12,.84,2.91,4.89,17,4.87,17,13.1,45.64,4.86,17,4.62,16.1.84,2.9,3.43,12,.85,2.92,4.89,17,4.86,17,8.37,29.18,4.87,17,4.62,16.1.84,2.9,3.43,12,.85,2.9,4.88,17,4.88,17Z"/><path class="cls-18" d="M2232.22,1225.14h0c-.22,2.79-.49,5.59-.8,8.38-.14,1.35-.29,2.69-.44,4q-1,8.65-2.41,17.19c-.24,1.42-.49,2.85-.73,4.32-.32,1.75-.64,3.5-1,5.24l-1-3.5-.83-2.9-3.45-12-.83-2.91-4.63-16.1-4.83-17-8.36-29.17-4.87-17-4.89-17-.83-2.92-3.45-12-.84-2.91-4.62-16.11-4.86-17-13.09-45.64-4.88-17-4.88-17.05-.85-2.92-3.43-12-.84-2.91-4.63-16.1-2.54-8.88q4.17,1.77,8.3,3.8,5.59,2.73,11.07,5.83l1.08,3.66.83,2.91,3.44,12,.84,2.91,4.89,17,4.88,17,13.08,45.64,4.87,17,4.62,16.1.84,2.92,3.45,12,.83,2.91,4.89,17.06,4.87,17,8.36,29.17,4.88,17Z"/><path class="cls-18" d="M2106.39,963.18l7.48,26.08,4.87,17,4.62,16.1.83,2.91,3.45,12,.83,2.91,4.9,17.06,4.87,17,13.09,45.63,4.87,17,4.62,16.09.83,2.92,3.45,12,.83,2.91,4.89,17,4.88,17,8.36,29.17,4.88,17,4.61,16.1.83,2.91,3.45,12,.83,2.92,4.9,17,4.86,17,1,3.38c.58-1.33,1.15-2.65,1.7-4h0l-.4-1.38-4.88-17-4.88-17-.84-2.92-3.44-12-.84-2.91-4.62-16.1-4.87-17-8.35-29.18-4.88-17-4.89-17-.83-2.9-3.45-12-.83-2.92-4.62-16.09-4.87-17-13.1-45.64-4.85-17-4.92-17.08-.83-2.91-3.44-12-.85-2.92L2121,1004.2l-4.86-17-6.83-23.77Z"/><path class="cls-18" d="M2121.72,965.83l3.77,13.16,4.88,17,4.61,16.1.84,2.9,3.44,12,.84,2.91,4.89,17,4.87,17,13.1,45.65,4.87,17,4.62,16.1.84,2.92,3.43,12,.85,2.91,4.88,17.06,4.88,17,8.36,29.18,4.87,17,4.62,16.1.83,2.9,3.45,12,.83,2.89,4.89,17.06,2.49,8.64c.51-1.58,1-3.15,1.49-4.74l-1.7-5.92-4.89-17.06-.83-2.89-3.45-12-.83-2.9-4.63-16.11-4.87-17-8.35-29.18-4.88-17-4.89-17-.84-2.9-3.44-12-.83-2.92-4.63-16-4.87-17-13.09-45.69-4.87-17-4.9-17.05-.83-2.92-3.45-12-.83-2.9-4.61-16.11-4.88-17-3-10.33Z"/><path class="cls-18" d="M2222,1078.75l-25.33,22.35-13.25,11.69-13.29,11.78-2.27,2-9.36,8.27-2.27,2-12.56,11.09-13.24,11.69-50.68,44.75L2066.49,1216l-13.29,11.74-2.27,2-9.4,8.27-2.26,2-12.56,11.09-13.24,11.69-37.16,32.8-13.25,11.7-13.27,11.76-2.28,2-9.36,8.27-2.26,2-12.56,11.09-13.24,11.69-40.26,35.52-13.24,11.7-13.32,11.73-2.27,2-9.37,8.27-2.27,2-12.56,11.09-13.25,11.69L1776,1472.52a113.43,113.43,0,0,0-9-13.35l31.71-28,13.24-11.69,12.55-11.08,2.27-2,9.37-8.28,2.28-2,13.28-11.74,13.25-11.69,40.26-35.54,13.24-11.69,12.57-11.09,2.26-2,9.35-8.26,2.28-2,13.3-11.75,13.24-11.69,37.17-32.81,13.23-11.69,12.57-11.1,2.27-2,9.37-8.27,2.27-2,13.29-11.73,13.24-11.69,50.69-44.74,13.24-11.7,12.56-11.09,2.27-2,9.36-8.26,2.27-2,13.3-11.72,13.24-11.7,25.93-22.88Q2219.94,1069.59,2222,1078.75Z"/><path class="cls-18" d="M2232.69,1154.45l-16.56,14.61-13.24,11.7-13.29,11.73-2.28,2-9.35,8.27-2.27,2-12.57,11.09-13.24,11.69-50.68,44.74L2085.94,1284l-13.29,11.73-2.27,2L2061,1306l-2.26,2-12.54,11.07-13.22,11.7-37.17,32.8-13.27,11.69L1969.26,1387l-2.27,2-9.37,8.28-2.25,2-12.57,11.07-13.24,11.7-40.28,35.54-13.22,11.68-13.3,11.73-2.27,2-9.37,8.26-2.27,2-12.52,11.1-13.25,11.7-23.92,21.11c-1.49-5.48-3-11.26-4.63-17.19l23.68-20.91,13.24-11.69,12.55-11.08,2.27-2,9.37-8.27,2.28-2,13.29-11.75,13.25-11.69,40.25-35.53L1938,1393.4l12.55-11.09,2.27-2,9.35-8.26,2.28-2,13.29-11.73,13.25-11.69,37.16-32.81,13.25-11.7,12.56-11.09,2.28-2,9.35-8.25,2.27-2,13.29-11.74,13.25-11.69,50.68-44.75,13.25-11.69,12.56-11.1,2.27-2,9.35-8.26,2.28-2,13.28-11.73,13.26-11.69,19.73-17.42Q2232,1144.41,2232.69,1154.45Z"/><path class="cls-18" d="M2226,1099l-23.89,21.1-13.25,11.69-13.29,11.73-2.27,2-9.37,8.27-2.27,2-12.56,11.08-13.24,11.7-50.68,44.75L2071.9,1235l-13.31,11.74-2.27,2-9.35,8.27-2.28,2-12.55,11.08-13.19,11.7-37.18,32.8-13.23,11.69-13.35,11.74-2.26,2-9.36,8.26-2.27,2-12.56,11.08-13.23,11.67-40.25,35.55-13.25,11.7-13.29,11.72-2.27,2-9.37,8.27-2.27,2-12.53,11.1L1809,1467.11l-24.85,21.94c-.37-.88-.75-1.76-1.08-2.64l25.15-22.21,13.25-11.7,12.56-11.08,2.27-2,9.37-8.28,2.26-2,13.23-11.73,13.25-11.69,40.25-35.53,13.24-11.7,12.57-11.09,2.25-2,9.37-8.26,2.27-2,13.29-11.72,13.25-11.7,37.17-32.82,13.24-11.7,12.56-11.07,2.27-2,9.37-8.27,2.26-2,13.3-11.72,13.24-11.71,50.68-44.74,13.25-11.68,12.56-11.1,2.27-2,9.36-8.27,2.28-2,13.28-11.7,13.24-11.7,24.18-21.34C2225.62,1096.9,2225.8,1098,2226,1099Z"/><path class="cls-18" d="M2228.58,1115.39,2206.34,1135l-13.24,11.7-13.3,11.73-2.27,2-9.36,8.27-2.27,2-12.53,11.11-13.25,11.68-50.68,44.75-13.22,11.65-13.3,11.72-2.27,2-9.36,8.27-2.28,2L2036.46,1285l-13.24,11.69L1986,1329.51l-13.23,11.69-13.3,11.78-2.26,2-9.36,8.27-2.27,2L1933,1376.34l-13.25,11.71-40.24,35.53-13.25,11.69L1853,1447l-2.27,2-9.37,8.27-2.27,2-12.56,11.08-13.24,11.69-23.89,21.09c-.32-.94-.63-1.87-1-2.8l24-21.2,13.25-11.69,12.55-11.09,2.27-2,9.37-8.25,2.27-2,13.29-11.74,13.24-11.69,40.26-35.54,13.24-11.7,12.56-11.08,2.26-2,9.37-8.28,2.28-2,13.28-11.74,13.25-11.69,37.17-32.81,13.24-11.69,12.56-11.09,2.27-2,9.36-8.27,2.27-2,13.29-11.74,13.25-11.69,50.68-44.75,13.24-11.69,12.57-11.11,2.27-2,9.35-8.28,2.28-2,13.3-11.75,13.24-11.64,22.6-19.94C2228.29,1113.24,2228.45,1114.31,2228.58,1115.39Z"/><path class="cls-18" d="M2233.79,1190c0,7.25-.25,14.55-.64,21.85l-3.78,3.33-13.25,11.7-13.29,11.73-2.27,2-9.37,8.27-2.26,2L2176.37,1262l-13.25,11.73-50.69,44.76-13.23,11.68-13.26,11.71-2.25,2-9.37,8.27-2.28,2-12.56,11.09-13.25,11.7-37.15,32.8-13.25,11.69-13.3,11.74-2.27,2-9.37,8.26-2.26,2-10.8,9.58h0l-1.71,1.51-.2-.71q-7.92,3.33-14.61,6.93c-19.7,10.53-32,22.51-40.48,34.77a118.21,118.21,0,0,0-9.39,16.1l-2.09,1.86-13.3,11.72-2.28,2-9.36,8.27-2.27,2-12.55,11.08-13.26,11.69-17.16,15.12c-4.23-2.57-7.57-6.77-10.33-12.16l22.61-20,13.25-11.69,12.56-11.09,2.27-2,9.37-8.26,2.27-2,13.3-11.73,13.24-11.69,40.26-35.56,13.24-11.69,12.56-11.07,2.25-2,9.37-8.28,2.28-2,13.29-11.74,13.25-11.7,37.16-32.8,13.24-11.63,12.56-11.09,2.27-2,9.37-8.27,2.27-2,13.29-11.75,13.24-11.68,50.69-44.75,13.24-11.69,12.56-11.09,2.26-2,9.37-8.27,2.27-2,13.29-11.73,13.25-11.69Z"/><path class="cls-18" d="M2222,1285.58q-1.34,5-2.83,9.92c-.49,1.58-1,3.16-1.49,4.74q-2.52,7.76-5.5,15.28l-1.48,1.31-2.27,2-12.56,11.06-13.25,11.69-50.68,44.75L2118.7,1398l-13.31,11.83-2.25,2-9.37,8.27-2.28,2-6.71,5.93h0q-3.41.79-6.9,1.45-7.73,1.49-15.89,2.47l-2.57.31-4,.44,5.4-4.8,13.25-11.7,12.55-11.08,2.27-2,9.37-8.26,2.27-2,13.29-11.75,13.25-11.69,50.68-44.75L2191,1313l12.56-11.09,2.26-2,9.37-8.26,2.28-2Z"/><path class="cls-36" d="M1877,1546.46q-1.83,3.66-3.87,7.06h0l-3.24,2.89-2.26,2-12.56,11.09-6.82,6h0a67.41,67.41,0,0,1-7.23,2.79h-.1l.09-.08,13.24-11.69,12.56-11.09,2.26-2Z"/><path class="cls-18" d="M2220.75,1243l10.67-9.44c-.14,1.35-.29,2.69-.44,4l-9.4,8.29-13.29,11.74-2.28,2-9.36,8.27-2.27,2L2181.82,1281l-13.24,11.69-50.68,44.75-13.25,11.69-13.29,11.74-2.27,2-9.36,8.27-2.28,2-12.56,11.08-13.24,11.69-37.17,32.82-13.23,11.69-1.9,1.68q-2.91.66-5.7,1.37l6.75-6,13.25-11.69,37.16-32.8,13.25-11.7,12.56-11.07,2.27-2,9.37-8.27,2.27-2,13.29-11.73,13.24-11.7,50.68-44.74,13.24-11.69,12.57-11.09,2.26-2,9.37-8.27,2.28-2Z"/><path class="cls-18" d="M2225,1257.89l3.54-3.13c-.24,1.42-.49,2.85-.73,4.32l-2,1.74-13.29,11.73-2.28,2-9.36,8.28-2.27,2-12.56,11.08-13.24,11.69-50.68,44.76-13.25,11.68-13.29,11.74-2.27,2-9.36,8.27-2.28,2-12.56,11.09-13.25,11.69-29.29,25.88h0c-1.73.27-3.43.57-5.11.86l33.58-29.65,13.25-11.69,12.55-11.1,2.28-2,9.37-8.26,2.25-2,13.31-11.74,13.24-11.69,50.68-44.75,13.24-11.69,12.57-11.1,2.26-2,9.37-8.25,2.28-2Z"/><path class="cls-18" d="M2151.69,977.14l-5.76,5.08L2132.65,994l-2.28,2-9.37,8.26-2.26,2-12.57,11.09L2092.94,1029l-50.68,44.77L2029,1085.46l-13.3,11.73-2.26,2-9.37,8.26-2.28,2-12.55,11.09-13.25,11.7-37.16,32.81-13.24,11.69-13.3,11.73-2.27,2-9.36,8.26-2.27,2-12.56,11.1-13.25,11.69-40.25,35.53-13.24,11.69-13.3,11.75-2.27,2-9.37,8.27-2.27,2-12.54,11.08-13.26,11.7-51.67,45.61a137.44,137.44,0,0,1-1.25-20.17l48-42.42,13.25-11.69,12.55-11.1,2.27-2,9.38-8.27,2.27-2,13.29-11.74,13.24-11.69,17.22-15.2,20.86-18.42,2.16-1.93,13.23-11.69,12.57-11.09,2.27-2,9.35-8.26,2.28-2,13.29-11.74,11.31-10,39.11-34.52,13.26-11.69,12.55-11.09,2.27-2,9.37-8.26,2.27-2,13.29-11.74,13.25-11.69,50.68-44.75,13.25-11.73,12.57-11.09,2.27-2,9.35-8.26,2.28-2,7.71-6.81c2.62,1,5.27,2,7.91,3.17S2148.93,975.79,2151.69,977.14Z"/><path class="cls-18" d="M2202.11,1017.81l-23.43,20.68-13.25,11.69-13.29,11.71-2.28,2-9.36,8.27-2.26,2-12.56,11.09L2112.43,1097l-50.68,44.74-13.25,11.7-13.34,11.75-2.25,2-9.38,8.27-2.27,2-12.56,11.09-13.2,11.7L1958.35,1233l-13.25,11.69-13.29,11.73-2.28,2-9.37,8.26-2.27,2-12.56,11.1-13.24,11.69L1851.83,1327l-13.23,11.69-13.31,11.75-2.26,2-9.36,8.28-2.27,2-12.56,11.09-13.25,11.69-46.73,41.26a141.62,141.62,0,0,1-8.41-13.86l50.27-44.38,13.25-11.66,12.56-11.09,2.26-2,9.37-8.27,2.26-2,13.3-11.72,13.24-11.7,40.26-35.55,13.24-11.69,12.57-11.07,2.26-2,9.37-8.28,2.28-2,13.28-11.75,13.25-11.69,37.17-32.8,13.23-11.7,12.57-11.08,2.26-2,9.38-8.27,2.26-2,13.29-11.73,13.25-11.7,50.68-44.79,13.23-11.69,12.57-11.09,2.26-2L2145,1047l2.28-2,13.29-11.74,13.25-11.69,19.51-17.29A59.49,59.49,0,0,1,2202.11,1017.81Z"/><path class="cls-18" d="M2168.35,986.25l-3.72,3.24-13.23,11.7-13.31,11.73-2.27,2-9.36,8.27-2.27,2-12.56,11.08-13.25,11.7-50.68,44.74-13.25,11.69-13.29,11.75-2.27,2-9.35,8.28-2.27,2-12.56,11.07-13.25,11.69L1944.29,1184l-13.24,11.69-13.29,11.74-2.28,2-9.36,8.26-2.27,2-12.55,11.09-13.25,11.69L1837.8,1278l-13.25,11.7-13.29,11.74-2.27,2-9.37,8.27-2.26,2-12.57,11.07-13.23,11.71-53,46.74c-.28-1-.54-2-.8-2.94l53-46.72,13.25-11.69,12.55-11.09,2.27-2,9.37-8.27,2.26-2,13.3-11.73,13.24-11.69,40.26-35.54,13.24-11.7,12.56-11.08,2.26-2,9.37-8.26,2.28-2,13.29-11.73,13.25-11.7,37.12-32.77,13.24-11.69,12.56-11.09,2.26-2,9.38-8.26,2.26-2,13.29-11.75,13.25-11.69,50.69-44.75,13.24-11.69,12.56-11.09,2.26-2,9.36-8.25,2.28-2,13.29-11.74,13.25-11.69,2.1-1.85C2166.72,985.26,2167.54,985.75,2168.35,986.25Z"/><path class="cls-18" d="M2178.22,992.59l-10.14,9-13.25,11.72L2141.54,1025l-2.28,2-9.36,8.26-2.26,2-12.52,11.06L2101.88,1060l-50.69,44.74-13.25,11.69-13.28,11.75-2.27,2-9.38,8.29-2.25,2-12.61,11.1-13.24,11.67-37.16,32.83-13.25,11.69-13.29,11.74-2.28,2-9.37,8.25-2.27,2-12.55,11.1-13.25,11.69-40.26,35.53L1828,1301.78l-13.29,11.75-2.28,2-9.36,8.28-2.27,2-12.56,11.08L1775,1348.58l-52.6,46.47c.35.91.69,1.82,1.08,2.72l52.34-46.28,13.24-11.7,12.57-11.09,2.26-2,9.37-8.26,2.27-2,13.29-11.73,13.24-11.69,40.26-35.54,13.24-11.7,12.56-11.08,2.27-2,9.36-8.27,2.28-2,13.29-11.74,13.24-11.69,37.17-32.81,13.25-11.69,12.55-11.1,2.27-2,9.36-8.27,2.27-2,13.3-11.74,13.24-11.69,50.71-44.72,13.25-11.69,12.55-11.1,2.26-2,9.37-8.25,2.27-2,13.3-11.74,13.24-11.69,11.63-10.26Z"/><path class="cls-25" d="M1708.75,1339a108.66,108.66,0,0,1,1.85-33.12c3.53-16.08,12.84-37,37.17-45.57,11.35-4,23.1-7,34.46-10,36.18-9.37,70.36-18.24,91.78-54.88,8.31-14.22,12.75-30.37,17-46,10.45-38,21.24-77.25,87.72-94.76l.26,1c-65.91,17.35-76.62,56.34-87,94-4.32,15.68-8.77,31.9-17.16,46.24-21.61,37-56,45.91-92.39,55.36-11.34,2.94-23.07,6-34.38,9.94-23.87,8.35-33,29-36.5,44.79a107.46,107.46,0,0,0-1.84,32.79Z"/><path class="cls-25" d="M1950.71,989.89s-85.29,82.29-70,175.21,16.88,62.75,58,68.14,48.24,2.11,45.17-17.19-28.55-111.87-3.38-155.44,47-66,21.76-73.48S1950.71,989.89,1950.71,989.89Z"/><path class="cls-15" d="M1741.86,1248.25s-17.38,5.1-12.61,20.93c6.09,20.18,33,39.49,29.32,26.65-3.24-11.38-11.76-26.43-11.76-26.43s22.15,38,28.46,30.68-13.18-39.69-13.18-39.69,25.06,34.93,28.79,26.1-13.79-38.35-13.79-38.35,22.69,35.47,26.74,25.12-11.33-26.32-16.32-34.58c-4.71-7.8-11.27-7.29-18.47-2.16,0,0-10.12.89-14,5.4-1.48,1.73-4.39,1.08-5.85,1.75A57.47,57.47,0,0,0,1741.86,1248.25Z"/><path class="cls-22" d="M2130.25,1431.76q-5.07,0-10.24-.26a2.16,2.16,0,0,1,.23-4.32c59.63,3,110.94-21.7,143.48-43,35.37-23.12,56.85-47.3,57.07-47.55a2.17,2.17,0,1,1,3.24,2.88c-.22.25-22,24.79-57.84,48.24C2235.07,1408.19,2186.73,1431.76,2130.25,1431.76Z"/><path class="cls-22" d="M2216.19,1414a2.19,2.19,0,0,1-1.77-3.46l0,0c30.35-40.83,15-80.54,14.82-80.94a2.17,2.17,0,1,1,4-1.61c.18.42,4.24,10.81,4.39,26.45.15,14.46-3.17,36.38-19.76,58.7A2.18,2.18,0,0,1,2216.19,1414Z"/><path class="cls-22" d="M1958.07,1031.25c-22.7,0-33.72-9.9-33.88-10l.7-.75c.25.24,26,23.33,80.85-2.29l.43.92C1986.53,1028.27,1970.53,1031.25,1958.07,1031.25Z"/><path class="cls-19" d="M2023.27,1796.45s-42.14-43-27.66-67.5,39,52.62,39,52.62-12.71-91.19,13.6-92.76,0,92.76,0,92.76,9.73-22,19.28-23.36,6.81,18.65-10.2,38.24Z"/><path class="cls-18" d="M2026.33,1797.53a191.88,191.88,0,0,1-22.08-28.09c-13.47-21.32-16.68-38.25-9.54-50.31,2.67-4.51,5.88-6.57,9.53-6.16,7.27.83,15.82,12.32,25.41,34.14,2.91,6.66,5.5,13.31,7.56,18.81-2.32-23.87-5-71.43,8.13-87.53a14.18,14.18,0,0,1,10.34-5.61,10.8,10.8,0,0,1,9.54,4.16c11.81,14.62,1.08,66.3-4.74,90.48,4.33-7.09,10.59-15,16.94-15.91a6.16,6.16,0,0,1,6.73,3.16c3.84,7-1.45,24.95-16.92,42.77l-2.34-2c15.22-17.52,19.39-34.06,16.55-39.27a3.11,3.11,0,0,0-3.59-1.58c-8.17,1.17-17.69,18.88-20.67,25.6l-2.9-1.08c0-.22,5.83-21,9.73-43.75,5-29.76,4.66-49.3-1.16-56.51a7.83,7.83,0,0,0-7-3,11,11,0,0,0-8.13,4.48c-16.6,20.26-6,98.21-5.86,99l-3,.68c-5.5-17.29-22.5-62.61-34.93-64-2.38-.28-4.5,1.25-6.48,4.66-15.68,26.46,30.68,74.22,31.16,74.7Z"/><path class="cls-19" d="M2501.66,1744.83s-31.75-32.42-20.83-50.79,29.36,39.6,29.36,39.6-9.56-68.63,10.25-69.82,0,69.82,0,69.82,7.34-16.55,14.51-17.58,5.11,14-7.68,28.79Z"/><path class="cls-18" d="M2503.94,1745.67a144,144,0,0,1-16.62-21.17c-10.14-16-12.56-28.79-7.18-37.82,2-3.39,4.43-5,7.17-4.64,9.31,1.08,19.52,25.35,24.85,39.77-.55-5.77-1.13-13.36-1.35-21.35-.62-22.7,1.89-37.61,7.45-44.39a10.7,10.7,0,0,1,7.79-4.23,8.1,8.1,0,0,1,7.17,3.13c8.89,11,.86,49.9-3.55,68.08,3.24-5.34,8-11.28,12.74-12a4.62,4.62,0,0,1,5.06,2.38c2.89,5.28-1.08,18.77-12.74,32.18l-1.75-1.53c11.45-13.18,14.59-25.63,12.45-29.55a2.33,2.33,0,0,0-2.7-1.18c-6.14.88-13.31,14.2-15.55,19.26l-2.16-.78c0-.16,4.32-15.8,7.29-32.93,3.81-22.4,3.5-37.09-.87-42.52a5.86,5.86,0,0,0-5.23-2.28,8.38,8.38,0,0,0-6.13,3.39c-12.49,15.25-4.49,73.9-4.41,74.49l-2.26.51c-4.15-13-16.94-47.11-26.29-48.18-1.77-.22-3.38.94-4.9,3.51-11.8,19.9,23.09,55.85,23.45,56.19Z"/><path class="cls-19" d="M1328.54,1785.82h-.15a1.43,1.43,0,0,1-1.28-1.57,5.6,5.6,0,0,0-1.64-4.8c-6.49-6.57-28.25-4.53-28.48-4.51a1.44,1.44,0,0,1-.47-2.82c7.56-1.85,27.6-8.28,30.26-15.76a5,5,0,0,0-.94-4.85c-7.27-9.82-33.25,4-42.67,10.15a1.44,1.44,0,0,1-1.56-2.4c1.48-1,36.19-23.44,46.53-9.45a7.7,7.7,0,0,1,1.33,7.56c-2.32,6.41-13.49,11.46-22.06,14.47,7.12.24,15.89,1.44,20,5.63a8.46,8.46,0,0,1,2.46,7.12A1.44,1.44,0,0,1,1328.54,1785.82Z"/><path class="cls-6" d="M2654.33,1254.24c17.6-2.39,23.58,2.48,24.52,9.38s-3.54,13.19-21.12,15.58c-32,4.32-49.22-6-49.22-6S2621.84,1258.67,2654.33,1254.24Z"/><path class="cls-39" d="M2510.86,973.55c9.25-15.12,16.82-16.7,22.75-13.08s8,11.08-1.25,26.22c-16.86,27.59-35.75,34.36-35.75,34.36S2493.76,1001.55,2510.86,973.55Z"/><path class="cls-6" d="M2603,1225.06c9.9-13.43,17.12-14.28,22.39-10.4s6.59,11-3.32,24.46c-18,24.49-36.3,29.28-36.3,29.28S2584.73,1249.92,2603,1225.06Z"/><path class="cls-19" d="M682.11,1759.66s-28-28.49-18.37-44.72,25.83,34.86,25.83,34.86-8.4-60.41,9-61.46,0,61.46,0,61.46,6.48-14.57,12.77-15.48,4.5,12.36-6.77,25.34Z"/><path class="cls-18" d="M684.11,1760.38a127.6,127.6,0,0,1-14.62-18.63c-8.93-14.13-11.06-25.34-6.33-33.34,1.78-3,3.89-4.32,6.31-4.07,8.2.94,17.16,22.25,21.81,34.93-1.53-15.85-3.24-47.2,5.4-57.8a9.4,9.4,0,0,1,6.85-3.73,7.19,7.19,0,0,1,6.33,2.76c7.83,9.72.75,43.92-3.14,60,2.9-4.7,7-9.94,11.22-10.54a4.07,4.07,0,0,1,4.46,2.09c2.54,4.66-1,16.53-11.21,28.33l-1.55-1.34c10.08-11.6,12.85-22.56,11-26a2.07,2.07,0,0,0-2.38-1.08c-5.4.78-11.72,12.5-13.7,17l-1.91-.7c0-.12,3.85-13.9,6.41-29,3.35-19.71,3.1-32.65-.76-37.43a5.23,5.23,0,0,0-4.61-2,7.41,7.41,0,0,0-5.4,3c-11,13.44-3.94,65.07-3.88,65.59l-2,.45c-3.64-11.49-14.91-41.48-23.13-42.42-1.57-.18-3,.83-4.32,3.09-10.39,17.52,20.33,49.16,20.64,49.49Z"/><polygon class="cls-22" points="1992.02 1556.35 1953.4 1558.68 1895.85 1793.97 1909.37 1793.97 1992.02 1556.35"/><polygon class="cls-22" points="2275.38 1558.39 2236.95 1553.91 2305.9 1793.97 2319.47 1793.97 2275.38 1558.39"/><path class="cls-14" d="M1898.94,1562.05c0,22.51,93.6,40.76,209.07,40.76s209.06-18.25,209.06-40.76-93.6-40.74-209.06-40.74S1898.94,1539.51,1898.94,1562.05Z"/><rect class="cls-14" x="1898.94" y="1545.89" width="418.13" height="16.17"/><path class="cls-40" d="M1898.94,1543.52c0,20.34,93.6,36.83,209.07,36.83s209.06-16.49,209.06-36.83-93.6-36.82-209.06-36.82S1898.94,1523.19,1898.94,1543.52Z"/><path class="cls-41" d="M2259.92,1569.68a1,1,0,0,1-.18-2c15.12-2.82,27.56-6,37-9.5a1,1,0,0,1,.83,1.81l-.14,0c-9.48,3.52-22,6.75-37.28,9.59Z"/><path class="cls-41" d="M2108,1581.21c-22.83,0-45.29-.64-66.74-1.92-18-1.08-35-2.55-50.79-4.44a1,1,0,0,1,.24-2c15.69,1.88,32.74,3.37,50.66,4.43,21.42,1.27,43.83,1.92,66.63,1.92a1,1,0,0,1,1,1,1,1,0,0,1-1,1Z"/><path class="cls-41" d="M1943.8,1567.18h-.22c-20.82-4.65-45.64-12.55-45.64-23.78a1,1,0,0,1,2,0c0,4.49,5.73,13.27,44.09,21.84a1,1,0,0,1,.71,1.21,1,1,0,0,1-.93.75Z"/><path class="cls-42" d="M1989.66,1378.81v11.88a10.47,10.47,0,0,1-10.46,10.49h-14a20.16,20.16,0,0,0-20.16,20.18c0,.33,0,.66,0,1l5.4,107.68a20.65,20.65,0,0,0,20.62,19.6h55a21.62,21.62,0,0,0,21.5-19.74l9.32-109.07a16.6,16.6,0,0,0-15.13-17.94c-.47,0-.93-.06-1.4-.06h-8a9.81,9.81,0,0,1-9.81-9.81,9.94,9.94,0,0,1,.09-1.34l1.78-12.9Z"/><path class="cls-22" d="M1982.89,1381.32v-3a6.47,6.47,0,0,1,5.57-6.63l35.18-3.09c3.52-.31,6.48,2.75,6.48,6.63v7.93c0,3.81-2.88,6.83-6.34,6.65l-35.16-1.85A6.4,6.4,0,0,1,1982.89,1381.32Z"/><path class="cls-43" d="M1976,1444.54h52a5,5,0,0,1,5,5h0v25.93a5,5,0,0,1-4.73,5l-53.53,3.14a5,5,0,0,1-5.31-4.73,5.23,5.23,0,0,1,0-.56l1.53-29A5,5,0,0,1,1976,1444.54Z"/><path class="cls-44" d="M2067.84,1470.24l-1.8,54.21a5.24,5.24,0,0,0,5.07,5.4h0l105.25,3.12a5.25,5.25,0,0,0,5.4-5.1v-.31L2179.7,1466a5.25,5.25,0,0,0-5.41-5.06l-101.37,4.32A5.26,5.26,0,0,0,2067.84,1470.24Z"/><path class="cls-43" d="M2077.84,1474.78l62.5-1.58a3.49,3.49,0,0,1,3.58,3.4v6.14a3.49,3.49,0,0,1-3.24,3.47l-61.41,4.66a3.5,3.5,0,0,1-3.73-3.07l-1.08-9.12a3.47,3.47,0,0,1,3-3.88Z"/></g></svg>