<svg xmlns="http://www.w3.org/2000/svg" viewBox="0 0 3200 2000"><defs><style>.cls-1{fill:#fff;}.cls-2{fill:#caf0ff;}.cls-3{fill:#b8cdfb;}.cls-13,.cls-15,.cls-17,.cls-21,.cls-27,.cls-3{isolation:isolate;}.cls-4{fill:#ffb27d;}.cls-5{fill:#dc827b;}.cls-6{fill:#6558f5;}.cls-7{fill:#f5be00;}.cls-8{fill:#6ea8ce;}.cls-9{fill:#163560;}.cls-10{fill:#4a4d91;}.cls-11{fill:#70c0fd;}.cls-12{fill:#fca56b;}.cls-13{fill:#c0d8fb;}.cls-13,.cls-15,.cls-17,.cls-21{opacity:0.5;}.cls-14{fill:#b2abfa;}.cls-15{fill:#afcdfb;}.cls-16{fill:#d1594f;}.cls-17{fill:#ffe2cc;}.cls-18{fill:#f6dedc;}.cls-19{fill:#efc5c1;}.cls-20,.cls-21{fill:#e8aca7;}.cls-22{fill:#d8661a;}.cls-23{fill:#ed985f;}.cls-24{fill:#b5453c;}.cls-25{fill:#233862;}.cls-26{fill:#8b82f7;}.cls-27{fill:#e9f3fe;opacity:0.4;}.cls-28{fill:#2e3552;}</style></defs><g id="Calque_2" data-name="Calque 2"><rect class="cls-1" width="3200" height="2000"/></g><g id="Calque_4" data-name="Calque 4"><path class="cls-2" d="M335.09,1796.9S-133.48,870.38,732.8,693.37c540.53-110.44,166.73-493.83,926.43-493.83,1207.9,0,905.43,766.82,1007.05,936.08s362.42,237.17,267.85,661.28Z"/><path class="cls-3" d="M2179.66,405.63c-27.79-62.66-135-25.21-135-25.21s-57.28,126-78.65,132.06S1994,395.21,1994,395.21c-42.86,2.42-142.5,70.78-142.5,70.78s27.4,132.45,5.18,133.09-18.27-118.52-18.27-118.52c-39,18.56-69.77,72.12-69.77,72.12-35.71,85,75.28,126.47,75.28,126.47s8.5,46.1-11.91,103.64h0s-5,10.81-8.94,28.49l11.14-1.71c.45-3.13,1-6.18,1.69-9.12h0v-.13c.5-1.84,1.22-4.46,2.12-7.65h0c2.38-7.19,3.92-12.47,4.82-16.24h0c7-22.49,17.47-52,26.38-59.24a21.93,21.93,0,0,1-3.17-4.74l3.17,4.74c25.38,37.93,121.79,30,173.23,11s26-30.5-6.37-50.41-91.31-4.26-110.48-11.07,5.23-20.33,41.06-23.06,59,30,117.06,26.58,85.06-117.72,85.06-117.72c-37.62,18.36-111.82,7.48-116.63-5.72s100.28-28,116-34.62S2207.46,468.29,2179.66,405.63Z"/><path class="cls-3" d="M2490.62,1490.07c99.7-59.55,14.81-232.19,14.81-232.19s-223.61-70.59-238.21-105.3,203,23,203,23c-12.84-71.59-148.17-225.2-148.17-225.2s-217.18,73.15-222.79,35.92,195.6-55,195.6-55c-39.18-61.77-135.56-102.61-135.56-102.61C2009,786,1962,981.17,1962,981.17s-75.8,23.72-176.76,1.15h0s-19.18-6.11-49.74-9.21l5.17,18.39c5.35.12,10.58.43,15.68,1h.3c3.2.46,7.76,1.13,13.32,2h0c12.57,2.53,21.76,4,28.3,4.8h.06c39.26,7.13,91,18.74,105,32.27a36.5,36.5,0,0,1,7.33-6.31l-7.33,6.31c-58.6,50.42-25.62,211,17,293.59s56.62,37.46,83.49-21-11.51-154.45-4-188.1,35.27,4.65,47.2,64.37-38.32,105.37-20.78,202.33,215.37,119,215.37,119c-38.55-59.52-35.43-186.53-14.21-197.35s67.62,162.94,81.94,188S2390.91,1549.62,2490.62,1490.07Z"/><path class="cls-3" d="M1012.34,791c55.84-80.56,196.36.79,196.36.79s46.68,192.33,75.07,206.61-7.8-172.23-7.8-172.23c59.56,14.9,181.18,137.65,181.18,137.65s-74,178.7-43,185.55,57.45-161.57,57.45-161.57c49.77,36.53,78.66,120,78.66,120,27.36,129-139.67,157.44-139.67,157.44s-24.31,62.48-11.07,148.78h0s4,16.51,4.91,42.42l-15.19-5.4c.2-4.52.24-8.94.07-13.26a.11.11,0,0,0,0-.08.54.54,0,0,0,0-.18c-.2-2.72-.51-6.59-.93-11.32h0c-1.41-10.74-2.16-18.56-2.42-24.11V1402c-3.76-33.46-10.58-77.74-21.17-90.28a30.91,30.91,0,0,0,5.73-5.81l-5.73,5.81c-45.81,46.47-179.12,9.53-246.26-31.09s-28.31-49.81,22.48-69.1,129.4,18.51,158.16,14.1-1.9-30-51.5-43.42-90.92,26.24-171.57,5.93S988.2,1000,988.2,1000c47.92,35.87,155.06,40.5,165.38,23.25S1020.23,957,999.93,943.47,956.46,871.52,1012.34,791Z"/><path class="cls-4" d="M2029.16,911.14c-.19-.44-.41-.91-.68-1.4-.88-3.44-8.59-21.66-9.45-23.66-2.42-5.68-6.39-2.66-6.39,1.58,0,1.31.56,10.67.24,12-6.55-4.82-10.59-9.84-27.48-14.61,0,0-12.89-4.24-6.69,8.74,4.14,8.68,9.08,9.77,15.11,21.91S2011,936.19,2021,935.43l10.71,3.62,10.84-16-7-4.3A16.44,16.44,0,0,1,2029.16,911.14Z"/><rect class="cls-1" x="1378.29" y="544.49" width="634.35" height="912.84"/><rect class="cls-5" x="1540.97" y="626.69" width="289.14" height="15.01"/><rect class="cls-5" x="1503.6" y="661.53" width="144.57" height="15.01"/><rect class="cls-5" x="1665.61" y="661.53" width="212.19" height="15.01"/><rect class="cls-6" x="1519.15" y="999.7" width="311.95" height="11.43"/><rect class="cls-6" x="1683.65" y="969.2" width="220.89" height="11.43"/><rect class="cls-6" x="1445.71" y="969.2" width="215.18" height="11.43"/><rect class="cls-6" x="1692.89" y="938.7" width="190.03" height="11.43"/><rect class="cls-6" x="1467.34" y="938.7" width="190.03" height="11.43"/><path class="cls-7" d="M1726,1112.44h-91.73a7.61,7.61,0,0,1-7.57-7.57h0a7.6,7.6,0,0,1,7.57-7.57H1726a7.58,7.58,0,0,1,7.56,7.57h0A7.59,7.59,0,0,1,1726,1112.44Z"/><path class="cls-7" d="M1854,1112.44h-91.73a7.6,7.6,0,0,1-7.57-7.57h0a7.58,7.58,0,0,1,7.57-7.57H1854a7.58,7.58,0,0,1,7.56,7.57h0A7.59,7.59,0,0,1,1854,1112.44Z"/><path class="cls-7" d="M1742,1313.4a82.64,82.64,0,1,1,82.63-82.65v0A82.73,82.73,0,0,1,1742,1313.4Zm0-161.1a78.47,78.47,0,1,0,78.47,78.47h0A78.55,78.55,0,0,0,1742,1152.3Z"/><path class="cls-7" d="M1742,1297.35a66.59,66.59,0,1,1,66.58-66.6v0A66.65,66.65,0,0,1,1742,1297.35Zm0-129a62.42,62.42,0,1,0,62.43,62.42A62.42,62.42,0,0,0,1742,1168.35Z"/><path class="cls-7" d="M1742.84,1256.89c-8.65,2.8-17.08,4.26-23.73,3.71-10.1-.84-15.81-6.14-16-14.92-.18-7,2.71-13.07,8.38-18-.06-.47-.09-1-.14-1.43-.37-4.91.69-8.17,3.12-9.69,4-2.47,9.82.9,10.07,1l-1.32,2.25c-1.31-.77-5.21-2.45-7.38-1.09-1.86,1.17-2.07,4.38-1.92,7a55.56,55.56,0,0,1,18-8,96.57,96.57,0,0,1,16.95-2.89,11.78,11.78,0,0,1,.14-1.61c.18-1.2.6-2.61,1.78-2.9a2,2,0,0,1,2.1,1.1,6.11,6.11,0,0,1,.8,3.15c1.88,0,3.63,0,5.19.11v-.1a29.55,29.55,0,0,1,.4-9c.66-3,1.74-4.52,3.25-4.67a2,2,0,0,1,2.06,1.27c.85,2-.74,7.55-3,12.84h0c2.15.37,3.61,1,4.07,1.8a1.93,1.93,0,0,1-.52,2.43c-1.74,1.61-3.13,1.2-3.81.82a3.76,3.76,0,0,1-1.39-1.59c-1.74,3.43-3.63,6.37-5.12,7.62a2.58,2.58,0,0,1-3,.44,2.75,2.75,0,0,1-.65-.53,34.51,34.51,0,0,1-2,4.1c-2.72,4.77-5.78,7.22-8.85,7.07a5,5,0,0,1-3.31-1.46,49,49,0,0,1-6,9.8c-2.17,2.66-4.93,3.64-7.77,2.75-5-1.58-9.59-8.87-11.31-17.5a19.56,19.56,0,0,0-6.26,14.91c.2,7.49,4.79,11.66,13.66,12.4,22.38,1.87,61.61-18.94,64.59-34.25h0C1781.46,1236.21,1762.89,1250.39,1742.84,1256.89Zm-28.63-28.19c1.37,9.11,5.94,15.81,9.81,17,1.81.56,3.49-.08,5-1.91a45.1,45.1,0,0,0,6.25-10.69,15.56,15.56,0,0,1-1.08-3.39,24.07,24.07,0,0,1,0-10,66.09,66.09,0,0,0-12.25,4.27A40.18,40.18,0,0,0,1714.21,1228.7Zm23.89,4.26a3,3,0,0,0,2.3,1.56c2,.08,4.32-2,6.46-5.77a34,34,0,0,0,2.69-6,25.53,25.53,0,0,1-.73-5.29c-2.88.24-6,.62-9.25,1.21C1741.26,1221.9,1740.28,1227.44,1738.1,1233Zm14.16-10.22c.41,1.22.77,1.46.77,1.46,1.45-1.24,3.11-4,4.62-7-1.23,0-2.62-.06-4.13,0a32.24,32.24,0,0,1-1.26,5.5ZM1737,1219.4c-.67,1.38-1.14,5.79-.34,9.72,1.3-4.31,1.58-8,.34-9.72Zm25.56-1.65-.38-13.33a16.63,16.63,0,0,0-.62,2.71,19.33,19.33,0,0,0,.62-2.71Z"/><rect class="cls-6" x="1500.96" y="860.85" width="348.32" height="11.43"/><rect class="cls-6" x="1684.65" y="830.35" width="246.65" height="11.43"/><rect class="cls-6" x="1418.96" y="830.35" width="240.27" height="11.43"/><rect class="cls-6" x="1694.95" y="799.85" width="212.19" height="11.43"/><rect class="cls-6" x="1443.11" y="799.85" width="212.19" height="11.43"/><path class="cls-8" d="M2288.26,882.61s53.33,204.3-108.82,170.34C2135.66,1043.78,2019,927.56,2019,927.56s11.23-17.71,25-15.83c0,0,112.68,36.64,130.7,49.9,10,7.35,21.37-108.4,55.89-106.75S2288.26,882.61,2288.26,882.61Z"/><path class="cls-9" d="M2361.33,1746.49s-3,48-12.28,48.74c-1.23.09-47.14.09-47.14.09l-58.62-.34s.38-14.12,17.52-17.11,45.81-15,56.18-37.67C2327.9,1716.38,2361.33,1746.49,2361.33,1746.49Z"/><path class="cls-6" d="M2364.7,1749.82s-17.82,6-31.73,6a116.42,116.42,0,0,1-29.62-4.23s-3.35-32.44-21.81-103.92c-9.68-37.46-23.5-85.63-43.16-145.49C2184,1336.76,2167.48,1240,2166,1230.82c-.08-.48-.11-.72-.11-.72l.17-.08,167.14-73.39s-20.65,228,5.7,315.51a366.89,366.89,0,0,1,9.57,41.92C2365.09,1609.09,2364.7,1749.82,2364.7,1749.82Z"/><path class="cls-10" d="M2348.46,1514l-66.89,133.61c-9.68-37.46-23.5-85.63-43.16-145.49C2184,1336.73,2167.51,1240,2166,1230.79a3.6,3.6,0,0,1,.06-.8l167.14-73.39s-20.65,228,5.7,315.51A369,369,0,0,1,2348.46,1514Z"/><path class="cls-9" d="M2230.78,1746.49s-3,48-12.27,48.74c-1.24.09-47.15.09-47.15.09l-58.62-.34s.38-14.12,17.52-17.11,45.81-15,56.18-37.67C2197.36,1716.38,2230.78,1746.49,2230.78,1746.49Z"/><path class="cls-6" d="M2136,1162s-2.17,147.74,23.38,329.14,16.9,258.4,16.9,258.4,17.56,5.69,24.65,6.27c18.06,1.47,36.57-4.24,36.57-4.24s36.59-181.46,26.1-272.26,50.1-311.56,50.1-311.56Z"/><path class="cls-4" d="M2257.76,810.41l-29.3,25.74-47.9-2.11c.11-3.86,1-19.91,1.8-34.45,0-.86.1-1.72.15-2.56.69-12.38,1.32-23,1.32-23l40.87-25.39,15.24-9.46c0,.25.63,13.53.73,15.47C2242.4,789,2257.76,810.41,2257.76,810.41Z"/><path class="cls-11" d="M2126.28,1168.37c.66,78,5.87,260.41,9.68,264.12,40.63,39.2,219.27-10.75,228.75-53.94s-36-553.83-105.37-574.22C2245,800.1,2168,825,2168,825a489.45,489.45,0,0,0-20,71.81c-2.92,14.91-12.51,121.26-18.1,192.34-1.48,18.94-2.69,35.37-3.4,46.9C2126.2,1140.79,2126.14,1152.4,2126.28,1168.37Z"/><path class="cls-12" d="M2237.46,755.7c-7.28,17.57-41,36.63-55.12,43.89,0-.86.1-1.72.14-2.56.7-12.38,1.33-23,1.33-23l40.87-25.39C2234.31,747.14,2240.46,748.47,2237.46,755.7Z"/><path class="cls-4" d="M2168.68,775.75s74,6.88,77.55-39.25,15.54-76.32-31.55-82.66-57.62,10.55-62.57,25.66S2149.54,772.78,2168.68,775.75Z"/><path class="cls-9" d="M2153.94,674.7s15.18,49.57,25.16,45.15,19.1-8.06,20.82,7.5-9,36.21,23.73,32.06,61.38-97,49.19-110.87C2237.67,608.7,2105.3,627.25,2153.94,674.7Z"/><path class="cls-8" d="M2186.84,805.45c.92-.38,52.8-23.66,58.87-21.65s13.63,20.53,13.63,20.53L2168,825S2175.17,810.36,2186.84,805.45Z"/><path class="cls-8" d="M2126.28,1224.23c139-100.52,149.82-259.85,149.82-259.85-66.14,37.31-129,99-149.33,166.78-1.47,19,.43,49.21-.28,60.73C2126.2,1196.7,2126.14,1208.26,2126.28,1224.23Z"/><path class="cls-4" d="M2039,1172.8s-1.75-1.39-5.63-1.7c-3.36-1.13-12.73-5.26-14.33-6.71-5.09-4.62-6.87.29-3.32,5.19.77,1.06,3.52,2.87,4.48,3.88-7.61,2.88-17.77,8.81-31,20.39,0,0-10.56,8.51,3.7,10.37,9.54,1.24,13.14-2.31,26.61-.78s26.54-3.28,31.32-12.07l8.87-7-7.56-17.8Z"/><path class="cls-11" d="M2217.06,828.7s146.4-7,14,239.3c-21.17,39.4-172.48,125-172.48,125s-14.22-15.4-8.86-28.27c0,0,98.54-112.13,111.74-116.69,11.71-4,9.3-140.58,19.77-173.5S2217.06,828.7,2217.06,828.7Z"/><path class="cls-13" d="M2043.83,1792.7H1881.55a39.72,39.72,0,0,1-39.6-39.64l.12-392.19a39.71,39.71,0,0,1,39.62-39.6H2044a39.75,39.75,0,0,1,39.62,39.64l-.13,392.19A39.73,39.73,0,0,1,2043.83,1792.7Z"/><path class="cls-14" d="M2066.34,1681.53l-2.82-20.64h0l-2.83-20.65a19.39,19.39,0,0,0-21.77-16.55c-.59.08-1.15.2-1.72.33a19.25,19.25,0,0,0,3.34-9.15,19.33,19.33,0,0,0,36.63-11.92l-4.85-20.26h0l-4.85-20.27a19.34,19.34,0,1,0-37.62,9l7.31,30.53a19.15,19.15,0,0,0-15.26-8.21,52.91,52.91,0,0,0-4-40.79l-32.12-26.55a19.33,19.33,0,0,0-26.36,28.19,19.1,19.1,0,0,0-5.15.66l-20.1,5.5h0l-20.1,5.5a19.39,19.39,0,0,0-13.67,14.09l-2.11-5h0l-8-19.23a19.34,19.34,0,1,0-35.7,14.91h0l8,19.23h0l5.15,12.32a19.38,19.38,0,0,0-12.22,17l-1,20.81h0l-1,20.81a19.27,19.27,0,0,0,24.86,19.48,19.5,19.5,0,0,0-1.53,13.07,19.14,19.14,0,0,0-8.2,9.31l-8,19.25h0l-8,19.26a19.33,19.33,0,0,0,32.09,20.47,19.2,19.2,0,0,0,6,7.78,19.39,19.39,0,0,0,27.11-3.6l12.66-16.55h0l12.67-16.55a18.94,18.94,0,0,0,3.45-7.36,19.2,19.2,0,0,0,12.89-3.3l3.31-2.28-4.59,6h0l-12.66,16.54a19.34,19.34,0,0,0,30.71,23.51l12.66-16.54h0l12.67-16.55c.16-.21.3-.44.45-.65a19.63,19.63,0,0,0,3.71,4.36l-4.51,5.89a19.34,19.34,0,0,0,30.72,23.51l25.33-33.09a19.25,19.25,0,0,0-8.23-29.71l.71-.06A19.4,19.4,0,0,0,2066.34,1681.53Zm-174.29-18.45.36-7.1a18.53,18.53,0,0,0,7.19,7l-8.86,6.11a18.81,18.81,0,0,0,1.3-6Zm130.33-17.61,3.79,27.76a19.43,19.43,0,0,0-20.08-10.64,19.38,19.38,0,0,0,5.26-4.71l10.88-14.21Q2022.26,1644.57,2022.38,1645.47Zm-44-75,4.86,4-5,3.46a19.26,19.26,0,0,0,.15-7.45Zm4.19,61.33a19.12,19.12,0,0,0-3.42-8.21,19.07,19.07,0,0,0,4.16-2.15l15.24-10.51Zm12.65,36.19a19.49,19.49,0,0,0-14.57-4.4l.41-5.21a18.54,18.54,0,0,0,3.17,3.09,19.21,19.21,0,0,0,14.5,3.75,19.53,19.53,0,0,0-3.5,2.78Zm-39-73.2a19.39,19.39,0,0,0,.16,21.71c.07.12.18.23.26.35a19.16,19.16,0,0,0-4,2.06,19.41,19.41,0,0,0-6.63-21.28h-.07ZM1937,1641.3l7.46-9.75q-.17.92-.24,1.83l-1.42,17.9a19.2,19.2,0,0,0-9.82-4.73l4-5.25ZM1902.05,1723l2.18-5.29a19.15,19.15,0,0,0,.94-11.77c.45-.25.88-.52,1.31-.81l34.31-23.66c.22-.15.42-.32.63-.48a19.25,19.25,0,0,0,2.18,5.29l-6.11,4.21a19.22,19.22,0,0,0-7.81,11.54,19.35,19.35,0,0,0-17.27,7.45Zm91-23.84,1.07,4.48a18.8,18.8,0,0,0-5.36-1.52Zm40.85,4.52-1.49-6.23h0l-.28-1.19a19.53,19.53,0,0,0,7.9,5.81,19.18,19.18,0,0,0-6.08,1.59Zm-117.15-99.65-10.5,13.72h0l-12.66,16.54c-.06.07-.1.15-.16.23l.66-13.11v-1c.6-.19,1.19-.4,1.78-.64a19.42,19.42,0,0,0,11.81-19.36,19.45,19.45,0,0,0,9.12,3.63Z"/><path class="cls-15" d="M1937.68,1792.7h-56.14a39.73,39.73,0,0,1-39.6-39.64l.12-392.19a39.72,39.72,0,0,1,39.62-39.6h49.78a48.44,48.44,0,0,1,6.5,24.5l-.13,443C1937.84,1790.07,1937.79,1791.39,1937.68,1792.7Z"/><path class="cls-5" d="M2081,1339.77H1844.67a7.72,7.72,0,0,1-7.7-7.71v-36.93a7.73,7.73,0,0,1,7.71-7.7H2081a7.72,7.72,0,0,1,7.7,7.7v36.94A7.7,7.7,0,0,1,2081,1339.77Z"/><path class="cls-16" d="M1930.22,1339.7h-85.55a7.72,7.72,0,0,1-7.7-7.71v-36.93a7.73,7.73,0,0,1,7.71-7.7h85.43a7.74,7.74,0,0,1,7.69,7.71V1332A7.74,7.74,0,0,1,1930.22,1339.7Z"/><path class="cls-16" d="M2636.17,1769.24a26.06,26.06,0,0,1-26,26H2487.52a26,26,0,0,1,0-52h122.67A26.05,26.05,0,0,1,2636.17,1769.24Z"/><path class="cls-5" d="M2572.88,1769.24a26,26,0,0,1-26,26h-59.4a26,26,0,0,1,0-52h59.4A26,26,0,0,1,2572.88,1769.24Z"/><rect class="cls-17" x="2491.57" y="1749.02" width="124.39" height="8.19" rx="3.68"/><path class="cls-18" d="M1516.68,1088v365.81a40.93,40.93,0,0,1-40.82,40.82h-217.4a40.2,40.2,0,0,1-16.38-3.46,41,41,0,0,1-24.43-37.36V1088a40.94,40.94,0,0,1,40.81-40.81h217.4A40.92,40.92,0,0,1,1516.68,1088Z"/><path class="cls-19" d="M1420.36,1184.7a44.44,44.44,0,1,1,57.22-26,44.45,44.45,0,0,1-57.22,26Z"/><path class="cls-20" d="M1477.58,1158.75l-83.19-31.24a44.43,44.43,0,0,1,83.19,31.24Z"/><path class="cls-19" d="M1270.21,1177.55a44.43,44.43,0,1,1,62.52-6.32A44.44,44.44,0,0,1,1270.21,1177.55Z"/><path class="cls-20" d="M1332.73,1171.23,1263.9,1115a44.43,44.43,0,1,1,68.83,56.2Z"/><path class="cls-19" d="M1420.36,1455.76a43.49,43.49,0,1,1,.05,0Z"/><path class="cls-20" d="M1477.58,1432.81l-83.19-31.24a44.43,44.43,0,0,1,83.19,31.24Z"/><path class="cls-19" d="M1270.21,1448.59a44.43,44.43,0,1,1,62.52-6.32A44.44,44.44,0,0,1,1270.21,1448.59Z"/><path class="cls-20" d="M1332.73,1445.28l-68.83-56.19a44.43,44.43,0,1,1,68.83,56.19Z"/><path class="cls-19" d="M1455,1323.84a44.43,44.43,0,1,1,21.11-59.18h0a44.43,44.43,0,0,1-21.12,59.17Z"/><path class="cls-20" d="M1476.14,1264.7l-80.31,38a44.43,44.43,0,0,1,79.45-39.81C1475.58,1263.49,1475.86,1264.09,1476.14,1264.7Z"/><path class="cls-19" d="M1257.06,1267.18a44.43,44.43,0,1,1,24.74,57.76,44.43,44.43,0,0,1-24.74-57.76Z"/><path class="cls-20" d="M1281.8,1324.94l33-82.5a44.43,44.43,0,0,1-32.14,82.84Z"/><path class="cls-21" d="M1516.68,1138.05v318.32c0,21-16.8,38.24-37.35,38.24h-199a36.31,36.31,0,0,1-15-3.24V1182.11A44.48,44.48,0,0,1,1279,1150a43.46,43.46,0,0,1,10.51-7.44,42,42,0,0,1,18.84-4.47Z"/><rect class="cls-18" x="1272.49" y="1140.1" width="299.06" height="447.44" rx="40.82"/><path class="cls-19" d="M1475.23,1277.7a44.43,44.43,0,1,1,57.22-26,44.42,44.42,0,0,1-57.22,26Z"/><path class="cls-20" d="M1532.46,1251.7l-83.18-31.24a44.43,44.43,0,0,1,83.18,31.24Z"/><path class="cls-19" d="M1325.08,1270.49a44.43,44.43,0,1,1,62.52-6.32A44.44,44.44,0,0,1,1325.08,1270.49Z"/><path class="cls-20" d="M1387.6,1264.17l-68.83-56.2a44.43,44.43,0,1,1,68.83,56.2Z"/><path class="cls-19" d="M1475.23,1548.7a44.43,44.43,0,1,1,57.22-26,44.42,44.42,0,0,1-57.22,26Z"/><path class="cls-20" d="M1532.46,1525.7l-83.18-31.23a44.43,44.43,0,0,1,83.18,31.23Z"/><circle class="cls-19" cx="1353.15" cy="1507" r="44.43"/><path class="cls-20" d="M1387.6,1538.22,1318.77,1482a44.43,44.43,0,1,1,68.83,56.19Z"/><path class="cls-19" d="M1509.89,1416.78A44.43,44.43,0,1,1,1531,1357.6a44.43,44.43,0,0,1-21.12,59.18Z"/><path class="cls-20" d="M1531,1357.6l-80.31,38.06A44.44,44.44,0,0,1,1531,1357.6Z"/><path class="cls-19" d="M1311.93,1360.12a44.43,44.43,0,1,1,24.74,57.76,44.43,44.43,0,0,1-24.74-57.76Z"/><path class="cls-20" d="M1336.67,1417.88l33-82.5a44.43,44.43,0,0,1-32.14,82.84Z"/><rect class="cls-16" x="1196.4" y="1286.02" width="341.49" height="509.63"/><rect class="cls-5" x="1243.97" y="1286.01" width="341.49" height="509.64"/><polygon class="cls-22" points="1243.97 1315.59 1227.61 1341.04 1196.4 1341.04 1196.4 1286.02 1243.97 1286.02 1243.97 1315.59"/><polygon class="cls-5" points="1214.81 1326.16 1167.23 1326.16 1196.4 1286.02 1243.97 1286.02 1214.81 1326.16"/><polygon class="cls-21" points="1420.11 1797.28 1243.97 1797.28 1243.97 1309.24 1420.11 1326.16 1420.11 1797.28"/><polygon class="cls-16" points="1585.46 1326.16 1557.76 1341.04 1260.43 1341.04 1243.97 1315.59 1243.97 1286.01 1585.46 1326.16"/><polygon class="cls-5" points="1609.59 1326.16 1268.1 1326.16 1243.97 1286.02 1585.46 1286.02 1609.59 1326.16"/><path class="cls-23" d="M859.66,1155c-9-29-48.34-34.47-64.15-8.51a32.18,32.18,0,0,0-4.8,16.18c-.87,34,66.25,165.75,75.15,177.4,16.22,21.21,114.11,72.22,114.11,72.22l20.8-3a153.6,153.6,0,0,1-23.94-19.59c-25.16-25.1-61.82-65.93-68.54-71.58C896.76,1308.42,876.83,1210.1,859.66,1155Z"/><rect class="cls-18" x="944.94" y="1423.53" width="547.13" height="370.93" rx="50.27"/><path class="cls-19" d="M1113.15,1543a54.12,54.12,0,0,1-70,32.21c-28.13-10.7-42.32-42.45-31.76-71a54.1,54.1,0,0,1,70-32.22C1109.52,1482.67,1123.7,1514.5,1113.15,1543Z"/><path class="cls-20" d="M1081.4,1472l-38.2,103.18c-28.09-10.69-42.32-42.45-31.76-71A54,54,0,0,1,1081.4,1472Z"/><path class="cls-19" d="M1104.39,1729.22a53.81,53.81,0,0,1-75.63,8.5l-.82-.67a55.63,55.63,0,0,1-7.73-77.53,53.8,53.8,0,0,1,75.62-8.51l.83.67A55.67,55.67,0,0,1,1104.39,1729.22Z"/><path class="cls-20" d="M1096.65,1651.7l-68.72,85.37a55.65,55.65,0,0,1-7.73-77.53,53.82,53.82,0,0,1,75.63-8.51Z"/><path class="cls-19" d="M1444.58,1543a54.13,54.13,0,0,1-70,32.21c-28.12-10.7-42.31-42.45-31.76-71a54.1,54.1,0,0,1,70-32.22C1441,1482.67,1455.12,1514.5,1444.58,1543Z"/><path class="cls-20" d="M1412.82,1472l-38.18,103.18c-28.09-10.69-42.32-42.45-31.78-71A54.05,54.05,0,0,1,1412.82,1472Z"/><path class="cls-19" d="M1435.8,1729.21a53.77,53.77,0,0,1-74,9.72c-.83-.58-1.63-1.22-2.44-1.88a55.65,55.65,0,0,1-7.71-77.54,53.79,53.79,0,0,1,75.6-8.51l.84.68c.79.66,1.55,1.32,2.31,2A55.67,55.67,0,0,1,1435.8,1729.21Z"/><path class="cls-20" d="M1430.39,1653.7l-68.59,85.23c-.83-.58-1.63-1.22-2.44-1.88a55.64,55.64,0,0,1-7.72-77.54,53.79,53.79,0,0,1,75.6-8.51l.84.68C1428.86,1652.34,1429.62,1653,1430.39,1653.7Z"/><path class="cls-19" d="M1283.28,1500c12.84,27.52,1.28,60.37-25.83,73.4a54,54,0,0,1-72-25.42c-.12-.26-.24-.51-.35-.77-12.84-27.5-1.28-60.37,25.83-73.4a54,54,0,0,1,72,25.42Z"/><path class="cls-20" d="M1210.9,1473.82l46.54,99.59a54,54,0,0,1-72-25.42l-.36-.77C1172.23,1519.7,1183.79,1486.85,1210.9,1473.82Z"/><path class="cls-19" d="M1214,1745.53c-27.87-11.32-41.4-43.39-30.25-71.64s42.76-42,70.63-30.69,41.41,43.39,30.25,71.64S1241.83,1756.83,1214,1745.53Z"/><path class="cls-20" d="M1284.61,1714.84l-100.88-41c11.16-28.25,42.76-42,70.63-30.69S1295.77,1686.59,1284.61,1714.84Z"/><path class="cls-24" d="M888.08,988.51c.54-2.18-47.49,21.71-49.93,24.41-22.52,25-16.1,57.59-3.21,57.9,8.27.2,6.67,14,6.67,14l92.08-39S922.61,981.15,888.08,988.51Z"/><path class="cls-24" d="M899.46,993.55s3.25-35.85-36.84-35.85c0,0,12.15,3.29,18.43,9.88,0,0-25.56-15-53.38,8.06s-10.54,80.9-19,91.88-41.4,13.18-37.38,48.69,104.56,80,98.11,109.35c0,0,39.4-57.91,11.22-84.34,0,0,13.74,12.93,15.13,28.31,0,0,3.73-30-15.37-39.62-16.9-8.5-30.75-39.57-29.29-45.12S899.46,993.55,899.46,993.55Z"/><path class="cls-6" d="M786.83,1769.24l-19.93-2.93s-67-53.24-77-152.6a179.1,179.1,0,0,1-.48-30.72,5.28,5.28,0,0,0-.69-3.39h0c-2.14-3.29-7.47-11.52-14.7-23.24-7.13-11.54-19.32-33.35-32.73-57.84-24.15-44.08-52.28-96.81-61.94-113.61-30.74-53.52-15.91-89.51-15.91-89.51s85.76-8.48,109.26-29l8.46,13s18.58,82.26,17.71,82.64c.91,2.8,1.84,5.64,2.79,8.54,14.66,45.26,31.53,101.83,40.72,147.91,5.16,25.92,7.9,48.51,6.44,63.9-.51,5.27.1,13.39,1.51,23.4C758.63,1664.81,786.83,1769.24,786.83,1769.24Z"/><path class="cls-25" d="M828.63,1794.45H745.46s-2-12.67,2.35-22.28c4.16-9.22,10.09-9.52.76-24,5.28,5.44,22.26,7.69,34.28,6.07,1.48,2.39,9.5,18.41,14.42,21.94C802.73,1780.11,827,1778.7,828.63,1794.45Z"/><path class="cls-10" d="M701.65,1370.56c-7.27,40.06-24.42,106.72-60.36,127.93-24.15-44.08-52.28-96.81-61.94-113.61-30.74-53.52-15.92-89.51-15.92-89.51s85.77-8.48,109.27-29l8.46,13s18.58,82.26,17.71,82.64C699.77,1364.82,700.7,1367.7,701.65,1370.56Z"/><path class="cls-6" d="M643.34,1301.55l.28-15.55c-31,3.91-106.83-37-106.83-37s-32.4,21.56-36.84,83.12c-2.17,30-15.87,157.13-17.39,195.08-.55,13.75-.73,23.57-.79,27.49h0a5.35,5.35,0,0,1-1.32,3.2,177.53,177.53,0,0,0-16.78,25.73c-47.28,88-22.56,207.47-22.56,207.47l11-2.79s40-123.9,66.1-177.49c4.43-9.09,8.46-16.16,11.83-20.25,9.82-11.93,20.18-32.19,30.39-56.58,19.3-46.1,38-106.93,51.4-154C612.75,1380.14,643.34,1301.55,643.34,1301.55Z"/><path class="cls-4" d="M824.64,1197.77c-50.65-11.62-18.29-82.79-15.36-81.54,7-1.43,22.43-13.75,36.23-37.82l1.85,1.62,31.1,27.27s-7.19,10.61-13.24,21c-4.73,8.13-8.75,16.15-8.11,18.9C859.62,1149.17,838.15,1200.87,824.64,1197.77Z"/><path class="cls-8" d="M856.61,1144.9s8.91,17.58,13.66,32.8,16.64,63.63,16.64,63.63-24.52,28-58.62,26.35c0,0-18.34-28.71-11.88-54.63S856.61,1144.9,856.61,1144.9Z"/><path class="cls-23" d="M878.46,1107.31s-7.2,10.59-13.24,21c-19.34-11.93-19.36-35.87-17.87-48.27Z"/><path class="cls-4" d="M879.33,1121s-47-26.13-30.24-55.13S871,1014,901.71,1029.41s30.08,29.85,26.85,40.89S892,1127,879.33,1121Z"/><path class="cls-24" d="M936.46,1053.39c-2.15-12.88-8.69-14.11-13.25-13.25-17.34-28.68-45.67-17.48-45.67-17.48-15.14,19-37,22.23-37,22.23S846,1055,868.45,1061.3c6.85,1.92,14.64.76,22.15-1.77a125.36,125.36,0,0,1-31.87,12c29.59,2.71,57.74-24.34,60.66-27.23,1.35,4.19,3.76,13,2.32,19.38-1.94,8.72-9.68,24.51-5,26.56C916.76,1090.25,939.72,1072.7,936.46,1053.39Z"/><path class="cls-25" d="M507.23,1794.45H424.09s-2-12.67,2.35-22.28c4.16-9.22,10.68-13.42,9.11-24.58,5.29,5.44,13.9,11.53,25.92,9.91,1.47,2.39,9.5,15.17,14.42,18.7C481.33,1780.11,505.55,1778.7,507.23,1794.45Z"/><path class="cls-11" d="M830.6,1254.19c-10.7,3.73-25.71,5.78-41.07,7.45-21.86,2.39-44.44,4-56.26,8.74a74.93,74.93,0,0,0-15.77,8.6h0a3.73,3.73,0,0,0-.46.35,49.81,49.81,0,0,0-6.52,5.62,36,36,0,0,0-7.63,11.32c-4.34,10.71,1.41,40.41,5.09,56.65a14.75,14.75,0,0,1-7.52,16.38Q688,1375.75,676,1381.2l-1.27.57c.08-1.65.11-3.29.11-4.89a149.89,149.89,0,0,0-1.41-20.52c-2,11.3-9.42,23.51-16.37,32.91-111.57,44.77-189.52,25.31-188.25,3,4.41-77.43,56.62-143.29,56.62-143.29,97.39-113.25,294.39-143.07,294.39-143.07s9.44-1.13,20.82,12.55c16.38,19.7,17.19,24.84,17.19,24.84S862.08,1243.21,830.6,1254.19Z"/><path class="cls-8" d="M789.52,1261.64c-21.86,2.38-44.43,4-56.25,8.73-4.84-72.2,29.24-126.51,29.24-126.51S784.73,1234.31,789.52,1261.64Z"/><path class="cls-4" d="M812.46,1129.89s-54.79,5.41-59.18,41,52.53,180.6,60.68,193.74c14.84,23.9,102.23,105.84,102.23,105.84l16.11-9.76s-62-104.94-71.59-114.76C845.67,1330.55,831,1142.22,812.46,1129.89Z"/><path class="cls-11" d="M840.56,1197.9s5.62-91.79-64.64-69.59,10.91,180.08,10.91,180.08,41.23-2,55.86-38Z"/><path class="cls-8" d="M708,1352.94a14.73,14.73,0,0,1-7.52,16.36Q688,1375.75,676,1381.2c-.43-1.37-.82-2.8-1.16-4.32a75.18,75.18,0,0,1-1.4-20.52c1.85-34.28,25.2-60.24,37.16-71.39a36,36,0,0,0-7.63,11.32C698.55,1307,704.3,1336.7,708,1352.94Z"/><path class="cls-8" d="M819.74,1105.91s8.59-10.84,14.38-10.49c0,0,23.45,32.82,23.64,47.88C857.75,1143.3,828.51,1104.39,819.74,1105.91Z"/><path class="cls-23" d="M1044.67,1423.52s-12.47.22-15.16-.16-6.17-1.53-9.72-1.66-6.7,1-10,1.68a7.28,7.28,0,0,1-1.48.14H987.63s-2.07-1-4.34-4.64c-1-1.58-1.11-5.34-3.35-6.59-12.52-7,20.8-3,20.8-3s20.92-.38,22.86,1.06C1027.05,1412.91,1045.46,1422.53,1044.67,1423.52Z"/><path class="cls-23" d="M987.65,1423.53s12.7,3.66,16.15,6l3.65,2.3s2.11-2.35-1.22-5c-1.75-1.38-6.59-5.41-6.75-10S985,1416.26,987.65,1423.53Z"/><path class="cls-4" d="M932.32,1460.7s9.07,8.06,16,9.76,14.74,21.46,16,24.28-6.58-1.25-9.72-6.06-5.28-6.69-6.19-5.65.55,14.22,5.77,21.54,8.37,13.79,4.6,13.38-26.13-5.86-30.73-19.45-1.22-14.06-11.79-28S932.32,1460.7,932.32,1460.7Z"/><path class="cls-6" d="M1933,1765.27a28.71,28.71,0,0,1-28.61,28.61H1769.28a28.61,28.61,0,0,1,0-57.21H1904.4A28.69,28.69,0,0,1,1933,1765.27Z"/><path class="cls-26" d="M1863.3,1765.27a28.69,28.69,0,0,1-28.61,28.61h-65.42a28.61,28.61,0,0,1,0-57.21h65.42A28.68,28.68,0,0,1,1863.3,1765.27Z"/><rect class="cls-27" x="1773.74" y="1743.01" width="136.99" height="9.02" rx="4.05"/><path class="cls-16" d="M1817.7,1684.23a30.42,30.42,0,0,1-13.53,40.71l-128.06,64.18a30.33,30.33,0,0,1-27.18-54.23h0L1777,1670.7A30.41,30.41,0,0,1,1817.7,1684.23Z"/><path class="cls-5" d="M1751.65,1717.34a30.43,30.43,0,0,1-13.53,40.7l-62,31.08a30.33,30.33,0,0,1-27.18-54.23l62-31.08A30.42,30.42,0,0,1,1751.65,1717.34Z"/><path class="cls-17" d="M1786.46,1684.19l-122.15,61.21a4.31,4.31,0,0,1-5.77-1.91l-.43-.87a4.32,4.32,0,0,1,1.91-5.77l122.16-61.22a4.32,4.32,0,0,1,5.77,1.92l.44.87A4.32,4.32,0,0,1,1786.46,1684.19Z"/><rect class="cls-28" x="177.46" y="1793.33" width="2845.07" height="7.13" rx="3.13"/></g></svg>