<svg xmlns="http://www.w3.org/2000/svg" viewBox="0 0 2600 2000"><defs><style>.cls-1{fill:#fff;}.cls-2{fill:#d0eefc;}.cls-3{opacity:0.8;}.cls-4{fill:#f5f5fa;}.cls-5{fill:#bbcdf7;}.cls-6{fill:#ffb27d;}.cls-16,.cls-7{fill:#8b82f7;}.cls-8{fill:#1c3154;}.cls-9{fill:#4a4e8c;}.cls-10{fill:#43477f;}.cls-11{fill:#6558f5;}.cls-12{fill:#ed985f;}.cls-13{fill:#2c3a64;}.cls-14{fill:#c986bb;}.cls-15{fill:#b75da4;}.cls-16{opacity:0.4;}.cls-17{fill:#607cf4;}.cls-18{fill:#e9f3fe;}.cls-19{fill:#edbf41;}.cls-20{fill:#e6efff;}.cls-21{fill:#c36054;}.cls-22{fill:#113c68;}.cls-23{fill:#15447c;}.cls-24{fill:#d2887f;}.cls-25{fill:#fca56b;}.cls-26{fill:#163560;}.cls-27{fill:#1f4d84;}.cls-28,.cls-39{opacity:0.5;}.cls-29{fill:#b3cff9;}.cls-30{fill:#ed975d;}.cls-31{fill:#1f447f;}.cls-32{fill:#e8945b;}.cls-33{fill:#2f3550;}.cls-34{fill:#605deb;}.cls-35{fill:#8784ef;}.cls-36{fill:#eaf2fc;opacity:0.4;}.cls-36,.cls-39{isolation:isolate;}.cls-37{fill:#c26054;}.cls-38{fill:#cf857e;}.cls-39{fill:#fae2ce;}</style></defs><g id="_лой_1" data-name="‘лой_1"><rect class="cls-1" width="2600" height="2000"/></g><g id="Calque_2" data-name="Calque 2"><path class="cls-2" d="M2373.27,1841.69c-148.19,0-2151.66-4.32-2151.66-4.56-.83-1.94-254.34-312.65,64.88-637.5,158.17-161-145.25-369.49,0-548.53,248.8-306.7,495-134,700.07-220.23,36.24-15.23,72.6-39.74,109-77.34a405.16,405.16,0,0,1,67-55.61q5.54-3.69,11.17-7.19a446.84,446.84,0,0,1,44.69-24.26Q1233.9,259.17,1250,253h0a517,517,0,0,1,52.31-17,592.34,592.34,0,0,1,78-15.31c11.6-1.51,23.3-2.68,35.08-3.58,229.16-17.22,487,79.68,620.13,221.3,26.79,28.52,148.63,176.09,52.59,378.91-60.64,128.06,193.39,250.37,283.67,396.6C2601.28,1585.64,2375.35,1836.85,2373.27,1841.69Z"/><g class="cls-3"><path class="cls-4" d="M1854.76,977.28a292.44,292.44,0,0,1-22.35,47.71,291.41,291.41,0,0,1-350.93,126.54C1369.73,1110.91,1298,1009,1290.31,897.58a285.65,285.65,0,0,1,.37-44.44,293.26,293.26,0,0,1,43.93-130.89c.12-.21.25-.39.37-.6a291.94,291.94,0,0,1,166.06-124c7.11-2,14.33-3.81,21.59-5.3A289.74,289.74,0,0,1,1680.52,604q10.44,3.79,20.41,8.3A289.24,289.24,0,0,1,1819,709.77h0a292.09,292.09,0,0,1,46.59,105.72q2.69,12.21,4.33,24.68a290.08,290.08,0,0,1-15.17,137.11Z"/><path class="cls-5" d="M1532.53,721.41c-17.21,13.33-12.65,49-42.44,28.89s-48.51-31-56.94-13.49,18,27.15,11,46.27-21.09,21.14-36,5.44-15.35-30.81-39.49-30.31-34.45-9.43-33.28-27.56a25.19,25.19,0,0,0-.79-8.4c.12-.21.25-.39.37-.6a291.94,291.94,0,0,1,166.06-124c7.11-2,14.33-3.81,21.59-5.3,8.42,3.42,17.45,10.36,22.24,24.29,10.51,30.63,27.55,23.42,13.08,49.08s-8.53,31.95,7.28,36.66,34,11.33,31.53,23.83S1549.75,708.07,1532.53,721.41Z"/><path class="cls-5" d="M1854.76,977.28a292.44,292.44,0,0,1-22.35,47.71,289.53,289.53,0,0,1-81.39,89.32,33.24,33.24,0,0,1-21.67-8.54c-29.18-26.07,9.49-53.76,29.85-67.23s-17.45-17.94-36.51-44.19,25.57-61.83-3.11-63.75-63.56-3.78-69.4-34.5,24.33-24.4,19-50.28,19.68-30.73,46.37-23.34,30-12.3,63.06-3.36,17.51,49.65,54,59.83,31.92,17.79,31.92,17.79a17.55,17.55,0,0,1,6.85,4.25A291.35,291.35,0,0,1,1854.76,977.28Z"/><path class="cls-5" d="M1869.93,840.17c-34.75,3.63-32.4-39.74-61.91-37.17-29.74,2.59-17-18.56-31.74-40.41s-64.39-10-54.3-32.1,37.82-4.81,50.81-20.7,40.47-.75,40.47-.75a21.18,21.18,0,0,1,5.74.73h0a292.09,292.09,0,0,1,46.59,105.72Q1868.29,827.7,1869.93,840.17Z"/><path class="cls-5" d="M1649.72,671.24s23.6-16.71,1.41-32.23-24.87-6.73-43.24-15.72-31.27,3.08-22.81,24.45,8.8,56.6,27.78,44.79S1633.89,667.29,1649.72,671.24Z"/></g><path class="cls-6" d="M1972.07,1219.38s2.25-22.34-9.44-21.57-14.77,6.12-13.47,10.42,12.67,18.49,12.67,18.49Z"/><path class="cls-7" d="M2154.1,1264.14s-12.94,15.2-40.75,32.74q-3.95,2.49-8.29,5a307.34,307.34,0,0,1-38.1,18.75c-1.61.66-3.5,1.39-5.63,2.16-16.66,6-47.33,14.55-66.33,15.31-1.66.07-3.22.07-4.68,0-28.93-1.16-32.45-113.42-32.45-113.42s3.22-11.24,18.08-8.41c0,0,22.56,63.4,30.65,68.57,7.19,4.59,48.47-58,84-62.37C2114.54,1219.55,2154.1,1264.14,2154.1,1264.14Z"/><path class="cls-8" d="M2076.39,1811.56s2.14,24.72-3.08,27.29l-66.85-.14s0-7.71,10.73-9.43,29.6-8,32.8-22S2076.39,1811.56,2076.39,1811.56Z"/><path class="cls-9" d="M2027.32,1512.48c.33,16.16,1.1,32.83,2.62,47.81,7.22,71.08,9.76,157,10.8,173.51,1.8,28.75,7.47,74.66,7.47,74.66s11.27,10.69,33.22,5.59c0,0,18.19-66.13,22.25-135.77l.18-3.44c.47-9.2,1-19.73,1.47-31.08,3.35-76,7-189,7-189l-83.89-19.7S2026.49,1472.2,2027.32,1512.48Z"/><path class="cls-10" d="M2027.32,1512.48c21.26,36.68,61.78,104.26,78,131.28,3.35-76,7-189,7-189l-83.89-19.7S2026.49,1472.2,2027.32,1512.48Z"/><path class="cls-11" d="M2061.33,1322.81c-16.66,6-47.33,14.55-66.33,15.31,2.9-.54,24.06-4.73,31.89-14.18,8.4-10.16,22.56-37.74,33.81-26.49C2066,1302.75,2064.45,1313.23,2061.33,1322.81Z"/><path class="cls-6" d="M2202.29,1500.53s5.21,20.42,4.35,25-5.93,19.9-9.1,23.72-3.3-16.58-5.41-19.78-1,7.61-2.66,8.5-4.5-8.19-5.76-11.41,4.51-14.42,5-22.45S2202.29,1500.53,2202.29,1500.53Z"/><path class="cls-8" d="M2242.92,1783.48s11.9,10.86,9.58,18.57-13.06,12.86-14.51,22.29-7.25,14.58-12.48,14.58h-24.9s-3.85-6.64,5.44-8.64,12.79-13.08,12.21-23.37.87-24,.87-24l19.73-4.57Z"/><path class="cls-9" d="M2041.64,1456.49s78.53,168,120.32,241.75,54.85,94.29,54.85,94.29,23.94-9.43,26.11-15.86c0,0-16-142.32-44-177-15.82-19.6-34.39-78.43-35.26-99s-19.22-69.68-19.22-69.68Z"/><path class="cls-7" d="M2027,1447.75s25.57,27.52,69,35.83c19.07,3.65,57.78,7.18,67.38-6.4,2.25-3.19,2.27-7.91,1.77-15.28-1.29-19.15-6.11-56.17,15.64-130.58a126.16,126.16,0,0,0,4.18-19.89c4.75-38.07,4.24-66.8-28.79-82.16-49.49-23-69.8-4.07-69.8-4.07s-26.32,12.3-38.34,48.14C2024,1345,2027,1447.75,2027,1447.75Z"/><path class="cls-6" d="M2126.5,1223a36.71,36.71,0,0,1-37,2.43c-1.08-.54-.95-7.94-.68-15.19s.94-14.12.94-14.12l17.61-11.56,16.8-11C2122.2,1211.4,2130.26,1220.27,2126.5,1223Z"/><path class="cls-12" d="M2121.26,1189.14s-11.43,17.15-32.4,21c.27-7.13,1-15,1-15l17.52-10.7Z"/><path class="cls-6" d="M2074,1191.62s42.6,15.89,52.08-10.35,21.36-41.88-5.44-53.14S2085,1125,2079.62,1133,2063.2,1186.8,2074,1191.62Z"/><path class="cls-13" d="M2152.65,1131.08c.49-.38,1.48-.56,3.56-.27a8.52,8.52,0,0,0-3.62-1.84c.13-2.93-.39-8.28-5.05-10.48a6.26,6.26,0,0,1,2.1,5c-4.53-7-15.87-13.62-50.14-17.62-45.15-5.28-36.12,26.09-31,30.62s21.42-1.91,32,1.06,9.54,18.87,12.76,21.71,2.53-1.2,7.89-2.45,4.22,7,1.75,12,2.91,13.36,2.91,13.36l8.29-6c8.29-6,20.89-35.91,19.1-43.17Q2152.89,1132.07,2152.65,1131.08Z"/><path class="cls-11" d="M2165.18,1461.9c-1.29-19.15-6.11-56.17,15.64-130.58a126.16,126.16,0,0,0,4.18-19.89h0c-16.16-5.33-45.61,6.52-45.61,6.52S2132.47,1416.31,2165.18,1461.9Z"/><path class="cls-7" d="M2165.12,1234.25s19.88,7.23,32.57,59.88c8.38,34.78,23.8,85.91,25.54,102s-17.63,110.13-17.63,110.13-2.74,2-9.43.66a15.54,15.54,0,0,1-9.39-5.62s-4.64-62.69-3.44-92.29c.5-12.3-56.93-90.07-87.93-100.09C2083.24,1305,2165.12,1234.25,2165.12,1234.25Z"/><path class="cls-5" d="M1887,1166.1s57.47-1.63,123.8,10.58l6.92-17.46,7.6-19.13s-66.58-28.67-106.6-68.58Z"/><path class="cls-14" d="M1919.62,1070.58l-33,97.4h0a8.78,8.78,0,0,1-5.78-11.35l29-81.84a7.24,7.24,0,0,1,9.74-4.21Z"/><path class="cls-14" d="M1951.12,1238.6h0a11.93,11.93,0,0,0,14-9.34l11.36-56.84a11.92,11.92,0,0,0-9.33-14h0a11.94,11.94,0,0,0-14,9.34l-11.36,56.84A11.93,11.93,0,0,0,1951.12,1238.6Z"/><path class="cls-7" d="M1887,1166.1s57.47-1.63,123.8,10.58l6.92-17.46C1955.4,1146.49,1887,1166.1,1887,1166.1Z"/><path class="cls-14" d="M1992.45,1173.17l18,3.15c-.28,0,16.68,3.3,22.24-11.72a12.27,12.27,0,0,0,1.06-3.25c4.32-18.73-6-22.18-6-22.18l-23.12-9-7.34,26v.09Z"/><path class="cls-15" d="M1992.45,1173.17l18,3.15c-.28,0,16.68,3.3,22.24-11.72-10.16-7.39-35.36-8.45-35.36-8.45v.09Z"/><path class="cls-6" d="M1952.65,1183.55s8.78,3.5,7.17,7.37-12.78,9.19-14.54,6.14S1947.12,1180.29,1952.65,1183.55Z"/><path class="cls-6" d="M1972.24,1215.86a122.56,122.56,0,0,0,1.76-13.11c.1-4.13.59-7.5-.38-7.62s-1.68.64-2.08,2-1.92,9.56-1.92,9.56l.77,7.95Z"/><path class="cls-11" d="M1103.31,1210l-49.77,591.8s-5.21,35.87,21.47,35.94c43.87.1,218.38,0,218.38,0s-33-7.47-32.63-24.27c.48-19.81,58.18-609.07,58.18-609.07Z"/><path class="cls-11" d="M1309.81,1827.24c-8.63,0-177.57.31-220.29-.24-18.62-.23-21.89-16.56-22-27.12a52.88,52.88,0,0,1,.56-8.81l1.3-15.38,3.3-39.21,2.91-34.63,3.74-44.51,3.16-37.57,35.36-420.52,215.63-5.59s-24.3,246.6-41.49,426.11c-1.92,20-3.75,39.18-5.43,57.08q-.82,8.58-1.59,16.74c-1.59,17-3,32.58-4.32,46.35-.67,7.26-1.28,14-1.84,20.19-2.19,24.2-3.48,39.66-3.5,42.6a24.9,24.9,0,0,0,.42,4.79C1279.23,1826.38,1306.57,1827.24,1309.81,1827.24Z"/><polygon class="cls-5" points="579.65 887.96 700.89 1374.94 717.49 1441.63 773.95 1668.46 1823 1668.46 1614.88 887.96 579.65 887.96"/><polygon class="cls-11" points="579.65 887.96 562.85 893.56 751.62 1685.4 773.96 1668.46 579.65 887.96"/><polygon class="cls-11" points="751.62 1685.4 1794.21 1685.4 1823 1668.46 773.96 1668.46 751.62 1685.4"/><rect class="cls-5" x="1117.74" y="1827.24" width="225.74" height="10.73" transform="translate(2461.22 3665.2) rotate(180)"/><polygon class="cls-7" points="1286.1 1685.39 1284.93 1693.59 1072.64 1736.48 1075.55 1701.85 1076.94 1685.39 1286.1 1685.39"/><path class="cls-16" d="M1309.81,1827.24c-8.63,0-177.57.31-220.29-.24-18.62-.23-21.89-16.56-22-27.12l211.29-39.75c-2.19,24.2-3.48,39.66-3.5,42.6a24.9,24.9,0,0,0,.42,4.79C1279.23,1826.38,1306.57,1827.24,1309.81,1827.24Z"/><polygon class="cls-5" points="579.65 887.96 1614.88 887.96 1782.84 1515.23 735.81 1515.23 579.65 887.96"/><polygon class="cls-7" points="1734.02 1488.05 764.73 1488.05 730.09 1350.07 716.69 1296.68 711.23 1274.9 675.63 1133.11 673.78 1125.72 654.97 1050.77 646.55 1017.23 639.37 988.62 622.53 921.56 1577.84 921.56 1596.33 988.62 1604.22 1017.23 1613.46 1050.77 1674.37 1271.71 1674.37 1271.72 1679.53 1290.44 1681.93 1299.13 1723.99 1451.67 1734.02 1488.05"/><polygon class="cls-17" points="1596.34 988.63 639.37 988.63 622.53 921.56 1577.85 921.56 1596.34 988.63"/><path class="cls-18" d="M662.05,951.87c-1.15-4.63,1.67-8.39,6.3-8.39a11.45,11.45,0,0,1,10.47,8.39c1.16,4.63-1.66,8.38-6.29,8.38A11.46,11.46,0,0,1,662.05,951.87Z"/><path class="cls-18" d="M689.91,951.87c-1.15-4.63,1.67-8.39,6.3-8.39a11.45,11.45,0,0,1,10.47,8.39c1.15,4.63-1.66,8.38-6.29,8.38A11.46,11.46,0,0,1,689.91,951.87Z"/><path class="cls-18" d="M719.91,951.87c-1.16-4.63,1.66-8.39,6.29-8.39a11.47,11.47,0,0,1,10.48,8.39c1.15,4.63-1.67,8.38-6.3,8.38A11.44,11.44,0,0,1,719.91,951.87Z"/><path class="cls-19" d="M1387.81,531.65c39.18-46,99.59-138.39,140.26-185.71a15,15,0,0,0-11.43-24.77h-74l69.81-157.86c3-6.74-6.2-12.11-10.61-6.2L1333,383a9.34,9.34,0,0,0,8.63,14.86l83.78-10.32-49.85,136.94C1372.85,532.05,1382.61,537.76,1387.81,531.65Z"/><path class="cls-14" d="M1039.36,811.82c8.81-45.21,14.37-129.17,23.69-175.81a11.44,11.44,0,0,0-16.86-12.18L997,651.51l-12.68-131c-.55-5.6-8.65-5.73-9.38-.16l-27.6,213.2a7.12,7.12,0,0,0,11.29,6.64l51.79-38.19,18.11,109.59C1029.57,817.68,1038.19,817.82,1039.36,811.82Z"/><path class="cls-20" d="M1776.36,1501.4l-842.23,71c-64,5.39-110.24-59.81-84-118.4L1206.9,655.38C1234,594.8,1317.18,587.79,1354,643l485.41,727.61C1875,1424,1840.31,1496,1776.36,1501.4Z"/><path class="cls-19" d="M1779,1533.26l-842.23,71a116.28,116.28,0,0,1-115.92-163.31l356.82-798.57c17.53-39.24,53.57-64.82,96.4-68.43s82.64,15.58,106.49,51.34L1866,1352.86a116.29,116.29,0,0,1-87,180.4ZM1279.48,637.63a51.64,51.64,0,0,0-43.39,30.8L879.26,1467a52.34,52.34,0,0,0,52.18,73.5l842.23-71a52.34,52.34,0,0,0,39.15-81.19L1327.41,660.73A51.67,51.67,0,0,0,1279.48,637.63Z"/><path class="cls-19" d="M1259.74,1379.23a77.17,77.17,0,0,1,3.28-30.59,70.75,70.75,0,0,1,14.41-25.32,75.66,75.66,0,0,1,24.2-17.93q14.43-6.93,33.14-8.51a96.4,96.4,0,0,1,34.34,2.82,75.18,75.18,0,0,1,27.11,13.62,70.71,70.71,0,0,1,18.45,22.54,77.46,77.46,0,0,1,8.35,29.61,75.43,75.43,0,0,1-3.3,30.34,71.4,71.4,0,0,1-14.43,25.07,75,75,0,0,1-24.46,18,96.45,96.45,0,0,1-33.38,8.52q-18.72,1.59-34.1-2.84a75.4,75.4,0,0,1-26.85-13.64,71,71,0,0,1-18.43-22.29A75.36,75.36,0,0,1,1259.74,1379.23ZM1390,1226.86l-121.32,10.22L1216.53,824l155.69-13.12Z"/><path class="cls-6" d="M736.75,1252.19s2.64-5.94,4.35-8.75,9-11.06,10.26-9.19,6.22,14.42,3.58,17.94.17,9.63-13,13.34Z"/><path class="cls-21" d="M590.68,1214.69s67.28,56.16,93.52,51c20.52-4.06,52.95-14.35,52.95-14.35s8.56,8.14,6.14,17.9c0,0-41.32,38.88-70.76,39.13-46,.4-67.72-22.8-67.72-22.8Z"/><path class="cls-22" d="M472.67,1807.13s1.95,31.51,8.05,32c.81.06,30.92.06,30.92.06l38.43-.22s-.25-9.26-11.48-11.22-30-9.85-36.85-24.7C494.58,1787.39,472.67,1807.13,472.67,1807.13Z"/><path class="cls-9" d="M470.45,1809.32s11.69,3.91,20.81,3.91a76.45,76.45,0,0,0,19.42-2.77s2.2-21.28,14.31-68.15c6.34-24.57,15.41-56.15,28.3-95.4,35.65-108.48,46.49-171.94,47.48-178,.06-.32.08-.48.08-.48l-.12,0-109.6-48.12s13.54,149.5-3.74,206.89a242.49,242.49,0,0,0-6.27,27.49C470.2,1717,470.45,1809.32,470.45,1809.32Z"/><path class="cls-10" d="M525,1742.31c6.34-24.57,15.41-56.15,28.3-95.4,35.65-108.48,46.49-171.94,47.48-178,0-.18,0-.35,0-.53l-109.6-48.12s13.54,149.5-3.74,206.89C485,1635.22,525,1742.31,525,1742.31Z"/><path class="cls-23" d="M558.28,1807.13s2,31.51,8.05,32c.81.06,30.92.06,30.92.06l38.43-.22s-.25-9.26-11.49-11.22-30-9.85-36.84-24.7C580.19,1787.39,558.28,1807.13,558.28,1807.13Z"/><path class="cls-9" d="M620.42,1423.83s1.42,96.88-15.34,215.84S594,1809.12,594,1809.12s-11.52,3.73-16.17,4.11c-11.84,1-24-2.78-24-2.78s-24-119-17.11-178.54-32.86-204.31-32.86-204.31Z"/><path class="cls-6" d="M542.7,1197.11l21.39,14,19.49-5.51c3.56-5.08,4.51-14.88,4.56-23.37a146.94,146.94,0,0,0-.76-15.56L558.51,1154l-10.77-4.74c0,.17.84,8.84,1,10.11C550.7,1181.82,542.7,1197.11,542.7,1197.11Z"/><path class="cls-24" d="M620.91,1450.76c-26.63,25.72-127.41,21.39-133.63-6.94s6.78-241.15,52.27-254.52c9.44-2.78,59.9,13.54,59.9,13.54a320.1,320.1,0,0,1,13.12,47.09c1,5.13,3.95,59.52,6.15,110.4,1,23.79,1.89,46.83,2.34,63.69C621.46,1439.82,621.48,1450.2,620.91,1450.76Z"/><path class="cls-25" d="M550.85,1159.73c5.86,9.9,26.4,18.56,37.29,22.53a146.94,146.94,0,0,0-.76-15.56L558.51,1154C552.13,1153.88,548.24,1155.31,550.85,1159.73Z"/><path class="cls-6" d="M598.26,1165s-46.51,14.5-55.1-14.6-20.37-46.83,9-57.32,38.4-1.1,43.63,7.91S610.14,1160.42,598.26,1165Z"/><path class="cls-26" d="M593.93,1098.14s-3,33.87-10,32.4-14.71-4.62-13.69,5.59-6.81,27.71-16.91,27.67c-21.66-.09-45.19-55.67-39.26-66.21C531.21,1067.18,618.66,1061,593.93,1098.14Z"/><path class="cls-21" d="M587.09,1190c-.6-.25-34.63-15.51-38.61-14.2s-8.93,13.47-8.93,13.47l59.9,13.54S594.74,1193.26,587.09,1190Z"/><path class="cls-27" d="M798.9,1354.86,608.18,1534.42c-3.74,3.52-8.45,4.64-10.47,2.5l-6.44-6.84c-2-2.15-.62-6.79,3.12-10.31L785.11,1340.2c3.74-3.52,8.45-4.64,10.47-2.49l6.44,6.84C804,1346.7,802.64,1351.34,798.9,1354.86Z"/><path class="cls-7" d="M691.87,1455.63l-83.69,78.79c-3.74,3.52-8.45,4.64-10.47,2.5l-6.44-6.84c-2-2.15-.62-6.79,3.12-10.31l83.69-78.8Z"/><path class="cls-27" d="M755.07,1287.06a149.49,149.49,0,1,0,247.77-150.23c-.77-.76-1.55-1.52-2.35-2.26a149.49,149.49,0,0,0-245.42,152.49Zm42.72-138a137.7,137.7,0,1,1,5.93,194.63A137.54,137.54,0,0,1,797.79,1149.09Z"/><g class="cls-28"><path class="cls-29" d="M998.35,1337.78a137.7,137.7,0,1,1-5.94-194.62A137.18,137.18,0,0,1,998.35,1337.78Z"/></g><path class="cls-21" d="M621.06,1424c-105.09-74.88-96.35-174.8-96.35-174.8,38.41,21.66,76.52,69.56,94,111.11C619.74,1384.12,620.61,1407.16,621.06,1424Z"/><path class="cls-6" d="M724.78,1389.92c7.41-1.71,12.38-7.31,13.42-8.29,0,0,3.16.22-.52,7-.31.56-1,2-1.51,3a.66.66,0,0,0,.55.94c4.28.32,8.58-1.37,16.82.35,1.13.23,1.47,3,1.42,4.12a10.52,10.52,0,0,1-2.21,7.18c-1.33,1.75-5,3.63-13.28,7-3.14,1.26-12.13.31-20.55-2.58l-6.73-3.12,2.09-12.5,1.69.35C718.65,1393.89,722,1390.61,724.78,1389.92Z"/><path class="cls-24" d="M557.32,1202.84s-94.42,18,27.78,154.72c19.55,21.87,125.14,50.34,125.14,50.34s10.71-9.11,5.31-16.49c0,0-72.7-52.79-88.7-61.19-7.2-3.77-27.93-84.26-39.66-103.65S557.32,1202.84,557.32,1202.84Z"/><path class="cls-6" d="M739.31,1253.85s3.09-5.91,3.69-9,4.49-12.19,6.1-13.79c.64-.64,2.75.19,3,2.94.11,1.2-.48,3.37-1.52,6-1.68,4.23-1.41,10-2,11.87C747.12,1256.58,739.31,1253.85,739.31,1253.85Z"/><path class="cls-6" d="M776.89,1019.57a5.69,5.69,0,0,0-1,6.09l0,0c1.46,4.06,6.32,8.6,12,13.13.72.58,1.37,1.11,1.92,1.6.15.13.3.26.43.39s.23.2.34.29c5.25,4.85,3.27,6,12.72,15.8,10.76,11.21,18.18,11.42,20.29,10.4,1.79-.87-1.84-6.82-5.85-13.5l-.59-1-1.6-2.69c-4.7-8-3.49-11.81-2.37-23.78.91-9.72,15.14-54.32,15.14-54.32l-20.64-3.56s-6.22,35.51-13.08,41c-3.66,2.91-7.76,2.95-11.28,5.11l-.73.46A27.4,27.4,0,0,0,776.89,1019.57Z"/><path class="cls-10" d="M776.89,1019.57a5.69,5.69,0,0,0-1,6.09l0,0c1.79,4.06,6.52,8.57,12,13.09.72.59,1.34,1.13,1.9,1.64.15.13.3.26.43.39s.23.2.34.29c5.25,4.85,3.27,6,12.72,15.8,10.76,11.21,18.18,11.42,20.29,10.4,1.79-.87-1.84-6.82-5.85-13.5a45.88,45.88,0,0,1-19.2-14.16c-6.25-8-10.49-18.14-14.74-24.38l-1.21-.23A27.4,27.4,0,0,0,776.89,1019.57Z"/><path class="cls-6" d="M943.34,1006.73c1.27,6.38,10.36,5.32,20.5,2.84s7.74.47,22.18-1.12,18.82-7,19.26-9.13c.4-1.9-6.74-2.58-14.39-3.46l-2.9-.35c-8.64-1.09-15-6.66-22.81-11.25-7.44-4.34-18.53-22-18.53-22l-19.8,1.57s10.38,15.79,14.4,22.65c2.36,4,2.24,9.38,1.94,13.5A25.59,25.59,0,0,0,943.34,1006.73Z"/><path class="cls-10" d="M963.84,1009.57c10.15-2.48,7.74.47,22.18-1.12s18.82-7,19.26-9.13c.4-1.9-6.74-2.58-14.39-3.46l-.07.15a40.83,40.83,0,0,1-20.69,6.42c-9.8.23-20.17-2.58-26.94-2.47a25.59,25.59,0,0,0,.15,6.77C944.61,1013.11,953.7,1012.05,963.84,1009.57Z"/><path class="cls-10" d="M867.48,880.06,849,929.88l-24.19,65a39.15,39.15,0,0,1-12.84-1.18c-5.79-1.67-12.42-6-12.42-6s6.73-69.85,19.27-109.94c3.21-10.29,6.81-18.61,10.78-23.3C849,831.53,867.48,880.06,867.48,880.06Z"/><path class="cls-9" d="M848.69,800.94c-10.54-3.41-38-.07-67.87,5.32a20.24,20.24,0,0,1-20.89-9.44h0l-75.06-5.89s-24.79,54.92-11.24,89.93c2,5.14,6.37,8.35,13.12,8.46h0s45.36.08,59.86.09c37.33,0,79-25.64,84.41-26.71,8.82-1.76,12.35,15.88,21.16,34.42s82.92,82.09,82.92,82.09,11.39.12,16.1-1.65c5.06-1.89,6.91-4.36,6.91-4.36S876,809.77,848.69,800.94Z"/><path class="cls-10" d="M752,576.39a26.65,26.65,0,0,0-14.33-3.74,39.22,39.22,0,0,1-6.93-.42c-28.64-4.21-45.91,37.4-46.92,50-1.87,23.08-14.08,26.6-31.27,41-34.48,29-24.39,62.66-5.54,75.19,11.3,7.51,31.23,0,31.23,0,.29.19,54.52-30.3,81.26-45C799.6,687.76,768.13,586,752,576.39Z"/><path class="cls-6" d="M737.13,680.91c.12.07-13.15,4.6-22,.67-8.34-3.69-14.66-17.43-14.54-17.44,3.8-.17,8-3.49,11.19-25.27l1.62.58,27.18,9.79s-2,8.72-3.25,17C736.22,673.24,735.64,679.92,737.13,680.91Z"/><path class="cls-30" d="M740.55,649.24s-1.09,4.71-2.67,13.5c-15.62-2.82-22.32-14.85-24.51-23.29Z"/><path class="cls-6" d="M744.59,657.9s-37.19-5-33.72-28.12,1-39.33,24.91-37.11S763,604.4,763.67,612.4,754.36,658.61,744.59,657.9Z"/><path class="cls-10" d="M762.32,599.73s-23.82,20.51-40,22.16S700,618.34,700,618.34a63.25,63.25,0,0,0,15.29-20.71,11.43,11.43,0,0,1,9.4-6.72C736.23,589.92,758.15,589.47,762.32,599.73Z"/><path class="cls-10" d="M747.43,597.89s8,7.7,10.47,13.41c2.42,5.52,3.14,18.7,1.21,23.94,0,0,12.42-24.13,5.4-35.86C757.06,587,747.43,597.89,747.43,597.89Z"/><path class="cls-24" d="M768.43,735.71c-1.15,75.29-.33,59.56-8.57,66.7-2,1.72-7.56,2.74-14.9,3.23-23.09,1.52-63.68-2.3-65.22-6.56-5.32-14.77-1.56-19.35-6-42-.46-2.4-1-5-1.71-7.84-3.7-15.52-7.3-20.8,5.85-45.74,11.93-22.59,24.31-40.92,25.43-40.25,31.43,18.67,34,3,34,3S769,699,768.43,735.71Z"/><path class="cls-9" d="M849,929.88l-24.19,65a39.15,39.15,0,0,1-12.84-1.18c-5.79-1.67-12.42-6-12.42-6s6.73-69.85,19.27-109.94Z"/><path class="cls-24" d="M737.3,666.27s32.35,5.5,36.15,19.43,16.27,98.49,16.27,98.49-9.13,8.91-16.72,1.31-23.89-79.13-23.89-79.13Z"/><path class="cls-21" d="M745,805.64c-23.09,1.52-63.68-2.3-65.22-6.56-5.32-14.77-1.56-19.35-6-42l11.14-31.35s-1.85,34.92,8.45,44.1,42.15,17.75,47.15,25.42A28.19,28.19,0,0,1,745,805.64Z"/><path class="cls-6" d="M718.51,790.94s22.78-5.06,26.45-3,12.65,9.39,13.78,12-8.18-2-11.21-2.76c-2-.53-7.12,1.26-9.68,2.11-10.75,3.58-17.33,1.74-17.33,1.74Z"/><path class="cls-24" d="M703.3,663.27s-30.59,1.87-41.18,16.63c-14.91,20.79-44.5,109.36-27.56,121.18,19.07,13.31,86.84,3.51,86.84,3.51s2.26-10.54-.88-15.64-54.12-13.35-56.47-15.7,29.43-45.88,29.43-52.94S703.3,663.27,703.3,663.27Z"/><path class="cls-6" d="M746.06,794.24s4.77,6.16,6.34,6.89a4.66,4.66,0,0,0,2.57.56l-3.21-5.79Z"/><path class="cls-6" d="M745,787.9l13.87,6.74a2.46,2.46,0,0,1-2.29.89,33.13,33.13,0,0,1-6-1.66Z"/><polygon class="cls-10" points="863.44 803.78 718.5 803.73 718.5 806.93 862.15 806.98 863.44 803.78"/><polygon class="cls-10" points="752.39 806.94 862.15 806.98 895.2 724.89 785.61 724.85 752.39 806.94"/><path class="cls-1" d="M834.46,765.92c.83-2.89-.84-5.23-3.73-5.23a7.49,7.49,0,0,0-6.72,5.22c-.83,2.89.84,5.23,3.72,5.23A7.5,7.5,0,0,0,834.46,765.92Z"/><path class="cls-26" d="M1577.27,1116.56c-14.78-4.91-25,1.29-25,1.29-42.57,1.75-44.15,45.38-39.15,61.63,7,22.8-17.82,40.79,9.72,50,32,10.71,58.78-2,57,3.52C1680.84,1241,1610.9,1127.73,1577.27,1116.56Z"/><path class="cls-24" d="M1533.12,1328.8a112.32,112.32,0,0,1-11.38,17.22c-8.85,11.07-55.26-15.22-51.27-17.22s27.33-69.19,32.88-77.64,24.48-12.83,24.48-12.83Z"/><path class="cls-31" d="M1689.76,1782s12.81,11.69,10.31,20-14.06,13.84-15.62,24-7.82,15.69-13.44,15.69h-26.82s-4.14-7.15,5.86-9.3,13.77-14.09,13.15-25.16.93-25.85.93-25.85l21.25-4.92Z"/><path class="cls-8" d="M1581.32,1787s4.61,49.53-1,52.3l-72-.15s0-8.3,11.56-10.15,31.87-8.62,35.31-23.69S1581.32,1787,1581.32,1787Z"/><path class="cls-24" d="M1636.69,1295.39a284.79,284.79,0,0,1,0,33.27c-.71,12-12.88,28.14-14.6,32.13-4.34,10-9.22,11.62-9.22,11.62l-37.79,9.27-13.29,3.25-41.91-12.52s-19.08-53.27-11.42-83.26,19.37-50.82,19.37-50.82,28.48-6.4,78.72-2.84Z"/><path class="cls-21" d="M1640.29,1329.08c-.71,12-16.48,27.72-18.2,31.71-4.34,10-9.22,11.62-9.22,11.62l-37.79,9.27-6.83-19.56s55.22-14.51,46.34-65.62Z"/><path class="cls-10" d="M1522.55,1380.5s-20.75,64.59-22.09,86.59,39.67,312.41,41.32,322.55c1.56,9.55,13.42,15.64,13.42,15.64a17.93,17.93,0,0,0,13.24,1c10.8-3,14.22-6.7,14.22-6.7s16.15-207.13,6.15-281.12a1173.05,1173.05,0,0,1-10.11-138Z"/><path class="cls-9" d="M1610.47,1378.57s31.66,42.48,34.61,71.19,4.63,129.56,10.92,157.55,29.38,81.86,29.38,169.16c0,0-2.4,5-9.81,7.67a82.21,82.21,0,0,1-8.63,2.39,13.57,13.57,0,0,1-15.18-7.21c-15.62-31.44-65.37-132.86-67.92-153.91-1.8-14.9-17.51-113.5-51.77-171.35-8.23-13.89,5-69.13,5-69.13Z"/><path class="cls-10" d="M1519.23,1370.53s8.33,6.59,24.88,6.92c19.77.4,68.76-5,68.76-5a40.76,40.76,0,0,1,2.09,12.5s-59.83,15.09-94.5,2.21C1520.46,1387.12,1516,1378.7,1519.23,1370.53Z"/><path class="cls-1" d="M1539.37,1394.49c-5,0-9-4.58-9-10.21s4.05-10.21,9-10.21,9,4.58,9,10.21S1544.35,1394.49,1539.37,1394.49Zm0-17.43c-3.32,0-6,3.24-6,7.22s2.71,7.22,6,7.22,6-3.24,6-7.22S1542.7,1377.06,1539.37,1377.06Z"/><polygon class="cls-15" points="1582.59 1413.06 1492.67 1413.9 1448.43 1309.91 1538.35 1309.07 1582.59 1413.06"/><path class="cls-6" d="M1570.83,1366.07l-6.59-8.1s-4.46-4-7.7-4.66-10.07-4.62-10.73-3.5,5.25,9,5.25,9l.3,0c-6.79,5.11-23.93.6-26,2.68-2.57,2.53,3.53,8,6.8,11s12.62,8.17,19.91,5.91c5.32-1.66,13.71-3.35,13.71-3.35Z"/><path class="cls-6" d="M1455.19,1328.21s5.65-6.43,9.25-3.34-.94,18.23-4.37,16.69S1453.22,1330.09,1455.19,1328.21Z"/><path class="cls-24" d="M1606.55,1235.49s25.74,2.84,44.22,36.41c14.56,26.46,39.47,75.26,30.07,89-4.13,6-43.67,27.58-119.94,15.28,0,0,1.2-9.64,7.35-14.1,0,0,64.19-20.61,64.08-24.71-.21-7.75-8.67-14.45-44.53-50.32C1578.05,1277.34,1606.55,1235.49,1606.55,1235.49Z"/><path class="cls-6" d="M1586.74,1236.85c.89-1.18-.25-5-1.67-12-1.28-6.38-3.45-16.24-3.4-27.34l-1.9.31-31.9,5.37s.72,8.53.74,16.57a1.27,1.27,0,0,1,0,.2c0,7-1.89,17.52.47,18.9C1561.17,1245.94,1583.34,1241.42,1586.74,1236.85Z"/><path class="cls-32" d="M1547.87,1203.18s.63,12,.65,20.07c17.86-.43,27.38-17.77,31.25-25.44Z"/><path class="cls-6" d="M1545.94,1217.53s41.82-6,37.71-32-1.48-44.26-28.35-41.55-30.49,13.44-31.23,22.45S1535,1218.41,1545.94,1217.53Z"/><path class="cls-26" d="M1536.2,1146.42s16.27,28.66,34.52,30.38,25.1-4.2,25.1-4.2a50.22,50.22,0,0,1-20.91-26.73S1542.5,1130.54,1536.2,1146.42Z"/><path class="cls-26" d="M1539.42,1148.44s-8,4.52-10.46,11.25a42.46,42.46,0,0,0-1.84,24.75s-11.91-19.35-4.11-32.61C1531.29,1137.77,1539.42,1148.44,1539.42,1148.44Z"/><rect class="cls-33" x="139.62" y="1837.96" width="2324.14" height="7.47" rx="2.9"/><path class="cls-34" d="M1772.21,1798.12h96.3a20.39,20.39,0,0,1,0,40.78h-96.3a20.39,20.39,0,1,1,0-40.78Z"/><path class="cls-35" d="M1821.89,1798.12h46.63a20.39,20.39,0,0,1,0,40.78h-46.63a20.39,20.39,0,0,1,0-40.78Z"/><rect class="cls-36" x="1767.7" y="1802.64" width="97.64" height="6.43" rx="2.89"/><path class="cls-37" d="M1863,1751.1l91.28,45.75h0a21.62,21.62,0,1,1-19.37,38.65l-91.27-45.74A21.62,21.62,0,0,1,1863,1751.1Z"/><path class="cls-38" d="M1910.09,1774.7l44.19,22.15a21.62,21.62,0,1,1-19.37,38.65l-44.19-22.15a21.62,21.62,0,0,1,19.37-38.65Z"/><path class="cls-39" d="M1854.89,1756.6l.32-.62a3.08,3.08,0,0,1,4.11-1.36l87.07,43.63a3.08,3.08,0,0,1,1.36,4.11l-.31.62a3.06,3.06,0,0,1-4.11,1.36l-87.06-43.62A3.09,3.09,0,0,1,1854.89,1756.6Z"/><path class="cls-15" d="M392.3,1814.93H337.91a11.52,11.52,0,0,0,0,23H392.3a11.52,11.52,0,0,0,0-23Z"/><path class="cls-14" d="M364.24,1814.93H337.9a11.52,11.52,0,0,0,0,23h26.34a11.52,11.52,0,1,0,0-23Z"/><rect class="cls-36" x="339.7" y="1817.49" width="55.14" height="3.63" rx="1.63"/><path class="cls-11" d="M341,1788.38l-51.56,25.84h0a12.21,12.21,0,0,0,10.94,21.83L352,1810.21A12.21,12.21,0,1,0,341,1788.38Z"/><path class="cls-7" d="M314.42,1801.71l-24.95,12.51a12.21,12.21,0,1,0,10.94,21.83l25-12.51a12.21,12.21,0,0,0-10.95-21.83Z"/><path class="cls-39" d="M345.6,1791.49l-.18-.35a1.73,1.73,0,0,0-2.32-.78L293.93,1815a1.73,1.73,0,0,0-.77,2.32l.17.35a1.74,1.74,0,0,0,2.32.77l49.17-24.64A1.73,1.73,0,0,0,345.6,1791.49Z"/></g></svg>