<svg xmlns="http://www.w3.org/2000/svg" xmlns:xlink="http://www.w3.org/1999/xlink" viewBox="0 0 2600 2000"><defs><style>.cls-1{fill:none;}.cls-2{fill:#fff;}.cls-3{fill:#ceecfa;}.cls-4{fill:#2f3550;}.cls-5{clip-path:url(#clip-path);}.cls-6{fill:#afbcd5;}.cls-7{fill:#bbcdf7;}.cls-8{fill:#eb9677;}.cls-9{fill:#d2887f;}.cls-10{fill:#c36054;}.cls-11{fill:#4a4e8c;}.cls-12{fill:#43477f;}.cls-13{fill:#80bef7;}.cls-14{fill:#7aa6c9;}.cls-15{fill:#b93831;}.cls-16{fill:#d78168;}.cls-17{fill:#b4675a;}.cls-18{fill:#eed4c0;}.cls-19{fill:#edbf41;}.cls-20{fill:#d1aa3a;}.cls-21{fill:#c986bb;}.cls-22{fill:#dbaed2;}.cls-23{fill:#6558f5;}.cls-24{fill:#8b82f7;}.cls-25{fill:#f1b6b5;}.cls-26{fill:#8c9ed7;}.cls-27{fill:#7889cf;}.cls-28{fill:#b75da4;}.cls-29{fill:#ab5449;}</style><clipPath id="clip-path"><path class="cls-1" d="M2373.27,1813.32c-148.19,0-2151.66-4.33-2151.66-4.57-.83-1.94-254.34-312.65,64.88-637.5,158.17-161-145.25-369.49,0-548.53,248.8-306.7,495-134,700.07-220.23,36.24-15.23,72.6-39.73,109-77.34a405.16,405.16,0,0,1,67-55.61q5.54-3.69,11.17-7.19a446.84,446.84,0,0,1,44.69-24.26q15.49-7.31,31.57-13.51h0a517,517,0,0,1,52.31-17,592.34,592.34,0,0,1,78-15.31q17.4-2.27,35.08-3.57c229.16-17.23,487,79.67,620.13,221.29,26.79,28.52,148.63,176.09,52.59,378.91-60.64,128.06,193.39,250.37,283.67,396.6C2601.28,1557.26,2375.35,1808.47,2373.27,1813.32Z"/></clipPath></defs><g id="Calque_3" data-name="Calque 3"><rect class="cls-2" width="2600" height="2000"/><path class="cls-3" d="M2373.27,1813.32c-148.19,0-2151.66-4.33-2151.66-4.57-.83-1.94-254.34-312.65,64.88-637.5,158.17-161,.73-348.17,115.52-548.11,194.08-338,379.46-134.4,584.55-220.65,36.24-15.23,72.6-39.73,109-77.34a405.16,405.16,0,0,1,67-55.61q5.54-3.69,11.17-7.19a446.84,446.84,0,0,1,44.69-24.26q15.49-7.31,31.57-13.51h0a517,517,0,0,1,52.31-17,592.34,592.34,0,0,1,78-15.31q17.4-2.27,35.08-3.57c229.16-17.23,487,79.67,620.13,221.29,26.79,28.52,148.63,176.09,52.59,378.91-60.64,128.06,193.39,250.37,283.67,396.6C2601.28,1557.26,2375.35,1808.47,2373.27,1813.32Z"/><rect class="cls-4" x="137.93" y="1805.85" width="2324.14" height="7.47" rx="2.9"/><g class="cls-5"><rect class="cls-6" x="-171.87" y="1558.08" width="2924.5" height="247.77"/><rect class="cls-7" x="-171.87" y="1597.86" width="2924.5" height="207.98"/></g><g id="_7" data-name="7"><path class="cls-8" d="M907.74,1800.7l-108.19,1.73a8.62,8.62,0,0,1-8.74-8.94,70.06,70.06,0,0,1,.83-8.4,145.28,145.28,0,0,0,1.62-27.32q-.22-6.55-1-13.1l-9-75.78a8.6,8.6,0,0,1,8.41-9.6l47.75-.76a8.6,8.6,0,0,1,8.69,9.52l-7.59,69.3a30.11,30.11,0,0,0,23.2,32.57c10.6,2.45,21.35,3.85,29,5.71,1,.24,2,.49,2.94.75h0c8.17,2.19,14.94,5.12,18.92,10.76A8.6,8.6,0,0,1,907.74,1800.7Z"/><path class="cls-9" d="M787.62,1791.4c.37,5.3,3.1,11.3,9.24,11.07l112.23-1.79a8.33,8.33,0,0,0,7.68-11.33c-4.55-12.17-20.32-30.16-73.4-32.31-7.6.86-24.92,3.74-50.11.73C793.26,1757.77,784.85,1771.45,787.62,1791.4Z"/><path class="cls-10" d="M916.77,1789.35l-129.15,2.05a29.59,29.59,0,0,0,3.72,11.16l117.75-1.88a8.33,8.33,0,0,0,7.75-11.14C916.82,1789.47,916.79,1789.41,916.77,1789.35Z"/><path class="cls-11" d="M870.69,1707.6c-1.7,14.39-2.85,22.88-2.85,22.88s-43.48,13.79-85.88,7.85c-3.43-.48-6.87-1.1-10.27-1.86,0,0-.56-7.32-1.57-19.61-4.74-57.65-19.45-224.73-33.18-259.14-11.07-27.73-31.19-60.31-53.36-87.72a327,327,0,0,0-24.7-27.4,190,190,0,0,0-21.23-18.2c-48.19-34.86-75.38-104.27-78.32-178.49-.43-10.67-.35-21.45.23-32.23.69-12.63,81.56,25.81,81.56,25.81l144.27,43.25s63.54,116.46,89.76,227.52C893.72,1488.93,877.66,1648.33,870.69,1707.6Z"/><path class="cls-12" d="M782,1738.33c-3.43-.48-6.87-1.1-10.27-1.86,0,0-18.1-237-34.75-278.75-15.1-37.82-47.06-84.7-78.06-115.12l26.69-45.37c3.2,0,63.85,72.61,75,178C769.56,1559.74,778.7,1690.15,782,1738.33Z"/><path class="cls-8" d="M605.88,896.9C522.21,781,526.12,661.83,570.91,532c7.55-21.25,40.06-11,33.94,10.77-.72,3.31-2.39,15.84-2.39,15.84-22.21,108.49-15.09,199.27,68.72,279.6l-.08-.12C709.36,881,644.49,939.37,605.88,896.9Z"/><path class="cls-13" d="M690.34,926c-26.54,23.1-110.8-12.35-110.8-12.35s-23-36.38-37.8-96.69A424.05,424.05,0,0,1,530,738c-4.11-78,17.45-145.71,29.19-176.18,4.24-11,7.2-17.16,7.2-17.16,18.2,17.49,36,14,36,14s0,6,0,15.84c.22,39.44,1.93,140.79,13.88,167.33,14.93,33.19,55.24,86.61,55.24,86.61S716.88,903,690.34,926Z"/><path class="cls-14" d="M605.77,891l-26.23,22.66s-23-36.38-37.8-96.69C541.74,817,567.46,867.09,605.77,891Z"/><path class="cls-8" d="M771,847.64c31.71,17.42,56.94,44.64,89.37,59.83,64.69,25.87,14-102.71,9.8-129.35-2.72-16.38-19.35-70,9.39-68.44a14,14,0,0,1,11.91,11.86c2.26,9.82,7.68,21.35,12.52,31.12,35.8,66.88,100,172.9,7.87,225.08-67.76,34-131.55-27-179.61-67.86C695.55,882.79,731,826.48,771,847.64Z"/><path class="cls-13" d="M963.21,920.44c-10.51,78.79-78,93.61-133.31,84.63A178.06,178.06,0,0,1,796,996.13L776.18,939l-35-101.24s27.53-8.31,59,13.38,65.25,44.79,74.6,39.89c7.34-3.83-3.5-92.12-8.56-130.34-1.41-10.63-2.37-17.38-2.37-17.38s17.58,7.3,34.18-3.9c0,0,4.1,5.29,10.27,14.45C928.7,784.19,971.7,856.86,963.21,920.44Z"/><path class="cls-8" d="M863.06,737s-13.54-37.55.43-45L898,711s-.32,16.78-6.34,29.62Z"/><path class="cls-14" d="M829.9,1005.07A178.06,178.06,0,0,1,796,996.13L776.18,939l11.35-33.12S820.2,949.15,829.9,1005.07Z"/><path class="cls-8" d="M504.3,1804.18l-95.07-51.7a8.61,8.61,0,0,1-3.21-12.07,68.45,68.45,0,0,1,4.85-6.92,144.06,144.06,0,0,0,14.84-23q3-5.82,5.57-11.9l29.42-70.41a8.6,8.6,0,0,1,12-4.23l42,22.82a8.59,8.59,0,0,1,2.88,12.56L476.91,1716a30.09,30.09,0,0,0,4.19,39.76c8,7.35,16.69,13.86,22.49,19.25.74.71,1.48,1.41,2.19,2.11h0c6,5.92,10.49,11.8,11.18,18.67A8.61,8.61,0,0,1,504.3,1804.18Z"/><path class="cls-9" d="M404.26,1737c-2.27,4.79-2.85,11.36,2.61,14.18l98.61,53.62a8.34,8.34,0,0,0,12.26-6.1c2-12.83-2.87-36.25-48-64.21-7-3-23.54-9-44-24C425.71,1710.5,411.66,1718.28,404.26,1737Z"/><path class="cls-10" d="M517.74,1798.72,404.26,1737a29.54,29.54,0,0,0-2.24,11.54l103.46,56.26a8.33,8.33,0,0,0,12.23-5.9Z"/><path class="cls-11" d="M721.43,1188.09s-16.22,92.32-37.85,181.91c-8.31,34.41-17.41,68.43-26.7,96.66-24.83,75.41-107.55,190.92-141.16,236.06-8.93,12-14.39,19-14.39,19s-49.43-9.27-83.94-40.38c0,0,3.55-8.5,9.55-22.83,18.27-43.74,59.18-141.8,90.79-218.71,27.24-66.27-34.56-186.8,8.8-302.44l32.8,8.53Z"/><path class="cls-15" d="M768.37,723.15s11.77-33-16.25-49.07l-21.25,11Z"/><path class="cls-8" d="M728.72,833.46c5-26.3,17.06-73.62-2.73-85.29-13.93-7.63-33.57,2-31.82,19.47,1.48-.62-2.24,47.65-7.43,60.35C645.72,833.12,756.67,891.43,728.72,833.46Z"/><path class="cls-16" d="M694.13,765.41c0,.74,0,1.49,0,2.23,1.07-.48-.64,26.21-3.83,45.25,16.52,11.15,36.53,11,40.31,10.82,6.07-28.2,14.28-62.68-4.66-75.54C713,739.85,694.24,749.77,694.13,765.41Z"/><path class="cls-8" d="M667.94,741.63c-.13,19.54,2.67,42.06,15.58,57.18h0c.53.61,1.05,1.18,1.62,1.75,0,0,0,0,0,.05,19.52,18.51,50.46,21.78,75.19,7.58h0c19.89-13.17,29-33.87,22.74-52.06-4.27-10.82-13.71-21.29-14.77-33C762,652.19,668.38,666,667.94,741.63Z"/><path class="cls-17" d="M742.51,742.14c2.3-3-2.49-6.56-4.7-3.48S740.3,745.21,742.51,742.14Z"/><path class="cls-17" d="M767.4,742.15c2.3-3-2.49-6.56-4.69-3.48S765.19,745.22,767.4,742.15Z"/><path class="cls-16" d="M667.94,741.63c-.13,19.54,2.67,42.06,15.58,57.18h0c.53.61,1.05,1.18,1.62,1.75-15.31-30.65-11.19-37-4.29-58.29,22.55-16,21.76-37.95,42.88-37.86a266,266,0,0,0,39-2.87C740.5,650.25,667.64,680.36,667.94,741.63Z"/><path class="cls-18" d="M521.14,1147.58s-5.81,14.29,24.29,26.89,116.31,33.59,132.33,44.79c0,0,13.35-7.54,17.42-17.5l13.3,17.5s82.57-8.18,87.82-30.68Z"/><path class="cls-17" d="M756.44,765.84c4.81-.12,11-2.33,5.79-7.35-4.94-3.86-7-15.81-7.07-15.93-4.92-4.58.09,13.36,5.71,17.67,3.82,3.33-5.5,4.37-9,2.46C746.94,763.48,754.31,766.47,756.44,765.84Z"/><path class="cls-13" d="M517.74,1144.79c26,25.76,220.56,64.79,278.56,43.79,0,0,4.1-80.12,9.11-144.65,5.24-67.5-9.11-161.68-64.28-206.15-.49-.2-8-3.56-12.39-4.29.2,7.87-1.6,30.64-42-5.5-.18.16-11.73-.09-15.77.16C586.08,833.43,547.53,981.32,517.74,1144.79Z"/><path class="cls-15" d="M654.21,713.91c1.49-56.27,51.57-52.85,51.57-52.85h0c25.09-28.72,82.75-11.6,65,25.74-13.53,28.55-52.31-4.12-76,31C685.34,732,679.46,740.67,663,747.91,663,747.91,653.74,731.43,654.21,713.91Z"/><path class="cls-8" d="M654.24,749.21c.67,22.24,28.72,21.08,27.55-1.14C681.12,725.83,653.07,727,654.24,749.21Z"/><path class="cls-17" d="M674.09,741.55c.77-2.26-6.25-5.12-11.32-2.54-2.59,1.16-6,10.56-2.24,15.84a1.11,1.11,0,0,0,1.1-1.25c-.6-4.63-.39-8.13.57-10.4a1.43,1.43,0,0,0,.28.13c.3.06,7.32,1.74,9.1,11.73a1.23,1.23,0,0,0,1.2,1l.22,0a1.22,1.22,0,0,0,1-1.42c-1.77-9.92-8.2-12.8-10.31-13.49a3.74,3.74,0,0,1,.31-.27C668.78,738.14,672.34,743.49,674.09,741.55Z"/><path class="cls-4" d="M1035.5,816.09a8.39,8.39,0,0,1-4.71-1.45L429.61,404.56A8.37,8.37,0,1,1,439,390.73l601.18,410.08a8.37,8.37,0,0,1-4.72,15.28Z"/><polygon class="cls-19" points="524.96 338.79 400.54 522.46 282.01 442.17 405.86 259.32 524.96 338.79"/><polygon class="cls-20" points="543.28 311.74 524.96 338.79 405.86 259.32 424.75 231.44 543.28 311.74"/><path class="cls-17" d="M749,733.41a1,1,0,0,1-.24,0L732.58,730a1.14,1.14,0,0,1,.47-2.24l16.18,3.43a1.14,1.14,0,0,1-.24,2.25Z"/><path class="cls-17" d="M760.19,733.73a1.15,1.15,0,0,1-.55-2.15l7.93-4.35a1.14,1.14,0,1,1,1.1,2l-7.93,4.35A1.14,1.14,0,0,1,760.19,733.73Z"/><path class="cls-17" d="M745,781.83a11.53,11.53,0,0,1-4-.75,10.54,10.54,0,0,1-4.91-3.61,5.07,5.07,0,0,1,3.14-8.36,11.24,11.24,0,0,1,11,4.11,5.08,5.08,0,0,1-3.14,8.37A8.93,8.93,0,0,1,745,781.83Zm-3.66-10.67a6.6,6.6,0,0,0-1.56.17,2.83,2.83,0,0,0-1.81,4.82,9,9,0,0,0,8.59,3.22,3.24,3.24,0,0,0,2.46-1.83h0a3.26,3.26,0,0,0-.65-3,8.26,8.26,0,0,0-3.86-2.79A9.06,9.06,0,0,0,741.33,771.16Z"/><path class="cls-8" d="M898.83,703.18c4.78-12.07-11.32-16.4-8.61-2.45l.07-.22C887.82,707.09,896.66,709.39,898.83,703.18Z"/><path class="cls-8" d="M891.83,697.94c2.82-14.61-15.21-12.92-9.17-1.51-.06-.28.08,1.25,0,1C881.56,704.42,891,704.12,891.83,697.94Z"/><path class="cls-8" d="M884.66,692.21l-.56-4.93c-1-6.85-10.28-3-9.25,2.68l.56,4.93C876.44,701.74,885.69,697.89,884.66,692.21Z"/><path class="cls-8" d="M877.66,688.21l-.56-4.92c-1-6.86-10.28-3-9.25,2.67l.56,4.93C869.44,697.74,878.69,693.89,877.66,688.21Z"/><path class="cls-8" d="M567.86,498.86l9.47,6.46c0-.06,8.88-13.87,8.88-13.87,3.39-4.32,8-3.75,10-1.85,2.55,2.43,1.36,6.53,1.36,6.53,3.2-5.9,8.69-2.8,9.68.39a10.72,10.72,0,0,1-.06,5.27c3.25-4.18,7.38-2.06,8.3,1.49A12.19,12.19,0,0,1,615,510c7.29-8.54,11.33,1.25,8.69,6.93-1.34,2.88-11.66,26-20.22,31.72-5.49,3.7-35.39-7.56-33.54-13.68,0,0,.22-13.52.27-16.49C569.33,511.77,567.14,506.18,567.86,498.86Z"/><path class="cls-8" d="M865,690.17l.09.82c0,.3.06.61.11.92.07.62.18,1.25.28,1.88.22,1.25.47,2.51.77,3.75a58.45,58.45,0,0,0,2.22,7.29,55.45,55.45,0,0,0,3.07,6.84,57.1,57.1,0,0,0,3.86,6.24l.08.11a7.34,7.34,0,0,1-12.09,8.33,8.16,8.16,0,0,1-.66-1.19,69.86,69.86,0,0,1-3.29-8.61,67.21,67.21,0,0,1-2.1-8.82,70.19,70.19,0,0,1-1-8.89c-.07-1.48-.08-3-.06-4.45,0-.75,0-1.49.09-2.25,0-.38,0-.76.08-1.14l.12-1.24a4.19,4.19,0,0,1,8.33-.06Z"/><path class="cls-18" d="M688.11,823.74l-16.76,4.39s16.21,34.46,49.8,36l3.43-12.76,8.24,11.2s9.63-8.57,8.31-24.81l-12-6.67s-.92,13.7-9,12.83C705.21,842.32,688.11,823.74,688.11,823.74Z"/><path class="cls-14" d="M602.46,574.48c-22.45,7.44-43.24-12.67-43.24-12.67,4.24-11,7.2-17.16,7.2-17.16,18.2,17.49,36,14,36,14S602.42,564.63,602.46,574.48Z"/><path class="cls-14" d="M908.28,753.88c-20.32,19.06-42.08,6.83-42.08,6.83a114,114,0,0,1-2.65-18s17.86,7.93,34.46-3.27C898,739.43,902.11,744.72,908.28,753.88Z"/><path class="cls-12" d="M426.94,1658.53s40.24,35.52,88.78,44.19c-8.93,12-14.39,19-14.39,19s-49.43-9.27-83.94-40.38C417.39,1681.36,420.94,1672.86,426.94,1658.53Z"/><path class="cls-12" d="M870.69,1707.6c-1.7,14.39-2.85,22.88-2.85,22.88s-43.48,13.79-85.88,7.85c-3.43-.48-6.87-1.1-10.27-1.86,0,0-.56-7.32-1.57-19.61C770.12,1716.86,818,1722.15,870.69,1707.6Z"/></g><g id="_6" data-name="6"><path class="cls-21" d="M1667,504.6c-2.18,127.31-191.55,127.29-193.7,0C1475.45,377.29,1664.82,377.31,1667,504.6Z"/><path class="cls-22" d="M1652.61,504.6c-1.85,108.43-163.14,108.41-165,0C1489.49,396.17,1650.78,396.18,1652.61,504.6Z"/><path class="cls-21" d="M1570.13,508.66c-.12,2.91-30.76-29.49-31.24-29.55a4.06,4.06,0,0,1,5.74-5.75l21.43,21.42v-50a4.07,4.07,0,1,1,8.13,0v59.8A4.08,4.08,0,0,1,1570.13,508.66Z"/></g><g id="_5" data-name="5"><polygon class="cls-23" points="1938.68 1432.15 1688.51 1432.15 1740.19 1083.51 1990.36 1083.51 1938.68 1432.15"/><path class="cls-24" d="M1771.55,1717.43a12.86,12.86,0,0,1-12.9-12.83V1469a12.9,12.9,0,0,1,25.8,0V1704.6A12.87,12.87,0,0,1,1771.55,1717.43Z"/><path class="cls-24" d="M1896.51,1769.17c-23.78-.62-.5-40.68-44.8-44.54h-164a31.84,31.84,0,0,0-31.9,31.71c0,16.75-25.76,16.78-25.8,0,0-31.63,25.88-57.36,57.7-57.36h164C1892.29,1694,1931.29,1762.6,1896.51,1769.17Z"/><path class="cls-23" d="M1796.34,1473.57h-49.59c-15.65-.35-19.63-14.34-18.23-27.51h86C1816,1459.23,1812,1473.22,1796.34,1473.57Z"/><path class="cls-23" d="M1802,1730.8h-60.87c-14.2-.22-12.89-15.45-12.59-25.47a12.56,12.56,0,0,1,12.59-12.52H1802a12.55,12.55,0,0,1,12.59,12.52C1814.85,1715.35,1816.22,1730.57,1802,1730.8Z"/><path class="cls-23" d="M1667.26,1756.34c-.55,31.86-48.21,31.85-48.75,0C1619.06,1724.49,1666.71,1724.5,1667.26,1756.34Z"/><path class="cls-23" d="M1920.88,1756.34c-.55,31.86-48.21,31.85-48.75,0C1872.68,1724.49,1920.34,1724.5,1920.88,1756.34Z"/><path class="cls-7" d="M1941.85,1429.08H1591.58c0-38,78.4-68.84,175.14-68.84S1941.85,1391.07,1941.85,1429.08Z"/><polygon class="cls-24" points="1959.51 1417.87 2009.37 1087.78 1990.29 1083.51 1939.79 1417.87 1588.09 1417.87 1588.09 1446.44 1959.64 1446.06 1959.51 1417.87 1959.51 1417.87"/></g><g id="_4" data-name="4"><path class="cls-25" d="M1341.06,853.55h164.42c.52,6.12-.2,14.26-8.16,14.29H1349.23C1341.35,867.84,1340.48,859.65,1341.06,853.55Z"/><polygon class="cls-23" points="1247.37 1198.36 1233.32 1198.36 1233.32 941.31 1334.61 840.02 1505.48 840.02 1505.48 854.07 1340.43 854.07 1247.37 947.13 1247.37 1198.36"/><path class="cls-11" d="M1302.53,1210.88H1178.16c-.69-11.21-.14-24.48,14.3-25h95.77C1302.61,1186.37,1303.26,1199.68,1302.53,1210.88Z"/></g><g id="_3" data-name="3"><rect class="cls-24" x="1109.14" y="1233.71" width="1026.41" height="47.9"/><polygon class="cls-11" points="2223.99 1210.36 1020.7 1210.36 1020.7 1235.47 1089.07 1235.47 1089.07 1805.85 1115.67 1805.85 1115.67 1235.47 2129.02 1235.47 2129.02 1805.85 2155.62 1805.85 2155.62 1235.47 2223.99 1235.47 2223.99 1210.36"/></g><g id="_2" data-name="2"><path class="cls-26" d="M2088.47,1121h-22.81C2001.32,885.52,2154.84,933.67,2088.47,1121Z"/><path class="cls-13" d="M2088.47,1121s-17.08,4-16.39,0c17.68-102.76,1-159,1-159C2135.19,957.82,2088.47,1121,2088.47,1121Z"/><path class="cls-27" d="M2151.85,1018.28c-3.46,37.83-27,71.68-46.64,102.75h-26.05c2.32-35.83,8.12-74.68,28-105.55C2116.48,993.32,2151.91,987.92,2151.85,1018.28Z"/><path class="cls-26" d="M2151.85,1018.28c0,1.39-.41,4.35-.41,4.35-18.53-3-29.38-11.87-35.22-18.86a15.69,15.69,0,0,1,3.25-2.87C2124.8,1007.28,2134.9,1015.52,2151.85,1018.28Z"/><path class="cls-26" d="M2147.83,1040.1c-.43,1.36-.9,2.76-1.4,4.16-26.49-3.22-38.11-18.38-41.81-24.64.81-1.4,1.68-2.78,2.58-4.14C2109.67,1020.36,2121.52,1037.25,2147.83,1040.1Z"/><path class="cls-26" d="M2140.72,1058.62c-.61,1.36-1.24,2.74-1.86,4.1-25.2-1.15-38.73-13.22-44.75-21.15.61-1.61,1.24-3.22,1.92-4.8C2100.94,1044.3,2115.82,1057.72,2140.72,1058.62Z"/><path class="cls-26" d="M2129.29,1081.64c-.75,1.36-1.48,2.69-2.22,4-20.93-1.54-33.73-10.38-40.73-18.06.22-1.81,1.08-3.14,1.47-4.69C2095.47,1070.69,2107.29,1080.23,2129.29,1081.64Z"/><path class="cls-26" d="M2116,1104.18c-.86,1.36-1.7,2.71-2.54,4-15.61-2.54-25.67-9.38-31.64-15.22.25-1.82.51-3.65.81-5.49C2088,1093.23,2099.79,1101.8,2116,1104.18Z"/><path class="cls-27" d="M2042.49,1121h-25.75C1935.69,1013.11,2036,992.3,2042.49,1121Z"/><path class="cls-26" d="M2042.49,1121h-15.65c-28.19-39.29-34.32-71.55-34.35-87.13C2029.27,1014.3,2042.58,1121,2042.49,1121Z"/><path class="cls-13" d="M2069.85,1121h-31.64c.57,1.35-10.08-18.66-14.12-28.38h0c-8.79-20.66-20.2-48.5-15.69-70.81,2.52-17.63,27.69-24.58,39.63-12.53C2071.56,1030.18,2070.82,1099.35,2069.85,1121Z"/><path class="cls-27" d="M2069.69,1083.4c-.14-2.21-.26-4.55-.47-6.81l-17.42,24.16-7-27.72,19.66-29.49c-.45-2-1-4-1.52-6l-19.57,29.77-8.29-33,15.86-22a27.81,27.81,0,0,0-3-3.06l-14.27,19.53-6.11-25.17a30.41,30.41,0,0,0-4.42,1.13l6.41,25.49-21.29-8.16a31.47,31.47,0,0,0-.71,4l23.31,9.33,8.39,33.43-28.25-12c.47,1.81,1,3.62,1.54,5.42l28,11.89,7,28-23.6-9.51c.81,2,1.75,3.84,2.56,5.64l22.36,9.08c1.13,1.9,2.38,16.2,5.66,15.85,5.23.22-1.78-14.87-1.47-17l16.51-22.81Z"/><rect class="cls-21" x="2016.47" y="1121.03" width="88.49" height="89.32"/><path class="cls-28" d="M2105,1121v89.32h-88.49S2105,1209,2105,1121Z"/></g><g id="_1" data-name="1"><rect class="cls-29" x="1492.51" y="1126.67" width="90.89" height="82.59"/><rect class="cls-10" x="1492.51" y="1126.67" width="77.62" height="82.59"/><rect class="cls-29" x="1492.51" y="1126.67" width="77.62" height="49.88"/><rect class="cls-29" x="1578.71" y="1197.58" width="44.94" height="12.75"/><rect class="cls-10" x="1452.26" y="1197.58" width="154.91" height="12.75"/><polygon class="cls-10" points="1373.79 1167.96 1704.26 1167.96 1659.91 925.73 1331.44 925.73 1373.79 1167.96"/><polygon class="cls-29" points="1654.94 925.73 1666.77 925.73 1710.08 1167.96 1700.07 1167.96 1654.94 925.73"/></g></g></svg>