<svg id="Calque_1" data-name="Calque 1" xmlns="http://www.w3.org/2000/svg" viewBox="0 0 200 200"><defs><style>.cls-1{fill:#cbccea;}.cls-2{fill:#e04d20;}.cls-3{fill:#ffbaa2;}.cls-4{fill:#ff9773;}.cls-5{fill:#2f0e1b;}.cls-6{fill:#010103;}.cls-7{fill:#fbfdfa;}.cls-8{fill:#6558f5;}</style></defs><path class="cls-1" d="M.24,93.19a99.66,99.66,0,0,0,4.84,38.36l.29.84.06.18a99.85,99.85,0,0,0,16.76,30.25l.65.79c.23.29.47.56.71.84A100.07,100.07,0,0,0,136.83,193c2.52-1,5-2.1,7.4-3.29l1.22-.62q1.65-.84,3.27-1.74l1.1-.63A100.54,100.54,0,0,0,170.39,171q3.35-3.32,6.37-6.93A100,100,0,1,0,.24,93.19Z"/><path class="cls-2" d="M134.78,56.19s8.83-17-10.28-32.95-23.91,8.81-31.81,10.65S70.94,32.08,64.87,46.26,61.1,71.26,52.8,73s-36.34,21-31,48.57,31.93,27.64,31.93,27.64,103.76,10.33,112.31-16.32S165.23,94,152.55,84.12C144.76,78,128.72,72.46,134.78,56.19Z"/><path class="cls-3" d="M123.53,64.05s6.67,37.49.57,46c0,0-3,4.53-10.37,4.87l.66,23.57-33.25.93L79,62.13Z"/><path class="cls-4" d="M113.5,93.92a.3.3,0,0,1-.08-.6c1.94-.47,3.1-2.91,3.43-3.7-2.81-1.41-4.56-3.28-5.18-5.59-1-3.75,1.27-7.23,1.37-7.38a.3.3,0,1,1,.5.34s-2.24,3.41-1.29,6.89c.6,2.19,2.32,4,5.12,5.31l.24.12-.09.26c0,.15-1.33,3.7-4,4.34Z"/><path class="cls-4" d="M114,124.42l-.27-9.48s-16-.49-26-6.41C87.68,108.53,101.38,121,114,124.42Z"/><path class="cls-5" d="M94.49,78.47a.62.62,0,0,1-.43-.16.6.6,0,0,1,0-.86c.08-.08,7.62-8.24,14.88-2.72a.61.61,0,0,1-.74,1c-6.37-4.85-13,2.26-13.24,2.57A.64.64,0,0,1,94.49,78.47Z"/><path class="cls-5" d="M115.51,76.55a.6.6,0,0,1-.43-1c.22-.2,5.49-5,9-2.13a.6.6,0,0,1-.76.94c-2.7-2.18-7.36,2-7.41,2.08A.54.54,0,0,1,115.51,76.55Z"/><path class="cls-6" d="M122.57,81.06a1.69,1.69,0,1,1-1.73-1.64A1.69,1.69,0,0,1,122.57,81.06Z"/><path class="cls-6" d="M105.79,81.27a1.69,1.69,0,1,1-1.74-1.64A1.69,1.69,0,0,1,105.79,81.27Z"/><path class="cls-3" d="M86.36,89.3a9.46,9.46,0,1,1-9.72-9.2A9.46,9.46,0,0,1,86.36,89.3Z"/><path class="cls-4" d="M76.37,95.42a4,4,0,0,1-3.84-2.87,3.75,3.75,0,0,1,1.39-4.41,4.44,4.44,0,0,1,4.91,0A4.15,4.15,0,0,0,76.92,86a5.9,5.9,0,0,0-4.17-.15.3.3,0,1,1-.21-.57,6.44,6.44,0,0,1,4.66.18,5.17,5.17,0,0,1,2.53,3.41l.29,1-.79-.74a4.08,4.08,0,0,0-5-.49,3.18,3.18,0,0,0-1.15,3.72,3.36,3.36,0,0,0,3.29,2.46.29.29,0,0,1,.31.29.3.3,0,0,1-.29.31Z"/><path class="cls-3" d="M123.53,64.05s-3.29-14.49-22.82-15.54S79,62.13,79,62.13L101.33,66l20.76-2Z"/><path class="cls-2" d="M123.18,51.71s-11.78,12.21-27.58,10c0,0-4.71,19.35-16.12,18.79s-6-27.36-6-27.36,21-9.26,22.37-9.3,23.88-2,23.88-2Z"/><path class="cls-7" d="M116.61,98c-.18-.07-11.39-2-11.39-2s.72,4.86,4.89,5.59S116.61,98,116.61,98Z"/><path class="cls-8" d="M20.83,127.69a51.65,51.65,0,0,0-15.46,4.7l.06.18a99.85,99.85,0,0,0,16.76,30.25l.65.79c.23.29.47.56.71.84A100.07,100.07,0,0,0,136.83,193c2.52-1,5-2.1,7.4-3.29l1.22-.62q1.65-.84,3.27-1.74l1.1-.63A100.54,100.54,0,0,0,170.39,171q3.35-3.32,6.37-6.93a100.17,100.17,0,0,0,11.48-17c-4.71-3.63-14.22-6.73-25.13-9.29-8.46-2-17.78-3.66-26.36-5-8.93-1.38-17.06-2.39-22.6-3-4.58-.52-7.39-.78-7.39-.78s-11.28-.72-25.95-1.35c-6.62-.29-13.94-.55-21.23-.74h0c-5.58-.13-11.13-.21-16.35-.21-7.71,0-14.66.2-19.81.69-.4,0-.8.07-1.18.12h-.13l-.9.11Z"/><path class="cls-6" d="M5.08,131.55l.29.84.06.18a37.4,37.4,0,0,1,5.86-2,89.53,89.53,0,0,1,12.46-2.1c5.43-.59,11.75-1,18.91-1.1a.54.54,0,0,0,.53-.55.13.13,0,0,0,0-.06.53.53,0,0,0-.54-.47c-7.31.15-13.75.54-19.27,1.14l-1.18.14h-.13l-1.23.15a85.18,85.18,0,0,0-9.81,1.8A38.75,38.75,0,0,0,5.08,131.55Z"/><path class="cls-3" d="M136.76,132.83s-40.54,35.25-77.23-5.89C59.53,126.94,104.8,125,136.76,132.83Z"/></svg>