<svg id="Calque_1" data-name="Calque 1" xmlns="http://www.w3.org/2000/svg" xmlns:xlink="http://www.w3.org/1999/xlink" viewBox="0 0 200 200"><defs><style>.cls-1{fill:none;}.cls-2{fill:#f6dedc;}.cls-3{fill:#450600;}.cls-4{fill:#fc8759;}.cls-5{fill:#fb554b;}.cls-6{fill:#010103;}.cls-7{fill:#fbfdfa;}.cls-8{fill:#d1594f;}.cls-9{clip-path:url(#clip-path);}.cls-10{fill:#e8aca7;}.cls-11{fill:#dc827b;}.cls-12{fill:#ebf3fa;}.cls-13{fill:#0d060e;}</style><clipPath id="clip-path"><circle class="cls-1" cx="100" cy="100" r="99.98"/></clipPath></defs><path class="cls-2" d="M0,98.22a100,100,0,0,0,96.41,101.7l1.78,0,.77,0a100.47,100.47,0,0,0,12-.59l1.12-.13c.68-.08,1.35-.16,2-.26a99.93,99.93,0,0,0,61.72-33.81c.49-.58,1-1.16,1.47-1.75l.76-.93A100,100,0,1,0,0,98.22Z"/><path class="cls-3" d="M123,56s-6.57,50.81-14.19,51.18,4.18,60.23,24.85,31.38c7.25-10.11,8.12-77.09-8.47-91.72S123,56,123,56Z"/><path class="cls-4" d="M126,43.22s6.14,48.22-.31,56.66c0,0-3.16,4.5-10.68,4.61l.09,28.28-33.92-4.49.3-80.41s10-19.71,10-18.89S126,43.22,126,43.22Z"/><path class="cls-5" d="M114.9,83.16c-.1,0-.19-.09-.21-.24s0-.33.17-.36c1.41-.42,2.3-2.86,2.56-3.65a9,9,0,0,1-3.6-5.82A13.09,13.09,0,0,1,115,65.65c.07-.14.2-.17.3-.07a.38.38,0,0,1,0,.42,12.58,12.58,0,0,0-1.09,7,8.46,8.46,0,0,0,3.55,5.55l.17.12-.07.26c0,.15-1,3.71-3,4.28C114.93,83.16,114.92,83.17,114.9,83.16Z"/><path class="cls-5" d="M115,114.11l0-9.62s-16.25-1-26.2-7.34C88.78,97.15,102.26,110.22,115,114.11Z"/><path class="cls-6" d="M92.71,66.82a.65.65,0,0,1-.43-.17.62.62,0,0,1,0-.87c.08-.08,8-8.11,15.17-2.28a.62.62,0,0,1,.09.86.6.6,0,0,1-.86.09c-6.31-5.11-13.23,1.88-13.52,2.18A.59.59,0,0,1,92.71,66.82Z"/><path class="cls-6" d="M118,65.63a.61.61,0,0,1-.46-.22.6.6,0,0,1,.06-.86c.23-.2,5.72-4.87,9.18-1.87a.61.61,0,0,1,.07.86.62.62,0,0,1-.87.07c-2.66-2.3-7.53,1.83-7.58,1.87A.6.6,0,0,1,118,65.63Z"/><path class="cls-6" d="M105,70.29a1.71,1.71,0,1,1-1.71-1.72A1.71,1.71,0,0,1,105,70.29Z"/><path class="cls-6" d="M125,70.42a1.72,1.72,0,1,1-1.71-1.72A1.72,1.72,0,0,1,125,70.42Z"/><path class="cls-7" d="M106.42,85.87c.19,0,12.08,1.53,12.08,1.53s-2.24,4.67-6.66,4.11S106.42,85.87,106.42,85.87Z"/><path class="cls-4" d="M111.22,43.89l-8-11.6s13.11,8.54,12,8.86S111.22,43.89,111.22,43.89Z"/><path class="cls-3" d="M86.56,38s2,18,44.94,22.36c0,0,10.46-26.36-20.58-35.79S76.62,39,77.25,38.83,86.56,38,86.56,38Z"/><path class="cls-3" d="M92.86,48.19S85.79,59.89,82,68.33c0,0,11.93,75.34-16.92,70.62l-5.16-.17C34.29,138,53,82.92,53.94,53.54c.6-18.39,23.27-36.67,37.6-25.2S92.86,48.19,92.86,48.19Z"/><path class="cls-4" d="M88.06,77.61A9.6,9.6,0,1,1,78.5,68,9.6,9.6,0,0,1,88.06,77.61Z"/><path class="cls-5" d="M77.73,83.5a4.05,4.05,0,0,1-3.79-3A3.8,3.8,0,0,1,75.49,76a4.52,4.52,0,0,1,5,.13,4.25,4.25,0,0,0-1.87-2.24,6,6,0,0,0-4.23-.28.31.31,0,1,1-.19-.59,6.56,6.56,0,0,1,4.71.33,5.25,5.25,0,0,1,2.46,3.54L81.61,78l-.78-.78a4.13,4.13,0,0,0-5-.66,3.23,3.23,0,0,0-1.28,3.74,3.39,3.39,0,0,0,3.25,2.59.31.31,0,0,1,.31.31.3.3,0,0,1-.3.31Z"/><path class="cls-3" d="M128,35.12s14.62,16,10.4,61.14L129,51.47Z"/><path class="cls-8" d="M20.76,161a100,100,0,0,0,75.68,38.94l1.78,0,.77,0a100.47,100.47,0,0,0,12-.59l1.12-.13-.51-2.32L100.6,147h0l-3-13.52-.68-3.12-1.19-5.46S15.41,154,20.76,161Z"/><path class="cls-8" d="M97.78,125l-1.34,75,1.78,0,.77,0a100.47,100.47,0,0,0,12-.59l1.12-.13c.68-.08,1.35-.16,2-.26a99.93,99.93,0,0,0,61.72-33.81c.49-.58,1-1.16,1.47-1.75l.76-.93c4.69-5.85-17.86-36.45-23.85-36.55Z"/><path class="cls-4" d="M130.45,125.53l-71.36-1.27s12.5,22.57,37.16,22.91C107.56,147.33,119.73,143.39,130.45,125.53Z"/><g class="cls-9"><path class="cls-10" d="M88.85,200.23l-7.52-67.84-6.67-10.92s-34-1.82-47.73,8.27c-9.6,7.06-19.35,21.93-19.35,21.93L24.26,191.2Z"/><path class="cls-10" d="M109.25,204.45l6.34-72.06,6.67-10.92s29,1.15,44.6,8c17.25,7.58,23.22,29.9,23.22,29.9l-40.16,28.74Z"/><path class="cls-11" d="M83.9,112.12s-11,5.58-12.81,10.82c0,0-4.89,21.29,1.56,35.64L83,156.08l-5.3,6.5s2.91,31.21,11.19,37.65C88.85,200.23,83.16,120,83.9,112.12Z"/><path class="cls-11" d="M115,112.12s8.86,5.58,10.63,10.82c0,0,6.45,19.79,0,34.14l-11.86-1,8.48,7s-4.72,34.92-13,41.37C109.25,204.45,115.75,120,115,112.12Z"/><rect class="cls-12" x="39.72" y="147.56" width="16.45" height="7.22" transform="translate(-7.1 2.44) rotate(-2.71)"/><path class="cls-13" d="M179.06,154.77a1.07,1.07,0,0,1-.86-.47c-7.82-11.66-14.66-11.81-14.66-11.81h0a1.07,1.07,0,0,1,0-2.13h0c.39,0,8,.31,16.39,12.75a1.08,1.08,0,0,1-.3,1.48A1,1,0,0,1,179.06,154.77Z"/><path class="cls-13" d="M162.87,151.11c.07,0,6.85,1.36,12.78,13.84a1,1,0,0,0,.16.24c.49-.58,1-1.16,1.47-1.75-6.39-13-13.75-14.37-14.06-14.42a1.06,1.06,0,0,0-.35,2.09Z"/></g></svg>