<svg id="Calque_1" data-name="Calque 1" xmlns="http://www.w3.org/2000/svg" viewBox="0 0 200 200"><defs><style>.cls-1{fill:#d8d9ef;}.cls-2{fill:#c455a8;}.cls-3{fill:#0d060e;}.cls-4{fill:#fc8759;}.cls-5{fill:#450600;}.cls-6{fill:none;stroke:#a74f8c;stroke-linecap:round;stroke-miterlimit:10;stroke-width:2px;}.cls-7{fill:#fb554b;}.cls-8{fill:#fbfdfc;}.cls-9{fill:#d380be;}.cls-10{fill:#a74f8c;}</style></defs><path class="cls-1" d="M200,99.87a99.74,99.74,0,0,1-26.56,68c-.24.25-.47.5-.71.74s-.49.53-.75.79a99.92,99.92,0,0,1-147-3.26q-3.12-3.53-5.89-7.33A100,100,0,1,1,200,99.87Z"/><path class="cls-2" d="M79.75,146.66l-2.06,4L76,153.78c-2.11,4.06-5,9.6-8.3,15.94l-.86,1.66-9.84,19a100.35,100.35,0,0,1-32-24.17q-3.12-3.53-5.89-7.33a19.8,19.8,0,0,1,4.05-3.08c14.76-8.38,42.59-9.16,52.74-9.14C78.33,146.61,79.75,146.66,79.75,146.66Z"/><path class="cls-2" d="M25,166.16c4.69-6.81,10.5-11.53,17.67-12.54,7.86-1.1,20.39-2.09,33.18-2.89l1.83-.12c18.19-1.12,36.49-1.89,42.31-2.11l1.89-.08.44.11c1.59.41,6.82,1.71,4.75.76,20.6,3.61,35.25,11,45.65,19.34-.25.27-.49.53-.75.79a99.92,99.92,0,0,1-147-3.26Z"/><path class="cls-3" d="M101.58,188.29q1.22.12,2.49.21a.88.88,0,0,0,.12-1.75c-36.31-2.5-43.08-29.07-43.13-29.33a.88.88,0,0,0-1.74.27C59.36,158,66.1,184.66,101.58,188.29Z"/><path class="cls-3" d="M122.17,147.45c23.84,3.31,40.19,11.57,51.27,20.44-.24.25-.47.5-.71.74s-.49.53-.75.79c-10.72-8.53-26.5-16.51-49.48-19.79l-1.6-.23a1,1,0,0,1-.9-.9,1.29,1.29,0,0,1,0-.28,1.07,1.07,0,0,1,1.19-.91Z"/><path class="cls-4" d="M122.92,78.16l.13,37.87s.57,12.8-10.62,14.43l2.94,23.42c.8,6.34-3.77,6.09-9.86,8a35,35,0,0,1-10.57,1.67c-12.81,0-19.77-9.54-20.85-14.33s2-27.75,2-27.75l-.43-11.26L77,66.58Z"/><path d="M92.08,97.19l-.37-.14a.55.55,0,0,1,0-.76c.08-.07,7.39-7.6,14.11-2.22a.53.53,0,0,1-.67.83C99.18,90.13,92.74,96.75,92.46,97A.51.51,0,0,1,92.08,97.19Z"/><path d="M114.06,93.92a.55.55,0,0,1-.41-.18.54.54,0,0,1,0-.75c.22-.19,5.29-4.56,8.52-1.81a.54.54,0,0,1,.06.75.53.53,0,0,1-.75.06c-2.53-2.15-7.08,1.76-7.12,1.8Z"/><path d="M102.87,99.32a1.6,1.6,0,1,1-1.6-1.6A1.59,1.59,0,0,1,102.87,99.32Z"/><path d="M119.88,97.66a1.6,1.6,0,1,1-1.61-1.6A1.6,1.6,0,0,1,119.88,97.66Z"/><path class="cls-5" d="M78.52,68.67,81.78,82s23.9,6.73,41.15-.31c5.33-2.17,8.09-19.75.81-21.29-38.83-8.26-48,.5-47.06,3.42S78.52,68.67,78.52,68.67Z"/><path class="cls-5" d="M79,63.34s-12.32-.55-15.72,11.31,1.25,18.06,1.38,21.59-2.19,27.36,14.53,25.53l4.39-39.36L77.74,66.76Z"/><path class="cls-6" d="M68.67,82.57S73.26,109.12,81.43,115"/><path class="cls-4" d="M89.66,98.8A9.61,9.61,0,1,1,80,89.23,9.6,9.6,0,0,1,89.66,98.8Z"/><path class="cls-7" d="M79.37,104.72a4,4,0,0,1-3.78-3,3.77,3.77,0,0,1,1.5-4.39,4.53,4.53,0,0,1,5,.16,4.3,4.3,0,0,0-1.94-2.35,6,6,0,0,0-4.27-.26.27.27,0,0,1-.17-.51,6.44,6.44,0,0,1,4.69.3,5.18,5.18,0,0,1,2.46,3.49l.23.92-.68-.67a4.17,4.17,0,0,0-5.08-.62,3.26,3.26,0,0,0-1.27,3.78,3.46,3.46,0,0,0,3.26,2.61h.06a.25.25,0,0,1,.26.26.26.26,0,0,1-.26.27Z"/><path class="cls-7" d="M86.43,119.67s.82,21.43,27.58,23.38l-1.58-12.59S95.09,134,86.43,119.67Z"/><path class="cls-7" d="M108.55,110.09l-.25-.18a.27.27,0,0,1,.17-.34l5.34-1.79-1.73-12.57a.27.27,0,0,1,.53-.07l1.79,13-5.76,1.93Z"/><path class="cls-8" d="M104.43,115.3c.16,0,10.56-.31,10.56-.31s-1.29,4.3-5.16,4.41S104.43,115.3,104.43,115.3Z"/><path class="cls-2" d="M125.17,60.33A34.75,34.75,0,0,0,59,81.55c.22.7.47,1.39.73,2.06l66-21.18C125.59,61.73,125.4,61,125.17,60.33Z"/><path class="cls-9" d="M111.22,66.35c-.17-.7-.36-1.4-.58-2.1a34.41,34.41,0,0,0-34.45-24A35.37,35.37,0,0,1,81.66,38a34.48,34.48,0,0,1,43.51,22.32c.23.7.42,1.4.59,2.1l-66,21.18C59.63,83.39,111.22,66.35,111.22,66.35Z"/><path class="cls-10" d="M139.26,58.11c-.47-1.49-18.67,3-40.66,10.08s-39.42,14-39,15.45,18.68-3,40.66-10.09S139.73,59.59,139.26,58.11Z"/><path class="cls-6" d="M82.34,79c-2.35,36-6.8,56.2,30.38,53.77"/></svg>