<svg id="Calque_1" data-name="Calque 1" xmlns="http://www.w3.org/2000/svg" xmlns:xlink="http://www.w3.org/1999/xlink" viewBox="0 0 200 200"><defs><style>.cls-1{fill:none;}.cls-2{fill:#f6dedc;}.cls-3{fill:#d1594f;}.cls-4{fill:#0d060e;}.cls-5{fill:#ffbaa2;}.cls-6{fill:#e04d20;}.cls-7{fill:#ff9773;}.cls-8{fill:#fbfdfc;}.cls-9{clip-path:url(#clip-path);}.cls-10{fill:#e8aca7;}.cls-11{fill:#ebf3fa;}.cls-12{fill:#dc827b;}</style><clipPath id="clip-path"><circle class="cls-1" cx="100" cy="100.1" r="99.84"/></clipPath></defs><path class="cls-2" d="M199.84,100a99.69,99.69,0,0,1-26.63,68l-.7.74c-.25.27-.5.53-.76.79a99.79,99.79,0,0,1-146.84-3.45q-3.12-3.52-5.88-7.34A100,100,0,1,1,199.84,100Z"/><path class="cls-3" d="M80.72,147.06l-2,4c-.46.93-1,2-1.59,3.2-2,4.1-4.8,9.69-8,16.11l-.83,1.68c-2.93,5.93-6.16,12.48-9.44,19.15A100.3,100.3,0,0,1,26.4,167.69q-3.19-3.47-6-7.21a20.24,20.24,0,0,1,4-3.16c14.58-8.69,42.39-10,52.54-10.23C79.3,147,80.72,147.06,80.72,147.06Z"/><path class="cls-3" d="M26.4,167.69c4.54-6.91,10.25-11.75,17.4-12.9,7.84-1.26,20.34-2.51,33.11-3.58l1.83-.15c18.17-1.5,36.45-2.64,42.26-3l1.89-.11.44.1c1.59.37,6.85,1.57,4.76.66,20.67,3.18,35.47,10.27,46,18.39-.24.28-.48.54-.74.81a99.9,99.9,0,0,1-147-.23Z"/><path class="cls-4" d="M103.4,188.23c.81.07,1.64.12,2.49.16a.88.88,0,1,0,.09-1.75c-36.35-1.75-43.67-28.17-43.73-28.44a.88.88,0,0,0-1.73.31C60.57,158.78,67.85,185.34,103.4,188.23Z"/><path class="cls-5" d="M122.47,77.69l.9,37.86s.84,12.78-10.32,14.65l3.43,23.35c.93,6.32-3.65,6.16-9.7,8.24a34.94,34.94,0,0,1-10.53,1.88c-12.8.31-20-9.12-21.14-13.89S76.58,122,76.58,122l-.66-11.26.41-43.68Z"/><path d="M92,97.36l-.37-.14a.55.55,0,0,1,0-.76c.07-.07,7.22-7.75,14-2.51a.53.53,0,1,1-.64.84c-6.06-4.64-12.36,2.1-12.62,2.39A.61.61,0,0,1,92,97.36Z"/><path d="M113.93,93.63a.54.54,0,0,1-.38-.93c.22-.19,5.2-4.66,8.48-2a.53.53,0,0,1-.67.83c-2.58-2.1-7,1.9-7.09,1.94Z"/><path d="M102.86,99.25a1.6,1.6,0,1,1-1.64-1.56A1.6,1.6,0,0,1,102.86,99.25Z"/><path d="M119.82,97.25a1.6,1.6,0,1,1-1.63-1.56A1.58,1.58,0,0,1,119.82,97.25Z"/><path class="cls-6" d="M77.87,69.12,87.1,81.55S114.4,91.4,128,78.63s9.16-18.64,5-24.78c-2.08-3-11.79-9-23.4-3.55-6.33,3-11.27-5.37-18.63-.93s-16,12-14.94,14.94S77.87,69.12,77.87,69.12Z"/><path class="cls-6" d="M78.29,63.78S66,63.48,62.81,75.41s1.62,18,1.82,21.56S63,124.37,79.68,122.19l3.58-39.44-6.2-15.53Z"/><path class="cls-5" d="M89.63,99a9.6,9.6,0,1,1-9.82-9.37A9.6,9.6,0,0,1,89.63,99Z"/><path class="cls-7" d="M79.47,105.14a4,4,0,0,1-3.84-2.9A3.77,3.77,0,0,1,77,97.81a4.49,4.49,0,0,1,5,.06,4.31,4.31,0,0,0-2-2.32,6,6,0,0,0-4.27-.17.27.27,0,0,1-.34-.16.27.27,0,0,1,.16-.34,6.46,6.46,0,0,1,4.69.2,5.19,5.19,0,0,1,2.54,3.44l.25.92-.7-.66a4.17,4.17,0,0,0-5.09-.52,3.26,3.26,0,0,0-1.19,3.81,3.44,3.44,0,0,0,3.31,2.54h.06a.26.26,0,0,1,.27.25.27.27,0,0,1-.26.28Z"/><path class="cls-7" d="M86.83,120s1.27,21.4,28.07,22.8l-1.85-12.55S95.79,134.1,86.83,120Z"/><path class="cls-6" d="M125.09,109.48s4.09,25.55-12.91,26.87c-24.32,1.89-27-12-28.74-23.3l-.8-23.47.62-6.83a12.11,12.11,0,0,1,3.17,6.9c.64,5.62,2.25,20.76,3.67,21.4C92.11,112,121.23,107.1,125.09,109.48Z"/><path class="cls-7" d="M108.76,109.91l-.26-.18a.26.26,0,0,1,.16-.34L114,107.5,112,95a.26.26,0,0,1,.22-.31.27.27,0,0,1,.3.22l2.06,13-5.72,2Z"/><path class="cls-8" d="M104.74,115.2c.17,0,10.55-.53,10.55-.53s-1.2,4.33-5.06,4.52S104.74,115.2,104.74,115.2Z"/><g class="cls-9"><path class="cls-10" d="M82.68,245.47l-9.3-83.95-8.46-13.85s-33.45,1.11-44.57,12.81c-10.14,10.68-16.81,44-16.81,44l26.31,27.64Z"/><path class="cls-10" d="M108.76,252.86l8-91.34s-2-15.45,8.42-14.23,33.1,5.63,49.91,19.16c18,14.52,16.47,47.3,16.47,47.3l-31.28,18.41Z"/><rect class="cls-11" x="144.18" y="175.63" width="20.86" height="9.16" transform="translate(28.09 -20.72) rotate(8.43)"/><path class="cls-4" d="M123.15,147c23.9,2.82,40.42,10.74,51.67,19.37l-.69.76c-.24.28-.48.54-.74.81-10.89-8.31-26.83-16-49.88-18.77l-1.59-.19a1,1,0,0,1-.92-.89,1.23,1.23,0,0,1,0-.27,1.07,1.07,0,0,1,1.17-.94Z"/><path class="cls-12" d="M113.91,136.74s13.38,6.16,15.62,12.79c0,0,8.18,25.1,0,43.28l-15-1.27,10.76,8.88s-6,44.28-16.49,52.44C108.76,252.86,114.86,146.79,113.91,136.74Z"/><path class="cls-12" d="M75.17,135.78s-12.54,7.12-14.78,13.75c0,0-6.2,27,2,45.19l13.06-3.18-6.71,8.25s3.46,37.51,14,45.68C82.68,245.47,74.23,145.83,75.17,135.78Z"/></g></svg>