<svg id="Calque_1" data-name="Calque 1" xmlns="http://www.w3.org/2000/svg" viewBox="0 0 200 200"><defs><style>.cls-1{fill:#d8d9ef;}.cls-2{fill:#8b2e00;}.cls-3{fill:#451400;}.cls-4{fill:#2f0e1b;}.cls-5{fill:#010103;}.cls-6{fill:none;stroke:#a74f8c;stroke-linecap:round;stroke-miterlimit:10;stroke-width:2px;}.cls-7{fill:#fbfdfa;}.cls-8{fill:#c455a8;}.cls-9{fill:#d380be;}.cls-10{fill:#a74f8c;}</style></defs><path class="cls-1" d="M0,99.62a99.59,99.59,0,0,0,7.31,38c.11.27.22.55.34.82a.87.87,0,0,0,.07.17,99.72,99.72,0,0,0,18.68,29.1l.7.75.75.79a100,100,0,0,0,114.86,21.16c2.45-1.15,4.84-2.41,7.17-3.76.39-.23.79-.45,1.18-.69q1.59-.94,3.15-1.95l1.06-.7a100.69,100.69,0,0,0,19.51-17q3.12-3.53,5.91-7.33A100,100,0,1,0,0,99.62Z"/><path d="M124.79,53.79S96.18,32.15,88.41,34.49s-21.81-.4-26.95,14.14,6.08,23.89-10.32,27.5c-12.36,2.72-34.89,23.26-27.77,50.46S57,152.1,57,152.1s104.17,3.6,111-23.55-3.35-38.78-16.63-47.81C143.21,75.18,132,76.41,124.79,53.79Z"/><path class="cls-2" d="M121.13,62.59s9.07,37,3.54,45.87c0,0-2.67,4.71-10,5.53l2.18,23.47-33.11,3.08-7.16-77Z"/><path class="cls-3" d="M113.05,93a.29.29,0,0,1-.32-.21.3.3,0,0,1,.2-.38c1.9-.59,2.91-3.1,3.18-3.91-2.89-1.22-4.75-3-5.53-5.24-1.27-3.67.8-7.3.89-7.45a.3.3,0,0,1,.53.3s-2,3.55-.85,7c.75,2.15,2.58,3.82,5.45,5l.25.1-.07.26c0,.16-1.09,3.78-3.67,4.59Z"/><path class="cls-3" d="M115.51,123.43l-.87-9.44s-16,.55-26.41-4.71C89.29,109.45,114.29,122.68,115.51,123.43Z"/><path class="cls-4" d="M93.08,78.85a.63.63,0,0,1-.43-.13.61.61,0,0,1-.1-.85c.07-.09,7.07-8.72,14.67-3.68a.61.61,0,0,1,.17.84.6.6,0,0,1-.84.17c-6.67-4.42-12.79,3.1-13,3.42A.62.62,0,0,1,93.08,78.85Z"/><path class="cls-4" d="M113.93,75.58a.6.6,0,0,1-.48-.17.59.59,0,0,1,0-.85c.2-.22,5.15-5.31,8.83-2.71a.62.62,0,0,1,.14.85.61.61,0,0,1-.84.14c-2.83-2-7.22,2.51-7.26,2.56A.57.57,0,0,1,113.93,75.58Z"/><path class="cls-5" d="M121.27,79.62a1.69,1.69,0,1,1-1.84-1.53A1.69,1.69,0,0,1,121.27,79.62Z"/><path class="cls-5" d="M104.54,80.91a1.69,1.69,0,1,1-1.84-1.52A1.7,1.7,0,0,1,104.54,80.91Z"/><path class="cls-6" d="M67.7,71.67s4.58,26.55,12.75,32.42"/><path class="cls-2" d="M85.68,90.18a9.46,9.46,0,1,1-10.3-8.55A9.47,9.47,0,0,1,85.68,90.18Z"/><path class="cls-3" d="M76.1,96.93a4,4,0,0,1-4-2.62,3.75,3.75,0,0,1,1.1-4.49,4.48,4.48,0,0,1,4.9-.35,4.2,4.2,0,0,0-2-2,5.88,5.88,0,0,0-4.17.12.3.3,0,1,1-.24-.56,6.45,6.45,0,0,1,4.65-.12A5.17,5.17,0,0,1,79,90.14l.36,1-.84-.69a4.08,4.08,0,0,0-5-.17,3.17,3.17,0,0,0-.9,3.79,3.34,3.34,0,0,0,3.43,2.24.3.3,0,0,1,.34.27.32.32,0,0,1-.27.33Z"/><path class="cls-2" d="M121.13,62.59s-4.22-14.24-23.77-14-20.81,15-20.81,15L99.11,66l20.58-3.37Z"/><path d="M120,50.3S109,63.24,93.1,62c0,0-3.44,19.61-14.86,19.78s-7.71-26.9-7.71-26.9S90.92,44.3,92.26,44.18,116,40.62,116,40.62Z"/><path class="cls-7" d="M116.41,96.93c-.17-.05-11.48-1.25-11.48-1.25s1,4.8,5.23,5.26S116.41,96.93,116.41,96.93Z"/><path class="cls-8" d="M22.78,132.71A51.3,51.3,0,0,0,7.66,138.4a.87.87,0,0,0,.07.17,99.72,99.72,0,0,0,18.68,29.1l.7.75.75.79a100,100,0,0,0,114.86,21.16c2.45-1.15,4.84-2.41,7.17-3.76.39-.23.79-.45,1.18-.69q1.59-.94,3.15-1.95l1.06-.7a100.69,100.69,0,0,0,19.51-17q3.12-3.53,5.91-7.33A99.79,99.79,0,0,0,191,141.26c-4.92-3.31-14.61-5.8-25.66-7.65-8.58-1.43-18-2.49-26.62-3.25-9-.81-17.18-1.29-22.75-1.57-4.6-.22-7.41-.31-7.41-.31s-11.3,0-26,.34c-6.63.14-14,.35-21.23.63h0c-5.58.22-11.12.5-16.32.84-7.7.5-14.62,1.14-19.72,2l-1.17.2-.13,0-.89.17Z"/><path class="cls-5" d="M7.32,137.58c.11.27.22.55.34.82a.87.87,0,0,0,.07.17,37.09,37.09,0,0,1,5.71-2.41,90.81,90.81,0,0,1,12.3-2.9c5.38-.94,11.66-1.71,18.8-2.32a.55.55,0,0,0,.49-.58s0,0,0-.06a.54.54,0,0,0-.58-.43q-10.92.93-19.15,2.38l-1.16.21-.13,0-1.22.23a84.85,84.85,0,0,0-9.67,2.43A37.13,37.13,0,0,0,7.32,137.58Z"/><path class="cls-2" d="M138.77,130.35s-38.17,37.79-77.43-.89C61.34,129.46,106.38,124.56,138.77,130.35Z"/><path class="cls-8" d="M124.2,49.43A34.75,34.75,0,0,0,58,70.65c.22.7.47,1.39.73,2.06l66.05-21.18C124.61,50.83,124.42,50.13,124.2,49.43Z"/><path class="cls-9" d="M110.25,55.45c-.18-.7-.37-1.41-.59-2.11a34.41,34.41,0,0,0-34.45-24,34.66,34.66,0,0,1,49,20c.22.7.41,1.4.58,2.1l-66,21.18C58.66,72.49,110.25,55.45,110.25,55.45Z"/><path class="cls-10" d="M138.28,47.2c-.47-1.48-18.67,3-40.65,10.09s-39.43,14-39,15.45,18.67-3,40.65-10.09S138.75,48.69,138.28,47.2Z"/><path class="cls-6" d="M81.36,68.1c-2.35,36-3.15,56.4,34,54"/></svg>