<svg id="Calque_1" data-name="Calque 1" xmlns="http://www.w3.org/2000/svg" viewBox="0 0 200 200"><defs><style>.cls-1{fill:#d8d9ef;}.cls-2{fill:#6558f5;}.cls-3{fill:#0d060e;}.cls-4{fill:#8b2e00;}.cls-5{fill:#451400;}.cls-6{fill:#2d0f28;}.cls-7{fill:#010103;}.cls-8{fill:#fbfdfa;}</style></defs><path class="cls-1" d="M100.84,0A100,100,0,0,0,18.55,158q2.73,3.84,5.82,7.4a100,100,0,0,0,146.94,4.68l.76-.78.71-.74A100,100,0,0,0,100.84,0Z"/><path class="cls-2" d="M22.63,155a19.72,19.72,0,0,0-4.08,3q2.73,3.84,5.82,7.4a100.53,100.53,0,0,0,31.79,24.48c3.48-6.57,6.91-13,10-18.86l.88-1.65c3.36-6.32,6.3-11.82,8.45-15.86.63-1.19,1.2-2.24,1.69-3.16,1.33-2.5,2.1-3.93,2.1-3.93s-1.42-.06-3.84-.09C65.3,146.26,37.47,146.76,22.63,155Z"/><path class="cls-2" d="M126.6,149.55c2.06,1-3.16-.38-4.74-.8l-.43-.12-1.9.06c-5.82.17-24.13.76-42.33,1.7l-1.83.1c-12.8.69-25.34,1.55-33.21,2.57-7.19.94-13,5.6-17.79,12.38a100,100,0,0,0,146.94,4.68l.76-.78C161.75,160.89,147.17,153.36,126.6,149.55Z"/><path class="cls-3" d="M103.35,186.79C67.06,183.94,60.55,157.31,60.5,157a.88.88,0,0,0-1.74.25c0,.28,6.52,27.05,42,31,.81.1,1.64.17,2.49.24a.88.88,0,0,0,.14-1.75Z"/><path class="cls-3" d="M121.71,147.66l-1-.14a1.06,1.06,0,0,0-1.19.9,1.22,1.22,0,0,0,0,.27,1.06,1.06,0,0,0,.9.92l1.59.23c22.94,3.51,38.65,11.64,49.29,20.28l.76-.78.71-.74C161.79,159.63,145.52,151.2,121.71,147.66Z"/><path class="cls-4" d="M76.91,109.64l.68,13s-3.23,26.49-1.9,32S85.2,171.05,100,170.79a40.19,40.19,0,0,0,12.15-2.09A15.37,15.37,0,0,0,122.32,152l-2.76-19.64c12.87-2.07,12-16.8,12-16.8l-.8-45.89-53-10.34Z"/><path class="cls-5" d="M89.42,120.33s1.3,24.67,32.17,26.49l-2-14.49S99.63,136.7,89.42,120.33Z"/><path class="cls-6" d="M95.11,93.3a.62.62,0,0,0,0,.87.58.58,0,0,0,.43.16.63.63,0,0,0,.44-.19c.31-.34,7.62-8.06,14.56-2.67a.61.61,0,0,0,.86-.1.62.62,0,0,0-.11-.87C103.49,84.42,95.19,93.21,95.11,93.3Z"/><path d="M74.27,88.26l13.32,2.52L90,93.23S88.49,71,85.91,66.68,74.27,88.26,74.27,88.26Z"/><path class="cls-6" d="M120.42,89.13a.61.61,0,0,0,.42,1.07.58.58,0,0,0,.4-.16c.05,0,5.23-4.62,8.17-2.19a.61.61,0,1,0,.79-.94C126.43,83.79,120.66,88.91,120.42,89.13Z"/><path class="cls-7" d="M106.16,94.79A1.84,1.84,0,1,0,108,96.6,1.84,1.84,0,0,0,106.16,94.79Z"/><path class="cls-7" d="M125.73,92.6a1.85,1.85,0,1,0,1.88,1.81A1.84,1.84,0,0,0,125.73,92.6Z"/><path class="cls-4" d="M81.54,85.36A11.06,11.06,0,1,0,92.8,96.23,11,11,0,0,0,81.54,85.36Z"/><path class="cls-5" d="M81,91a7.41,7.41,0,0,0-5.4-.26.31.31,0,0,0-.19.39.31.31,0,0,0,.39.19,7,7,0,0,1,4.92.23A5,5,0,0,1,83,94.23a5.2,5.2,0,0,0-5.81-.1,4.34,4.34,0,0,0-1.66,5.09,4.62,4.62,0,0,0,4.4,3.37H80a.31.31,0,0,0,.3-.32A.3.3,0,0,0,80,102H79.9a4,4,0,0,1-3.8-3,3.75,3.75,0,0,1,1.4-4.38,4.81,4.81,0,0,1,5.86.63l.8.77L83.87,95A6,6,0,0,0,81,91Z"/><path class="cls-5" d="M118.84,91.37a.3.3,0,0,0-.26.35l2.2,14.46-6.13,2.14a.31.31,0,0,0,.11.6.18.18,0,0,0,.1,0l6.6-2.31-2.27-15A.31.31,0,0,0,118.84,91.37Z"/><path class="cls-8" d="M116.39,119.63c4.45-.19,5.87-5.17,5.87-5.17s-12,.49-12.17.53C110.09,115,111.94,119.83,116.39,119.63Z"/><path d="M125.49,48.6s4.5-5-.16-8.89S83.07,50.49,76.62,58.64s-2.35,29.62-2.35,29.62A43.56,43.56,0,0,1,95.76,70.63c19.61,6,52.2-.34,48.52-13.75S125.49,48.6,125.49,48.6Z"/></svg>