<svg xmlns="http://www.w3.org/2000/svg" viewBox="0 0 2600 2000"><defs><style>.cls-1,.cls-16{fill:#fff;}.cls-2{fill:#caf0ff;}.cls-3{fill:#6558f5;}.cls-4{opacity:0.75;}.cls-5{fill:#8b82f7;}.cls-6,.cls-7{fill:#d1594f;}.cls-14,.cls-24,.cls-7{opacity:0.3;}.cls-8{fill:#661717;}.cls-9{fill:#dc827b;}.cls-10{fill:#631818;}.cls-11{fill:#822121;}.cls-12{fill:#a2c2dd;}.cls-13{fill:#c4d9ed;}.cls-14{fill:#8e2323;}.cls-15{fill:#c0483e;}.cls-16,.cls-19,.cls-21,.cls-31,.cls-32,.cls-36{isolation:isolate;}.cls-16{opacity:0.8;}.cls-17{fill:#f5be00;}.cls-18{fill:#70c0fd;}.cls-19{fill:#c0d8fb;}.cls-19,.cls-21,.cls-32,.cls-36{opacity:0.5;}.cls-20{fill:#b2abfa;}.cls-21{fill:#afcdfb;}.cls-22{fill:#ffb27d;}.cls-23{fill:#ffc197;}.cls-24{fill:#e2915a;}.cls-25,.cls-27{fill:#c455a8;}.cls-26{fill:#d380be;}.cls-27{opacity:0.4;}.cls-28{fill:#f5f5f7;}.cls-29{fill:#e0defd;}.cls-30{fill:#cbccea;}.cls-31{fill:#e9f3fe;opacity:0.4;}.cls-32{fill:#ffe2cc;}.cls-33{fill:#edcce5;}.cls-34,.cls-36{fill:#e7bbdc;}.cls-35{fill:#e1aad3;}.cls-37{fill:#2e3552;}.cls-38{fill:#07085b;}</style></defs><g id="Calque_3" data-name="Calque 3"><rect class="cls-1" width="2600" height="2000"/></g><g id="Layer_1" data-name="Layer 1"><g id="Patient"><path class="cls-2" d="M1746.46,1888.14l472.89-1.78s355.24-217.37,218-785.74c-41.4-171.48-280-431.89-572.88-451.26-357.29-23.63-326.74-454.58-992.74-370.84-183.09,23-424.17,211.89-571.28,512C190.88,1014-30,1339.66,323.65,1888.18Z"/><path class="cls-3" d="M2228.36,1887.62V1509.29h-60.79v-77.85h-60.78v38.42h-27.71V1365.35h-96v54.35H1956.4v-415l-315.67-3V1186l-11.72.15h-14.93V1027.12h-21.24v-46h-30.93V846.91h-44.84V981.08h-30.93v46h-21.33v144.7h-25.62V819.57h-13.86V772.35H1303.75v47.22h-13.87v223.75l-40.51-1.07V899.1H1134.21L1129,1168.2l-17.23-1.07V1076.3h-37.35v-71.46h-22.41v-48H964.64v48H942.23v71.46H904.91v167.64l-32-1.07V1076.61H766V1233l-69-.8L698,1036.84H594.54v162.1H573.21v255.94H556.14v42.66H539.08v-55.46H461.23v55.46H439.91v-27.73H379.16v417.81Z"/><g class="cls-4"><rect class="cls-5" x="1893.02" y="1034.79" width="37.35" height="48.38"/><rect class="cls-5" x="1893.02" y="1190.4" width="37.35" height="48.38"/><rect class="cls-5" x="1835.62" y="1034.79" width="37.35" height="48.38"/><rect class="cls-5" x="1778.23" y="1034.79" width="37.35" height="48.38"/><rect class="cls-5" x="1778.23" y="1295.71" width="37.35" height="48.38"/><rect class="cls-5" x="1835.62" y="1111.98" width="37.35" height="48.38"/><rect class="cls-5" x="1835.62" y="1378.35" width="37.35" height="48.38"/><rect class="cls-5" x="1835.62" y="1190.4" width="37.35" height="48.38"/><rect class="cls-5" x="1728.9" y="1190.4" width="37.35" height="48.38"/><rect class="cls-5" x="1728.9" y="1378.35" width="37.35" height="48.38"/><rect class="cls-5" x="1681.93" y="1034.79" width="37.35" height="48.38"/><rect class="cls-5" x="1395.66" y="842.88" width="20.75" height="26.88"/><rect class="cls-5" x="1352.5" y="842.88" width="20.75" height="26.88"/><rect class="cls-5" x="1395.66" y="890.3" width="20.75" height="26.88"/><rect class="cls-5" x="1309.33" y="890.3" width="20.75" height="26.88"/><rect class="cls-5" x="1352.5" y="937.74" width="20.75" height="26.88"/><rect class="cls-5" x="1309.33" y="937.74" width="20.75" height="26.88"/><rect class="cls-5" x="1395.66" y="985.17" width="20.75" height="26.88"/><rect class="cls-5" x="1309.33" y="985.17" width="20.75" height="26.88"/><rect class="cls-5" x="1395.66" y="1032.61" width="20.75" height="26.88"/><rect class="cls-5" x="1352.5" y="1032.61" width="20.75" height="26.88"/><rect class="cls-5" x="1309.33" y="1080.04" width="20.75" height="26.88"/><rect class="cls-5" x="1395.66" y="1174.92" width="20.75" height="26.88"/><rect class="cls-5" x="1059.47" y="1095.62" width="20.75" height="26.88"/><rect class="cls-5" x="944.2" y="1095.62" width="20.75" height="26.88"/><rect class="cls-5" x="1003.37" y="1022.61" width="20.75" height="26.88"/><rect class="cls-5" x="669.86" y="1063.17" width="20.75" height="26.88"/><rect class="cls-5" x="600.47" y="1063.17" width="20.75" height="26.88"/><rect class="cls-5" x="600.47" y="1111.08" width="20.75" height="26.88"/><rect class="cls-5" x="669.86" y="1158.99" width="20.75" height="26.88"/><rect class="cls-5" x="600.47" y="1158.99" width="20.75" height="26.88"/><rect class="cls-5" x="669.86" y="1206.89" width="20.75" height="26.88"/><rect class="cls-5" x="635.17" y="1254.81" width="20.75" height="26.88"/><rect class="cls-5" x="600.47" y="1254.81" width="20.75" height="26.88"/><rect class="cls-5" x="600.47" y="1302.72" width="20.75" height="26.88"/><rect class="cls-5" x="669.86" y="1350.62" width="20.75" height="26.88"/><rect class="cls-5" x="635.17" y="1350.62" width="20.75" height="26.88"/><rect class="cls-5" x="958.8" y="1022.61" width="20.75" height="26.88"/><rect class="cls-5" x="1059.47" y="1149.69" width="20.75" height="26.88"/><rect class="cls-5" x="1021.05" y="1149.69" width="20.75" height="26.88"/><rect class="cls-5" x="1059.47" y="1203.77" width="20.75" height="26.88"/><rect class="cls-5" x="982.63" y="1203.77" width="20.75" height="26.88"/><rect class="cls-5" x="944.2" y="1203.77" width="20.75" height="26.88"/><rect class="cls-5" x="1021.05" y="1257.84" width="20.75" height="26.88"/><rect class="cls-5" x="1059.47" y="1311.92" width="20.75" height="26.88"/><rect class="cls-5" x="982.63" y="1311.92" width="20.75" height="26.88"/><rect class="cls-5" x="944.2" y="1311.92" width="20.75" height="26.88"/><rect class="cls-5" x="1059.47" y="1420.07" width="20.75" height="26.88"/><rect class="cls-5" x="982.63" y="1420.07" width="20.75" height="26.88"/><rect class="cls-5" x="1681.93" y="1295.71" width="37.35" height="48.38"/><rect class="cls-5" x="1484.61" y="1047.41" width="114.55" height="12.46"/><rect class="cls-5" x="1146.4" y="1012.14" width="93.09" height="12.46"/><rect class="cls-5" x="1146.4" y="1039.02" width="93.09" height="12.46"/><rect class="cls-5" x="1146.4" y="1119.65" width="93.09" height="12.46"/><rect class="cls-5" x="773.38" y="1095.62" width="93.09" height="12.46"/><rect class="cls-5" x="773.38" y="1122.49" width="93.09" height="12.45"/><rect class="cls-5" x="773.38" y="1176.24" width="93.09" height="12.46"/><rect class="cls-5" x="773.38" y="1256.87" width="93.09" height="12.46"/><rect class="cls-5" x="773.38" y="1310.63" width="93.09" height="12.46"/><rect class="cls-5" x="773.38" y="1364.38" width="93.09" height="12.45"/><rect class="cls-5" x="773.38" y="1418.13" width="93.09" height="12.46"/><rect class="cls-5" x="1146.4" y="1200.27" width="93.09" height="12.46"/><rect class="cls-5" x="1146.4" y="1254.03" width="93.09" height="12.46"/><rect class="cls-5" x="1484.61" y="1083.17" width="114.55" height="12.46"/><rect class="cls-5" x="1484.61" y="1118.92" width="114.55" height="12.46"/><rect class="cls-5" x="1484.61" y="1190.43" width="114.55" height="12.46"/><rect class="cls-5" x="1484.61" y="1261.93" width="114.55" height="12.46"/><rect class="cls-5" x="1484.61" y="1297.69" width="114.55" height="12.46"/><rect class="cls-5" x="1484.61" y="1369.19" width="114.55" height="12.46"/><rect class="cls-5" x="1484.61" y="1440.71" width="114.55" height="12.46"/></g><path class="cls-6" d="M1557.69,1580.27v36.33a20.36,20.36,0,0,1-20.36,20.35h-6.51a20.41,20.41,0,0,1-20.35-20.35v-36.33a20,20,0,0,1,3-10.45v0a20.42,20.42,0,0,1,17.4-9.85h6.51A20.42,20.42,0,0,1,1557.69,1580.27Z"/><path class="cls-7" d="M1555.55,1625.68a20.39,20.39,0,0,1-18.22,11.27h-6.51a20.41,20.41,0,0,1-20.35-20.35v-36.33a20,20,0,0,1,3-10.45C1513.81,1572.06,1522.45,1621.91,1555.55,1625.68Z"/><polygon class="cls-8" points="1235.02 1846.17 1335.63 1846.17 1335.63 1744.63 1230.67 1744.63 1235.02 1846.17"/><path class="cls-9" d="M1552.26,1631.53,1058,1643.72V1383.07h324.59a82.44,82.44,0,0,1,73.38,44.86l21.25,41.46Z"/><path class="cls-10" d="M1271.46,1829.65c0,27.57,14.22,58,14.22,58h24.07c21.15,0,38.29-25.95,38.29-58s-41.21-58-62.36-58S1271.46,1797.64,1271.46,1829.65Z"/><ellipse class="cls-11" cx="1285.68" cy="1829.65" rx="38.29" ry="57.97"/><ellipse class="cls-8" cx="1286.16" cy="1829.65" rx="28.84" ry="43.66"/><path class="cls-10" d="M1548.22,1829.65c0,27.57,14.22,58,14.22,58h24.07c21.14,0,38.29-25.95,38.29-58s-41.22-58-62.36-58S1548.22,1797.64,1548.22,1829.65Z"/><path class="cls-11" d="M1524.15,1829.65c0,32,17.14,58,38.29,58s38.29-25.95,38.29-58-17.15-58-38.29-58S1524.15,1797.64,1524.15,1829.65Z"/><path class="cls-8" d="M1534.08,1829.65c0,24.12,12.91,43.67,28.84,43.67s28.84-19.55,28.84-43.67-12.91-43.66-28.84-43.66S1534.08,1805.54,1534.08,1829.65Z"/><path class="cls-10" d="M912.67,1829.65c0,27.57,14.22,58,14.22,58H951c21.15,0,38.29-25.95,38.29-58s-41.21-58-62.36-58S912.67,1797.64,912.67,1829.65Z"/><path class="cls-11" d="M888.6,1829.65c0,32,17.14,58,38.29,58s38.29-25.95,38.29-58-17.14-58-38.29-58S888.6,1797.64,888.6,1829.65Z"/><path class="cls-8" d="M898.53,1829.65c0,24.12,12.91,43.67,28.84,43.67s28.84-19.55,28.84-43.67S943.3,1786,927.37,1786,898.53,1805.54,898.53,1829.65Z"/><path class="cls-9" d="M1662.92,1802.29a43.79,43.79,0,0,1-43.77,43.88H1335.63a86.74,86.74,0,0,0,1.25-14.77c0-37.48-22.48-67.9-50.17-67.9s-50.22,30.42-50.22,67.9a86.78,86.78,0,0,0,1.2,14.77H1072s-6.68-74-5.85-111.06c.65-32.28.65-95.53-1.26-111,0-2.3,159.76-2.57,200.08-2.74,5.47-.05,8.76-.05,9.08-.05l.55.38.6.44c7.44,5.2,49.14,34.41,75,51.54,22.82,15,191.23,21.17,257.27,23,16.41.44,26.53.61,26.53.61a119,119,0,0,1,17,23.85c6.12,11.33,11.59,25.88,11.7,41.8.06,9.9.11,21.83.11,33.54C1662.92,1798.46,1662.92,1800.38,1662.92,1802.29Z"/><path class="cls-12" d="M1512.4,1621.36H1290.27a13.15,13.15,0,0,1-11.93-7.66l-55-122.34a6.06,6.06,0,0,1,5.53-8.53h234.34a13,13,0,0,1,11.92,7.82l39.4,90,9.84,22.49A13,13,0,0,1,1512.4,1621.36Z"/><path class="cls-6" d="M1408.94,1796.55c0,3.83-.22,7.44-.44,10.67-1.58,21.28-23,39-23,39h-49.89a88.65,88.65,0,0,0-5.86-49.62c-8.81-19.81-24.78-33-43.06-33s-34.3,13.24-43.11,33a89.69,89.69,0,0,0-5.91,49.62H1058V1383.09h144.28V1475s43.27,101.66,62.75,146.41c4.82,11.16,8.21,18.77,9.08,20.41,4.33,8.26,104.89,59.15,121.52,74.14C1404.84,1724.27,1409.43,1767.5,1408.94,1796.55Z"/><path class="cls-12" d="M1203.85,1504.83l47.32,116.55H1170s-16.66-2.79-18.79-36.82c-2.28-36.34-2.28-99-2.28-99l35.64-.17C1198.13,1487.39,1200.26,1494.85,1203.85,1504.83Z"/><polygon class="cls-9" points="1634.03 1697.36 1370.75 1697.36 1274.62 1621.74 1274.07 1621.36 1539.65 1621.36 1615.26 1682.2 1634.03 1697.36"/><path class="cls-13" d="M1651.05,1721.21c-1.54,2.52-3.51,4.16-5.64,4.54l-36.93,6.84c-3.12.6-5.53-4.81-4.71-10.39l3.62-24.84.11-.61.71-5.08c.65-4.38,2.57-7.72,4.92-8.65l2.13-.82,18.77,15.16A119,119,0,0,1,1651.05,1721.21Z"/><path class="cls-6" d="M1404.84,1741.78l-23.8-2.35a18.65,18.65,0,0,1-16.53-15.27l-5.47-30.09a4.27,4.27,0,0,1-.11-1.42c17,9.74,31.24,18.44,36.66,23.31C1399.53,1719.52,1402.65,1729.36,1404.84,1741.78Z"/><path class="cls-13" d="M1450,1746.27l-45.14-4.49h-.05l-23.8-2.35a18.65,18.65,0,0,1-16.53-15.27l-5.47-30.09a4.27,4.27,0,0,1-.11-1.42v-.05a10,10,0,0,1,12-10.18l70.31,14.28a12.11,12.11,0,0,1,9.24,8.64l8.27,30.53A8.24,8.24,0,0,1,1450,1746.27Z"/><path class="cls-9" d="M1477.2,1469.38H1202.93a158.39,158.39,0,0,0-8-37.59c-6.12-17.7-16.71-37.45-35.25-48.72h224.13c36.54,0,68.91,19.52,81.77,48.72a38.12,38.12,0,0,1,1.59,3.63A227.8,227.8,0,0,1,1477.2,1469.38Z"/><path class="cls-12" d="M1404.89,1741.78l-23.85-2.35a18.65,18.65,0,0,1-16.53-15.27l-5.47-30.09a4.57,4.57,0,0,1-.11-1.47c17,9.79,31.24,18.49,36.66,23.36C1399.53,1719.52,1402.65,1729.36,1404.89,1741.78Z"/><path class="cls-14" d="M1662.92,1802.29c0,24.24-20.52,43.88-45.91,43.88H1335.63a88.65,88.65,0,0,0-5.86-49.62h333.09C1662.92,1798.46,1662.92,1800.38,1662.92,1802.29Z"/><path class="cls-14" d="M1236.49,1831.4a86.78,86.78,0,0,0,1.2,14.77H1058v-49.62H1243.6A86.65,86.65,0,0,0,1236.49,1831.4Z"/><path class="cls-14" d="M1477.55,1699.5h107.67c3.44,0,6.07,4.63,5.54,9.77l-3.82,37.42c-.56,5.5-3.69,9.56-7.37,9.56h-88.7c-5.69,0-10.71-5.62-12.36-13.85l-6.39-31.82C1471,1705.07,1473.74,1699.5,1477.55,1699.5Z"/><path class="cls-13" d="M1514.54,1580.65c-127-6.51-212.89-74.46-238.82-97.82h187.5a13,13,0,0,1,11.92,7.82Z"/><rect class="cls-15" x="628.42" y="1383.07" width="480.33" height="463.14"/><path class="cls-10" d="M1227.09,1561.54s4.1,47.1-19.15,60h43.44Z"/><path class="cls-10" d="M1233.47,1593.06s-9.81-7-10.65-12.77v32.94h12.83Z"/><path class="cls-9" d="M1222.81,1580.27v36.33a20.36,20.36,0,0,1-20.36,20.35h-6.51a20.41,20.41,0,0,1-20.35-20.35v-36.33a19.94,19.94,0,0,1,3-10.45v0a20.39,20.39,0,0,1,17.39-9.85h6.51A20.42,20.42,0,0,1,1222.81,1580.27Z"/><path class="cls-14" d="M1220.67,1625.68a20.39,20.39,0,0,1-18.22,11.27h-6.51a20.41,20.41,0,0,1-20.35-20.35v-36.33a19.94,19.94,0,0,1,3-10.45C1178.93,1572.06,1187.57,1621.91,1220.67,1625.68Z"/><path class="cls-8" d="M785.31,1846.21H667.15c-2.49-10.67-10-86.61,56.2-86.61C783.53,1759.59,788,1828.88,785.31,1846.21Z"/><path class="cls-10" d="M704.14,1829.65c0,27.57,14.22,58,14.22,58h24.07c21.14,0,38.29-25.95,38.29-58s-41.22-58-62.36-58S704.14,1797.64,704.14,1829.65Z"/><path class="cls-11" d="M680.07,1829.65c0,32,17.14,58,38.29,58s38.29-25.95,38.29-58-17.15-58-38.29-58S680.07,1797.64,680.07,1829.65Z"/><path class="cls-8" d="M690,1829.65c0,24.12,12.91,43.67,28.84,43.67s28.84-19.55,28.84-43.67S734.77,1786,718.84,1786,690,1805.54,690,1829.65Z"/><path class="cls-14" d="M1477.2,1469.38H1202.93a158.39,158.39,0,0,0-8-37.59h270.65a38.12,38.12,0,0,1,1.59,3.63A227.8,227.8,0,0,1,1477.2,1469.38Z"/><path class="cls-16" d="M777.82,1885.13h-148s-67.67-20.93,0-20.22c0,0-39.81-29.6,20.44-22.55s65.9,25,65.9,25S728.11,1846.13,777.82,1885.13Z"/><path class="cls-16" d="M972.05,1884.68l96.27-.7s-52.59-30.29-60-17.07C1008.33,1866.91,915.16,1847.64,972.05,1884.68Z"/><path class="cls-16" d="M1274.23,1884.76H1105.39s-15.1-18.11,18.12-11.54c0,0-21.54-27.73,28.25-16.62l30.26,10.13s-49.39-62.48,6.08-40.8S1274.23,1884.76,1274.23,1884.76Z"/><path class="cls-16" d="M876.45,1884.68H831.83s-5.8-12.69,10.44-6.34C842.25,1878.34,820.41,1835.69,876.45,1884.68Z"/><path class="cls-17" d="M1541.88,275.32c-102.71,0-186,83.27-186,186s186,331.08,186,331.08,186-228.36,186-331.08S1644.6,275.32,1541.88,275.32Zm0,271a86.94,86.94,0,1,1,86.94-86.94A86.94,86.94,0,0,1,1541.88,546.36Z"/><path class="cls-18" d="M1800.36,1886.21s24.35-49.29,60.63-42.83c0,0,20-42.42,75.43-42.92,56.2-.5,66.88,38.65,66.88,38.65s16-13.51,52.29.36,52.92,46.74,52.92,46.74Z"/><path class="cls-19" d="M2286.32,1888.18H2124a39.72,39.72,0,0,1-39.6-39.64l.12-392.19a39.71,39.71,0,0,1,39.62-39.6h162.31a39.75,39.75,0,0,1,39.62,39.64l-.13,392.19A39.74,39.74,0,0,1,2286.32,1888.18Z"/><path class="cls-20" d="M2308.83,1777l-2.82-20.64h0l-2.83-20.65a19.39,19.39,0,0,0-21.77-16.55c-.59.08-1.15.2-1.72.33a19.25,19.25,0,0,0,3.34-9.15,19.33,19.33,0,0,0,36.63-11.92l-4.85-20.26h0L2310,1657.9a19.34,19.34,0,1,0-37.62,9h0l7.31,30.53a19.18,19.18,0,0,0-15.26-8.21,52.91,52.91,0,0,0-4-40.79l-32.12-26.55a19.33,19.33,0,0,0-26.36,28.19,18.67,18.67,0,0,0-5.15.66l-20.1,5.5h0l-20.1,5.5a19.39,19.39,0,0,0-13.67,14.09l-2.11-5h0l-8-19.23a19.34,19.34,0,1,0-35.7,14.91h0l8,19.23h0l5.15,12.32a19.38,19.38,0,0,0-12.22,17l-1,20.81h0l-1,20.81a19.27,19.27,0,0,0,24.86,19.48,19.5,19.5,0,0,0-1.53,13.07,19.13,19.13,0,0,0-8.2,9.31l-8,19.25h0l-8,19.26a19.33,19.33,0,0,0,32.09,20.47,19.2,19.2,0,0,0,6,7.78,19.4,19.4,0,0,0,27.11-3.6l12.66-16.55h0l12.67-16.55a12.64,12.64,0,0,1,16.34-10.66l3.31-2.28-4.59,6h0l-12.66,16.54a19.34,19.34,0,0,0,30.71,23.51l12.66-16.54h0l12.67-16.55c.16-.21.3-.44.45-.65a20.09,20.09,0,0,0,3.71,4.36l-4.51,5.89a19.34,19.34,0,0,0,30.72,23.51h0l25.33-33.09a19.26,19.26,0,0,0-3.45-27,19.61,19.61,0,0,0-4.78-2.7l.71-.06A19.41,19.41,0,0,0,2308.83,1777Zm-174.29-18.45.36-7.1a18.53,18.53,0,0,0,7.19,7l-8.86,6.11a18.75,18.75,0,0,0,1.3-6ZM2264.87,1741l3.79,27.76a19.43,19.43,0,0,0-20.08-10.64,19.4,19.4,0,0,0,5.26-4.71l10.88-14.21q0,.9.15,1.8Zm-44-75,4.86,4-5,3.46a19.46,19.46,0,0,0,.15-7.45Zm4.19,61.33a19.12,19.12,0,0,0-3.42-8.21,19.07,19.07,0,0,0,4.16-2.15l15.24-10.51Zm12.65,36.19a19.49,19.49,0,0,0-14.57-4.4l.41-5.21a18.54,18.54,0,0,0,3.17,3.09,19.23,19.23,0,0,0,14.5,3.75,19.53,19.53,0,0,0-3.5,2.78Zm-39-73.2a19.39,19.39,0,0,0,.16,21.71c.07.12.18.23.26.35a19.41,19.41,0,0,0-4,2.06,19.41,19.41,0,0,0-6.63-21.28h-.07Zm-19.22,46.51L2187,1727q-.16.92-.24,1.83l-1.42,17.9a19.19,19.19,0,0,0-9.82-4.73l4-5.25Zm-34.95,81.7,2.18-5.29a19.22,19.22,0,0,0,.94-11.77c.45-.25.88-.52,1.31-.81l34.31-23.66c.22-.15.42-.32.63-.48a19.25,19.25,0,0,0,2.18,5.29L2180,1786a29.21,29.21,0,0,1-25.08,19Zm91-23.84,1.07,4.48a18.89,18.89,0,0,0-5.36-1.52Zm40.85,4.52-1.49-6.23h0l-.28-1.19a19.46,19.46,0,0,0,7.9,5.81,19.11,19.11,0,0,0-6.08,1.59Zm-117.15-99.65-10.5,13.72h0l-12.66,16.54c-.06.07-.1.15-.16.23l.66-13.11v-1c.6-.19,1.19-.4,1.78-.64a19.42,19.42,0,0,0,11.81-19.36,19.45,19.45,0,0,0,9.12,3.63Z"/><path class="cls-21" d="M2180.17,1888.18H2124a39.73,39.73,0,0,1-39.6-39.64l.12-392.19a39.71,39.71,0,0,1,39.62-39.6H2174a48.42,48.42,0,0,1,6.5,24.5l-.13,443C2180.33,1885.55,2180.28,1886.87,2180.17,1888.18Z"/><path class="cls-9" d="M2323.49,1435.25H2087.16a7.72,7.72,0,0,1-7.7-7.71v-36.93a7.73,7.73,0,0,1,7.71-7.7h236.32a7.72,7.72,0,0,1,7.7,7.7v36.94a7.7,7.7,0,0,1-7.7,7.7Z"/><path class="cls-6" d="M2172.71,1435.18h-85.55a7.72,7.72,0,0,1-7.7-7.71v-36.93a7.73,7.73,0,0,1,7.71-7.7h85.43a7.74,7.74,0,0,1,7.69,7.71v36.93A7.74,7.74,0,0,1,2172.71,1435.18Z"/><path class="cls-22" d="M815.21,1425.79l-4.36,4.69c-10.34,11.21-38.44,41.71-69.37,76.78-7.3,8.28-14.81,16.88-22.33,25.48-11.22,13-22.22,25.92-32.46,38.45l-.1.11c-3.16,3.7-6.1,7.3-9,10.89-6.1,7.51-11.77,14.7-17,21.46-15.69,20.47-26.68,37-28.76,45.41-12.52,52.39,11.88,199.85,18.19,235.9H307.8c10.34-74.93,24.72-180.79,26.57-196.91,2.83-25.38-85.71-134.29-87.24-213.79s51.08-136.25,59.36-214.45c4-36.81-.55-84.73-6.43-125.57-3.05-21.67-6.64-41.06-9.47-55.76a20.43,20.43,0,0,1,5.44-18.41,18.31,18.31,0,0,1,3.93-3.16,20.06,20.06,0,0,1,19.27-1.52c19.61,8.39,41.39,30.6,47,86,0,0,16.45,10.34,43,27.22,10.78,6.76,23.2,14.6,36.92,23.31,10.57,6.65,21.89,13.84,33.76,21.35.77.44,1.53,1,2.29,1.42,4.79,3,9.48,6.09,14.49,9.25h.1c1.75,1.09,3.49,2.29,5.34,3.38q4.74,3.11,9.8,6.21a13.11,13.11,0,0,0,2.07,1.19l66.87,42.59h.11c3.71,2.17,7.41,4.57,11.11,7,2.83,1.85,5.77,3.59,8.71,5.44,3.6,2.4,7.3,4.69,11,7H612c25.81,16.34,51.08,32.46,74.71,47.38,3.71,2.4,7.41,4.68,11,7,2.95,1.85,5.78,3.7,8.61,5.45,3.81,2.39,7.3,4.68,10.89,7.08h.11c45.09,28.42,79.94,50.64,92.68,58.81C813.36,1424.6,815.21,1425.68,815.21,1425.79Z"/><path class="cls-23" d="M317.5,1115.09a17.77,17.77,0,0,1-15,18.75l-2.37.35c-3.11-21.58-6.65-41-9.48-55.74-1.4-7.19-3.55-14.09-2.94-21.45,14.89-7.29,20.62,10.32,22.45,17.47C313.19,1086.08,316.66,1101.71,317.5,1115.09Z"/><path class="cls-24" d="M719.15,1532.74c-11.22,13-22.22,25.92-32.46,38.45l-.1.11c-3.16,3.7-6.1,7.3-9,10.89-6.1,7.51-11.77,14.7-17,21.46-15.69,20.47-26.68,37-28.76,45.41-12.52,52.39,11.88,199.85,18.19,235.9H427.38c41.28-61.53,46.61-169.9,46.94-219.67.11-12.53,4.14-27.56,10.67-43.46,12.42-30.71,33.77-65.13,53.37-93.55,18.08-26.36,34.74-47.49,41.5-55.87v-.11c2.17-2.51,3.26-3.92,3.26-3.92l123.07-5.23h.11l1.63,8.71,1.31,7.41L714.9,1510Z"/><path class="cls-25" d="M806,1588.62l-368.33,38.06a21.16,21.16,0,0,1-23.16-18.82L338.37,871.29a21.17,21.17,0,0,1,18.83-23.17l368.33-38.07a21.16,21.16,0,0,1,23.16,18.83l76.13,736.57A21.18,21.18,0,0,1,806,1588.62Z"/><path class="cls-26" d="M845.76,1584.51l-368.32,38.06a21.17,21.17,0,0,1-23.17-18.83L378.15,867.18A21.17,21.17,0,0,1,397,844L765.3,805.94a21.18,21.18,0,0,1,23.17,18.83l76.12,736.57A21.18,21.18,0,0,1,845.76,1584.51Z"/><path class="cls-27" d="M648.9,852a4.19,4.19,0,0,0-4.58-3.72l-106.67,11a4.17,4.17,0,0,0,.86,8.3l106.66-11A4.18,4.18,0,0,0,648.9,852Z"/><path class="cls-27" d="M518.71,861.21a4.17,4.17,0,1,0,4.58,3.72A4.19,4.19,0,0,0,518.71,861.21Z"/><path class="cls-27" d="M689,1557.23a26.91,26.91,0,1,0-24,29.53A26.91,26.91,0,0,0,689,1557.23Z"/><rect class="cls-28" x="448.15" y="885.08" width="342.96" height="633.09" transform="matrix(0.99, -0.1, 0.1, 0.99, -120.24, 70.06)"/><rect class="cls-29" x="476.91" y="1443.24" width="342.96" height="73.49" transform="translate(-148.7 74.49) rotate(-5.9)"/><path class="cls-3" d="M583.89,1475.77,760,1457.57a3.72,3.72,0,1,0-.77-7.4l-176.06,18.2a3.72,3.72,0,0,0-3.32,4.08h0A3.74,3.74,0,0,0,583.89,1475.77Z"/><path class="cls-3" d="M765,1469.7a3.74,3.74,0,0,0-4.08-3.32l-176.06,18.2a3.72,3.72,0,1,0,.76,7.4l176.06-18.19A3.74,3.74,0,0,0,765,1469.7Z"/><path class="cls-3" d="M556.22,1459.78a21.37,21.37,0,0,0-1.85-7,24.8,24.8,0,0,0-25.7-15.46,25.11,25.11,0,0,0-22.11,20.36,27.34,27.34,0,0,0-.33,7.3c1.42,13.72,29.63,41.82,29.63,41.82S557.64,1473.6,556.22,1459.78Zm-23.85,14a11.72,11.72,0,0,1-12.85-10.45,12.33,12.33,0,0,1,1.52-7.19,11.85,11.85,0,0,1,8.93-5.77,11.39,11.39,0,0,1,9.91,3.81,11.69,11.69,0,0,1-7.51,19.6Z"/><rect class="cls-3" x="472.6" y="982.9" width="197.75" height="163.06" transform="translate(1249.35 2064.47) rotate(174.1)"/><rect class="cls-30" x="571.03" y="974.34" width="166.46" height="163.06" transform="translate(-105.07 72.85) rotate(-5.9)"/><polygon class="cls-5" points="741.18 1087.28 745.43 1128.41 579.86 1145.53 563.09 983.33 741.18 1087.28"/><polygon class="cls-5" points="477.37 1114.54 508.54 1111.32 504.89 1102.84 506.99 1096.29 475.82 1099.51 477.37 1114.54"/><polygon class="cls-5" points="470.62 1049.22 501.79 1046 498.14 1037.51 500.23 1030.96 469.06 1034.18 470.62 1049.22"/><polygon class="cls-3" points="734.43 1021.95 703.26 1025.17 705.1 1016.12 701.71 1010.14 732.88 1006.92 734.43 1021.95"/><path class="cls-5" d="M511.13,1201.87a23.88,23.88,0,0,0-3.27-1.74,22.29,22.29,0,0,0-10.12-1.42,20.94,20.94,0,0,0-17.76,14.6,19.7,19.7,0,0,0-.87,8.39,21,21,0,0,0,23,18.62,19.29,19.29,0,0,0,12-5.56,20.23,20.23,0,0,0,6.65-17.42A20.76,20.76,0,0,0,511.13,1201.87Zm.87,31.7a18.2,18.2,0,0,1-10.13,4.35,18.46,18.46,0,0,1-20.25-16.44,17.63,17.63,0,0,1,.65-6.75,18.15,18.15,0,0,1,15.79-13.62,16.32,16.32,0,0,1,8.61,1.31,14,14,0,0,1,3.59,1.85,18.45,18.45,0,0,1,1.74,29.3Z"/><polygon class="cls-3" points="487.84 1210.03 501.09 1230.64 518.84 1179.62 499.54 1215.64 487.84 1210.03"/><path class="cls-5" d="M528.67,1294.12a20.93,20.93,0,0,0-9.59-15.57,29.88,29.88,0,0,0-3.27-1.75,22.51,22.51,0,0,0-10.12-1.41,20.91,20.91,0,1,0,23,18.73Zm-18.95,20.48a18.45,18.45,0,1,1-3.7-36.71,17.55,17.55,0,0,1,8.6,1.2,14,14,0,0,1,3.59,1.85,18.31,18.31,0,0,1,8.06,13.4A18.61,18.61,0,0,1,509.72,1314.6Z"/><polygon class="cls-3" points="495.77 1286.72 509.01 1307.33 526.76 1256.31 507.46 1292.32 495.77 1286.72"/><path class="cls-5" d="M536.62,1370.79a20.91,20.91,0,1,0-18.63,23A21,21,0,0,0,536.62,1370.79Zm-19,20.48A18.45,18.45,0,1,1,534.11,1371,18.46,18.46,0,0,1,517.67,1391.27Z"/><path class="cls-5" d="M748.19,1190.57l-197,20.36a3.66,3.66,0,0,1-4-3.26l-.09-.8a3.67,3.67,0,0,1,3.25-4l197-20.35a3.65,3.65,0,0,1,4,3.25l.08.8A3.65,3.65,0,0,1,748.19,1190.57Z"/><path class="cls-5" d="M749.67,1204.91l-196.95,20.36a3.65,3.65,0,0,1-4-3.25l-.09-.81a3.67,3.67,0,0,1,3.26-4l197-20.35a3.65,3.65,0,0,1,4,3.25l.08.8A3.64,3.64,0,0,1,749.67,1204.91Z"/><path class="cls-5" d="M756.13,1267.39l-197,20.35a3.66,3.66,0,0,1-4-3.25l-.08-.8a3.65,3.65,0,0,1,3.25-4l197-20.36a3.67,3.67,0,0,1,4,3.26l.08.8A3.66,3.66,0,0,1,756.13,1267.39Z"/><path class="cls-5" d="M757.61,1281.73l-197,20.36a3.66,3.66,0,0,1-4-3.26l-.09-.8a3.67,3.67,0,0,1,3.26-4l196.95-20.35a3.65,3.65,0,0,1,4,3.25l.08.8A3.65,3.65,0,0,1,757.61,1281.73Z"/><path class="cls-5" d="M764.07,1344.21l-197,20.35a3.66,3.66,0,0,1-4-3.25l-.08-.8a3.65,3.65,0,0,1,3.25-4l197-20.36a3.66,3.66,0,0,1,4,3.25l.08.81A3.66,3.66,0,0,1,764.07,1344.21Z"/><path class="cls-5" d="M765.55,1358.55,568.6,1378.9a3.64,3.64,0,0,1-4-3.25l-.09-.8a3.65,3.65,0,0,1,3.25-4l197-20.36a3.67,3.67,0,0,1,4,3.25l.08.81A3.66,3.66,0,0,1,765.55,1358.55Z"/><path class="cls-22" d="M799,927.2s53.46-47.5,88.52-20.54-78.89,113.79-78.89,113.79Z"/><path class="cls-22" d="M860.84,1122.16l-62.13,34.37a37.54,37.54,0,0,1-50.86-14.63l-10.14-18.35a37.53,37.53,0,0,1,14.63-50.86l62.12-34.36A37.53,37.53,0,0,1,865.32,1053l10.15,18.34A37.53,37.53,0,0,1,860.84,1122.16Z"/><path class="cls-22" d="M871.59,1226.25l-62.12,34.36A37.52,37.52,0,0,1,758.61,1246l-10.15-18.34a37.54,37.54,0,0,1,14.64-50.86l62.12-34.36a37.52,37.52,0,0,1,50.86,14.63l10.15,18.34A37.54,37.54,0,0,1,871.59,1226.25Z"/><path class="cls-22" d="M882.06,1327.52l-62.12,34.37a37.53,37.53,0,0,1-50.86-14.63l-10.15-18.34a37.53,37.53,0,0,1,14.63-50.86l62.13-34.37a37.54,37.54,0,0,1,50.86,14.63l10.14,18.35A37.52,37.52,0,0,1,882.06,1327.52Z"/><path class="cls-23" d="M740.64,1099c9.64-7.25,22.79-16.37,34.84-22.13a17.82,17.82,0,0,1,23,6.8l13.62,22.77a16.83,16.83,0,0,1-5.54,23,299.91,299.91,0,0,1-37,19.66,20.72,20.72,0,0,1-26.21-8.9l-8.27-14.66A20.52,20.52,0,0,1,740.64,1099Z"/><path class="cls-23" d="M751.69,1206c9.64-7.26,22.8-16.38,34.84-22.13a17.81,17.81,0,0,1,23,6.8l13.62,22.76a16.83,16.83,0,0,1-5.54,23,301.07,301.07,0,0,1-37,19.66,20.73,20.73,0,0,1-26.22-8.91l-8.27-14.65A20.52,20.52,0,0,1,751.69,1206Z"/><path class="cls-23" d="M764,1306.2c9.64-7.25,22.8-16.37,34.84-22.12a17.8,17.8,0,0,1,23,6.79l13.62,22.77a16.82,16.82,0,0,1-5.54,23,299.71,299.71,0,0,1-37,19.66,20.73,20.73,0,0,1-26.22-8.9l-8.27-14.66A20.52,20.52,0,0,1,764,1306.2Z"/><path class="cls-3" d="M2192.06,1828.89h135.12a28.61,28.61,0,0,1,0,57.21H2192.07a28.61,28.61,0,0,1,0-57.21Z"/><path class="cls-5" d="M2261.77,1828.89h65.42a28.61,28.61,0,0,1,0,57.21h-65.42a28.61,28.61,0,1,1,0-57.21Z"/><rect class="cls-31" x="2185.73" y="1835.23" width="136.99" height="9.02" rx="4.05"/><path class="cls-6" d="M2319.46,1762.92l128.07,64.19h0a30.33,30.33,0,0,1-27.18,54.23l-128.06-64.18a30.33,30.33,0,0,1,27.17-54.24Z"/><path class="cls-9" d="M2385.52,1796l62,31.08a30.33,30.33,0,0,1-27.18,54.23l-62-31.08a30.33,30.33,0,1,1,27.18-54.23Z"/><path class="cls-32" d="M2308.07,1770.64l.44-.87a4.33,4.33,0,0,1,5.77-1.92l122.16,61.22a4.33,4.33,0,0,1,1.91,5.77l-.43.87a4.3,4.3,0,0,1-5.77,1.91L2310,1776.41A4.32,4.32,0,0,1,2308.07,1770.64Z"/><path class="cls-1" d="M1086.92,424.34a79.45,79.45,0,0,0-74.65,52.3,54.5,54.5,0,0,0-81,47.63c0,1.79.1,3.55.27,5.3h354.7a43.82,43.82,0,0,0-52.57-32.81h0l-1.15.29A64.49,64.49,0,0,0,1155,462.76a79.39,79.39,0,0,0-68-38.42Z"/><path class="cls-1" d="M521.6,710.1a28.08,28.08,0,0,1,33.67-21l.75.18a41.36,41.36,0,0,1,49.7-21.92,50.92,50.92,0,0,1,91.44,8.9,34.93,34.93,0,0,1,51.9,30.51c0,1.14-.06,2.28-.17,3.4Z"/><path class="cls-1" d="M2120.22,1123.11a28.07,28.07,0,0,1,33.68-21h0l.72.18a41.3,41.3,0,0,1,49.69-22,50.91,50.91,0,0,1,91.41,8.87,34.93,34.93,0,0,1,51.9,30.52,31.93,31.93,0,0,1-.16,3.39Z"/><path class="cls-33" d="M2088,1470.33v217.82a24.38,24.38,0,0,1-24.31,24.31H1934.26a24.07,24.07,0,0,1-9.75-2.06,24.41,24.41,0,0,1-14.55-22.25V1470.33a24.38,24.38,0,0,1,24.3-24.3h129.45A24.37,24.37,0,0,1,2088,1470.33Z"/><path class="cls-34" d="M2030.66,1527.91a26.46,26.46,0,1,1,34.07-15.48A26.47,26.47,0,0,1,2030.66,1527.91Z"/><path class="cls-35" d="M2064.73,1512.46l-49.53-18.6a26.45,26.45,0,1,1,49.53,18.6Z"/><path class="cls-34" d="M1941.26,1523.65a26.45,26.45,0,1,1,37.22-3.76A26.45,26.45,0,0,1,1941.26,1523.65Z"/><path class="cls-35" d="M1978.48,1519.89l-41-33.48a26.45,26.45,0,1,1,41.1,33.31l-.12.15Z"/><path class="cls-34" d="M1933.43,1577a26.46,26.46,0,1,1,14.73,34.4,26.45,26.45,0,0,1-14.73-34.4Z"/><path class="cls-34" d="M2088,1500.13v189.55c0,12.5-10,22.77-22.24,22.77h-118.5a21.67,21.67,0,0,1-8.93-1.93V1526.37a26.52,26.52,0,0,1,8.14-19.12,25.74,25.74,0,0,1,6.26-4.43,25,25,0,0,1,11.22-2.66Z"/><rect class="cls-33" x="1942.61" y="1501.35" width="178.08" height="266.43" rx="24.31"/><path class="cls-34" d="M2063.34,1583.29a26.46,26.46,0,1,1,34.07-15.48,26.46,26.46,0,0,1-34.07,15.48Z"/><path class="cls-35" d="M2097.41,1567.81l-49.53-18.61a26.46,26.46,0,0,1,49.53,18.61Z"/><path class="cls-34" d="M1973.93,1579a26.45,26.45,0,1,1,37.23-3.76A26.45,26.45,0,0,1,1973.93,1579Z"/><path class="cls-35" d="M2011.16,1575.23l-41-33.46a26.46,26.46,0,1,1,41.11,33.31Z"/><rect class="cls-25" x="1897.31" y="1588.24" width="203.34" height="303.46"/><rect class="cls-26" x="1925.63" y="1588.24" width="203.34" height="303.47"/><polygon class="cls-25" points="1925.63 1605.85 1915.89 1621 1897.31 1621 1897.31 1588.24 1925.63 1588.24 1925.63 1605.85"/><polygon class="cls-26" points="1908.27 1612.14 1879.94 1612.14 1897.31 1588.24 1925.63 1588.24 1908.27 1612.14"/><polygon class="cls-36" points="2030.51 1892.67 1925.63 1892.67 1925.63 1602.07 2030.51 1612.14 2030.51 1892.67"/><polygon class="cls-25" points="2128.97 1612.14 2112.48 1621 1935.43 1621 1925.63 1605.85 1925.63 1588.23 2128.97 1612.14"/><rect class="cls-33" x="1747.57" y="1670.12" width="325.79" height="220.87" rx="29.93"/><path class="cls-34" d="M1847.73,1741.26a32.21,32.21,0,0,1-41.27,19.33l-.41-.15a32.94,32.94,0,0,1-18.91-42.28,32.21,32.21,0,0,1,41.25-19.34l.43.16A33,33,0,0,1,1847.73,1741.26Z"/><path class="cls-35" d="M1828.83,1699l-22.75,61.44a33,33,0,0,1-18.91-42.28,32.16,32.16,0,0,1,41.15-19.34Z"/><path class="cls-34" d="M1842.52,1852.15a32,32,0,0,1-45,5.06h0l-.48-.4a33.13,33.13,0,0,1-4.61-46.17,32,32,0,0,1,45-5.07h0l.5.4A33.16,33.16,0,0,1,1842.52,1852.15Z"/><path class="cls-35" d="M1837.91,1806,1797,1856.82a33.14,33.14,0,0,1-4.6-46.17,32,32,0,0,1,45-5.06Z"/><path class="cls-34" d="M2045.08,1741.26a32.23,32.23,0,0,1-41.28,19.33l-.4-.15a33,33,0,0,1-18.91-42.28,32.21,32.21,0,0,1,41.25-19.34l.43.16C2043,1705.34,2051.36,1724.29,2045.08,1741.26Z"/><path class="cls-35" d="M2026.17,1699l-22.73,61.44a33,33,0,0,1-18.92-42.28,32.17,32.17,0,0,1,41.2-19.32Z"/><path class="cls-34" d="M2039.86,1852.14a32,32,0,0,1-44.07,5.79c-.49-.35-1-.73-1.45-1.12a33.13,33.13,0,0,1-4.59-46.17,32,32,0,0,1,45-5.07h0l.5.4,1.37,1.19A33.16,33.16,0,0,1,2039.86,1852.14Z"/><path class="cls-35" d="M2036.64,1807.18l-40.85,50.75c-.49-.35-1-.73-1.45-1.12a33.13,33.13,0,0,1-4.6-46.17,32,32,0,0,1,45-5.07h0l.5.4C2035.72,1806.37,2036.18,1806.76,2036.64,1807.18Z"/><path class="cls-34" d="M1949,1715.66a33,33,0,0,1-15.38,43.7,32.15,32.15,0,0,1-42.87-15.13c-.08-.16-.15-.31-.21-.46a33,33,0,0,1,15.38-43.71,32.15,32.15,0,0,1,42.87,15.14Z"/><path class="cls-35" d="M1905.94,1700.07l27.71,59.3a32.15,32.15,0,0,1-42.87-15.14l-.21-.46A33,33,0,0,1,1905.94,1700.07Z"/><path class="cls-34" d="M1907.79,1861.86a33,33,0,0,1-18-42.66,32.21,32.21,0,0,1,42.06-18.28,33,33,0,0,1,18,42.66A32.21,32.21,0,0,1,1907.79,1861.86Z"/><path class="cls-35" d="M1949.83,1843.58l-60.07-24.41a32.22,32.22,0,0,1,42.06-18.28A33,33,0,0,1,1949.83,1843.58Z"/><path class="cls-37" d="M134.36,1885H2465.64a2.58,2.58,0,0,1,2.57,2.6v.73a2.59,2.59,0,0,1-2.57,2.6H134.36a2.59,2.59,0,0,1-2.57-2.6v-.73A2.58,2.58,0,0,1,134.36,1885Z"/><path class="cls-38" d="M630.25,773.18l-3.65-1.66c.82-1.8,1.69-3.65,2.57-5.47l3.6,1.74C631.9,769.59,631.05,771.4,630.25,773.18Z"/><path class="cls-38" d="M638.28,757.1l-3.52-1.92c1.92-3.51,4-7.07,6.09-10.58l3.42,2.07C642.18,750.13,640.17,753.63,638.28,757.1Zm12.44-20.59-3.33-2.21c2.21-3.33,4.55-6.7,7-10l3.24,2.35C655.22,729.9,652.91,733.23,650.72,736.51ZM664.83,717l-3.15-2.46c2.46-3.16,5-6.35,7.67-9.48l3.07,2.57C669.82,710.72,667.27,713.87,664.83,717Zm15.49-18.48-3-2.67c2.67-3,5.45-6,8.27-9l2.89,2.76C685.71,692.58,683,695.56,680.32,698.51ZM697,681l-2.82-2.84c2.84-2.82,5.79-5.67,8.77-8.46l2.74,2.91C702.69,675.41,699.77,678.23,697,681Zm17.59-16.54-2.66-3c3-2.67,6.08-5.36,9.19-8l2.58,3C720.57,659.18,717.51,661.84,714.54,664.49ZM733,648.84l-2.52-3.11c3.12-2.52,6.32-5.07,9.54-7.56l2.45,3.16C739.23,643.81,736,646.33,733,648.84ZM752.05,634l-2.39-3.21c3.22-2.39,6.53-4.79,9.84-7.16l2.32,3.26C758.53,629.26,755.24,631.65,752.05,634Zm19.69-14-2.26-3.3c3.3-2.26,6.7-4.54,10.1-6.78l2.2,3.34C778.4,615.47,775,617.74,771.74,620Zm20.2-13.3-2.14-3.38c3.39-2.15,6.87-4.31,10.33-6.42l2.08,3.42C798.77,602.4,795.32,604.55,791.94,606.69Zm20.65-12.6-2-3.45c3.46-2,7-4.08,10.53-6.08l2,3.48C819.55,590,816,592.06,812.59,594.09Zm21-11.94-1.92-3.51c3.51-1.92,7.11-3.86,10.71-5.76l1.87,3.53C840.71,578.31,837.13,580.23,833.63,582.15ZM855,570.83l-1.82-3.56c3.57-1.82,7.23-3.66,10.87-5.45l1.77,3.59C862.22,567.19,858.59,569,855,570.83Zm21.71-10.7L875,556.52c3.64-1.74,7.35-3.48,11-5.16L887.7,555C884.05,556.67,880.37,558.4,876.74,560.13Zm22-10.13-1.62-3.65c3.69-1.65,7.44-3.28,11.14-4.87l1.57,3.67C906.13,546.73,902.4,548.37,898.72,550ZM921,540.44l-1.54-3.69c3.73-1.55,7.52-3.09,11.26-4.59l1.48,3.71C928.45,537.36,924.68,538.9,921,540.44Zm22.47-9L942,527.71c3.76-1.46,7.58-2.91,11.37-4.32l1.39,3.74C951,528.54,947.18,530,943.44,531.44ZM966.08,523l-1.35-3.76c3.77-1.36,7.61-2.72,11.43-4l1.31,3.78C973.67,520.27,969.84,521.63,966.08,523Zm22.82-7.92-1.26-3.79c3.82-1.28,7.7-2.55,11.53-3.78l1.22,3.81C996.58,512.52,992.71,513.79,988.9,515.06Zm23-7.4-1.18-3.82c3.83-1.18,7.75-2.37,11.62-3.52l1.14,3.84C1019.65,505.3,1015.75,506.48,1011.93,507.66Zm23.21-6.88-1.09-3.85c3.9-1.11,7.84-2.2,11.71-3.26l1,3.86C1043,498.58,1039,499.67,1035.14,500.78Zm23.39-6.36-1-3.87c3.9-1,7.87-2,11.8-3l1,3.88C1066.37,492.4,1062.42,493.41,1058.53,494.42Zm23.55-5.84-.91-3.89c3.94-.93,7.94-1.85,11.87-2.73l.88,3.9C1090,486.74,1086,487.66,1082.08,488.58Zm23.71-5.3-.83-3.91c4-.84,8-1.66,11.91-2.45l.78,3.93C1113.72,481.63,1109.73,482.45,1105.79,483.28Zm23.75-4.73-.74-3.93c4-.75,8-1.48,12-2.17l.69,3.95C1137.52,477.08,1133.51,477.81,1129.54,478.55Zm23.85-4.17-.65-3.95c4-.65,8-1.28,12-1.87l.6,3.95C1161.4,473.1,1157.38,473.73,1153.39,474.38Zm23.94-3.59-.55-4c4-.55,8.09-1.08,12.06-1.57l.49,4C1185.38,469.72,1181.34,470.24,1177.33,470.79Zm24-3-.44-4c4-.44,8.11-.87,12.09-1.26l.39,4C1209.43,466.94,1205.38,467.36,1201.35,467.81Zm24.09-2.35-.33-4c4-.34,8.11-.66,12.12-.94l.28,4C1233.52,464.8,1229.46,465.12,1225.44,465.46Zm24.14-1.7-.22-4c4-.23,8.13-.43,12.14-.59l.17,4C1257.67,463.34,1253.6,463.54,1249.58,463.76Zm24.18-1-.1-4c4.06-.11,8.15-.19,12.15-.23l0,4C1281.88,462.58,1277.81,462.66,1273.76,462.77Zm36.28-.09c-4-.09-8.07-.15-12.09-.17l0-4c4,0,8.13.08,12.16.17Z"/><path class="cls-38" d="M1328,463.31q-3-.15-6-.26l.16-4,6,.26Z"/><path class="cls-38" d="M2226.86,1351.68l-.48-1.6c.06-.52.41-3.39.88-8.3l4,.38c-.47,5-.83,7.88-.89,8.42l-2-.23Zm5.39-21.52-4-.3c.29-3.86.56-7.88.79-11.94l4,.23C2232.81,1322.24,2232.54,1326.28,2232.25,1330.16Zm1.4-24-4-.17c.17-3.93.32-8,.43-12l4,.12C2234,1298.14,2233.82,1302.18,2233.65,1306.13Zm.7-24.05-4-.06c.07-4,.11-8,.12-12l4,0C2234.46,1274.05,2234.42,1278.1,2234.35,1282.08Zm-3.92-24c0-4-.1-8-.18-12l4-.09c.08,4,.15,8,.18,12Zm-.52-24c-.13-4-.29-8-.48-12l4-.18c.18,4,.35,8,.48,12Zm-1.1-23.93c-.24-4-.5-8-.78-12l4-.28c.28,4,.55,8,.78,12Zm-1.7-23.9c-.33-4-.69-8-1.07-11.93l4-.38c.38,3.94.74,8,1.08,12Zm-2.29-23.85c-.43-3.94-.89-7.94-1.37-11.89l4-.49c.48,4,.94,8,1.37,12Zm-2.9-23.77c-.53-3.94-1.1-7.93-1.68-11.86l4-.59c.58,4,1.15,8,1.68,11.91Zm-3.52-23.7c-.64-4-1.31-7.93-2-11.8l3.94-.7c.69,3.89,1.36,7.88,2,11.86Zm-4.15-23.58c-.75-3.93-1.53-7.88-2.33-11.75l3.92-.8c.8,3.88,1.59,7.86,2.34,11.8Zm-4.81-23.46c-.86-3.89-1.75-7.81-2.66-11.68l3.89-.91c.91,3.88,1.81,7.82,2.67,11.73Zm-5.49-23.31c-1-3.86-2-7.76-3-11.59l3.87-1c1,3.84,2,7.76,3,11.65Zm-6.19-23.13c-1.09-3.83-2.22-7.7-3.36-11.48l3.83-1.16c1.15,3.81,2.29,7.69,3.38,11.55Zm-6.9-22.92c-1.21-3.79-2.47-7.61-3.73-11.37l3.79-1.28c1.27,3.78,2.53,7.63,3.75,11.44Zm-7.65-22.68c-1.34-3.75-2.72-7.53-4.11-11.24l3.74-1.4c1.4,3.72,2.79,7.53,4.14,11.3Zm-8.42-22.4c-1.47-3.72-3-7.45-4.5-11.09l3.7-1.54c1.52,3.67,3,7.42,4.52,11.16Zm-9.2-22.09c-1.29-2.94-2.62-5.92-4-8.84l-.95-2.07,3.64-1.67,1,2.08c1.34,2.94,2.68,5.94,4,8.9Zm-9.94-21.78c-1.72-3.65-3.43-7.25-5.16-10.81l3.61-1.74q2.58,5.36,5.17,10.85ZM2145.23,888c-1.77-3.57-3.58-7.17-5.38-10.7l3.56-1.82c1.81,3.55,3.63,7.16,5.4,10.74Zm-10.88-21.33c-1.86-3.55-3.75-7.1-5.63-10.57l3.52-1.9c1.89,3.48,3.79,7,5.65,10.61ZM2123,845.65c-1.94-3.49-3.92-7-5.89-10.43l3.47-2c2,3.45,4,7,5.92,10.47Zm-11.91-20.76c-2-3.45-4.12-6.9-6.18-10.26l3.42-2.08c2.06,3.37,4.15,6.83,6.2,10.3Zm-12.49-20.42c-2.14-3.38-4.32-6.77-6.48-10.06l3.35-2.19c2.17,3.31,4.36,6.71,6.51,10.12Zm-13.1-20c-2.24-3.3-4.53-6.62-6.8-9.84l3.28-2.3c2.28,3.24,4.57,6.57,6.83,9.9Zm-13.75-19.57c-2.36-3.22-4.75-6.45-7.13-9.59l3.19-2.42c2.39,3.16,4.8,6.41,7.17,9.66Zm-14.44-19.06c-2.46-3.13-5-6.27-7.48-9.32l3.09-2.53c2.52,3.07,5.05,6.23,7.53,9.38Zm-15.15-18.49c-2.58-3-5.22-6.05-7.85-9l3-2.66c2.65,3,5.31,6,7.9,9.08Zm-15.89-17.84c-2.72-2.93-5.49-5.84-8.23-8.67l2.87-2.78c2.76,2.84,5.55,5.78,8.29,8.72Zm-16.66-17.14c-2.83-2.78-5.72-5.57-8.61-8.28l2.74-2.91c2.91,2.73,5.83,5.53,8.68,8.34ZM1992.17,676c-3-2.66-6-5.3-9-7.87l2.6-3c3,2.58,6.07,5.25,9.06,7.93ZM1974,660.49c-3.08-2.51-6.23-5-9.36-7.43l2.45-3.16c3.15,2.44,6.32,5,9.43,7.48Zm-18.89-14.62c-3.19-2.35-6.45-4.69-9.71-7l2.3-3.27c3.28,2.29,6.57,4.65,9.78,7Zm-19.57-13.7c-3.29-2.18-6.66-4.37-10-6.49l2.14-3.39c3.39,2.15,6.79,4.35,10.1,6.55Zm-20.2-12.76c-3.38-2-6.85-4.06-10.31-6l2-3.48c3.49,2,7,4,10.39,6.08Zm-20.76-11.84c-3.45-1.88-7-3.76-10.56-5.59l1.83-3.56c3.58,1.85,7.16,3.74,10.64,5.63Zm-21.21-11c-3.53-1.73-7.16-3.47-10.77-5.17l1.7-3.62c3.63,1.71,7.28,3.45,10.83,5.2Zm-21.63-10.14c-3.59-1.61-7.28-3.23-11-4.8l1.58-3.68c3.7,1.59,7.4,3.21,11,4.83Zm-22-9.44c-3.61-1.48-7.35-3-11.11-4.47l1.46-3.72c3.78,1.49,7.54,3,11.17,4.49Zm-22.3-8.81c-3.63-1.38-7.41-2.8-11.24-4.2l1.38-3.76c3.84,1.42,7.64,2.84,11.29,4.22Zm-22.53-8.29q-5.64-2-11.3-4l1.31-3.78q5.68,2,11.33,4Zm-22.64-7.86q-5.65-1.92-11.36-3.82l1.26-3.79q5.71,1.89,11.39,3.82Z"/></g></g></svg>