<svg xmlns="http://www.w3.org/2000/svg" viewBox="0 0 2600 2000"><defs><style>.cls-1,.cls-5{isolation:isolate;}.cls-2{fill:#fff;}.cls-3{fill:#caf0ff;}.cls-4{fill:#6558f5;}.cls-5,.cls-7{fill:#8b82f7;}.cls-5{opacity:0.3;}.cls-6{opacity:0.75;}.cls-8{fill:#cbccea;}.cls-9{fill:#f6dedc;}.cls-10{fill:#b8cdfb;}.cls-11{fill:#c455a8;}.cls-12,.cls-14{fill:#d380be;}.cls-13{fill:#f5be00;}.cls-14{opacity:0.2;}.cls-15{fill:#183658;}.cls-16{fill:#1a1a1a;}.cls-17{fill:#9e9da2;}.cls-18{fill:#d8d9dd;}.cls-19{fill:#dc827b;}.cls-20{fill:#cf283c;}.cls-21{fill:#f3fcff;}.cls-22,.cls-23{fill:#d1594f;}.cls-23{mix-blend-mode:multiply;opacity:0.5;}.cls-24{fill:#f7a491;}.cls-25{fill:#f48c7f;}.cls-26{fill:#434683;}.cls-27{fill:#4a4d91;}.cls-28{fill:#d9aa03;}.cls-29{fill:#f8a492;}.cls-30{fill:#f47458;}.cls-31{fill:#184655;}.cls-32{fill:#2e3552;}</style></defs><g class="cls-1"><g id="Calque_3" data-name="Calque 3"><rect class="cls-2" width="2600" height="2000"/></g><g id="Layer_1" data-name="Layer 1"><g id="Driver"><path class="cls-3" d="M1746.46,1888.14l472.89-1.78s355.24-217.37,218-785.74c-41.4-171.48-280-431.89-572.88-451.26-357.29-23.63-326.74-454.58-992.74-370.84-183.09,23-424.17,211.89-571.28,512C190.88,1014-30,1339.66,323.65,1888.18Z"/><path class="cls-2" d="M1720.13,781.08c-14.41-.83-48.21-2.27-77.6.21a20.62,20.62,0,0,1-22.38-20.88c.12-5,1.91-10.8,6.54-17.38,17.84-25.34,48.85-1.14,48.55,11.72,0,0,6.27-19.37,25.31-16s12.31,31.56,12.31,31.56,6.15-1.3,10.41,1.61A5,5,0,0,1,1720.13,781.08Z"/><path class="cls-2" d="M2234.29,973.34a10.68,10.68,0,0,0-1.53-9.44c-3.85-5.25-10.83-9.71-23.34-10.47,0,0,13.53-60.13-38.91-66.44-53.9-6.48-56.68,56.89-56.68,56.89s-30.55-33.62-47.2,7.34c0,0-32.88-16.59-48.67,3.32a15,15,0,0,0,.13,18.8Z"/><path class="cls-2" d="M1123.5,469.9a12.85,12.85,0,0,0-1.85-11.35c-4.62-6.31-13-11.67-28.05-12.59,0,0,16.26-72.27-46.78-79.85-64.78-7.8-68.12,68.37-68.12,68.37S942,394.07,922,443.31c0,0-39.52-19.94-58.5,4a18.07,18.07,0,0,0,.16,22.6Z"/><polygon class="cls-4" points="2377.09 1712.93 2359.16 1713.01 2359.16 1713.11 2336.65 1713.11 2336.65 1656.85 2314.14 1656.85 2314.14 1319.28 2286.01 1319.28 2286.01 1105.48 2149.53 1105.48 2150.94 1363.19 2059.93 1364.24 2059.93 1157.94 1918.86 1157.94 1918.86 1377.22 1876.65 1378.63 1876.65 1157.53 1827.43 1157.53 1827.43 1063.28 1797.88 1063.28 1797.88 999.97 1682.59 999.97 1682.59 1063.28 1653.03 1063.28 1653.03 1157.53 1603.77 1157.53 1603.77 1277.33 1581.04 1278.74 1574.22 923.82 1422.34 923.82 1422.34 1112.62 1368.91 1114.03 1368.91 818.92 1350.62 818.92 1350.62 756.64 1190.26 756.64 1190.26 818.92 1171.98 818.92 1171.98 1283.46 1138.19 1283.46 1138.19 1092.61 1110.06 1092.61 1110.06 1031.94 1069.26 1031.94 1069.26 854.98 1010.12 854.98 1010.12 1031.99 969.33 1031.99 969.33 1092.66 941.31 1092.66 941.31 1302.45 921.62 1302.45 906.16 1302.25 906.16 1059.14 489.82 1063.09 489.82 1610.45 454.63 1610.45 454.63 1538.76 328.02 1538.76 328.02 1676.6 328.02 1885.18 2377.09 1885.18 2377.09 1712.93"/><rect class="cls-5" x="1435.37" y="966.58" width="122.78" height="16.42"/><g class="cls-6"><rect class="cls-7" x="524.15" y="1102.78" width="49.26" height="63.81"/><rect class="cls-7" x="524.15" y="1308.02" width="49.26" height="63.81"/><rect class="cls-7" x="599.86" y="1102.78" width="49.26" height="63.81"/><rect class="cls-7" x="675.55" y="1102.78" width="49.26" height="63.81"/><rect class="cls-7" x="675.55" y="1446.91" width="49.26" height="63.81"/><rect class="cls-7" x="599.86" y="1204.59" width="49.26" height="63.81"/><rect class="cls-7" x="599.86" y="1555.91" width="49.26" height="63.81"/><rect class="cls-7" x="599.86" y="1308.02" width="49.26" height="63.81"/><rect class="cls-7" x="740.61" y="1308.02" width="49.26" height="63.81"/><rect class="cls-7" x="740.61" y="1555.91" width="49.26" height="63.81"/><rect class="cls-7" x="802.56" y="1102.78" width="49.26" height="63.81"/><rect class="cls-7" x="1202.03" y="849.67" width="27.37" height="35.45"/><rect class="cls-7" x="1258.95" y="849.67" width="27.37" height="35.45"/><rect class="cls-7" x="1202.03" y="912.21" width="27.37" height="35.45"/><rect class="cls-7" x="1315.89" y="912.21" width="27.37" height="35.45"/><rect class="cls-7" x="1258.95" y="974.78" width="27.37" height="35.45"/><rect class="cls-7" x="1315.89" y="974.78" width="27.37" height="35.45"/><rect class="cls-7" x="1202.03" y="1037.34" width="27.37" height="35.45"/><rect class="cls-7" x="1315.89" y="1037.34" width="27.37" height="35.45"/><rect class="cls-7" x="1202.03" y="1099.91" width="27.37" height="35.45"/><rect class="cls-7" x="1258.95" y="1099.91" width="27.37" height="35.45"/><rect class="cls-7" x="1315.89" y="1162.46" width="27.37" height="35.45"/><rect class="cls-7" x="1202.03" y="1287.6" width="27.37" height="35.45"/><rect class="cls-7" x="1645.43" y="1183.01" width="27.37" height="35.45"/><rect class="cls-7" x="1797.47" y="1183.01" width="27.37" height="35.45"/><rect class="cls-7" x="1719.43" y="1086.72" width="27.37" height="35.45"/><rect class="cls-7" x="2159.3" y="1140.21" width="27.37" height="35.45"/><rect class="cls-7" x="2250.82" y="1140.21" width="27.37" height="35.45"/><rect class="cls-7" x="2250.82" y="1203.4" width="27.37" height="35.45"/><rect class="cls-7" x="2159.3" y="1266.59" width="27.37" height="35.45"/><rect class="cls-7" x="2250.82" y="1266.59" width="27.37" height="35.45"/><rect class="cls-7" x="2159.3" y="1329.77" width="27.37" height="35.45"/><rect class="cls-7" x="2205.05" y="1392.97" width="27.37" height="35.45"/><rect class="cls-7" x="2250.82" y="1392.97" width="27.37" height="35.45"/><rect class="cls-7" x="2250.82" y="1456.16" width="27.37" height="35.45"/><rect class="cls-7" x="2159.3" y="1519.34" width="27.37" height="35.45"/><rect class="cls-7" x="2205.05" y="1519.34" width="27.37" height="35.45"/><rect class="cls-7" x="1778.21" y="1086.72" width="27.37" height="35.45"/><rect class="cls-7" x="1645.43" y="1254.32" width="27.37" height="35.45"/><rect class="cls-7" x="1696.11" y="1254.32" width="27.37" height="35.45"/><rect class="cls-7" x="1645.43" y="1325.65" width="27.37" height="35.45"/><rect class="cls-7" x="1746.78" y="1325.65" width="27.37" height="35.45"/><rect class="cls-7" x="1797.47" y="1325.65" width="27.37" height="35.45"/><rect class="cls-7" x="1696.11" y="1396.97" width="27.37" height="35.45"/><rect class="cls-7" x="1645.43" y="1468.29" width="27.37" height="35.45"/><rect class="cls-7" x="1746.78" y="1468.29" width="27.37" height="35.45"/><rect class="cls-7" x="1797.47" y="1468.29" width="27.37" height="35.45"/><rect class="cls-7" x="1645.43" y="1610.93" width="27.37" height="35.45"/><rect class="cls-7" x="1746.78" y="1610.93" width="27.37" height="35.45"/><rect class="cls-7" x="802.56" y="1446.91" width="49.26" height="63.81"/><rect class="cls-7" x="960.99" y="1119.43" width="151.08" height="16.43"/><rect class="cls-7" x="1435.37" y="1072.91" width="122.78" height="16.43"/><rect class="cls-7" x="1435.37" y="1108.36" width="122.78" height="16.43"/><rect class="cls-7" x="1435.37" y="1214.7" width="122.78" height="16.43"/><rect class="cls-7" x="1927.35" y="1183.01" width="122.78" height="16.43"/><rect class="cls-7" x="1927.35" y="1218.45" width="122.78" height="16.42"/><rect class="cls-7" x="1927.35" y="1289.34" width="122.78" height="16.43"/><rect class="cls-7" x="1927.35" y="1395.69" width="122.78" height="16.43"/><rect class="cls-7" x="1927.35" y="1466.59" width="122.78" height="16.43"/><rect class="cls-7" x="1927.35" y="1537.48" width="122.78" height="16.42"/><rect class="cls-7" x="1927.35" y="1608.38" width="122.78" height="16.43"/><rect class="cls-7" x="1435.37" y="1321.04" width="122.78" height="16.43"/><rect class="cls-7" x="1435.37" y="1391.94" width="122.78" height="16.43"/><rect class="cls-7" x="960.99" y="1166.59" width="151.08" height="16.43"/><rect class="cls-7" x="960.99" y="1213.74" width="151.08" height="16.43"/><rect class="cls-7" x="960.99" y="1308.06" width="151.08" height="16.43"/><rect class="cls-7" x="960.99" y="1402.36" width="151.08" height="16.43"/><rect class="cls-7" x="960.99" y="1449.53" width="151.08" height="16.43"/><rect class="cls-7" x="960.99" y="1543.83" width="151.08" height="16.43"/><rect class="cls-7" x="960.99" y="1638.16" width="151.08" height="16.43"/></g><rect class="cls-5" x="1435.37" y="1002.02" width="122.78" height="16.43"/><path class="cls-8" d="M680.46,1877s-53.81-310.48-75.56-342.54c-30.07-44.31-67.46,91.66-69.28,79.71C518.39,1501.33,522,1359,441.46,1337.41c-45.79-12.26,3,106.31-2.66,136.86S357,1395.75,310,1338s-75.63-25.87-48.44,44.14c26.3,67.7,121.55,147,100.22,153.81s-140.88-87.52-158.89-52.76c-22.1,42.61,162.08,117.83,143.6,126.32s-106.22-31.41-106.22,2.54,121.24,42.42,118.09,57.1c-5.11,23.77-81.27-37.08-87.21-4.1-6.09,33.72,103.38,36.28,99.56,62.66-2.2,15.16-29.77-.71-34.76,20.13C324.62,1795.41,497.11,1862,497.11,1862Z"/><path class="cls-9" d="M766.3,1885.06c-21.89-28.48-151.2-187.78-229.47-213.2-86.41-28.07-5,83.4-5,83.4s-153.28-168.17-209.52-153c-51.56,13.9,0,118.14,0,118.14s-58.07-57.72-128.49-57.72c-68.54,0,49.77,211.43,56.05,222.39Z"/><path class="cls-10" d="M230.55,1771.92c-.41,2.63-3.15,10.27-1.46,17.82,1,7.45,6.42,14.8,6.46,14.43.46,0-8.45-2.42-14.48-10.08-6.44-7-10-19.32-8.58-24.63,1.52-11.19,10.79-16.63,14.62-13.36S231.14,1766.1,230.55,1771.92Z"/><path class="cls-10" d="M286.89,1792.16c-.42,2.63-3.15,10.27-1.47,17.82,1,7.45,6.42,14.8,6.46,14.43.47,0-8.45-2.42-14.47-10.08-6.45-7-10-19.33-8.59-24.63,1.52-11.19,10.79-16.63,14.62-13.36S287.48,1786.34,286.89,1792.16Z"/><path class="cls-10" d="M344.13,1817.76c-.42,2.63-3.15,10.27-1.47,17.82,1,7.45,6.42,14.8,6.46,14.43.47,0-8.45-2.42-14.47-10.08-6.45-7-10-19.33-8.59-24.63,1.52-11.19,10.79-16.63,14.62-13.36S344.72,1811.94,344.13,1817.76Z"/><path class="cls-10" d="M213.74,1824.73c1.15-2.17,3.39-9.34,8.83-14,4.88-4.93,13-7.32,12.79-7,.33.27-7.57-3-16.27-.68-8.67,1.57-18.13,8.64-20,13.35-5.11,9.09-1.3,18.29,3.34,18S210.93,1829.35,213.74,1824.73Z"/><path class="cls-10" d="M272.33,1845.54c1.16-2.17,3.4-9.33,8.84-14,4.88-4.93,13-7.32,12.78-7,.33.27-7.57-3-16.27-.68-8.66,1.57-18.13,8.64-20,13.35-5.1,9.09-1.29,18.29,3.34,18S269.53,1850.16,272.33,1845.54Z"/><path class="cls-10" d="M175.87,1775.67c.23,1.56,0,6.37,2.34,10.34a18.89,18.89,0,0,0,6.21,7,20.27,20.27,0,0,1-10-3.11c-4.9-2.83-9.1-9.15-9.23-12.41-1.13-6.6,3.15-11.33,5.9-10.17S175.17,1772.27,175.87,1775.67Z"/><path class="cls-10" d="M166.7,1802.09c1-1.21,3.36-5.41,7.38-7.59a18.8,18.8,0,0,1,9-2.71,20.29,20.29,0,0,0-10.13-2.58c-5.65-.16-12.52,3-14.34,5.72-4.4,5-3.22,11.32-.27,11.77S164.33,1804.62,166.7,1802.09Z"/><path class="cls-10" d="M296.85,1553.32c62.62,98.14,109,215.89,135.15,331.7h6.75c-26-113.39-74.57-232.1-137.09-330.13-14.53-22.78-30.22-49.81-57.43-58.7-.52-.17-.72.63-.22.82C268.86,1506.41,283.25,1532,296.85,1553.32Z"/><path class="cls-10" d="M419.31,1885c-70-95.48-158.16-188.41-259.32-265.15-1-.77-2.37,1-1.35,1.78,95.94,74,182.48,164.63,253.91,263.37Z"/><path class="cls-10" d="M291.12,1492.46c-1.61,2.38-7.78,8.59-9.59,16.74-2.44,7.73-.52,17.41-.31,17.07.47.19-7.14-6.26-9.52-16.52-3.07-9.85-.92-23.5,2.91-28,6.61-10.23,18.15-11.26,20.39-6.31S294.37,1487.05,291.12,1492.46Z"/><path class="cls-10" d="M276.14,1580.06c2.34-1.66,8.4-8,16.49-10,7.65-2.59,17.34-.85,17-.64.2.46-6.37-7-16.65-9.22-9.87-2.89-23.43-.46-27.86,3.46-10.06,6.83-10.86,18.44-5.88,20.59S270.81,1583.42,276.14,1580.06Z"/><path class="cls-10" d="M298.75,1618.45c2.34-1.66,8.4-8,16.49-10,7.65-2.6,17.34-.86,17-.65.2.47-6.38-7-16.65-9.22-9.87-2.89-23.43-.46-27.86,3.47-10.06,6.83-10.86,18.43-5.88,20.58S293.42,1621.81,298.75,1618.45Z"/><path class="cls-10" d="M218.11,1707.5c2.33-1.66,8.4-8,16.48-10,7.66-2.6,17.34-.86,17-.65.2.47-6.38-7-16.65-9.22-9.87-2.89-23.43-.46-27.87,3.47-10.05,6.83-10.86,18.43-5.87,20.58S212.78,1710.86,218.11,1707.5Z"/><path class="cls-10" d="M176.91,1671.08c2.33-1.66,8.39-8,16.48-9.95,7.66-2.6,17.34-.86,17-.65.2.46-6.38-7-16.65-9.22-9.87-2.89-23.43-.46-27.87,3.47-10.06,6.83-10.86,18.43-5.87,20.58S171.58,1674.44,176.91,1671.08Z"/><path class="cls-10" d="M322.76,1535.9c-2,2.1-9,7.25-12.11,15-3.62,7.25-3.24,17.12-3,16.81.43.27-6.07-7.31-6.8-17.82-1.5-10.2,2.78-23.35,7.27-27.21,8.13-9,19.69-8.25,21.13-3S326.81,1531.07,322.76,1535.9Z"/><path class="cls-10" d="M356,1579.44c-2.79,1.49-12.57,4.19-17.49,11.53-5.56,6.53-6.27,17.7-5.9,17.48.53.48-7-10.78-6.64-22.82-.69-12,6.43-24.86,12.71-27.24,11.62-6.59,26.49-.71,27.71,5.77C367.8,1570.69,361.83,1575.8,356,1579.44Z"/><path class="cls-10" d="M391,1645.39c-3,1-13.09,2-19.17,8.41-6.58,5.5-9.15,16.4-8.74,16.23.43.56-5.07-11.79-2.73-23.61,1.34-12,10.51-23.43,17.09-24.71,12.57-4.54,26.24,3.77,26.36,10.37C404.09,1638.75,397.35,1642.78,391,1645.39Z"/><path class="cls-10" d="M287.45,1691.33c-2.19,1.37-10,4.12-13.57,10.37-4.16,5.63-4.1,14.76-3.81,14.56.45.36-6.28-8.37-6.7-18.19-1.24-9.75,3.82-20.59,8.79-22.88,9.09-6,21.52-2.09,22.88,3.11S292,1688,287.45,1691.33Z"/><path class="cls-10" d="M233.55,1507.9c1.31-1.09,4.62-5.09,9.31-6.61a20.39,20.39,0,0,1,10-1.13c.14.27-4.08-3.88-10.26-4.72-6-1.28-13.88.75-16.33,3.27-5.65,4.48-5.62,11.38-2.58,12.44S230.54,1510.12,233.55,1507.9Z"/><path class="cls-10" d="M246.1,1479.88c-.06,1.7-1.19,6.78.47,11.44a20.53,20.53,0,0,0,5.23,8.66,22,22,0,0,1-10-5.26c-4.65-4-7.88-11.49-7.39-15,.09-7.23,5.55-11.42,8.24-9.64S246,1476.13,246.1,1479.88Z"/><path class="cls-10" d="M147.23,1634c1.32-1.08,4.62-5.08,9.32-6.61a20.36,20.36,0,0,1,10-1.13c.14.27-4.08-3.88-10.25-4.72-6-1.28-13.88.75-16.33,3.27-5.65,4.48-5.62,11.38-2.58,12.44S144.23,1636.2,147.23,1634Z"/><path class="cls-10" d="M162.38,1605.72c-.2,1.69-1.74,6.66-.47,11.44a20.52,20.52,0,0,0,4.51,9.06,21.9,21.9,0,0,1-9.52-6.06c-4.31-4.33-6.92-12.1-6.14-15.54.68-7.19,6.46-10.92,9-8.93S162.6,1602,162.38,1605.72Z"/><path class="cls-10" d="M173,1791.29a324.79,324.79,0,0,1,53.41,9.56c32,8.4,62.72,20.81,93,34,14.87,6.48,29.84,12.88,44.44,20,6.82,3.32,13.68,6.66,20,10.92,8.47,5.74,21.7,17.24,23.3,19.06l-6.95.2c-4.75-3.86-22.18-18.58-46.37-30.24-57.33-27.61-116.88-55.94-180.83-63A.26.26,0,0,1,173,1791.29Z"/><path class="cls-11" d="M1018.09,568.83h0l-.16-.05c-1.54-.56-3.11-1-4.69-1.51-.54-.15-1.08-.32-1.62-.46l-1.73-.43-1.77-.41-1.68-.33c-.64-.12-1.27-.24-1.9-.34s-1.08-.18-1.63-.25l-2.07-.27-1.51-.17c-.79-.07-1.59-.13-2.39-.18l-1.26-.08c-1.22-.06-2.46-.1-3.7-.1H423c-1.33,0-2.64,0-3.95.11a75.68,75.68,0,0,0-7.74.78c-1.27.2-2.53.42-3.78.68a76.94,76.94,0,0,0-60.86,67.55,78.69,78.69,0,0,0-.4,7.87V1808.07a77,77,0,0,0,50.62,72.41h0l.39.13c1.47.52,3,1,4.46,1.43.54.15,1.08.32,1.62.46l1.73.43,1.77.41,1.68.33c.64.12,1.27.24,1.9.34s1.09.18,1.63.25l2.07.27,1.51.17c.79.07,1.59.13,2.39.18l1.26.08c1.22.06,2.46.1,3.7.1H992a78.28,78.28,0,0,0,7.85-.4,76.88,76.88,0,0,0,68.48-68.72,78.69,78.69,0,0,0,.4-7.87V641.24A77,77,0,0,0,1018.09,568.83Z"/><rect class="cls-9" x="383.46" y="669.18" width="650.26" height="1110.95"/><path class="cls-2" d="M1033.72,1137.16,846,1121.76l-5.35-110-46.12-1.91v-75l239.15,102.58v-21.05l-79.33-34-15-313.22H920l14.61,304.73-140-60.06v-2.14h-5L757.72,898l-.15-228.86H738.23l.14,220.56-194-83.22V669.18H505.67V789.92L383.46,737.51v21L505.67,811V933.35L383.46,876.3v21.35L505.67,954.7V1027L395.33,1167l-11.87.24v19.34l97.13-1.92V1316.4L582,1372.74l-106.4,46.77-92.15-65.75v23.76l87,62.1.08-.1-21,340.61h38.77l13-211.64,163.49,59.76-18.71,151.88h19.49l17.87-145.06,159.57,58.33-27.93,86.73h20.32L861.27,1700l172.45,63v-20.6l-166.51-60.87,47.14-146.38L854,1501.71c21-25.38,66.24-80.28,111.42-135.45,28.77-35.14,51-62.48,68.29-83.8v-30.81c-21.39,26.58-49,60.51-78.68,96.77l-101.12-64.63L847,1141.25l186.73,15.32Zm-230-88.21,10.64,218.76L697.88,1166.49V1044.56ZM544.35,827.57l230.88,99v82.45l-230.88-9.58Zm-124,338.95,101.81-129.25,156.37,6.49v117.66ZM499.94,1305V1184.29l184.73-3.65L797,1278.22,604.25,1363Zm391.12,239.41L849,1675l-346.4-126.62,6.23-101.18,115.63-50.84Zm51.64-180.93c-35.49,43.33-73.05,88.94-105.88,128.67l-190.1-105.61,196.74-86.49Z"/><polygon class="cls-12" points="853.07 1693.71 473.62 1558.11 480.26 1434.51 813.1 1287.39 681.45 1174.55 681.45 1031.92 518.1 1027.01 518.1 897.04 531.92 897.04 531.92 1013.6 695.27 1018.51 695.27 1168.19 838.73 1291.16 493.61 1443.72 487.97 1548.56 857.72 1680.7 853.07 1693.71"/><path class="cls-13" d="M489.27,851l35.41,70.28,37.16-69.36c11-25.45-6.66-54.47-34.35-55.63l-1.24,0H525C497.3,796.67,478.91,825.24,489.27,851Zm18.11-14.58A18.36,18.36,0,1,1,525.51,855,18.37,18.37,0,0,1,507.38,836.37Z"/><path class="cls-13" d="M818.68,1623.44l35.4,70.27,37.17-69.36c11-25.44-6.66-54.47-34.36-55.62l-1.23,0h-1.24C826.71,1569.15,808.32,1597.72,818.68,1623.44Zm18.11-14.59a18.36,18.36,0,1,1,18.13,18.59A18.37,18.37,0,0,1,836.79,1608.85Z"/><rect class="cls-12" x="569.36" y="620.35" width="277.31" height="13.92" rx="0.87"/><path class="cls-12" d="M738.94,1833.65a31.83,31.83,0,1,1-31.83-31.93A31.88,31.88,0,0,1,738.94,1833.65Z"/><rect class="cls-14" x="383.46" y="1733.52" width="648.06" height="46.61"/><rect class="cls-14" x="383.46" y="669.18" width="650.26" height="58.96"/><path class="cls-15" d="M895.66,1727.9s307.07,51,310.76,48.75,43.44-173.79,43.44-173.79-253.93-45.66-258-45.66-59.34,44.18-60.08,47.13S895.66,1727.9,895.66,1727.9Z"/><path class="cls-15" d="M1832.35,1771.49c7.36.74,379.24-7.23,379.24-7.23l-28-85.55s-51.55-78-78.8-76.54-189.28-24.85-217.25-5.45-53,3.93-66.26,50.32-23.59,51.59-13.27,79.55S1832.35,1771.49,1832.35,1771.49Z"/><ellipse class="cls-16" cx="1050.72" cy="1758.44" rx="126.62" ry="126.57" transform="translate(-709.99 2805.36) rotate(-89.88)"/><ellipse class="cls-17" cx="1050.72" cy="1758.44" rx="88.07" ry="88.1"/><ellipse class="cls-18" cx="1050.72" cy="1758.44" rx="58.9" ry="58.92"/><ellipse class="cls-16" cx="2025.24" cy="1758.44" rx="126.62" ry="126.57" transform="translate(262.43 3779.87) rotate(-89.88)"/><ellipse class="cls-17" cx="2025.24" cy="1758.44" rx="88.07" ry="88.1"/><ellipse class="cls-18" cx="2025.24" cy="1758.44" rx="58.9" ry="58.92"/><path class="cls-19" d="M2315.83,1637.94c-10.7-70.56-45.29-85.38-147.62-105.85-112.91-22.58-256.26-96.22-256.26-96.22s-244.49-119.79-304.38-133.53-207.17-9.82-330.88-8.84-196.38,35.35-259.21,84.44-171.83,86.4-171.83,86.4l-19.8,3.54a42.68,42.68,0,0,0-35.18,42V1685a43.67,43.67,0,0,0,32.52,42.23l71.55,18.9h0a10.22,10.22,0,0,0,11.89-9c7.84-71.64,69.76-126.08,143.61-126,78.52.09,142.91,64.61,142.86,143.14a143.22,143.22,0,0,1-2.4,26.12,14.22,14.22,0,0,0,14,16.8h658.52a21.18,21.18,0,0,0,21-23.93,143.28,143.28,0,0,1-1.27-18.65c-.23-77.55,62.49-141.85,140-143.45a143,143,0,0,1,146.06,143,145,145,0,0,1-.85,15.68,24.56,24.56,0,0,0,24.35,27.34h94.69a31.18,31.18,0,0,0,31.18-31.17V1674.3A241.69,241.69,0,0,0,2315.83,1637.94Z"/><path class="cls-20" d="M794.84,1530.62h78a9.34,9.34,0,0,1,8.62,13l-8.76,20.91a53.61,53.61,0,0,1-49.45,32.89h-28.4a10.05,10.05,0,0,1-10.06-10.06v-46.64A10.05,10.05,0,0,1,794.84,1530.62Z"/><path class="cls-21" d="M2191.78,1563c42.95,6.57,92.41,47.25,92.41,47.25,11.82,12.7,2.06,33.33-15.26,32.24l-83.75-5.3a41.3,41.3,0,0,1-37.08-29.73h0C2140,1579.36,2146.89,1556.15,2191.78,1563Z"/><path class="cls-22" d="M791.12,1691.52a7.52,7.52,0,0,0-7.19,10.26,48.91,48.91,0,0,0,33,29.27l80.18,21.18a11.47,11.47,0,0,0,13.32-10.11,153.9,153.9,0,0,1,9.46-38.85,6.45,6.45,0,0,0-5.88-8.75Z"/><path class="cls-22" d="M2169.74,1724.52a9.9,9.9,0,0,0-10,11.24,161.27,161.27,0,0,1,.37,37.9,27.25,27.25,0,0,0,27,30.34h105.07a34.59,34.59,0,0,0,34.59-34.59v-27.19a14.2,14.2,0,0,0-13.86-14.2Z"/><path class="cls-23" d="M1912.13,1476.41c-1.4-.77-140.6-77.13-232.91-119.89-91.39-42.33-193.41-37.84-197.81-37.62-11.72-.27-255.8-5.56-330.84,17.83-75.59,23.56-174,130.89-178.2,135.44l-1.15,1.26,26.48,124.23,2.84-.16c77-4.35,135.93,16.15,170.43,59.26,26.07,32.58,29.29,67,29.32,67.34l.25,3,277.6,7.13v0l3.21.07,3.42.08v0l386.8,7.55,0-3.33c1.94-125.7,41.68-257,42.08-258.27l.79-2.58Zm-705.59,244.17c-1.34-9.32-7.19-38.82-30.18-67.69-24.77-31.11-74.92-67-173.36-62.16l-24.58-115.34c11.4-12.24,104.53-110.64,174.12-132.34s295.78-18.15,325.6-17.59v402.1Zm658.52,14.55-380.29-7.42v-402.3c17.89-.52,109.24-1.05,191.67,37.13,85.51,39.6,211.46,108.18,230.15,118.4C1901.05,1499.89,1867.44,1619.3,1865.06,1735.13Z"/><path class="cls-23" d="M783.93,1701.78a48.91,48.91,0,0,0,33,29.27l80.18,21.18a11.47,11.47,0,0,0,13.32-10.11,154.16,154.16,0,0,1,2.49-15.46Z"/><path class="cls-23" d="M2160.86,1763.71c-.16,3.34-.4,6.66-.76,10a27.25,27.25,0,0,0,27,30.34h105.07a34.59,34.59,0,0,0,34.59-34.59v-5.7Z"/><path class="cls-22" d="M1889.19,1763.71a143.35,143.35,0,0,1,1.5-21.14,13.92,13.92,0,0,0-13.37-16l-684.92-16.71a11,11,0,0,0-10.82,14.13,145.45,145.45,0,0,1,3,65.83,14.52,14.52,0,0,0,14.21,17.25h670.25a21.68,21.68,0,0,0,21.38-24.67A145.5,145.5,0,0,1,1889.19,1763.71Z"/><path class="cls-23" d="M1889.19,1763.71c0-.12,0-.23,0-.35H1187a144.87,144.87,0,0,1-2.42,26.44,14.52,14.52,0,0,0,14.21,17.25h670.25a21.68,21.68,0,0,0,21.38-24.67A145.5,145.5,0,0,1,1889.19,1763.71Z"/><rect class="cls-22" x="1037.05" y="1511.26" width="92.79" height="14.97" rx="4.52"/><rect class="cls-22" x="1508.16" y="1518.75" width="92.79" height="14.97" rx="4.52"/><path class="cls-15" d="M1053.39,1488.15l378.52,3.58s23.17-.62,26.32-22.42,2.89-115.18,2.89-115.18-2.75-18.74-20.71-19c-10.91-.15-102.36-6.69-191.31,4.15a325.58,325.58,0,0,0-190.57,92.88l-26.87,26.88S1013.54,1487.78,1053.39,1488.15Z"/><path class="cls-15" d="M1503.25,1366v97.9c0,12.72,9.76,23.16,22.1,23.66l297.43,12a20,20,0,0,0,17.43-8.58c5.34-7.87,6-20.81-20.69-38.17-46.35-30.18-164.27-95.45-207.89-101.77-27.77-4-64.1-5.77-86.84-6.51C1513,1344.09,1503.25,1353.83,1503.25,1366Z"/><path class="cls-15" d="M2123.91,1380.55l-1.95,1.76a2.4,2.4,0,0,1-3.38-.09L2083.94,1344a2.37,2.37,0,0,1,.26-3.35l2-1.75a2.39,2.39,0,0,1,3.38.08l34.64,38.21A2.37,2.37,0,0,1,2123.91,1380.55Z"/><path class="cls-24" d="M2241.36,1349.51c-4.63-3.78-40.44,12-40,17.48s-25,58.69-25,58.69l-44-35.17h0c-.39-1.28-4.56-15-4.76-17.4s-7.64-7.06-11.1-6.4,3,5,3.38,5.8c1.14,2.17-3.28,3-3.28,3s-12.71-7-13-11.11-2.89-12.74-5.63-10.94c-1.42.93-1.41,7-1,10-.82-3.29-2-7-3.1-7.38-2.06-.67-3.08,2-2.7,3.24s3.69,15.27,4.7,16.85,21.5,18.12,24.45,21.72c0,0,56.87,65.23,60.92,66.94,3.55,1.49,16.22-21,28.18-35.91S2255.83,1361.31,2241.36,1349.51Z"/><path class="cls-25" d="M2356.1,1829.14s7.81,7.65,8,10.46.69,32.88-2.5,35.69-12.56,4.8-9.54,8c2.27,2.39,19.79,1.88,31.4,1.24,3.39-.19,7.64-27.32,9-31.31,2-5.79,6.69-18.83,4.92-22.87-.87-2-5-6-10.82-9.78-6.12-4-12-12.81-12-12.81Z"/><path class="cls-24" d="M2275.15,1847s7,19.83,7,19.88c.52,3.14,2.57,10.9,2.57,13.75,0,10.73-48.2-9.1-37.4-13.86,1-.43,4-3.86,4.37-7.51.49-5.63-4.06-12.68-4.06-12.68Z"/><path class="cls-26" d="M2199.53,1477.85s-3.51,35.53-3.51,36.06c0,57.48-11.36,169.76-9.2,180.57,5.27,26.36,62,160.83,62,160.83l30.65-3.68-39.94-161,14.7-64.8,20.8-128.1Z"/><path class="cls-27" d="M2302.39,1509.28l5.81,33.67,15.74,138.62L2383.85,1817s-8.42,19.71-20.86,22.48l-95.36-139.09-59.24-178,2.08-39.54Z"/><path class="cls-28" d="M2187.31,1393.24l42.5,4.35s2-35,2-51.63c0-20.23-1.72-46.29-4.16-45.73-6.83,1.57-16,5.36-21.51,12.91C2187.13,1339.28,2187.31,1393.24,2187.31,1393.24Z"/><path class="cls-13" d="M2208.19,1342.39c-.89,6.17-17.23,173.86-17.23,173.86,77.38,37.5,120.08,6.68,120.08,6.68s-2.54-117.76.5-133.78c2-10.61,4.51-81.07-2.34-83-8.79-2.54-18.86-5.23-29.85-6.37-9.37-1-45.79-1.54-52.31.65C2227,1300.39,2211.93,1316.45,2208.19,1342.39Z"/><path class="cls-22" d="M2386.15,1820.34s-18,50.88-25.06,53.33c-1.87.66-10.85,2.31-12.55,6.3-.51,1.2,0,5.21,0,5.21h37.54s4.75-22.42,6.63-32.27c0,0,9.93-24.07,8.83-26.26S2386.15,1820.34,2386.15,1820.34Z"/><path class="cls-22" d="M2287.46,1884.12l-5.52-17.5s-11.59,4.92-17.39,4.1-17.11-4.1-17.11-4.1c-23.14,7.64-42.09,11.35-38.64,17.5h78.66Z"/><path class="cls-24" d="M2181.35,1464.78a10.06,10.06,0,0,1-1.17-.87c1.37-16.43,1.13-32.35-4-37.73.12-.26,1.24-2.66,2.42-5.14,5.95,4.62,8.78,16.9,7.67,36.83a34,34,0,0,1-.78,4.13C2183.75,1463.9,2182.18,1465.13,2181.35,1464.78Z"/><path class="cls-29" d="M2387.67,1518a4.33,4.33,0,0,0,0-1.08c-1.14-11.61-10.75-109.12-12.37-113.27-1.46-3.74-44.56-65.59-44.56-65.59l-21.18,29,41.45,55.47c.93,3.53,15.88,69.35,15.88,69.35s3.07,12,4.44,19.19c-.62,1.73-1.24,3.37-1.78,4.71a43.79,43.79,0,0,1-4.47,7.2c-1.85,2.49-4.92,7.94-5.29,9.39-.44,1.7-1.23,5.22-1.68,7.34s-1.06,4.6-1.17,5.75a11.19,11.19,0,0,1-1.33,3.09,1.85,1.85,0,0,0,2.18,2.68c1.5-.5,2.68-2.46,3.4-3.68,2-3.44,3.13-9.72,3.63-9.39s2.3,11,2.58,12.2,2.43,13.58,3.64,15.84,2.81,1.88,3.23.46c.37-1.22-1.33-18.53-1.33-18.53s-.22-2.21.75-1.52,2.54,16.41,3.21,18.71,2.2,3.52,3.49,1.67c1.58-2.25-1.13-18.92-1.13-18.92s-.31-2.1.59-1.9,2,13.59,2.7,14.75,2.45,1.57,3.28-.36c1-2.27-1.56-17.14-1.56-17.14s.12-1.18.68-.79,2.32,11.75,3.47,12.8a1.23,1.23,0,0,0,1.78,0c2.11-1.45-1.13-12.25-1.1-17.62s-2.45-11.4-1.71-17.79C2387.46,1519.63,2387.59,1518.64,2387.67,1518Z"/><path class="cls-28" d="M2364.44,1377.25l-36.82,24.8s-20.75-31-31.89-42c-13.95-13.82,5.09-56.14,14.08-53.75C2329.91,1311.65,2364.44,1377.25,2364.44,1377.25Z"/><path class="cls-24" d="M2276.65,1263.49l5.5,36.41s-20.11,43.36-32.11,39.6c-10.07-3.15-3.88-41.52-3.88-41.52s5.49-20.6,3.85-30.91S2276.65,1263.49,2276.65,1263.49Z"/><path class="cls-30" d="M2250,1267.07c-1.65-10.31,26.64-3.58,26.64-3.58l.45,3a16.69,16.69,0,0,1-3.06,5.07,37.22,37.22,0,0,1-24.74,11.23C2250.16,1277.25,2250.68,1271.29,2250,1267.07Z"/><path class="cls-24" d="M2281.29,1212c.8-.3,6.41,41.47-4.24,53s-31.38,15.26-38.82,6.21c-8.22-10-7.81-54.91,8.74-66.73S2281.29,1212,2281.29,1212Z"/><path class="cls-31" d="M2253.27,1182.07a46,46,0,0,1,24.12,13.8c5.8.69,13.7,3.91,21.85,17.45,10,16.65,2.62,35.1-9,44.16s-11.5,19.5-11.5,19.5l-1.85-5.41a30.4,30.4,0,0,1-1.46-12.73,25.25,25.25,0,0,1,1.89-7.66c2.81-6-6-10.06-8.51-15.09-1.9-3.88-2-12.73-5-19.14l-3.59-4.88s-8.28-6.47-16.38-4.64S2236.86,1178.71,2253.27,1182.07Z"/><path class="cls-24" d="M2269.31,1243.52c-.09,5.1,2.22,9.27,5.16,9.32s5.37-4,5.46-9.14-2.23-9.27-5.16-9.32S2269.39,1238.42,2269.31,1243.52Z"/><path class="cls-2" d="M2252,1255.29l-16-.83s.06,6.14,7.1,6.71C2251.67,1261.86,2252,1255.29,2252,1255.29Z"/><path class="cls-32" d="M2468.54,1887.78v.72a2.59,2.59,0,0,1-2.57,2.61H134.7a2.59,2.59,0,0,1-2.57-2.61v-.72a2.58,2.58,0,0,1,2.57-2.6H2466A2.58,2.58,0,0,1,2468.54,1887.78Z"/><path class="cls-13" d="M1435.37,503.45c-110.42,0-199.93,89.51-199.93,199.93s199.93,355.9,199.93,355.9,199.93-245.49,199.93-355.9S1545.79,503.45,1435.37,503.45Zm0,291.35a93.46,93.46,0,1,1,93.45-93.46A93.46,93.46,0,0,1,1435.37,794.8Z"/></g></g></g></svg>